<svg xmlns="http://www.w3.org/2000/svg" viewBox="0 0 883.76 86.39"><title>AN-nameplate-181113-01</title><g id="Layer_2" data-name="Layer 2"><g id="Layer_1-2" data-name="Layer 1"><path d="M67.39,17c-5.57,0-9.41,2.69-11.14,7.68h-.57V0H0V2.88H17.57V69.59H31V2.88H43.2V69.59H55.68V37.92c0-11.23,2.3-13.83,5.76-13.83s5.76,2.6,5.76,13.83V69.59H79.68V33.89C79.68,22.75,75.55,17,67.39,17Z"/><path d="M85.15,47.52V39.84C85.15,24.67,91,17,104,17c12.77,0,18.44,7.58,18.44,25V43.1H98v2.5c0,16.8,1.35,22.07,6.24,22.07,3.75,0,5.47-3.45,5.47-13.53V52.8H122.4v.76c0,10.75-6.92,17-18.24,17Q85.16,70.55,85.15,47.52ZM98,40.22h11.71V37c0-12.48-1.44-17.09-5.66-17.09-4.42,0-6,4.61-6,17.09Z"/><path d="M163.67,49.63H147.16l-4.51,20h-3.16L155.71,0h10l16.22,69.59H168.09Zm-15.83-2.88H163l-7.29-32.64h-.58Z"/><path d="M187,18h12.29V30.14h.58C201.5,22,205.53,17,211,17h1.35V29.28H208c-6.91,0-8.55,2.3-8.55,12.19V69.59H187Z"/><path d="M233.27,67.67c3.84,0,5.28-3.45,5.28-13.53V52.8H251v.76c0,10.75-6.43,17-17.76,17-12.48,0-18.52-7.48-18.52-23.32V40.32c0-15.84,6-23.33,18.52-23.33C244.6,17,251,23.23,251,34v.58H238.55V33.41c0-10.08-1.44-13.54-5.28-13.54-4.32,0-5.66,4.32-5.66,22.08V45.6C227.61,63.35,229,67.67,233.27,67.67Z"/><path d="M274,24.09c-3.46,0-5.76,2.6-5.76,13.83V69.59H255.74V0h12.48V24.67h.57c1.73-5,5.57-7.68,11.14-7.68,8.16,0,12.29,5.76,12.29,16.9v35.7H279.74V37.92C279.74,26.69,277.43,24.09,274,24.09Z"/><path d="M300.57,0h12.48V11.33H300.57Zm0,18h12.48V69.59H300.57Z"/><path d="M322.55,57.6V20.83h-6.14V18h6.14v-14H335V18h8.16v2.88H335V60.48c0,5.27,1.25,6.23,5,6.23h3.17v2.88H331.67C324.57,69.59,322.55,66.43,322.55,57.6Z"/><path d="M343.77,47.52V39.84c0-15.17,5.85-22.85,18.81-22.85C375.35,17,381,24.57,381,42V43.1H356.63v2.5c0,16.8,1.35,22.07,6.24,22.07,3.74,0,5.47-3.45,5.47-13.53V52.8H381v.76c0,10.75-6.91,17-18.24,17Q343.77,70.55,343.77,47.52Zm12.86-7.3h11.71V37c0-12.48-1.44-17.09-5.66-17.09-4.42,0-6.05,4.61-6.05,17.09Z"/><path d="M403.86,67.67c3.84,0,5.28-3.45,5.28-13.53V52.8h12.48v.76c0,10.75-6.43,17-17.76,17-12.48,0-18.53-7.48-18.53-23.32V40.32c0-15.84,6.05-23.33,18.53-23.33,11.33,0,17.76,6.24,17.76,17v.58H409.14V33.41c0-10.08-1.44-13.54-5.28-13.54-4.32,0-5.66,4.32-5.66,22.08V45.6C398.2,63.35,399.54,67.67,403.86,67.67Z"/><path d="M428.05,57.6V20.83h-6.14V18h6.14v-14h12.48V18h8.16v2.88h-8.16V60.48c0,5.27,1.25,6.23,5,6.23h3.16v2.88H437.17C430.07,69.59,428.05,66.43,428.05,57.6Z"/><path d="M452.44,34.56V0h2.49V34.56Z"/><path d="M470.2,46.27c-7.78-5.19-10.95-10.37-10.95-16.22,0-8.16,6.24-13.06,16.61-13.06,11.52,0,17.86,6.14,17.86,17v.58h-12.1v-5c0-6.24-2.11-9.7-6.05-9.7-3.26,0-5.47,2.4-5.47,6.14,0,4.13,2.69,7.78,8.93,12.1,10.17,7,14.88,12.29,14.88,19.2,0,8.06-6.53,13.24-17.28,13.24-11.81,0-18.05-5.76-18.05-16.6V52.8h12.1v5.85c0,5.86,2.3,9,6.33,9,3.55,0,5.67-2.59,5.67-6.52C482.68,55.58,478.55,51.93,470.2,46.27Z"/><path d="M546.13,53.28h.58V0h2.88V69.59H539L518.1,16.32h-.57V69.59h-2.88V0h10.56Z"/><path d="M555.54,47.52V39.84c0-15.17,5.86-22.85,18.82-22.85,12.76,0,18.43,7.58,18.43,25V43.1H568.4v2.5c0,16.8,1.35,22.07,6.24,22.07,3.75,0,5.47-3.45,5.47-13.53V52.8h12.68v.76c0,10.75-6.92,17-18.24,17Q555.55,70.55,555.54,47.52Zm12.86-7.3h11.71V37c0-12.48-1.44-17.09-5.66-17.09-4.41,0-6.05,4.61-6.05,17.09Z"/><path d="M649.81,18,639.63,69.59H629.36l-7.1-34.65h-.58l-6.81,34.65H604.6L594.13,18H606.9l7.39,38.49h.58L622.35,18h9.12l7.59,38.49h.57L647.12,18Z"/><path d="M662.1,46.27c-7.78-5.19-10.94-10.37-10.94-16.22,0-8.16,6.23-13.06,16.6-13.06,11.52,0,17.86,6.14,17.86,17v.58h-12.1v-5c0-6.24-2.11-9.7-6-9.7-3.26,0-5.47,2.4-5.47,6.14,0,4.13,2.69,7.78,8.93,12.1,10.17,7,14.88,12.29,14.88,19.2,0,8.06-6.53,13.24-17.28,13.24-11.81,0-18-5.76-18-16.6V52.8h12.1v5.85c0,5.86,2.3,9,6.33,9,3.55,0,5.67-2.59,5.67-6.52C674.58,55.58,670.45,51.93,662.1,46.27Z"/><path d="M702.51,86.39H690.23V18h12.28v6.62h.58c2.21-5.18,6.14-7.58,11.33-7.58,8.63,0,13,6.43,13,19.87V50.68c0,13.44-4.42,19.87-13,19.87-5.19,0-9.12-2.4-11.33-7.58h-.58Zm-.19-47.7V48.86c0,11,1.73,15,6.43,15s6.43-3.93,6.43-15V38.69c0-11-1.72-15-6.43-15S702.32,27.65,702.32,38.69Z"/><path d="M731.5,56.25V54.81c0-23.42,24.77-8.93,24.77-27.16,0-5.28-2-7.78-5.28-7.78-3.45,0-5.47,2.78-5.47,9.12v5.57h-12V32.35c0-9.22,5.76-15.36,17.57-15.36,11.13,0,17.66,5.38,17.66,18.34V69.59H756.27V62h-.58c-2.4,5.57-6.23,8.54-11.71,8.54C736.5,70.55,731.5,65,731.5,56.25Zm24.77-5.57V36h-.58c-3.84,6.52-11.9,6-11.9,16.8v3.07c0,5.18,2.5,8,5.86,8C754,63.83,756.27,59.23,756.27,50.68Z"/><path d="M787.57,86.39H775.28V18h12.29v6.62h.57c2.21-5.18,6.15-7.58,11.33-7.58,8.64,0,13,6.43,13,19.87V50.68c0,13.44-4.42,19.87-13,19.87-5.18,0-9.12-2.4-11.33-7.58h-.57Zm-.19-47.7V48.86c0,11,1.72,15,6.43,15s6.43-3.93,6.43-15V38.69c0-11-1.73-15-6.43-15S787.38,27.65,787.38,38.69Z"/><path d="M816.85,47.52V39.84c0-15.17,5.85-22.85,18.81-22.85,12.77,0,18.43,7.58,18.43,25V43.1H829.71v2.5c0,16.8,1.34,22.07,6.24,22.07,3.74,0,5.47-3.45,5.47-13.53V52.8h12.67v.76c0,10.75-6.91,17-18.24,17Q816.84,70.55,816.85,47.52Zm12.86-7.3h11.71V37c0-12.48-1.44-17.09-5.66-17.09-4.42,0-6,4.61-6,17.09Z"/><path d="M858.41,18H870.7V30.14h.58C872.91,22,876.94,17,882.41,17h1.35V29.28h-4.32c-6.91,0-8.55,2.3-8.55,12.19V69.59H858.41Z"/></g></g></svg>