<svg xmlns="http://www.w3.org/2000/svg" viewBox="0 0 720 270.31"><title>07-angel-phone</title><g id="Layer_2" data-name="Layer 2"><g id="Layer_1-2" data-name="Layer 1"><path d="M393.07,176.87h-48.6a10.93,10.93,0,0,0-11.28,11.27v22.8c0,6.51,4.76,11,11.28,11h48.6c6.51,0,11.27-4.51,11.27-11v-22.8A10.92,10.92,0,0,0,393.07,176.87Zm7.51,34.07a7.17,7.17,0,0,1-7.51,7.26h-48.6a7.18,7.18,0,0,1-7.52-7.26v-22.8a7.38,7.38,0,0,1,7.52-7.51h48.6a7.37,7.37,0,0,1,7.51,7.51Z"/><path d="M405.59,161.09H331.94c-11.52,0-19.54,8-19.54,19.54V218.2c0,11.53,8,19.55,19.54,19.55h73.65c11.53,0,19.55-8,19.55-19.55V180.63C425.14,169.1,417.12,161.09,405.59,161.09Zm15.79,57.11c0,9.27-6.52,15.79-15.79,15.79H331.94c-9.27,0-15.78-6.52-15.78-15.79V180.63c0-9.27,6.51-15.79,15.78-15.79h73.65c9.27,0,15.79,6.52,15.79,15.79Z"/><path d="M339.21,83.42V70.65c0-26.06-23.3-34.83-43.34-34.83-15.79,0-33.57,5.52-42.34,19H253V32.32h-.5c-17,14.28-36.83,24.3-61.63,30.31l.25,1.25c21.29-4.51,24.3,0,24.3,9.27V84.43c0,13.52-1,24.8-11,24.8-9,0-16.29-7-25.31-17.29L135.53,42.09C115,18.54,112.23,14.53,112.23,0h-.5c-8.51,16-30.06,29.31-51.1,35.82l.5,1c13.53-3.26,21.79-2.76,29.56,4.76L48.85,87.18C33.07,104.47,20.54,109.73,0,109.73V111H77.66v-1.25c-28.31,0-36.07-8.27-23-22.55l7-7.76H126l3.51,3.75c15.28,16.54,9,26.56-16.28,26.56V111H271.57v-1.25c-16,0-18.54-8.77-18.54-26.31V71.15c0-17,11-26.06,24.3-26.06s24.3,9,24.3,26.06V83.42c0,17.54-2.51,26.31-18.54,26.31V111h77.66v-1.25C342,109.73,339.21,101,339.21,83.42ZM64.89,75.91,93.44,44.34l29.32,31.57Z"/><path d="M587.72,70.4a57.9,57.9,0,0,0-18.28,3l-.25-.25c22.29-12.52,35.57-19.54,56.36-30.06l-.5-1c-17.28,7.76-25.3-6.27-63.88-6.27-38.33,0-69.4,14-69.4,39.84,0,22.29,23.3,38.83,66.39,38.83,40.34,0,56.37-14,56.37-26.56C614.53,77.91,604.26,70.4,587.72,70.4Zm-24.8-31.32c11.28,0,17.79,6.26,17.79,12.78,0,8.77-12,17-46.1,35.07C522.09,64.63,540.38,39.08,562.92,39.08ZM575.2,106c-15.28,0-29.56-5.76-37.58-15,24.8-15.53,42.34-17.29,50.1-17.29,14.53,0,21.8,6.27,21.8,13.53C609.52,98,593.49,106,575.2,106Z"/><path d="M516.33,30.06c-27.06,4.51-60.63,5.76-83.43,5.76-53.86,0-72.9,9.77-72.9,23.3,0,11,13.28,19.79,31.06,20.8v.5c-17.53.75-29.56,6.51-29.56,15.28,0,7.77,9.27,12.27,22.3,15.28-16,13-30.31,19.79-50.36,29.81l.76,1.51c10.27-4.76,16.78-6.77,23-6.77,14.79,0,23.55,11,65.89,11,42.59,0,67.64-9.78,67.64-27.06,0-32.32-88.18-22.55-88.18-33.57,0-2.76,5.76-4,17.28-4,36.58,0,62.89-7.51,62.89-21.79,0-9-10.53-17.54-30.82-21.55l.25-.25c19,1.5,25.56,3,40.84,7.77,6.76-7.27,13.27-11.28,23.55-15.54ZM456,128.77c0,7-12.28,14.53-31.82,14.53-22.29,0-38.83-9.52-38.83-22.3a18.38,18.38,0,0,1,2.76-9.27C415.87,117,456,116.24,456,128.77ZM421.38,79.16c-13.78,0-21.3-7.76-21.3-20.29s7.52-20.29,21.3-20.29,21.29,7.77,21.29,20.29S435.16,79.16,421.38,79.16Z"/><path d="M695,111v-1.25c-17.54,0-20.29-8.77-20.29-26.31V1h-.51c-17,14.28-36.82,24.3-61.62,30.32l.25,1.25c21.29-4.51,24.3,0,24.3,9.27V83.42c0,17.54-2.76,26.31-20.3,26.31V111Z"/><path d="M348.73,128.52H25.05c-14.53,0-25,10.52-25,25v91.69c0,14.53,10.52,25.05,25.05,25.05H695c14.53,0,25-10.52,25-25.05V153.57c0-14.53-10.52-25-25-25H494l-2.76,3.76H695c12.27,0,21.29,9,21.29,21.29V245c0,12.28-9,21.55-21.29,21.55H25.05c-12.27,0-21.29-9.27-21.29-21.55V153.57c0-12.28,9-21.29,21.29-21.29H339.71Z"/><path d="M718.5,59.62c-2.26,4-7,6.77-12.53,6.77-8.52,0-15.78-6.77-15.78-15.28a15.56,15.56,0,0,1,15.53-15.29c8,0,14.28,6,14.28,13,0,5.26-3.76,8.77-9,8.77-6.76,0-6.26-5.51-10.52-5.51-2,0-3.76,1.25-3.76,4,0,4.26,4,9,10.27,9C711.23,65.14,716,63.13,718.5,59.62Z"/><path d="M126.26,161.09H41.34v76.66H65.89V180.63H122c5.27,0,8.77,3.5,8.77,8.76s-3.5,8.77-8.77,8.77H65.89L85.43,217.7h40.83c16.29,0,27.81-11.52,27.81-27.8C154.07,173.36,142.8,161.09,126.26,161.09Zm0,52.86H87.18l-12-12H122c7.52,0,12.53-5,12.53-12.53s-5-12.52-12.53-12.52H62.13V234h-17V164.84h81.17c14.28,0,24,10.78,24,25.06C150.31,203.92,140.29,214,126.26,214Z"/><path d="M262.8,161.09v28.3H199.92v-28.3H175.37v76.66h24.55V208.94H262.8v28.81h24.55V161.09ZM283.59,234h-17V205.18h-70.4V234h-17V164.84h17v28.31h70.4V164.84h17Z"/><path d="M538.37,161.09V215.2l-47.85-54.11H450.19v76.66h24.55V180.88l50.86,56.87h37.32V161.09ZM559.16,234H527.35L471,171.11V234H454V164.84h34.82l53.36,60.38V164.84h17Z"/><path d="M678.66,179.62V161.09H588v76.66h90.69V219.21H612.53V207.43h66.13v-16H612.53V179.62Zm-3.75,15.54v8.51H608.77V223h66.14v11H591.73V164.84h83.18v11H608.77v19.29Z"/></g></g></svg>