<svg xmlns="http://www.w3.org/2000/svg" viewBox="0 0 720 130.65"><title>01-angels</title><g id="Layer_2" data-name="Layer 2"><g id="Layer_1-2" data-name="Layer 1"><path d="M375.63,70.57c-12.28,0-19-6.92-19-18.09s6.7-18.09,19-18.09,19,6.93,19,18.09-6.7,18.09-19,18.09m30.82,44.22c0,6.25-10.94,12.95-28.36,12.95-19.88,0-34.62-8.48-34.62-19.87a16.4,16.4,0,0,1,2.46-8.27c24.79,4.69,60.52,4,60.52,15.19m53.82-88c-24.12,4-54,5.14-74.36,5.14-48,0-65,8.71-65,20.76,0,9.83,11.83,17.65,27.69,18.54v.45c-15.63.67-26.35,5.8-26.35,13.62,0,6.92,8.26,10.94,19.87,13.62-14.29,11.62-27,17.65-44.88,26.58l.67,1.34c9.15-4.24,15-6,20.54-6,13.18,0,21,9.83,58.74,9.83,38,0,60.29-8.71,60.29-24.12,0-28.81-78.61-20.1-78.61-29.93,0-2.46,5.14-3.57,15.41-3.57,32.61,0,56.06-6.7,56.06-19.43,0-8-9.38-15.63-27.47-19.21l.22-.22c16.94,1.37,22.7,2.58,36.4,6.92,6-6.47,11.84-10.05,21-13.84Z"/><path d="M512.75,94.47c-13.62,0-26.35-5.14-33.49-13.4,22.1-13.85,37.74-15.41,44.66-15.41,13,0,19.43,5.58,19.43,12.06,0,9.6-14.29,16.75-30.6,16.75M501.81,34.84c10.05,0,15.86,5.58,15.86,11.39,0,7.81-10.72,15.18-41.09,31.26-11.17-19.87,5.13-42.65,25.23-42.65m22.11,27.91a51.55,51.55,0,0,0-16.3,2.68l-.23-.22c19.88-11.17,31.72-17.42,50.25-26.8l-.44-.89c-15.41,6.92-22.56-5.58-57-5.58-34.17,0-61.86,12.5-61.86,35.5,0,19.88,20.77,34.62,59.18,34.62,35.95,0,50.25-12.51,50.25-23.67,0-8.94-9.16-15.64-23.9-15.64"/><path d="M57.84,67.67,83.3,39.53l26.13,28.14Zm244.54,6.7V63c0-23.23-20.77-31-38.63-31-14.07,0-29.93,4.91-37.75,17h-.44V28.81h-.45c-15.18,12.73-32.83,21.66-54.94,27L170.4,57c19-4,21.66,0,21.66,8.26V75.26c0,12.06-.89,22.11-9.83,22.11-8,0-14.51-6.25-22.55-15.41L120.82,37.52C102.51,16.53,100.05,13,100.05,0H99.6C92,14.26,72.86,26.18,54,31.94l.45.89c12.06-2.9,19.43-2.46,26.35,4.24L43.55,77.72C29.48,93.13,18.31,97.82,0,97.82v1.11H69.23V97.82c-25.24,0-32.16-7.37-20.55-20.1l6.26-6.93h57.39l3.13,3.35c13.62,14.74,8,23.68-14.52,23.68v1.11H242.08V97.82c-14.29,0-16.52-7.82-16.52-23.45v-11c0-15.18,9.82-23.22,21.66-23.22s21.66,8,21.66,23.22v11c0,15.63-2.23,23.45-16.52,23.45v1.11h69.23V97.82c-16.75,0-19.21-7.82-19.21-23.45"/><path d="M664.62,99.38c-10.72,0-19-4.24-19-10.72,0-3.57,2.46-7.37,8.71-12.51,25.24,4.92,31.49,9.38,31.49,13.4,0,5.14-9.82,9.83-21.21,9.83m-19-56c0-4.69,8.94-8.71,19.88-8.71,9.82,0,17.19,3.12,17.19,8.71,0,2.9-2,6.47-8,12.05-20.77-5.13-29-7.59-29-12.05M680.25,57l-2-.45c15.63-11.16,27.24-17,41.76-25.68l-.67-1.34a51.31,51.31,0,0,1-22.78,5.36c-10.27,0-14.07-2.9-33.72-2.9-36.18,0-49.13,9.82-49.13,20.32,0,9.38,10.27,17.64,36.62,23.22C636.48,86.2,622.85,96.92,613,96.92c-6.26,0-11.62-4.46-11.62-17V.89H601c-15.19,12.73-32.83,21.67-54.94,27l.22,1.11c19-4,21.67,0,21.67,8.27V74.37c0,15.63-2.46,23.45-18.09,23.45v1.11h64.31v.23C607,103,600.3,106.3,591.36,110.77l.9,1.56c16.75-8,28.81-12.5,42.65-12.5,11,0,13.4,2.23,30.6,2.23,32.38,0,52.26-8,52.26-20.32,0-10-13.18-18.76-37.52-24.79"/></g></g></svg>