<svg xmlns="http://www.w3.org/2000/svg" viewBox="0 0 720 752.65"><title>10-authentic-sans</title><g id="Layer_2" data-name="Layer 2"><g id="Layer_1-2" data-name="Layer 1"><path d="M655.59,732.37h4.92V712.69h20v-5.3h-20V687.71h-4.92v19.68H635.68v5.3h19.91Zm-70.93-11.58H622v-5.23H584.66Zm0-16.2H622v-5.38H584.66Zm-49.73,40.72h38.68v-5.37H534.93Zm-19.23-13c-4.76,0-7.49-3.94-7.49-8.7s2.73-8.71,7.49-8.71,7.5,3.94,7.5,8.71-2.73,8.7-7.5,8.7m0,5.91c8.18,0,13.25-6.44,13.25-14.61S523.88,709,515.7,709s-13.24,6.43-13.24,14.61,5.07,14.61,13.24,14.61m-35-34.14c-4.77,0-7.5-3.94-7.5-8.71s2.73-8.7,7.5-8.7,7.49,3.93,7.49,8.7-2.72,8.71-7.49,8.71m1.74,33.83,36.18-55-5.22-1.74-36.11,55.11ZM480.66,710c8.17,0,13.24-6.43,13.24-14.61s-5.07-14.61-13.24-14.61-13.25,6.44-13.25,14.61S472.48,710,480.66,710m-45,36.33h5.45v-8c9.46-1,17-6,17-15.67,0-8.85-6.21-12.87-17-17v-18c5.3.83,8.1,3.26,9.84,8.48l6-1.44c-2.2-8.7-8.25-12.79-15.82-13.47v-6.44h-5.45v6.36c-9.31,1-15.37,6.21-15.37,14.46,0,7.72,5.23,11.66,15.37,15.44v20.67c-5.83-1.06-9.24-5.23-10.6-11.36l-6,1.29c2,9.54,7.94,15.52,16.65,16.58Zm5.45-14.53V713.29c6.21,2.35,10.67,5.3,10.67,9.61s-4.24,8-10.67,8.86m-5.45-28.31c-5.68-2.27-8.78-4.46-8.78-8.17,0-3.56,2.88-6.67,8.78-7.65Zm-66.16,33.84h5.38l2.72-17H389l-2.72,17h5.52l2.65-17h11.81l.68-5.3H395.2l2-13.1h11.27l.91-5.37H397.92L400.5,680H395l-2.5,16.5H381l2.5-16.5h-5.45c-.6,3-2,13.47-2.57,16.5H364.69l-.75,5.37h10.9l-2,13.1H362.35l-.68,5.3H372ZM378.17,715l2.12-13.1h11.43L389.67,715ZM341,722.15a9.09,9.09,0,1,0-9.08-9,9,9,0,0,0,9.08,9m-53.36-2c-3.94,0-5.6-3.33-5.6-7,0-6.88,5.67-14.15,11.95-14.15,3.64,0,5.68,2.42,5.68,6.13,0,6.21-5.68,15.06-12,15.06M293.16,738c8.93,0,17.64-3.33,22.11-10l-4-2.5a24,24,0,0,1-18,7.57c-13.4,0-24-8.78-24-22.41s10.52-24.07,24.53-24.07c11.73,0,21.34,7.57,21.34,19.08,0,9.84-7.34,14.61-10.9,14.61q-2.94,0-1.59-4.55l6.14-20.66h-5.08l-1.13,3.41a9.48,9.48,0,0,0-8.63-5.15c-9.16,0-17.79,10.22-17.79,20.21,0,7,4.24,12,11,12a12.7,12.7,0,0,0,9.69-4.61c.83,2.95,2.49,5,6.35,5,7.88,0,17.26-8.4,17.26-20.81,0-13.78-11.5-23.47-26.42-23.47-16.88,0-30.05,12-30.05,28.77,0,16.5,12.72,27.55,29.22,27.55m-64.64-11.28c6.81,0,12.19-4.16,13.55-11.43h-5.22c-.91,3.71-3.56,6.43-7.95,6.43-6.51,0-10-5.9-10-12.33s3.33-11.66,10.14-11.66c3.63,0,6.58,1.51,7.8,5.52H242c-1.51-6.58-6.36-10.29-13.17-10.29-9.38,0-14.91,7-14.91,16.5,0,9,5,17.26,14.61,17.26m-.3,7.27a24.08,24.08,0,1,1,24.07-24.07A24.09,24.09,0,0,1,228.22,734m0,4.54a28.73,28.73,0,1,0-28.77-28.77,28.69,28.69,0,0,0,28.77,28.77M168,709.05l6.82-9.76,6.51,9.76,5.14-3.93L178,696.34l12-2.58-2.27-6.43L176.52,692l1.28-12h-6.28l1.36,12-11.27-4.69-2.12,6.36,11.73,2.65-8.4,8.78ZM133.6,749.63c4.84,0,7.64-2.5,7.64-8V720.48c0-2.8,1-5.83,4.7-5.83h1.59v-6.51h-1.59c-3.71,0-4.7-3-4.7-5.82V681.2c0-5.53-2.8-8-7.64-8a20.87,20.87,0,0,0-4.92.68v5.61c5.83-.91,6.89.15,6.89,3.33v20.13a9.48,9.48,0,0,0,5,8.48,9.48,9.48,0,0,0-5,8.48V740c0,3.18-1.06,4.24-6.89,3.33v5.6a20.41,20.41,0,0,0,4.92.69m-13.63,0a20.35,20.35,0,0,0,4.92-.69v-5.6c-5.82.91-6.88-.15-6.88-3.33V719.88a9.47,9.47,0,0,0-5-8.48,9.47,9.47,0,0,0,5-8.48V682.79c0-3.18,1.06-4.24,6.88-3.33v-5.61a20.8,20.8,0,0,0-4.92-.68c-4.84,0-7.64,2.5-7.64,8v21.12c0,2.8-1,5.82-4.69,5.82h-1.59v6.51h1.59c3.7,0,4.69,3,4.69,5.83V741.6c0,5.53,2.8,8,7.64,8m-40-.76H95.22v-76H80v5.07h9.76v65.78H80Zm-21,0H74.18v-5.15H64.34V677.94h9.84v-5.07H59Zm-25,3.78C43.37,742.13,47.91,729,47.91,714.2S43.37,686.27,34,675.6l-4.47,2A60,60,0,0,1,41.25,714.2c0,13.63-3.71,25.66-11.73,36.56Zm-15.44,0L23,750.76a63.63,63.63,0,0,1,0-73.2l-4.46-2C9.16,686.34,4.69,699.36,4.69,714.2s4.47,27.93,13.86,38.45"/><path d="M685.63,636.5l34.37-21v-3.7l-34.37-21-1.74,4.92,30.05,18-30.05,17.87Zm-20.58,0,1.74-4.92-30-17.86,30-17.94-1.74-4.92-34.37,21v3.7Zm-68.28,9.84,23.69-65.85-5-1.14-23.85,65.86Zm-18.85,9.39h5V578.52h-5Zm-40.34-14.31c7.49,0,13-3,17.63-7.72,2.43,1.89,4.32,3.33,7.73,5.68l5.29-2.8a101.67,101.67,0,0,1-9.46-8,49.48,49.48,0,0,0,5.38-19h-5.91A30.21,30.21,0,0,1,554,624.24a88.44,88.44,0,0,1-13.39-14.53c7.49-5.3,11.8-9.69,11.8-15.75,0-6.36-4.76-12.26-13-12.26-7.87,0-13,5.37-13,12,0,4.17,2,8.86,5.75,14.61-7.5,5.38-12.42,10.15-12.42,17.49,0,8.17,6.14,15.59,17.87,15.59m-.23-6.2c-6.66,0-11.66-3.87-11.66-9.16,0-4.85,4.17-8.78,9.77-12.8a108.56,108.56,0,0,0,15.29,16.13,18.9,18.9,0,0,1-13.4,5.83M537,604.79c-3-4.77-4.61-8.1-4.61-10.9,0-4,3.25-6.06,7.19-6.06s7,2.2,7,5.68c0,3.93-3.71,7.49-9.54,11.28m-32.09-5.91c4.92-3.33,7.11-7.57,7.11-12.49,0-6.28-3.48-7.42-5.45-7.42a5.06,5.06,0,0,0-5.07,5,5,5,0,0,0,6.51,4.69c-.15,3.11-2.34,5.53-5.22,7.19Zm-14.61.3a5.05,5.05,0,0,0,5.07-5,5,5,0,0,0-6.51-4.69c.15-3.11,2.35-5.53,5.23-7.2l-2.12-3c-4.92,3.33-7.12,7.57-7.12,12.49,0,6.28,3.48,7.41,5.45,7.41m-32.62-.3c4.92-3.33,7.11-7.57,7.11-12.49,0-6.28-3.48-7.42-5.45-7.42a5.06,5.06,0,0,0-5.07,5,5,5,0,0,0,6.51,4.69c-.15,3.11-2.35,5.53-5.22,7.19Zm13.92,0c4.92-3.33,7.12-7.57,7.12-12.49,0-6.28-3.48-7.42-5.45-7.42a5.06,5.06,0,0,0-5.07,5,5,5,0,0,0,6.51,4.69c-.15,3.11-2.35,5.53-5.22,7.19Zm-42.38.3a5.05,5.05,0,0,0,5.07-5,5,5,0,0,0-6.51-4.69c.15-3.11,2.34-5.53,5.22-7.2l-2.12-3c-4.92,3.33-7.11,7.57-7.11,12.49,0,6.28,3.48,7.41,5.45,7.41m13.92,0a5.05,5.05,0,0,0,5.07-5,5,5,0,0,0-6.5-4.69c.15-3.11,2.34-5.53,5.22-7.2l-2.12-3c-4.92,3.33-7.12,7.57-7.12,12.49,0,6.28,3.49,7.41,5.45,7.41M352,617.5h63V612H352Zm-47.39,0h36V612h-36Zm-29.82.08h18.47V612H274.77Zm-22,5.15c6.06,0,10.6-4.92,11.73-13.18l-4.46-.9c-.68,5-3.41,8.4-7.19,8.4-6.66,0-8.18-10.52-17.49-10.52-6.89,0-10.9,5.83-12.34,13.32l4.32,1.44c1-4.62,3.56-9.16,7.95-9.16,6.73,0,8.63,10.6,17.48,10.6m-80.39,18.46a5,5,0,1,0-5-5,5,5,0,0,0,5,5m18.78,0a5,5,0,1,0-5-5,5,5,0,0,0,5,5m18.77,0a5,5,0,1,0-5-5,5,5,0,0,0,5,5m-67.37,0a5,5,0,1,0-5-5,5,5,0,0,0,5,5m-3.71-16.8h7.12c-1.29-14.76,13.77-14.76,13.77-27.4,0-7.57-5.45-13.55-15.59-13.55-10.37,0-16.73,6.43-17,16.27h6.13c.15-6.43,3.86-10.37,10.52-10.37,6.21,0,9.38,3.33,9.38,7.5,0,9.23-15.59,11.28-14.38,27.55m-28.08,16.8a5,5,0,1,0-5-5,5,5,0,0,0,5,5m-2.19-15.66h4.23l2.35-40.65H106.2Zm-24.3,25.66c4.92-3.33,7.11-7.57,7.11-12.49,0-6.29-3.48-7.42-5.45-7.42a5.05,5.05,0,0,0-5.07,5,5,5,0,0,0,6.51,4.7c-.15,3.1-2.35,5.52-5.22,7.19ZM86,612.66a5,5,0,1,0-5-5,5,5,0,0,0,5,5m-24.6,28.53a5,5,0,1,0-5-5,5,5,0,0,0,5,5m0-28.53a5,5,0,1,0-5-5,5,5,0,0,0,5,5M34.67,651.19c4.92-3.33,7.11-7.57,7.11-12.49,0-6.29-3.48-7.42-5.45-7.42a5.05,5.05,0,0,0-5.07,5,5,5,0,0,0,6.51,4.7c-.15,3.1-2.34,5.52-5.22,7.19Zm-22.86-10a5,5,0,1,0-5-5,5,5,0,0,0,5,5"/><path d="M424.72,544.19c12.79,0,20-10.21,20-29.67,0-18.92-7-27.93-19.15-27.93-11.73,0-19.07,8.48-19.07,19.23,0,10.59,7,18.54,17.86,18.54,4.47,0,9.54-1.36,14-7.79C437.59,528,434,538,424.42,538c-5.15,0-8.55-2.8-10.45-8l-6.13,1.36c2.42,7.8,7.8,12.79,16.88,12.79m0-26.34c-7.11,0-11.5-5.75-11.5-12.64,0-7.19,4.84-12.34,11.73-12.34,7.27,0,12.26,5.53,12.26,14.84-1.21,4.92-5.75,10.14-12.49,10.14m-47.46,20.06c-7.64,0-12.56-3.93-12.56-10.29,0-6.59,5.29-11.36,12.56-11.36s12.57,4.77,12.57,11.36c0,6.36-4.92,10.29-12.57,10.29m0-27.7c-6.05,0-10.82-3.94-10.82-8.93,0-4.77,4.31-8.26,10.82-8.26s10.83,3.49,10.83,8.26c0,5-4.77,8.93-10.83,8.93m0,34c11.28,0,19.15-6.73,19.15-16.57,0-5.76-2.72-10.6-9.23-14.54,4.61-2.8,7.57-6.73,7.57-12,0-8.25-7.12-14.23-17.49-14.23s-17.48,6-17.48,14.23c0,5.3,3,9.23,7.57,12-6.51,3.94-9.24,8.78-9.24,14.54,0,9.84,7.87,16.57,19.15,16.57m-56.69-.9h6.88c1.52-25.36,8.33-36,20.44-50.27V487.2H309.82v6.13h30c-12.26,14.38-17.86,28.61-19.22,50M285,538.06c-7.27,0-12.26-5.52-12.26-14.83a12.92,12.92,0,0,1,12.64-9.39c7,0,11.35,5,11.35,11.89,0,7.19-4.84,12.33-11.73,12.33m-.61,6.29c11.74,0,19.08-8.48,19.08-19s-7-18-18.17-18a15.65,15.65,0,0,0-13.7,7c.76-11.43,4.32-21.42,13.93-21.42,5.15,0,8.55,2.8,10.45,7.95l6.13-1.37c-2.43-7.79-7.8-12.79-16.88-12.79-12.8,0-20,10.22-20,29.67,0,18.93,7,27.94,19.15,27.94m-49,0c12.65,0,19.84-8.71,19.84-19.76,0-11.28-7.57-19.23-18.32-19.23a19.27,19.27,0,0,0-11.58,3.71l1.13-15.44h25.36V487.5h-31l-1.9,29.82h6.44c2-3.55,6.13-5.6,10.82-5.6,7.12,0,12.42,4.77,12.42,12.87s-5.53,13.47-13.25,13.47c-5.3,0-9.61-2.42-12-8.93l-6.43,1.52c3,9.38,9.61,13.7,18.54,13.7m-60-20.59L194.08,498v25.74Zm18.7,19.53h6.36v-13.4H208v-6.13h-7.57V487.2h-6.21L168.42,523v6.89h25.66Zm-49.2,1.06c11,0,19-5.91,19-16.2a14.65,14.65,0,0,0-9.77-14.38,13.17,13.17,0,0,0,7.42-12.27c0-8.55-6.2-14.76-16.88-14.76s-16.27,6.13-17.94,14.91l6.59,1.06c.83-5.45,4.62-9.76,11.81-9.76,6.13,0,9.84,3.18,9.84,8.78,0,5.22-3.26,9.46-9.54,9.46h-5.83v6.06h5.6c7.72,0,12,4.69,12,10.75,0,6.81-5.3,10.37-12.34,10.37-5.82,0-11.05-2.43-12.71-10.9l-6.74,1.21c2.35,10.29,9,15.67,19.53,15.67m-64.95-1.06H117.1v-6.66h-29c1.82-4.17,4.69-7.8,14.38-15.14,11.66-8.94,14.23-14,14.23-19.53,0-8.48-6-15.6-17.48-15.6-11.06,0-18.17,6.66-19.38,17.26l6.51,1.21c.45-7.94,4.92-12.18,12.56-12.18,6.66,0,11,3.18,11,9.16,0,4.69-2.72,8.47-11.73,15.36-12.41,9.46-17.56,16.65-18.32,26.12m-17.41,0h6.36v-56.4H63.43c-.91,5.38-6.58,11.81-17.1,11.81v5.6c4.39,0,12.94-1.66,16.19-5.52ZM22.1,538.14c-7.72,0-12.64-7-12.64-22.33,0-15.75,4.85-22.48,12.64-22.48s12.64,6.73,12.64,22.48c0,15.37-4.92,22.33-12.64,22.33m0,6.21c12.87,0,19.23-10.22,19.23-28.54S35,487.12,22.1,487.12,2.88,497.34,2.88,515.81s6.35,28.54,19.22,28.54"/><path d="M500,446.29h31.64v-6.51H508.89l22.79-28v-6.36H500.34v6.66h22.71l-23,28.31Zm-36.79,17.33c8.63,0,11.81-2.12,14.53-9.54l17.87-48.67h-7L478,435l-11.2-29.6h-7l14.76,39-3.41,8.86c-1.51,3.94-3.94,4.24-7.87,3.86Zm-45.57-17.33h8.1l11.81-15.67,11.81,15.67h7.94l-15.82-20.9,14.69-20h-7.95L437.59,420l-10.67-14.61h-8l14.76,20Zm-49.05,0h6.59l10.06-32.1,9.84,32.1h6.59l13.09-40.88h-6.88l-9.54,32.78-9.84-32.78h-6.81l-9.85,32.78-9.53-32.78h-6.82Zm-38.38,0H337l15.9-40.88H346l-12.34,32.85-12.34-32.85h-7ZM288,447a17.71,17.71,0,0,0,14.07-6.51v5.76h6.51V405.41h-6.51v24.9a13.92,13.92,0,0,1-13.7,10.37c-4.84,0-7.49-2.34-7.49-8.47v-26.8h-6.59v26.8c0,9.69,4.85,14.83,13.71,14.83m-26.42,0c1.66,0,3.56-.15,5.07-.3v-6.21H261.9c-2.19,0-3.71-.68-3.71-3.93V411.69h8.1v-6.28h-8.1V394h-6.51v11.43H245v6.28h6.66v25.74c0,6.89,2.88,9.61,9.92,9.61m-38.38.15c8.93,0,16.05-4.84,16.05-12.18,0-6.51-5.6-10.15-15.06-12.57-6.06-1.74-10.3-3.4-10.3-6.66,0-2.57,2.73-4.46,8-4.46,4.62,0,8.25,1.51,9.92,5.6l6.35-1.67c-2.27-7.34-8.32-10.6-16-10.6-8.93,0-14.83,4.47-14.83,11.36,0,7,6.28,10,14.53,12.49,6.28,1.74,10.67,3.71,10.67,7s-4.69,5.3-9.38,5.3c-5.15,0-9-2.12-10.45-7.27l-6.59,1.51c2.43,8.18,9,12.11,17.11,12.11m-41-.9h6.51V423.43c0-6.82,4.16-11.43,13.62-11.43v-6.89c-6.43-.53-9.92,1.28-13.62,6v-5.68H182.2Zm-27.86-5.83c-6.81,0-11.66-6.36-11.66-14.69,0-8.1,4.77-14.68,11.89-14.68s11.88,6.43,11.88,14.3-4.77,15.07-12.11,15.07m12.11,22.78H173V405.41h-6.59V411a15.12,15.12,0,0,0-12.56-6.36c-10.83,0-17.94,9.39-17.94,21.27s7.34,21.27,17.94,21.27c4.69,0,8.93-1.81,12.56-6.13Zm-72.82,0h6.66V441.06a15.64,15.64,0,0,0,12.49,6.13c10.53,0,17.87-9.31,17.87-21.27s-7-21.27-17.87-21.27A14.92,14.92,0,0,0,100.29,411v-5.6H93.63Zm18.55-22.78c-7.12,0-11.89-7.5-11.89-15.22S105,411.09,112,411.09s11.88,6.58,11.88,14.68c0,8.33-5.15,14.69-11.73,14.69m-46.25.45c-7.8,0-14.08-6.51-14.08-14.91s6.28-14.84,14.08-14.84S80,417.6,80,426s-6.28,14.91-14.08,14.91m0,6.28c11.81,0,20.89-9,20.89-21.19s-9.08-21.27-20.89-21.27S45,413.81,45,426s9.08,21.19,20.89,21.19m-61.84-.9h6.58V420.55A13.17,13.17,0,0,1,23.54,411c4.92,0,8.33,2.42,8.33,9.16v26.12h6.51v-26.5c0-10-5.23-15.14-13.78-15.14a19,19,0,0,0-13.93,5.91v-5.15H4.09Z"/><path d="M426.54,349.29h6.58V322.94c1.06-4.23,5.83-9,11.13-9,3.86,0,7.26,2.49,7.26,9v26.35H458V322.72c1.22-4.92,6.51-8.78,11.51-8.78,3.86,0,7,2.27,7,8.85v26.5h6.51V322c0-8.86-5.22-14.46-13.17-14.46-4.62,0-9.39,1.89-13.63,7.11-2.87-4.84-6.66-7-11.27-7-3.64,0-7.95,1.37-11.89,5.83v-5.07h-6.58Zm-16.13,0h6.51V292.06h-6.51Zm-39.81,0h6.58V334.37l6.66-6.51L397,349.29h7.49L388.24,323.4l15.13-15H395L377.18,325.9V292.06H370.6Zm-21,17.41c7.34,0,10.45-4.32,10.45-12.12V309.17h-6.51V354c0,4.47-.84,6.36-5.38,6.36a21.33,21.33,0,0,1-3.48-.31v6.14a25.53,25.53,0,0,0,4.92.53m7.19-65.78a4.62,4.62,0,1,0-4.62-4.62,4.59,4.59,0,0,0,4.62,4.62m-26.64,48.37h6.51V309.17h-6.51Zm3.25-48.37a4.62,4.62,0,1,0-4.61-4.62,4.59,4.59,0,0,0,4.61,4.62m-48.14,48.29h6.59V323.55A13.15,13.15,0,0,1,304.75,314c4.92,0,8.32,2.42,8.32,9.16v26h6.51V322.79c0-10-5.22-15.14-13.77-15.14a19,19,0,0,0-13.93,5.91v-21.5h-6.59Zm-26.64,17.94c9.84,0,17.63-6.66,17.63-18.17V308.41H269.7v4.69a14.52,14.52,0,0,0-11.58-5.45c-10.6,0-17.64,9.09-17.64,20.67S247.67,349,258,349c4.16,0,8.17-1.51,11.73-5.9v6.05c0,7.12-4.69,11.66-11.05,11.66a11.43,11.43,0,0,1-10.45-6.58l-6.13,1.66c3.33,7.72,9.16,11.28,16.58,11.28m-.08-24.68c-6.43,0-11.43-6.36-11.43-14.3S252.06,314,258.57,314s11.13,6.06,11.13,14.23-4.92,14.23-11.13,14.23M220,349.29h6.44V315.37h8.93v-6.2h-8.93v-7.42c0-3,1-4.32,5.3-4.32a27.63,27.63,0,0,1,4,.31v-5.83a27.37,27.37,0,0,0-5.91-.68c-6.81,0-9.84,3.48-9.84,9.69v8.25H212.4v6.2H220Zm-41.4-25.06c1-5.75,5.07-10.22,11.2-10.22,5.91,0,9.84,4.17,10.6,10.22Zm11.13,26c7.64,0,14-4.39,17.18-12.56l-5.75-1.82c-2.43,5.38-6.36,8-11.13,8-7,0-11.13-5.76-11.73-13.4h29v-3c0-11.51-7-19.68-17.49-19.68-11,0-18.24,8.86-18.24,21.12,0,11.88,6.89,21.34,18.17,21.34m-44.44,0a14.82,14.82,0,0,0,12.34-6.35v5.45h6.66V292.06h-6.66v21.72a15.59,15.59,0,0,0-12.34-6.13c-10.06,0-17.41,9.31-17.41,21.27s6.89,21.27,17.41,21.27m.76-6.43c-7,0-11.5-6.59-11.5-14.68s4.54-14.69,11.27-14.69c7,0,11.81,7,11.81,15.06s-4.77,14.31-11.58,14.31M105.67,350c7.65,0,14.76-4.69,17-14.15l-6.36-1.52c-1.81,5.53-5.37,9.24-10.29,9.24-6.66,0-11.51-6.81-11.51-15,0-8,4.62-14.53,11.74-14.53,4.08,0,7.94,2.12,9.91,7.34l6.28-1.59c-2.57-7.64-8.63-12.19-16.35-12.19-10.74,0-18.24,8.86-18.24,21,0,11.28,6.59,21.42,17.79,21.42m-41.25-6.28c-6.74,0-11.58-6.21-11.58-14.31s4.76-15.06,11.73-15.06c6.73,0,11.35,6.51,11.35,14.69s-4.54,14.68-11.5,14.68m.68,6.43c10.67,0,17.48-9.38,17.48-21.27s-7-21.27-17.41-21.27a15.34,15.34,0,0,0-12.33,6.13V292.06H46.17v57.23h6.67v-5.45a14.58,14.58,0,0,0,12.26,6.35m-48.9-6.35c-3.71,0-6.81-2-6.81-5.45,0-7.65,15-5.83,20.36-11v7.34c-2.95,5.76-8.71,9.09-13.55,9.09m-.53,6.35c4.62,0,9.39-1.89,14.08-7.11.15,3.18,2.72,7.11,7,7.11a10.64,10.64,0,0,0,3.48-.68V344c-2.42.83-4-.61-4-2.5v-19c0-10-6.51-14.84-15.74-14.84-7.5,0-14.16,3.26-16.13,10.6L10.75,320c1.44-4.09,5.15-6,9.91-6,5.23,0,8.41,2.27,8.41,5.22,0,4.4-7,5.3-14.92,7.57-6.58,2.05-11.42,6-11.42,12,0,6.51,5.6,11.35,12.94,11.35"/><path d="M653.09,252.29h42.77v-6.51H661.12l34.74-43.3v-7.12H653.55v6.44H688l-34.9,43.82Zm-32.09,0h6.58V227.76L649,195.36h-7.34l-17.33,26.19-17.11-26.19H599.5l21.5,32.4Zm-71.08,0h8l16.35-23.92,16.13,23.92h8l-20.29-29.37L597,195.36h-7.87l-14.84,22-15.13-22h-7.8l18.85,27.48Zm-55.79,0h6.59l13.17-45.65,12.87,45.65h6.51l15.14-56.93h-6.82l-11.5,46.25-13.25-46.25h-6.2l-13.1,46.48-11.66-46.48H479Zm-44.35,0H457l20.51-56.93h-7.11l-17,48.22-17.1-48.22h-7.12Zm-48.6,1.43c13.17,0,22.33-7.41,22.33-22.33V195.21h-6.58v36.34c0,10.9-6.21,15.66-15.75,15.66-9.84,0-15.36-5.07-15.36-15.74V195.21h-6.59v36.11c0,15.06,8.93,22.4,21.95,22.4m-53.67-1.43H354V201.8H373.7v-6.44H327.83v6.44h19.68Zm-44.88,1.43c11.65,0,20.81-5.67,20.81-16.57,0-8.78-5.9-13.4-19.6-17.64-11.51-3.63-14.84-6.89-14.84-11.13,0-5.22,5.15-7.95,12.42-7.95,7.72,0,12.71,3.11,14.3,10.45l6.36-1.44c-2-8.93-7.64-15.44-20.44-15.44-11.43,0-19.3,5.22-19.3,15,0,7.57,4.69,12.71,18.77,16.73,12.42,3.71,15.6,7.34,15.6,11.65,0,6.06-6.29,9.77-14.23,9.77-8.86,0-14.31-4.69-15.45-12.57L280.68,236c1.43,11.36,9.76,17.71,21.95,17.71m-72.14-1.43H237V227.76h16.43c9.69,0,9.16,18.85,12.94,24.53h7.42c-6.44-12.42-3.94-22.11-11.2-26.35,6.43-2.65,9.76-7.87,9.76-14.23,0-9.08-6.89-16.35-18.24-16.35H230.49Zm6.51-31V201.8h17c7.34,0,11.73,4,11.73,9.61,0,5.9-4.85,9.92-11.73,9.92Zm-41.86,26c-12,0-20.89-9.61-20.89-23.31,0-13.33,8.17-23.47,20.89-23.47S216,210.65,216,224a25.12,25.12,0,0,1-5.45,16.27c-2.27-2.2-4.7-4.39-7.12-6.51l-4.54,4.62c2.27,2,4.47,4,6.66,6.13a19.85,19.85,0,0,1-10.37,2.8m22.26,9.23,4.69-4.54c-2.2-2.42-4.39-4.69-6.66-7a31.24,31.24,0,0,0,7.49-21c0-16.8-10.9-30.05-27.78-30.05s-28,13.17-28,30.05c0,17.11,11.66,29.67,28,29.67a27.67,27.67,0,0,0,15.29-4.39c2.35,2.35,4.69,4.77,7,7.19m-90.31-35.19V201.8h16.43c7.11,0,11.58,3.71,11.58,9.69s-4.69,9.84-11.58,9.84Zm-6.58,31h6.58V227.76h16.5c11.36,0,18.25-7.27,18.25-16.27s-6.67-16.13-18.25-16.13H120.51Zm-35.35-5c-12,0-20.89-9.61-20.89-23.31,0-13.33,8.17-23.47,20.89-23.47S106,210.65,106,224c0,13.77-8.85,23.31-20.81,23.31m0,6.43c16.27,0,27.78-12.56,27.78-29.67,0-16.8-10.9-30.05-27.78-30.05s-28,13.17-28,30.05c0,17.11,11.66,29.67,28,29.67M4.24,252.29h6.58V205l30.59,47.31h8V195.36H42.92v47.09L12.41,195.36H4.24Z"/><path d="M588.14,155.29h6.51V110.4l17.87,44.89h6.05l17.56-44.89v44.89h6.51V98.36h-8.47L615.55,146,596.62,98.36h-8.48Zm-46.32,0h39.66v-6.51H548.4V98.36h-6.58Zm-52.68,0h6.58V135l10.22-9.61,22.48,29.9h8.25l-26-34.52,23.62-22.41h-8.71l-29.9,28.24V98.36h-6.58Zm-27.33,1.43c10.37,0,17.79-6.43,17.79-18.54V98.36h-6.51v40.05c0,8.4-5.22,11.8-11.2,11.8-5.53,0-9.92-2.87-11.06-9.46l-6.28.68c1.21,10.3,8.1,15.29,17.26,15.29m-31.26-1.43h6.66V98.36h-6.66Zm-55.33,0h6.51V129.4h31.64v25.89h6.51V98.36h-6.51V123H381.73V98.36h-6.51Zm-34,1.43c7.95,0,14.61-3.48,18.39-9l1,7.57h5.45V125.08H343.27v6.44h16.28c-.3,10.67-7.8,18.69-17.94,18.69-10.37,0-18.85-8.32-18.85-22.7,0-13.63,7.19-24.15,19.68-24.15,7.34,0,13.47,3.63,16.58,11.28l6.43-1.44c-3.63-10.14-11.73-16.43-23-16.43-16.73,0-26.42,14-26.42,30.74,0,17.18,10.3,29.21,25.21,29.21m-69-1.43h6.51v-26h29.06v-6.44H278.71v-18h32.7V98.36H272.2Zm-48.37,0h40.34v-6.51H230.34V129.25H261v-6.44H230.34v-18h33.15V98.36H223.83Zm-48.6-6.44v-44h12.26c13.86,0,21.65,6.73,21.65,21.72,0,14.76-7.79,22.33-21.65,22.33Zm-6.51,6.44h20.06c17.64,0,27-11.81,27-28.77,0-17.26-9.38-28.16-27-28.16H168.72Zm-34.21,1.43c12.49,0,21.72-6.88,26.11-18.77l-6.51-1.44c-3.4,8.48-10.59,13.63-19.68,13.63-12.26,0-21-9.39-21-22.86,0-13.63,9-23.62,21.72-23.62a19.72,19.72,0,0,1,18.24,11l6.89-1.44a26.35,26.35,0,0,0-25-16.27c-16.58,0-28.91,13.1-28.91,30.58,0,17.18,11.65,29.14,28.08,29.14M64,148.78V128.49H79.18c8.85,0,14.3,4.54,14.3,10.45,0,6.28-6.2,9.84-13.24,9.84Zm0-26.57V104.8H80.31c7.5,0,11,3.18,11,7.87,0,5.52-5,9.54-12.34,9.54Zm-6.51,33.08H81.67c10.3,0,18.55-6.59,18.55-16.51,0-5.67-2.73-11-9.69-13.62a14,14,0,0,0,7.27-12.64c0-8.63-6-14.16-17.26-14.16H57.45ZM0,155.29H7.12l6.35-16.58H38.68l6.43,16.58h7L30,98.36H22.25Zm16.05-22.94,10.14-26.11,9.92,26.11Z"/><path d="M615.7,59.19c8.93,0,16-4.84,16-12.18,0-6.51-5.6-10.15-15.06-12.57-6.06-1.74-10.29-3.4-10.29-6.66,0-2.57,2.72-4.47,7.94-4.47,4.62,0,8.25,1.52,9.92,5.61l6.36-1.67c-2.27-7.34-8.33-10.6-16-10.6-8.94,0-14.84,4.47-14.84,11.36s6.28,10,14.53,12.49c6.29,1.74,10.68,3.71,10.68,7,0,3.48-4.7,5.3-9.39,5.3-5.15,0-9-2.12-10.45-7.27l-6.58,1.51c2.42,8.18,9,12.11,17.11,12.11m-58.59-.9h6.58V32.55A13.15,13.15,0,0,1,576.56,23c4.92,0,8.33,2.42,8.33,9.16V58.29h6.51V31.79c0-10-5.22-15.14-13.78-15.14a19,19,0,0,0-13.93,5.91V17.41h-6.58Zm-30-5.45c-3.71,0-6.81-2-6.81-5.45,0-7.65,15-5.83,20.36-11v7.34c-2.95,5.75-8.7,9.09-13.55,9.09m-.53,6.35c4.62,0,9.39-1.89,14.08-7.11.15,3.18,2.73,7.11,7,7.11a10.64,10.64,0,0,0,3.48-.68V53c-2.42.83-4-.61-4-2.5v-19c0-10-6.51-14.84-15.75-14.84-7.49,0-14.15,3.26-16.12,10.6L521.68,29c1.44-4.09,5.15-6,9.92-6,5.22,0,8.4,2.27,8.4,5.22,0,4.39-7,5.3-14.91,7.57-6.59,2.05-11.43,6-11.43,12,0,6.51,5.6,11.35,12.94,11.35M486,59.72c11.65,0,20.81-5.67,20.81-16.57,0-8.78-5.9-13.4-19.6-17.64-11.51-3.63-14.84-6.89-14.84-11.13,0-5.22,5.15-8,12.41-8,7.73,0,12.72,3.11,14.31,10.45l6.36-1.44C503.44,6.51,497.76,0,485,0c-11.43,0-19.3,5.22-19.3,15,0,7.57,4.69,12.71,18.77,16.73C496.86,35.43,500,39.06,500,43.37c0,6.06-6.28,9.77-14.23,9.77-8.85,0-14.3-4.7-15.44-12.57L464,42c1.44,11.36,9.77,17.71,22,17.71m-77.74,0c12.49,0,21.72-6.88,26.11-18.77l-6.51-1.44c-3.4,8.48-10.59,13.63-19.68,13.63-12.26,0-21-9.39-21-22.86,0-13.63,9-23.62,21.72-23.62a19.73,19.73,0,0,1,18.24,11.05L434,16.27A26.36,26.36,0,0,0,409.05,0c-16.58,0-28.91,13.1-28.91,30.58,0,17.18,11.65,29.14,28.08,29.14m-43.6-1.43h6.66V1.36h-6.66Zm-32.85,0h6.51V7.8H358V1.36H312.09V7.8h19.68Zm-70.47,0h6.58V11l30.58,47.31h8V1.36H300V48.44L269.47,1.36H261.3Zm-48.37,0h40.34V51.78H219.44V32.25h30.65V25.81H219.44V7.8h33.15V1.36H212.93Zm-54.2,0h6.51V32.4h31.64V58.29h6.51V1.36h-6.51V26H165.24V1.36h-6.51Zm-31.72,0h6.51V7.8h19.69V1.36H107.33V7.8H127ZM79.4,59.72c13.17,0,22.33-7.41,22.33-22.33V1.21H95.15V37.54c0,10.9-6.21,15.67-15.75,15.67C69.56,53.21,64,48.14,64,37.47V1.21H57.45V37.32c0,15.06,8.93,22.4,22,22.4M0,58.29H7.12l6.35-16.58H38.68l6.43,16.58h7L30,1.36H22.25ZM16.05,35.35,26.19,9.23l9.92,26.12Z"/></g></g></svg>