<svg xmlns="http://www.w3.org/2000/svg" viewBox="0 0 720 303.34"><title>06-bema</title><g id="Layer_2" data-name="Layer 2"><g id="Layer_1-2" data-name="Layer 1"><path d="M689.34,246l6.13,16.79H682.74l5.83-16.48Zm13.34,38.1-7.44,1.38a11.07,11.07,0,0,0,0,5.75c.77,0,2.43-.06,5-.19s5-.19,7.21-.19,4.65.06,7.2.19,4.22.19,5,.19a6.33,6.33,0,0,0,.38-2.87,6.42,6.42,0,0,0-.38-2.88l-6.37-1.3-3.6-7.9-12.88-34a29,29,0,0,0,5.14-4,7.1,7.1,0,0,0-1.76-3.18,9.2,9.2,0,0,0-2.84-2.64l-15.72,10.65-12,32.43q-2.84,7.67-3.83,8.58l-6.52,1.38a11.07,11.07,0,0,0,0,5.75c.77,0,2.43-.06,5-.19s5-.19,7.21-.19,4.65.06,7.21.19,4.21.19,5,.19a6.33,6.33,0,0,0,.38-2.87,6.42,6.42,0,0,0-.38-2.88l-7.44-1.38.16-1.15c.1-.71.27-1.68.53-2.91a20.58,20.58,0,0,1,.92-3.22l2.61-7.44h17.48l3.22,8.74a38.18,38.18,0,0,1,1.61,6M619,240.45c-2.56-.13-4.22-.2-5-.2a6.29,6.29,0,0,0-.38,2.84A6.81,6.81,0,0,0,614,246l6.83,1.23v.08a.85.85,0,0,1,.15.26,4.48,4.48,0,0,1,.15.5c0,.21.1.5.15.88s.11.81.16,1.27.09,1.05.11,1.76,0,1.49,0,2.3V277.2q0,6.14-.76,7.05L614,285.48a11.07,11.07,0,0,0,0,5.75c.77,0,2.43-.08,5-.23s4.95-.23,7.2-.23q1.85,0,6.13.23t8.74.23q7.29,0,11.54-4.56a15,15,0,0,0,4.25-10.54q0-9.88-9.58-13.8a12.22,12.22,0,0,0,5.83-11,10.18,10.18,0,0,0-3.87-8.39,14.54,14.54,0,0,0-9.39-3.11q-2.61,0-7.36.38t-6.29.39c-2.25,0-4.65-.07-7.2-.19m23.38,8.24a6.8,6.8,0,0,1,1.91,5.13q0,4.53-3,6.06c-2,1-5.51,1.71-10.47,2.07v-8q0-3.83.23-6.44a46,46,0,0,1,6.06-.61,7.31,7.31,0,0,1,5.29,1.84M630.77,277.2v-9.58l8.36-.77c2.6-.25,4.56.43,5.86,2a8.59,8.59,0,0,1,2,5.55,11.93,11.93,0,0,1-2.34,7.25,7.65,7.65,0,0,1-6.71,3.1l-6.82-.08Zm-39.32-7.36,1.15,5.06a7.89,7.89,0,0,0,4.9,0c0-.61,0-1.84-.11-3.68s-.12-3.57-.12-5.21,0-3.42.12-5.21.11-3,.11-3.61a10.15,10.15,0,0,0-4.9,0l-1.15,5.14-.39.08a7.45,7.45,0,0,1-1.84.27c-1,.07-2.32.11-3.91.11h-7.74V255q0-6.14.77-6.9H591.6q5.89,0,6.75.39l.38,5a6.44,6.44,0,0,0,2.68.31,7.11,7.11,0,0,0,2.76-.31q.08-.45.39-3.48t.69-5.33c.2-1.43.42-2.7.65-3.8s.37-1.87.42-2.33a8.63,8.63,0,0,0-2.72-.23,9.48,9.48,0,0,0-2.8.23L599.57,241l-.92.08a31.78,31.78,0,0,1-3.25.23c-1.56,0-3.31.07-5.26.07H573.05q-3.37,0-7.21-.19c-2.55-.13-4.21-.19-5-.19a7.64,7.64,0,0,0-.31,2.84,8.11,8.11,0,0,0,.31,2.91l6.75,1.23v.07a.8.8,0,0,1,.15.27,4.48,4.48,0,0,1,.15.5c.05.2.1.5.16.88s.1.8.15,1.27.09,1,.12,1.76,0,1.48,0,2.3v21.61q0,6.13-.84,7.59l-6.82,1.23a13.49,13.49,0,0,0,0,5.75c.76,0,2.42-.06,5-.19s5-.19,7.21-.19q3.83,0,15.63.19t14.42.19a34.51,34.51,0,0,0,2.26-5.83,53.64,53.64,0,0,0,1.8-5.9,5.84,5.84,0,0,0-2.49-1,6.8,6.8,0,0,0-2.72-.12l-3.22,5.52-.46.15c-.31.06-1,.12-2.11.2s-2.44.11-4,.11l-13.65.08-.15-.54a9.68,9.68,0,0,1-.42-2.41,45.92,45.92,0,0,1-.2-4.64v-7.51h7.75q5.35,0,6.13.53m-45.31-22.61L553,246a6.62,6.62,0,0,0,.39-2.91,6.1,6.1,0,0,0-.39-2.84c-.76,0-2.42.07-5,.2s-5,.19-7.2.19-4.66-.07-7.21-.19-4.22-.2-5-.2a6.1,6.1,0,0,0-.39,2.84,6.59,6.59,0,0,0,.39,2.91l6.82,1.23v.08a.85.85,0,0,1,.15.26c.05.13.1.3.16.5s.1.5.15.88.1.81.15,1.27.09,1.05.12,1.76,0,1.49,0,2.3v8.28q-3.91.22-10.12.23h-6.59c-4.14,0-7.52-.08-10.12-.23v-8.28q0-6.14.76-7.05l6.83-1.23a6.84,6.84,0,0,0,.38-2.91,6.29,6.29,0,0,0-.38-2.84c-.77,0-2.43.07-5,.2s-4.95.19-7.2.19-4.65-.07-7.21-.19-4.21-.2-5-.2a6.15,6.15,0,0,0-.38,2.84,6.64,6.64,0,0,0,.38,2.91l6.82,1.23v.08a.85.85,0,0,1,.15.26,3,3,0,0,1,.16.5c.05.21.1.5.15.88s.1.81.16,1.27.09,1.05.11,1.76,0,1.49,0,2.3V277.2q0,6.14-.77,7.05l-6.82,1.23a11.07,11.07,0,0,0,0,5.75c.77,0,2.43-.06,5-.19s5-.19,7.21-.19,4.65.06,7.2.19,4.22.19,5,.19a11.07,11.07,0,0,0,0-5.75l-6.83-1.23v-.07a.8.8,0,0,1-.15-.27,3.91,3.91,0,0,1-.15-.5,6.21,6.21,0,0,1-.16-.88c0-.38-.1-.81-.15-1.26s-.09-1-.11-1.77,0-1.48,0-2.3v-7.51c3.47-.2,6.84-.31,10.12-.31h6.59q4.76,0,10.12.31v7.51q0,6.14-.77,7.05l-6.82,1.23a10.79,10.79,0,0,0,0,5.75c.76,0,2.42-.06,5-.19s5-.19,7.21-.19,4.65.06,7.2.19,4.22.19,5,.19a10.79,10.79,0,0,0,0-5.75l-6.82-1.23v-.07a.8.8,0,0,1-.15-.27,3.91,3.91,0,0,1-.15-.5,6.21,6.21,0,0,1-.16-.88c0-.38-.1-.81-.15-1.26s-.09-1-.12-1.77,0-1.48,0-2.3V254.28q0-6.14.77-7.05m-71.44,31a7.26,7.26,0,0,1-4.14,6.67,36.35,36.35,0,0,1-11-1.07,12.82,12.82,0,0,1-6-3.57,26.94,26.94,0,0,1-4.37-7c-2.4,0-3.89.79-4.45,2.37l2,11a23.18,23.18,0,0,0,8.73,3.91,54.31,54.31,0,0,0,11.66,1.07q7.81,0,12.49-4.14,5.59-4.91,5.6-10.5a13.5,13.5,0,0,0-1.19-5.86,12,12,0,0,0-3.83-4.45,31.9,31.9,0,0,0-5.68-3.33q-3-1.38-8-3.15a36.93,36.93,0,0,1-8.28-3.71,5.31,5.31,0,0,1-2.68-4.49,7.76,7.76,0,0,1,3.07-6.36,21.41,21.41,0,0,1,5.79-.46,20.58,20.58,0,0,1,6.09.84,13.61,13.61,0,0,1,8.28,8,10,10,0,0,0,3.1-.53,3.18,3.18,0,0,0,2.11-1.61l-2.84-9.51q-6.66-3.6-18-3.6a18.62,18.62,0,0,0-12.65,4.68,11.33,11.33,0,0,0-4.22,9q0,6.51,3.84,10.27t12.8,6.59q11.81,3.67,11.81,9m-70-8.36,1.15,5.06a7.89,7.89,0,0,0,4.9,0c0-.61,0-1.84-.11-3.68s-.12-3.57-.12-5.21,0-3.42.12-5.21.11-3,.11-3.61a10.15,10.15,0,0,0-4.9,0l-1.15,5.14-.39.08a7.36,7.36,0,0,1-1.84.27c-1,.07-2.32.11-3.91.11h-7.74V255q0-6.14.77-6.9h13.26c3.94,0,6.18.13,6.75.39l.38,5a6.44,6.44,0,0,0,2.68.31,7,7,0,0,0,2.76-.31q.07-.45.39-3.48t.69-5.33c.2-1.43.42-2.7.65-3.8s.37-1.87.42-2.33a8.63,8.63,0,0,0-2.72-.23,9.48,9.48,0,0,0-2.8.23L412.83,241l-.92.08a31.8,31.8,0,0,1-3.26.23c-1.55,0-3.31.07-5.25.07H386.31q-3.37,0-7.21-.19c-2.55-.13-4.21-.19-5-.19a7.64,7.64,0,0,0-.31,2.84,8.11,8.11,0,0,0,.31,2.91l6.75,1.23v.07a.8.8,0,0,1,.15.27,4.48,4.48,0,0,1,.15.5c.05.2.1.5.16.88s.1.8.15,1.27.09,1,.11,1.76,0,1.48,0,2.3V277.2q0,6.14-.76,7.05L374,285.48a11.07,11.07,0,0,0,0,5.75c.77,0,2.43-.06,5-.19s5-.19,7.2-.19,4.65.06,7.21.19,4.21.19,5,.19a10.79,10.79,0,0,0,0-5.75l-6.82-1.23v-.07a.8.8,0,0,1-.15-.27,2.69,2.69,0,0,1-.16-.5,8.59,8.59,0,0,1-.15-.88c-.05-.38-.1-.81-.15-1.26s-.1-1-.12-1.77,0-1.48,0-2.3v-7.89h7.74q5.37,0,6.14.53m-76-19a13.48,13.48,0,0,1,10.7-4.64,15.76,15.76,0,0,1,10,3.41,21.39,21.39,0,0,1,6.48,8.13,23.1,23.1,0,0,1,2.11,9.47q0,7.44-3.68,12.22a12.3,12.3,0,0,1-10.35,4.79q-7.91,0-13.57-6.62a21.89,21.89,0,0,1-5.67-14.53q0-7.59,4-12.23m34.84.42a28.15,28.15,0,0,0-10.42-9.43,27,27,0,0,0-12.42-3.14q-5.37,0-15.18,6.59a23.37,23.37,0,0,0-10.81,20.39A23.75,23.75,0,0,0,319,279.43a28.37,28.37,0,0,0,10.35,9.39A26.06,26.06,0,0,0,341.47,292a22.38,22.38,0,0,0,7.74-1.61,29.91,29.91,0,0,0,7.2-3.76c1.49-1.07,2.42-1.76,2.8-2.07s1.2-1,2.46-2.11a11.74,11.74,0,0,0,2.56-2.91c.46-.84,1-2,1.77-3.41a15.67,15.67,0,0,0,1.45-4.79,40.36,40.36,0,0,0,.39-5.86,24.52,24.52,0,0,0-4.3-14.19M283,247.23l6.9-1.23a6.84,6.84,0,0,0,.38-2.91,6.29,6.29,0,0,0-.38-2.84c-.77,0-2.3.07-4.6.2s-4.58.19-6.82.19-4.53-.07-6.83-.19-3.83-.2-4.6-.2a6.29,6.29,0,0,0-.38,2.84A6.81,6.81,0,0,0,267,246l6.9,1.23.08.08a.87.87,0,0,0,.08.26,4.48,4.48,0,0,1,.15.5,6,6,0,0,1,.12.88c0,.39.06.81.11,1.27s.09,1.05.11,1.76,0,1.49,0,2.3v20.09l-20.31-23q-4.76-5.37-8.82-10.89l-3.9.16c-2.41,0-4.73-.07-7-.19l-3.61-.2a6.29,6.29,0,0,0-.38,2.84A6.81,6.81,0,0,0,231,246h.93a13.07,13.07,0,0,1,6.66,1.77V277.2q0,6.14-.69,7.05l-6.9,1.23a11.07,11.07,0,0,0,0,5.75c.77,0,2.3-.06,4.6-.19s4.58-.19,6.83-.19,4.52.06,6.82.19,3.83.19,4.6.19a11.07,11.07,0,0,0,0-5.75l-6.9-1.23-.08-.07a.87.87,0,0,0-.07-.27,1.83,1.83,0,0,1-.12-.5c0-.2-.06-.5-.11-.88s-.11-.81-.16-1.26-.09-1-.11-1.77,0-1.48,0-2.3V254.9l31.35,36.33a5.26,5.26,0,0,0,2.22.42,5.43,5.43,0,0,0,2.46-.42v-37q0-6.14.69-7.05m-74.51,22.61,1.15,5.06a7.89,7.89,0,0,0,4.9,0c0-.61,0-1.84-.11-3.68s-.12-3.57-.12-5.21,0-3.42.12-5.21.11-3,.11-3.61a10.15,10.15,0,0,0-4.9,0l-1.15,5.14-.39.08a7.36,7.36,0,0,1-1.84.27c-1,.07-2.32.11-3.91.11h-7.74V255q0-6.14.77-6.9h13.26q5.9,0,6.75.39l.38,5a6.44,6.44,0,0,0,2.68.31,7.11,7.11,0,0,0,2.76-.31q.08-.45.39-3.48t.69-5.33c.2-1.43.42-2.7.65-3.8s.37-1.87.42-2.33a8.63,8.63,0,0,0-2.72-.23,9.48,9.48,0,0,0-2.8.23L216.59,241l-.92.08a31.8,31.8,0,0,1-3.26.23c-1.55,0-3.31.07-5.25.07H190.07q-3.37,0-7.21-.19c-2.55-.13-4.21-.19-5-.19a7.64,7.64,0,0,0-.31,2.84,8.36,8.36,0,0,0,.31,2.91l6.75,1.23v.07a.8.8,0,0,1,.15.27,4.48,4.48,0,0,1,.15.5,8.11,8.11,0,0,1,.16.88c0,.38.1.8.15,1.27s.09,1,.12,1.76,0,1.48,0,2.3v21.61q0,6.13-.84,7.59l-6.82,1.23a13.49,13.49,0,0,0,0,5.75c.76,0,2.43-.06,5-.19s5-.19,7.21-.19q3.83,0,15.64.19t14.41.19a34.51,34.51,0,0,0,2.26-5.83,53.64,53.64,0,0,0,1.8-5.9,5.78,5.78,0,0,0-2.49-1,6.8,6.8,0,0,0-2.72-.12l-3.22,5.52-.46.15c-.31.06-1,.12-2.11.2s-2.44.11-4,.11l-13.65.08-.15-.54a9.68,9.68,0,0,1-.42-2.41,45.92,45.92,0,0,1-.2-4.64v-7.51h7.75c3.57,0,5.62.18,6.13.53m-53.2,0,1.15,5.06a7.89,7.89,0,0,0,4.9,0c0-.61,0-1.84-.11-3.68s-.12-3.57-.12-5.21,0-3.42.12-5.21.11-3,.11-3.61a10.15,10.15,0,0,0-4.9,0l-1.15,5.14-.39.08a7.36,7.36,0,0,1-1.84.27c-1,.07-2.32.11-3.91.11h-7.74V255q0-6.14.77-6.9h13.26c3.94,0,6.18.13,6.75.39l.38,5a6.44,6.44,0,0,0,2.68.31,7.11,7.11,0,0,0,2.76-.31q.07-.45.39-3.48t.69-5.33c.2-1.43.42-2.7.65-3.8s.37-1.87.42-2.33a8.63,8.63,0,0,0-2.72-.23,9.48,9.48,0,0,0-2.8.23L163.39,241l-.92.08a31.8,31.8,0,0,1-3.26.23c-1.55,0-3.31.07-5.25.07H136.87q-3.37,0-7.21-.19c-2.55-.13-4.21-.19-5-.19a7.64,7.64,0,0,0-.31,2.84,8.11,8.11,0,0,0,.31,2.91l6.75,1.23v.07a.8.8,0,0,1,.15.27,4.48,4.48,0,0,1,.15.5c.05.2.1.5.16.88s.1.8.15,1.27.09,1,.11,1.76,0,1.48,0,2.3v21.61q0,6.13-.84,7.59l-6.82,1.23a13.49,13.49,0,0,0,0,5.75c.76,0,2.42-.06,5-.19s5-.19,7.21-.19q3.83,0,15.63.19t14.42.19A34.51,34.51,0,0,0,169,285.4a53.64,53.64,0,0,0,1.8-5.9,5.78,5.78,0,0,0-2.49-1,6.8,6.8,0,0,0-2.72-.12l-3.22,5.52-.46.15c-.31.06-1,.12-2.11.2s-2.44.11-4,.11l-13.64.08-.15-.54a10,10,0,0,1-.43-2.41c-.12-1.25-.19-2.8-.19-4.64v-7.51h7.74q5.37,0,6.14.53m-43.39-22.61,7.28-1.23a6.62,6.62,0,0,0,.39-2.91,6.1,6.1,0,0,0-.39-2.84c-.76,0-2.43.07-5,.2s-5,.19-7.21.19-4.65-.07-7.2-.19-4.22-.2-5-.2a6.1,6.1,0,0,0-.39,2.84,6.59,6.59,0,0,0,.39,2.91l7.35,1.23.08.08a.87.87,0,0,0,.08.26,4.48,4.48,0,0,1,.15.5c0,.21.1.5.15.88s.11.81.16,1.27.09,1.05.11,1.76,0,1.49,0,2.3v10.89a37.71,37.71,0,0,1-.61,7.2,22.79,22.79,0,0,1-2,5.94,9.79,9.79,0,0,1-4.22,4.3,14.32,14.32,0,0,1-6.78,1.49c-5.17,0-8.88-1.76-11.16-5.29s-3.41-8.07-3.41-13.64V254.28q0-6.14.77-7.05L82.29,246a8.36,8.36,0,0,0,.31-2.91,7.67,7.67,0,0,0-.31-2.84c-.77,0-2.43.07-5,.2s-5,.19-7.21.19-4.65-.07-7.2-.19-4.22-.2-5-.2a7.76,7.76,0,0,0-.3,2.84,8.41,8.41,0,0,0,.3,2.91l6.83,1.23.07.08a.87.87,0,0,0,.08.26,4.48,4.48,0,0,1,.15.5c0,.21.1.5.16.88s.1.81.15,1.27.09,1.05.12,1.76,0,1.49,0,2.3v10.89a45.77,45.77,0,0,0,.46,6.51,33.12,33.12,0,0,0,1.92,6.94,21.67,21.67,0,0,0,3.83,6.52,18.48,18.48,0,0,0,6.71,4.6,25.21,25.21,0,0,0,10.08,1.87,24.61,24.61,0,0,0,10-1.87,18.37,18.37,0,0,0,6.6-4.6,21.37,21.37,0,0,0,3.75-6.56,32.72,32.72,0,0,0,1.84-6.9,47.92,47.92,0,0,0,.42-6.51V254.28q0-6.14.77-7.05m-97.39,3.6a13.47,13.47,0,0,1,10.61-4.67A15.92,15.92,0,0,1,35,249.53a20.92,20.92,0,0,1,6.52,8,22.84,22.84,0,0,1,2.1,9.43q0,7.44-3.68,12.23A12.29,12.29,0,0,1,29.63,284q-8,0-13.61-6.67a21.91,21.91,0,0,1-5.64-14.42q0-7.42,4.11-12.11m36.45,3.45a26.05,26.05,0,0,0-6.48-8.47,31.1,31.1,0,0,0-8.7-5.21,25.39,25.39,0,0,0-9.35-1.88q-5.52,0-15.18,6.52Q.41,252.44.42,266A23,23,0,0,0,7.2,282.45a29.27,29.27,0,0,0,15.53,8.86q10.35,2.22,16.32,3.29a10.07,10.07,0,0,1,3.87,1.46,12,12,0,0,1,2.69,2.3c.69.82,1.42,1.6,2.18,2.34a9.49,9.49,0,0,0,3,1.87,11.88,11.88,0,0,0,4.56.77,6.8,6.8,0,0,0,3.76-1.19,13.75,13.75,0,0,0,2.45-1.87,10.1,10.1,0,0,0,.92-1.16,3.83,3.83,0,0,0-1.61-2.83l-4.6.61a16.08,16.08,0,0,0-3.68-5.1,15.41,15.41,0,0,0-5-3.49l-10.58.85a38,38,0,0,0,5.06-2.84c1.53-1.07,2.65-1.89,3.37-2.45a29.33,29.33,0,0,0,2.91-2.76,14.35,14.35,0,0,0,2.73-3.83,28.23,28.23,0,0,0,1.61-5,30.74,30.74,0,0,0,.72-6.93,24.63,24.63,0,0,0-2.52-11"/><path d="M678.56,178.77a4.86,4.86,0,0,0,.69,2.76l4.76,1.69v24.15a5.24,5.24,0,0,0,.65,2.72,3.63,3.63,0,0,0,1,1.3,5.07,5.07,0,0,0,.61.27l6.91-1.53V184.75l7.89-1.61a3.82,3.82,0,0,1,2.84,1.77,10.3,10.3,0,0,1,.76,4.67v13.34q0,4.83,1,6.78c.69,1.31,2,2,4,2a37.92,37.92,0,0,0,8.12-1.46,9.16,9.16,0,0,0,.23-2.53l-4.14-2.45V184.14q0-8.5-9.58-8.51l-11.11,5a8.25,8.25,0,0,0-1.12-4.06,3.35,3.35,0,0,0-3-1.69q-1.92,0-10.51,3.91m-24.91,3.14a10.87,10.87,0,0,1,8.85,3.57,12.9,12.9,0,0,1,3.34,8.93q0,6.6-4.75,10a10.7,10.7,0,0,1-9.2-3.41,13.06,13.06,0,0,1-3.61-9.24q0-7,5.37-9.89M669.14,180c-3.79-3.4-7.87-5.1-12.27-5.1a12.22,12.22,0,0,0-4.71,1.5,33.29,33.29,0,0,0-5.41,3.18,16.44,16.44,0,0,0-7.36,14.26A16.81,16.81,0,0,0,645.07,207q5.67,5.06,12.18,5.06,3.91,0,9.66-4.06c1.13-.77,1.92-1.33,2.38-1.69a20.82,20.82,0,0,0,2-1.92,10.52,10.52,0,0,0,1.92-2.68,17.36,17.36,0,0,0,1.11-3.49,21.94,21.94,0,0,0,.5-4.86A17.14,17.14,0,0,0,669.14,180m-40.75-3.37a3.39,3.39,0,0,0-3.1-1.73q-1.92,0-10.5,3.91a4.71,4.71,0,0,0,.69,2.76l4.75,1.69v19.7q0,4.29,2.26,6.51a7.33,7.33,0,0,0,5.33,2.23c1,0,2.19-.63,3.68-1.88a26.44,26.44,0,0,0,3.14-3c.61-.74,1.1-1.37,1.46-1.88a7,7,0,0,0-1.15-2.22l-5.52.69V180.76a8,8,0,0,0-1-4.17M619.65,169a7.7,7.7,0,0,0,1.5,1.91q7.43,0,10.58-6.36a4.92,4.92,0,0,0-1.42-3.3,4.38,4.38,0,0,0-3.26-1.38l-8,6.6a7.46,7.46,0,0,0,.57,2.53m-29,27.9a14.91,14.91,0,0,0,1.19,6.09,12.4,12.4,0,0,0,2.91,4.3,17.69,17.69,0,0,0,7.59,4,14.59,14.59,0,0,0,2.95.35l7.51-7a5.14,5.14,0,0,0-1.07-1.8,2.47,2.47,0,0,0-1.61-1L607.35,203c-1.48-.26-2.57-.49-3.26-.69a6.75,6.75,0,0,1-2.22-1.27,4.87,4.87,0,0,1-1.61-2.83,23.54,23.54,0,0,1-.42-5V182.38l13-1.08a7.11,7.11,0,0,0-.84-3.87,3.39,3.39,0,0,0-2-1.8l-10.19.77c0-2.76-.38-4.74-1.11-5.94a4.19,4.19,0,0,0-3.88-1.81l-3.91,7a24,24,0,0,0-5.44,3.83,6,6,0,0,0,.54,3.15l4.6.3v14Zm-30,5.63a3.61,3.61,0,0,1-1.15-2.72,3.71,3.71,0,0,1,.57-2,5.32,5.32,0,0,1,1.3-1.46,11.43,11.43,0,0,1,2.23-1.15,20,20,0,0,1,2.53-.88l3-.8v7.82c-3.16,1.53-5.06,2.3-5.67,2.3a3.88,3.88,0,0,1-2.83-1.12m-6.1-16.48a6.37,6.37,0,0,0,3.18.19,6,6,0,0,0,1.88-2.07,7.82,7.82,0,0,1,1.88-2.22,5.46,5.46,0,0,1,3.37-.84,4.11,4.11,0,0,1,3.15,1.23c.76.81,1.15,2.5,1.15,5.06v1.76L557.52,193a8.59,8.59,0,0,0-5,3.34,9.25,9.25,0,0,0-1.76,5.48q0,5.05,2.49,7.47t7.7,2.42l1.15-.61c.77-.41,1.84-1.06,3.22-2s2.69-1.8,3.91-2.72a7.24,7.24,0,0,0,1.42,4.06,4.48,4.48,0,0,0,3.49,1.23,37.92,37.92,0,0,0,8.12-1.46,8.79,8.79,0,0,0,.23-2.53l-4.14-2.45V184.14q0-8.5-9.58-8.51a63.68,63.68,0,0,0-14.18,2.22,14.32,14.32,0,0,0-2.53,7,5.76,5.76,0,0,0,2.49,1.26m-17.9-.72a7.33,7.33,0,0,1,.85,3.44q0,4.38-5.83,12l-5.83-12q3.52-5.06,7.9-5.06a3,3,0,0,1,2.91,1.62M526,210.81l.61.54a2.46,2.46,0,0,0,1.61.69,3.42,3.42,0,0,0,2.3-1q4.29-4,9.05-12.53t4.75-13.76a10.46,10.46,0,0,0-2.53-6.86,7.59,7.59,0,0,0-6-3q-3.23,0-6.48,3.3a27.33,27.33,0,0,0-5.17,7.2l-2.84-5.9c-1.23-2.55-2.68-3.83-4.37-3.83a4.37,4.37,0,0,0-1.61.38q-1.68.93-7.67,8.2a4.55,4.55,0,0,0,1.92,2.15l4.75-1.15,7.44,14.64a45.51,45.51,0,0,1,4.22,11m-40.09-8.24a3.62,3.62,0,0,1-1.16-2.72,3.72,3.72,0,0,1,.58-2,5.32,5.32,0,0,1,1.3-1.46,11.43,11.43,0,0,1,2.23-1.15,19.9,19.9,0,0,1,2.52-.88l3-.8v7.82q-4.76,2.3-5.67,2.3a3.88,3.88,0,0,1-2.83-1.12m-6.1-16.48a6.37,6.37,0,0,0,3.18.19,6,6,0,0,0,1.88-2.07,7.82,7.82,0,0,1,1.88-2.22,5.46,5.46,0,0,1,3.37-.84,4.11,4.11,0,0,1,3.15,1.23c.76.81,1.15,2.5,1.15,5.06v1.76L482.78,193a8.59,8.59,0,0,0-5,3.34,9.25,9.25,0,0,0-1.76,5.48q0,5.05,2.49,7.47t7.7,2.42l1.15-.61c.77-.41,1.84-1.06,3.22-2s2.69-1.8,3.91-2.72a7.24,7.24,0,0,0,1.42,4.06,4.48,4.48,0,0,0,3.49,1.23,37.92,37.92,0,0,0,8.12-1.46,8.79,8.79,0,0,0,.23-2.53l-4.14-2.45V184.14q0-8.5-9.58-8.51a63.68,63.68,0,0,0-14.18,2.22,14.32,14.32,0,0,0-2.53,7,5.76,5.76,0,0,0,2.49,1.26m-13.11-10a17.77,17.77,0,0,0-7-1.23q-1.45,0-5,1.88a36,36,0,0,0-5.45,3.41,17.3,17.3,0,0,0-4.9,6.06,19.49,19.49,0,0,0-1.54,8.28,20.62,20.62,0,0,0,1.19,7.24,15.15,15.15,0,0,0,3,5.06,15.46,15.46,0,0,0,4.07,3.1,17.39,17.39,0,0,0,4.37,1.69,18.46,18.46,0,0,0,4.06.46,15.19,15.19,0,0,0,6.67-1.88q3.75-1.87,4.45-3.95a3.3,3.3,0,0,0-1-1.91,2.59,2.59,0,0,0-1.65-1l-7.2,2.15a9.3,9.3,0,0,1-6.29-4.72A17,17,0,0,1,452,191.8a12.55,12.55,0,0,1,1.92-6.86,11.59,11.59,0,0,1,5.21-4.48,12.3,12.3,0,0,1,4.57,2,6.23,6.23,0,0,0,2.49,1.38,4,4,0,0,0,3.1-1.69,5.14,5.14,0,0,0,1.42-3.29,9.76,9.76,0,0,0-4-2.76m-53.2,47.64a5.32,5.32,0,0,0,3.34-2.26l2.22-16.1a18.07,18.07,0,0,0,5.37,4.87,11.44,11.44,0,0,0,5.75,1.8l7.51-7a5.49,5.49,0,0,0-1.07-1.8,2.49,2.49,0,0,0-1.61-1l-2.76,1.15a8.33,8.33,0,0,1-5.72-3.07q-1.8-2.44-1.8-8.51a10.67,10.67,0,0,1,4.07-8.43l1.3-.23a7.19,7.19,0,0,1,2.49.54,7.43,7.43,0,0,0,2.65.53q.76,0,2.1-2.07a12.9,12.9,0,0,0,1.73-3.52,7.46,7.46,0,0,0-6.29-2.91q-4.29,0-10.58,7.59l-2-4c-.51-1-.9-1.75-1.15-2.19a6.74,6.74,0,0,0-1.27-1.45,2.64,2.64,0,0,0-1.8-.81,4.25,4.25,0,0,0-1.61.39q-1.68.92-7.2,7.51a3.27,3.27,0,0,0,1.76,2.45l4.45-.76.23.15a2.18,2.18,0,0,1,.53.88,19.27,19.27,0,0,1,.66,1.84,21.53,21.53,0,0,1,.61,3.34c.18,1.48.29,3.16.34,5.06q-.22,1-1.34,5.25c-.74,2.83-1.3,5-1.68,6.51s-.84,3.43-1.35,5.75-.89,4.33-1.15,6a29.83,29.83,0,0,0-.38,4.22,4.67,4.67,0,0,0,3.64.26m-24.95-33.46,1.15,5.06a8.12,8.12,0,0,0,4.91,0c0-.61,0-1.84-.12-3.68s-.11-3.58-.11-5.21,0-3.43.11-5.22.12-3,.12-3.6a9.88,9.88,0,0,0-4.91,0l-1.15,5.14-.38.07a6.62,6.62,0,0,1-1.84.27c-1,.08-2.33.12-3.91.12H374.7V175.4q0-6.14.76-6.9h13.27q5.89,0,6.74.38l.38,5.06a6.47,6.47,0,0,0,2.69.31,7.11,7.11,0,0,0,2.76-.31c.05-.31.18-1.47.38-3.49s.44-3.79.69-5.32.42-2.7.65-3.8.37-1.88.42-2.34a8.88,8.88,0,0,0-2.72-.23,9.72,9.72,0,0,0-2.79.23l-1.23,2.46-.92.07a27,27,0,0,1-3.26.23c-1.56.06-3.31.08-5.25.08h-17.1q-3.37,0-7.2-.19c-2.56-.13-4.22-.19-5-.19a7.35,7.35,0,0,0-.31,2.83,8.14,8.14,0,0,0,.31,2.92l6.74,1.22v.08a1,1,0,0,1,.16.27,3.91,3.91,0,0,1,.15.5,8.12,8.12,0,0,1,.15.88c.05.38.1.8.16,1.26s.08,1.05.11,1.77,0,1.48,0,2.29v21.62q0,6.14-.84,7.59l-6.83,1.23a13.93,13.93,0,0,0,0,5.75c.77,0,2.43-.07,5-.19s4.95-.2,7.2-.2q3.84,0,15.64.2t14.41.19a33.57,33.57,0,0,0,2.26-5.83,53.64,53.64,0,0,0,1.8-5.9,5.91,5.91,0,0,0-2.49-1,6.77,6.77,0,0,0-2.72-.11l-3.22,5.52-.46.15c-.3.05-1,.12-2.11.19s-2.44.12-4,.12l-13.65.08-.15-.54a10.78,10.78,0,0,1-.42-2.42,46.07,46.07,0,0,1-.19-4.63v-7.52h7.74q5.37,0,6.13.54m-60.13-29.4a3.39,3.39,0,0,0-3.11-1.72q-1.92,0-10.5,3.91a4.86,4.86,0,0,0,.69,2.76l4.75,1.68v35.42q0,4.29,2.26,6.51a7.34,7.34,0,0,0,5.33,2.23c1,0,2.2-.63,3.68-1.88a26.44,26.44,0,0,0,3.14-3c.62-.74,1.1-1.37,1.46-1.88a7,7,0,0,0-1.15-2.22l-5.52.69V165.05a8.09,8.09,0,0,0-1-4.18m-38.14,41.7a3.61,3.61,0,0,1-1.15-2.72,3.71,3.71,0,0,1,.57-2A5.35,5.35,0,0,1,291,196.4a11,11,0,0,1,2.22-1.15,20,20,0,0,1,2.53-.88l3-.8v7.82q-4.76,2.3-5.68,2.3a3.88,3.88,0,0,1-2.83-1.12m-6.1-16.48a6.37,6.37,0,0,0,3.18.19,5.86,5.86,0,0,0,1.88-2.07,8,8,0,0,1,1.88-2.22,5.46,5.46,0,0,1,3.37-.84,4.11,4.11,0,0,1,3.15,1.23c.76.81,1.15,2.5,1.15,5.06v1.76L287.16,193a8.58,8.58,0,0,0-5,3.34,9.32,9.32,0,0,0-1.76,5.48q0,5.05,2.49,7.47t7.71,2.42l1.15-.61c.76-.41,1.83-1.06,3.21-2s2.69-1.8,3.91-2.72a7.24,7.24,0,0,0,1.42,4.06,4.48,4.48,0,0,0,3.49,1.23,38.08,38.08,0,0,0,8.13-1.46,9.16,9.16,0,0,0,.23-2.53L308,205.22V184.14q0-8.5-9.59-8.51a63.68,63.68,0,0,0-14.18,2.22,14.32,14.32,0,0,0-2.53,7,5.76,5.76,0,0,0,2.49,1.26m-13.1-10a17.86,17.86,0,0,0-7-1.23q-1.45,0-5,1.88a35.82,35.82,0,0,0-5.44,3.41,17.33,17.33,0,0,0-4.91,6.06,19.65,19.65,0,0,0-1.53,8.28,20.4,20.4,0,0,0,1.19,7.24,14.83,14.83,0,0,0,3,5.06,15.41,15.41,0,0,0,4.06,3.1,17.39,17.39,0,0,0,4.37,1.69,18.46,18.46,0,0,0,4.06.46,15.16,15.16,0,0,0,6.67-1.88q3.76-1.87,4.45-3.95a3.24,3.24,0,0,0-1-1.91,2.59,2.59,0,0,0-1.64-1l-7.21,2.15a9.32,9.32,0,0,1-6.29-4.72,17,17,0,0,1-2.37-8.93,12.63,12.63,0,0,1,1.91-6.86,11.56,11.56,0,0,1,5.22-4.48,12.18,12.18,0,0,1,4.56,2,6.23,6.23,0,0,0,2.49,1.38,4,4,0,0,0,3.1-1.69,5.14,5.14,0,0,0,1.42-3.29,9.78,9.78,0,0,0-4-2.76m-34.42.5a3.4,3.4,0,0,0-3.11-1.73c-1.27,0-4.78,1.3-10.5,3.91a4.86,4.86,0,0,0,.69,2.76l4.75,1.69v19.7q0,4.29,2.27,6.51a7.3,7.3,0,0,0,5.32,2.23c1,0,2.2-.63,3.68-1.88a26.71,26.71,0,0,0,3.15-3c.61-.74,1.09-1.37,1.45-1.88a7,7,0,0,0-1.15-2.22l-5.52.69V180.76a8,8,0,0,0-1-4.17M227.94,169a7.86,7.86,0,0,0,1.49,1.91q7.44,0,10.58-6.36a4.83,4.83,0,0,0-1.42-3.3,4.36,4.36,0,0,0-3.25-1.38l-8,6.6a7.43,7.43,0,0,0,.58,2.53m-35.3,9.73v.31a4.19,4.19,0,0,0,.69,2.45l4.75,1.69v24.15a5.34,5.34,0,0,0,.65,2.72,3.62,3.62,0,0,0,1,1.3,4.46,4.46,0,0,0,.61.27l6.9-1.53V184.91l2.07-.92a8.06,8.06,0,0,1,3.53-.73,13.8,13.8,0,0,1,2.3.76,5.24,5.24,0,0,0,2.68.43,6.4,6.4,0,0,0,2.26-2.46,6,6,0,0,0,1-2.76,8.87,8.87,0,0,0-6.13-3.6l-7.75,4.22c-.3-3.33-1.66-5-4.06-5q-1.92,0-10.5,3.91m-24.91,3.14a10.87,10.87,0,0,1,8.85,3.57,12.93,12.93,0,0,1,3.33,8.93q0,6.6-4.75,10A10.71,10.71,0,0,1,166,201a13.1,13.1,0,0,1-3.6-9.24q0-7,5.37-9.89M183.21,180a18,18,0,0,0-12.27-5.1,12.22,12.22,0,0,0-4.71,1.5,33.17,33.17,0,0,0-5.4,3.18,16.42,16.42,0,0,0-7.36,14.26A16.83,16.83,0,0,0,159.14,207q5.67,5.06,12.19,5.06,3.9,0,9.66-4.06c1.12-.77,1.91-1.33,2.37-1.69a20.64,20.64,0,0,0,2-1.92,10.46,10.46,0,0,0,1.91-2.68,18,18,0,0,0,1.12-3.49,22,22,0,0,0,.49-4.86A17.14,17.14,0,0,0,183.21,180m-56.27,17a15.07,15.07,0,0,0,1.19,6.09,12.42,12.42,0,0,0,2.92,4.3,17.74,17.74,0,0,0,7.58,4,14.59,14.59,0,0,0,3,.35l7.52-7a5.33,5.33,0,0,0-1.08-1.8,2.47,2.47,0,0,0-1.61-1L143.65,203c-1.48-.26-2.56-.49-3.25-.69a6.78,6.78,0,0,1-2.23-1.27,4.87,4.87,0,0,1-1.61-2.83,23.54,23.54,0,0,1-.42-5V182.38l13-1.08a7.11,7.11,0,0,0-.84-3.87,3.37,3.37,0,0,0-2-1.8l-10.2.77q0-4.14-1.11-5.94a4.16,4.16,0,0,0-3.87-1.81l-3.91,7a23.75,23.75,0,0,0-5.44,3.83,5.83,5.83,0,0,0,.53,3.15l4.6.3v14Zm-18.2-14.87a15.64,15.64,0,0,1,4.87,5.06c1.63,0,2.73-.49,3.29-1.46l-1.07-7.59a23.39,23.39,0,0,0-5.44-2.49,24.37,24.37,0,0,0-6.52-.73,13.21,13.21,0,0,0-3.18.54,31.72,31.72,0,0,0-4.64,1.69,11,11,0,0,0-4.44,3.6,9.17,9.17,0,0,0-1.84,5.67,10.32,10.32,0,0,0,.8,3.91,11.15,11.15,0,0,0,3.68,4.22,17.76,17.76,0,0,0,7.47,3.14c3.38.67,5.52,1.35,6.44,2.07a3.33,3.33,0,0,1,1.38,2.76q0,2.53-3.22,4.06c-.87,0-1.66,0-2.37,0a8.21,8.21,0,0,1-2-.3l-1.61-.43a4.52,4.52,0,0,1-1.46-.69c-.54-.35-.95-.61-1.23-.76a7.13,7.13,0,0,1-1.22-1c-.54-.51-.9-.87-1.08-1.07l-1.19-1.34c-.61-.69-1-1.14-1.22-1.34A3.69,3.69,0,0,0,89.53,201l1.31,7.74Q96.59,212,105,212a12.41,12.41,0,0,0,2.8-.5,30.1,30.1,0,0,0,4.33-1.57,11.2,11.2,0,0,0,4.25-3.29,7.84,7.84,0,0,0,1.8-5.06,10.17,10.17,0,0,0-3.18-7.75q-3.18-3-10.69-4.14a10.18,10.18,0,0,1-4.68-1.57,3,3,0,0,1-1.45-2.34c0-2.24,1.2-3.91,3.6-5q4.68,0,6.94,1.23M79,176.59a3.4,3.4,0,0,0-3.11-1.73q-1.92,0-10.5,3.91a4.86,4.86,0,0,0,.69,2.76l4.75,1.69v19.7c0,2.86.76,5,2.26,6.51a7.34,7.34,0,0,0,5.33,2.23c1,0,2.2-.63,3.68-1.88a26.44,26.44,0,0,0,3.14-3c.62-.74,1.1-1.37,1.46-1.88a7,7,0,0,0-1.15-2.22l-5.52.69V180.76a8,8,0,0,0-1-4.17M70.26,169A7.86,7.86,0,0,0,71.75,171q7.44,0,10.58-6.36a4.88,4.88,0,0,0-1.42-3.3,4.37,4.37,0,0,0-3.26-1.38l-8,6.6a7.43,7.43,0,0,0,.58,2.53M54,167.66l6.82-1.23a6.67,6.67,0,0,0,.38-2.91,6.12,6.12,0,0,0-.38-2.84c-.77,0-2.43.06-5,.19s-5,.19-7.21.19-4.65-.06-7.2-.19-4.22-.19-5-.19a6.26,6.26,0,0,0-.38,2.84,6.84,6.84,0,0,0,.38,2.91l6.83,1.23v.07a.92.92,0,0,1,.15.27,4.48,4.48,0,0,1,.15.5c.05.2.1.5.16.88s.1.81.15,1.27.09,1,.11,1.76,0,1.48,0,2.3V183c-2.6.15-6,.23-10.12.23H27.29q-6.21,0-10.12-.23v-8.28q0-6.14.77-7.05l6.82-1.23a6.62,6.62,0,0,0,.39-2.91,6.07,6.07,0,0,0-.39-2.84c-.76,0-2.43.06-5,.19s-5,.19-7.21.19-4.65-.06-7.2-.19-4.22-.19-5-.19A6.07,6.07,0,0,0,0,163.52a6.84,6.84,0,0,0,.38,2.91l6.83,1.23v.07a.92.92,0,0,1,.15.27,4.48,4.48,0,0,1,.15.5c0,.2.1.5.16.88s.1.81.15,1.27.09,1,.11,1.76,0,1.48,0,2.3v22.92q0,6.13-.76,7.05L.39,205.91A6.17,6.17,0,0,0,0,208.78a6.42,6.42,0,0,0,.38,2.88c.77,0,2.43-.07,5-.19s5-.2,7.2-.2,4.65.07,7.21.2,4.21.19,5,.19a11.07,11.07,0,0,0,0-5.75l-6.82-1.23v-.08a.79.79,0,0,1-.16-.27,3.7,3.7,0,0,1-.15-.49c-.05-.21-.1-.5-.15-.88s-.11-.81-.16-1.27-.09-1-.11-1.76,0-1.48,0-2.3v-7.51q5.22-.31,10.12-.31h6.59q4.75,0,10.12.31v7.51c0,4.09-.25,6.44-.77,7.05l-6.82,1.23a11.07,11.07,0,0,0,0,5.75c.77,0,2.43-.07,5-.19s5-.2,7.21-.2,4.65.07,7.2.2,4.22.19,5,.19a11.07,11.07,0,0,0,0-5.75L54,204.68v-.08a.66.66,0,0,1-.16-.27,3.7,3.7,0,0,1-.15-.49c0-.21-.1-.5-.15-.88s-.11-.81-.16-1.27-.09-1-.11-1.76,0-1.48,0-2.3V174.71q0-6.14.77-7.05"/><path d="M696.39,110.12a8.24,8.24,0,0,0,.31,2.65l8.89.69v4.67a14.32,14.32,0,0,1-.92,6A39.81,39.81,0,0,1,694,125.49,19.89,19.89,0,0,1,679,119a21.29,21.29,0,0,1-6.13-15.14c0-5.26,1.42-9.45,4.29-12.57s7.05-4.67,12.57-4.67a64.86,64.86,0,0,1,8.32.72q5.25.74,7,2.19a9.89,9.89,0,0,1,2.11,2.83,11.61,11.61,0,0,1,1.19,2.76,4.15,4.15,0,0,0,2.07.5,4.43,4.43,0,0,0,2.3-.5c.46-.4.62-2.55.5-6.43s-.66-6-1.58-6.37q-5.13-2.67-20.23-2.68a24.71,24.71,0,0,0-8.55,1.19,45,45,0,0,0-8.17,4.56q-11.81,8-11.8,21.39a23.25,23.25,0,0,0,4.29,13.64,28.69,28.69,0,0,0,23.38,12.42,35.5,35.5,0,0,0,14.57-2.68,36,36,0,0,0,6-3.72c2.1-1.56,3.15-2.82,3.15-3.8V109.09a6.85,6.85,0,0,0-1.5-2.76,4.55,4.55,0,0,0-2.18-1.46l-13.95,2.61a8.13,8.13,0,0,0-.31,2.64m-43.77-22,6.9-1.22a6.86,6.86,0,0,0,.38-2.92,6.21,6.21,0,0,0-.38-2.83c-.77,0-2.3.06-4.6.19s-4.58.19-6.82.19-4.53-.06-6.83-.19-3.83-.19-4.6-.19a6.21,6.21,0,0,0-.38,2.83,6.86,6.86,0,0,0,.38,2.92l6.9,1.22.08.08a1,1,0,0,0,.08.27,3.91,3.91,0,0,1,.15.5,5.65,5.65,0,0,1,.12.88c0,.38.06.8.11,1.26s.09,1.05.12,1.77,0,1.48,0,2.29v20.09L624,92.22q-4.76-5.35-8.82-10.88l-3.9.15c-2.41,0-4.73-.06-7-.19s-3.45-.19-3.6-.19a6,6,0,0,0-.39,2.83,6.65,6.65,0,0,0,.39,2.92h.92a13.06,13.06,0,0,1,6.66,1.76v29.44q0,6.12-.68,7l-6.9,1.22a6.22,6.22,0,0,0-.39,2.88,6.14,6.14,0,0,0,.39,2.87c.76,0,2.3-.06,4.59-.19s4.58-.19,6.83-.19,4.52.07,6.82.19,3.83.19,4.6.19a11.07,11.07,0,0,0,0-5.75l-6.9-1.22-.08-.08a.87.87,0,0,0-.07-.27,2.19,2.19,0,0,1-.12-.49c0-.21-.06-.5-.11-.89s-.11-.8-.16-1.26-.09-1.05-.11-1.76,0-1.49,0-2.3V95.75l31.35,36.33a5.42,5.42,0,0,0,2.23.43,5.52,5.52,0,0,0,2.45-.43V95.14q0-6.14.69-7.06m-67.38,0,6.82-1.22a6.86,6.86,0,0,0,.38-2.92,6.21,6.21,0,0,0-.38-2.83c-.77,0-2.43.06-5,.19s-5,.19-7.21.19-4.65-.06-7.21-.19-4.21-.19-5-.19a6.06,6.06,0,0,0-.38,2.83,6.7,6.7,0,0,0,.38,2.92l6.82,1.22v.08a.79.79,0,0,1,.16.27,3.91,3.91,0,0,1,.15.5c.05.2.1.49.16.88s.1.8.15,1.26.09,1.05.11,1.77,0,1.48,0,2.29v22.93q0,6.12-.76,7l-6.83,1.22a6.42,6.42,0,0,0-.38,2.88,6.33,6.33,0,0,0,.38,2.87c.77,0,2.43-.06,5-.19s5-.19,7.2-.19,4.65.07,7.21.19,4.21.19,5,.19a6.33,6.33,0,0,0,.38-2.87,6.42,6.42,0,0,0-.38-2.88l-6.82-1.22V125a.66.66,0,0,1-.16-.27,3.7,3.7,0,0,1-.15-.49,8.89,8.89,0,0,1-.15-.89c-.06-.38-.11-.8-.16-1.26s-.09-1.05-.11-1.76,0-1.49,0-2.3V95.14c0-4.09.25-6.44.77-7.06m-58.34,0,6.82-1.22a6.65,6.65,0,0,0,.39-2.92,6,6,0,0,0-.39-2.83c-.76,0-2.43.06-5,.19s-5,.19-7.21.19-4.65-.06-7.2-.19-4.22-.19-5-.19a6,6,0,0,0-.39,2.83,6.65,6.65,0,0,0,.39,2.92l6.82,1.22v.08a.8.8,0,0,1,.15.27c0,.13.1.29.16.5a8.12,8.12,0,0,1,.15.88q.07.57.15,1.26t.12,1.77c0,.71,0,1.48,0,2.29v22.93q0,6.12-.77,7l-6.82,1.22a6.22,6.22,0,0,0-.39,2.88,6.14,6.14,0,0,0,.39,2.87c.76,0,2.42-.06,5-.19s5-.19,7.21-.19,4.65.07,7.2.19,4.22.19,5,.19a6.14,6.14,0,0,0,.39-2.87,6.22,6.22,0,0,0-.39-2.88l-6.82-1.22V125a.8.8,0,0,1-.15-.27,3.53,3.53,0,0,1-.16-.49,8.89,8.89,0,0,1-.15-.89q-.08-.57-.15-1.26c0-.46-.09-1.05-.12-1.76s0-1.49,0-2.3v-6.29c1.43-1.33,2.92-2.63,4.45-3.91l2.07-1.76A27.46,27.46,0,0,0,543,113.76a14.86,14.86,0,0,1,1.46,5q.52,3.48.95,6.32a9.93,9.93,0,0,0,2.38,5.1,6.84,6.84,0,0,0,5.48,2.26,83,83,0,0,0,8.36-.39,20.25,20.25,0,0,0,.15-2.83,6.89,6.89,0,0,0-.31-2.53l-5.36-1.23q-1.54-13.56-4-17.94a39.57,39.57,0,0,1-7.63-2.79,17.42,17.42,0,0,1-5.17-4.18l5.21-4.37q8.21-6.9,12.19-8.43a15.77,15.77,0,0,1,3.45-.92,8.39,8.39,0,0,0,.31-2.92,7.61,7.61,0,0,0-.31-2.83c-.56,0-1.89.06-4,.19s-4,.19-5.67.19q-3.37,0-7.21-.19c-2.55-.13-4.21-.19-5-.19a6.21,6.21,0,0,0-.38,2.83,6.86,6.86,0,0,0,.38,2.92l6,.84-6.9,5.67-10.65,8-.62.46V95.13q0-6.12.77-7m-51.44,0,6.9-1.22a6.65,6.65,0,0,0,.39-2.92,6,6,0,0,0-.39-2.83c-.76,0-2.3.06-4.6.19s-4.57.19-6.82.19-4.52-.06-6.82-.19-3.83-.19-4.6-.19a6,6,0,0,0-.39,2.83,6.65,6.65,0,0,0,.39,2.92l6.9,1.22.07.08a1,1,0,0,0,.08.27c.05.13.1.29.16.5a5.9,5.9,0,0,1,.11.88c0,.38.06.8.12,1.26s.08,1.05.11,1.77,0,1.48,0,2.29v20.09l-20.32-23q-4.74-5.35-8.81-10.88l-3.91.15q-3.6,0-7-.19c-2.25-.13-3.45-.19-3.6-.19a6.06,6.06,0,0,0-.38,2.83,6.7,6.7,0,0,0,.38,2.92h.92a13.1,13.1,0,0,1,6.67,1.76v29.44q0,6.12-.69,7l-6.9,1.22a6.27,6.27,0,0,0-.38,2.88,6.19,6.19,0,0,0,.38,2.87c.77,0,2.3-.06,4.6-.19s4.57-.19,6.82-.19,4.53.07,6.83.19,3.83.19,4.59.19a6.14,6.14,0,0,0,.39-2.87,6.22,6.22,0,0,0-.39-2.88l-6.89-1.22-.08-.08a1,1,0,0,0-.08-.27,1.79,1.79,0,0,1-.11-.49c0-.21-.07-.5-.12-.89s-.1-.8-.15-1.26-.09-1.05-.12-1.76,0-1.49,0-2.3V95.75l31.36,36.33a5.4,5.4,0,0,0,2.22.43,5.49,5.49,0,0,0,2.45-.43V95.14q0-6.14.69-7.06m-87.31-1.22,6.13,16.78H381.56l5.82-16.48ZM401.49,125l-7.44,1.38a6.42,6.42,0,0,0-.38,2.88,6.33,6.33,0,0,0,.38,2.87c.77,0,2.43-.06,5-.19s5-.19,7.21-.19,4.65.07,7.21.19,4.21.19,5,.19a6.33,6.33,0,0,0,.38-2.87,6.42,6.42,0,0,0-.38-2.88l-6.36-1.3-3.61-7.89-12.87-34a28.75,28.75,0,0,0,5.13-4A7.1,7.1,0,0,0,399,75.93a9.46,9.46,0,0,0-2.84-2.64L380.41,83.94l-12,32.43q-2.83,7.66-3.83,8.59L358,126.34a6.33,6.33,0,0,0-.38,2.87,6.42,6.42,0,0,0,.38,2.88c.77,0,2.43-.07,5-.2s4.95-.19,7.2-.19,4.65.07,7.21.19,4.21.2,5,.2a6.27,6.27,0,0,0,.38-2.88,6.19,6.19,0,0,0-.38-2.87L375,125l.15-1.15c.1-.72.28-1.69.53-2.92a22.08,22.08,0,0,1,.92-3.22l2.61-7.43h17.48l3.22,8.74a37.77,37.77,0,0,1,1.61,6M346.14,88.08,353,86.86a6.86,6.86,0,0,0,.38-2.92,6.21,6.21,0,0,0-.38-2.83c-.77,0-2.43.06-5,.19s-5,.19-7.2.19-4.66-.06-7.21-.19-4.22-.19-5-.19a6,6,0,0,0-.39,2.83,6.65,6.65,0,0,0,.39,2.92l6.82,1.22v.08a.8.8,0,0,1,.15.27,3.73,3.73,0,0,1,.16.5,8.12,8.12,0,0,1,.15.88q.08.57.15,1.26c.06.46.09,1.05.12,1.77s0,1.48,0,2.29v22.93q0,6.12-.77,7l-6.82,1.22a6.22,6.22,0,0,0-.39,2.88,6.14,6.14,0,0,0,.39,2.87c.76,0,2.43-.06,5-.19s5-.19,7.21-.19,4.65.07,7.2.19,4.22.19,5,.19a6.33,6.33,0,0,0,.38-2.87,6.42,6.42,0,0,0-.38-2.88l-6.83-1.22V125a.8.8,0,0,1-.15-.27,3.7,3.7,0,0,1-.15-.49,6.41,6.41,0,0,1-.16-.89q-.07-.57-.15-1.26c0-.46-.09-1.05-.12-1.76s0-1.49,0-2.3V95.14q0-6.14.77-7.06m-53.2-.53a25,25,0,0,1,5.6-.62q7.2,0,10.31,2.92a9.47,9.47,0,0,1,3.1,7.2,6.8,6.8,0,0,1-3.1,5.71c-2.07,1.51-5.17,2.26-9.32,2.26-1.58,0-3.9-.07-7-.23V95.13a43,43,0,0,1,.38-7.58m-12-6.33c-2.43-.08-4-.11-4.8-.11a7.65,7.65,0,0,0-.3,2.83,8.48,8.48,0,0,0,.3,2.92l6.44,1.22v.08a1,1,0,0,1,.16.27,3.91,3.91,0,0,1,.15.5,8.12,8.12,0,0,1,.15.88c.06.38.11.8.16,1.26s.09,1.05.11,1.77,0,1.48,0,2.3v22.92c0,4.09-.25,6.44-.77,7l-6.82,1.23a6.33,6.33,0,0,0-.38,2.87,6.42,6.42,0,0,0,.38,2.88c.77,0,2.43-.07,5-.2s5-.19,7.21-.19,4.65.07,7.2.19,4.22.2,5,.2a6.42,6.42,0,0,0,.38-2.88,6.33,6.33,0,0,0-.38-2.87l-6.82-1.23V125a.66.66,0,0,1-.16-.27,3.7,3.7,0,0,1-.15-.49,8.89,8.89,0,0,1-.15-.89c-.06-.38-.11-.8-.16-1.26s-.09-1.05-.11-1.76,0-1.49,0-2.3v-6.83q4-.23,9-.23,10.5,0,15.25-3.87a12.69,12.69,0,0,0,4.75-10.38,18.2,18.2,0,0,0-.88-5.94,13,13,0,0,0-9.58-8.48,39.49,39.49,0,0,0-10.54-1.22c-.82,0-2.82,0-6,.11s-5.38.12-6.55.12q-3.37,0-7-.12m-51.67,10.5A13.45,13.45,0,0,1,240,87.09a15.73,15.73,0,0,1,10,3.41,21.29,21.29,0,0,1,6.48,8.12,23.12,23.12,0,0,1,2.1,9.47q0,7.44-3.68,12.23t-10.35,4.79q-7.89,0-13.56-6.63A21.85,21.85,0,0,1,225.25,104q0-7.59,4-12.23m34.84.42a28.17,28.17,0,0,0-10.43-9.43,27,27,0,0,0-12.41-3.14q-5.37,0-15.18,6.6a23.32,23.32,0,0,0-10.81,20.39,23.78,23.78,0,0,0,4.25,13.72,28.53,28.53,0,0,0,10.35,9.39A26.09,26.09,0,0,0,242,132.85a22.47,22.47,0,0,0,7.75-1.61,29.56,29.56,0,0,0,7.2-3.76c1.48-1.07,2.42-1.76,2.8-2.07s1.2-1,2.45-2.1a11.65,11.65,0,0,0,2.57-2.92c.46-.84,1.05-2,1.76-3.41a15.68,15.68,0,0,0,1.46-4.79,41.9,41.9,0,0,0,.38-5.86,24.61,24.61,0,0,0-4.29-14.19m-63.24-4.06,6.82-1.22a6.7,6.7,0,0,0,.38-2.92,6.06,6.06,0,0,0-.38-2.83c-.77,0-2.43.06-5,.19s-5,.19-7.21.19-4.65-.06-7.2-.19-4.22-.19-5-.19a6.21,6.21,0,0,0-.38,2.83,6.86,6.86,0,0,0,.38,2.92l6.83,1.22v.08a.8.8,0,0,1,.15.27,3.91,3.91,0,0,1,.15.5c.05.2.1.49.16.88s.1.8.15,1.26.09,1.05.12,1.77,0,1.48,0,2.29v22.93q0,6.12-.76,7l-6.83,1.22a6.42,6.42,0,0,0-.38,2.88,6.33,6.33,0,0,0,.38,2.87c.77,0,2.43-.06,5-.19s4.95-.19,7.2-.19,4.65.07,7.21.19,4.21.19,5,.19a6.19,6.19,0,0,0,.38-2.87,6.27,6.27,0,0,0-.38-2.88l-6.82-1.22V125a1,1,0,0,1-.16-.27,3.7,3.7,0,0,1-.15-.49,8.89,8.89,0,0,1-.15-.89c0-.38-.11-.8-.16-1.26s-.09-1.05-.11-1.76,0-1.49,0-2.3V95.14q0-6.14.77-7.06m-33,0,6.83-1.22a6.86,6.86,0,0,0,.38-2.92,6.21,6.21,0,0,0-.38-2.83c-.77,0-2.43.06-5,.19s-4.95.19-7.2.19-4.65-.06-7.21-.19-4.21-.19-5-.19a6.06,6.06,0,0,0-.38,2.83,6.7,6.7,0,0,0,.38,2.92l6.82,1.22v.08a.79.79,0,0,1,.16.27,3.91,3.91,0,0,1,.15.5,8.12,8.12,0,0,1,.15.88c.05.38.11.8.16,1.26s.09,1.05.11,1.77,0,1.48,0,2.29v8.28c-2.61.16-6,.23-10.12.23h-6.59c-4.14,0-7.51-.07-10.12-.23V95.13c0-4.08.25-6.43.77-7l6.82-1.22a6.86,6.86,0,0,0,.38-2.92,6.24,6.24,0,0,0-.38-2.83c-.77,0-2.43.06-5,.19s-5,.19-7.21.19-4.65-.06-7.2-.19-4.22-.19-5-.19a6.21,6.21,0,0,0-.38,2.83,6.86,6.86,0,0,0,.38,2.92l6.82,1.22v.08a.66.66,0,0,1,.16.27,3.91,3.91,0,0,1,.15.5c.05.2.1.49.16.88s.1.8.15,1.26.09,1.05.11,1.77,0,1.48,0,2.3v22.92q0,6.14-.76,7l-6.83,1.23a6.33,6.33,0,0,0-.38,2.87,6.42,6.42,0,0,0,.38,2.88c.77,0,2.43-.07,5-.2s5-.19,7.2-.19,4.65.07,7.21.19,4.21.2,5,.2a6.27,6.27,0,0,0,.38-2.88,6.19,6.19,0,0,0-.38-2.87l-6.82-1.23V125a.79.79,0,0,1-.16-.27,3.7,3.7,0,0,1-.15-.49,8.89,8.89,0,0,1-.15-.89c-.06-.38-.11-.8-.16-1.26s-.09-1.05-.11-1.76,0-1.49,0-2.3v-7.52c3.47-.2,6.85-.3,10.12-.3h6.59q4.75,0,10.12.3v7.52q0,6.14-.77,7l-6.82,1.23a6.33,6.33,0,0,0-.38,2.87,6.42,6.42,0,0,0,.38,2.88c.77,0,2.43-.07,5-.2s5-.19,7.21-.19,4.65.07,7.21.19,4.21.2,5,.2a11.07,11.07,0,0,0,0-5.75l-6.82-1.23V125a.66.66,0,0,1-.16-.27,3.7,3.7,0,0,1-.15-.49c-.05-.21-.1-.5-.16-.88s-.1-.81-.15-1.27-.09-1.05-.11-1.76,0-1.48,0-2.3V95.14q0-6.14.76-7.06M101,89.16l.39,5.21a6.59,6.59,0,0,0,2.68.31,7.32,7.32,0,0,0,2.76-.31c.05-.31.18-1.47.38-3.49s.44-3.79.69-5.33.45-2.84.73-4.06.45-2,.5-2.45a8.63,8.63,0,0,0-2.72-.23,9.48,9.48,0,0,0-2.8.23l-1.38,2.83-8.59.39H68.72a75.67,75.67,0,0,1-7.82-.39L60.75,79a6.47,6.47,0,0,0-2.69-.31A7.11,7.11,0,0,0,55.3,79c-.35,2.35-.79,5-1.3,8-.2,1.44-.46,2.92-.76,4.45s-.49,2.53-.54,3a17.34,17.34,0,0,0,2.91.15,6.1,6.1,0,0,0,2.61-.3l2-4.83.39-.16a8.43,8.43,0,0,1,1.95-.3c1.1-.1,2.52-.16,4.25-.16H76v29.14q0,6.12-.76,7l-6.83,1.22a7.92,7.92,0,0,0-.3,2.88,7.81,7.81,0,0,0,.3,2.87c.77,0,2.43-.06,5-.19s4.95-.19,7.2-.19,4.65.07,7.21.19,4.21.19,5,.19a7.73,7.73,0,0,0,.31-2.87,7.61,7.61,0,0,0-.31-2.88L86,125.11l-.08-.08a.87.87,0,0,0-.07-.27,2.69,2.69,0,0,1-.16-.5,8.12,8.12,0,0,1-.15-.88c-.05-.38-.11-.8-.16-1.26s-.08-1.05-.11-1.76,0-1.49,0-2.3V88.93h9a47.51,47.51,0,0,1,6.74.23M32.92,110.7l1.15,5.06a5,5,0,0,0,2.45.38,5,5,0,0,0,2.46-.38c0-.62,0-1.84-.12-3.68s-.11-3.58-.11-5.22,0-3.42.11-5.21.12-3,.12-3.6a6,6,0,0,0-2.46-.31,5.93,5.93,0,0,0-2.45.31l-1.15,5.13-.38.08a7.55,7.55,0,0,1-1.84.27c-1,.08-2.33.11-3.91.11H19.05V95.82q0-6.12.76-6.9H33.07q5.91,0,6.75.39l.38,5.06a6.73,6.73,0,0,0,2.69.3,7.4,7.4,0,0,0,2.76-.3c.05-.31.18-1.47.38-3.49s.43-3.8.69-5.33.42-2.69.65-3.79.37-1.88.42-2.34a8.88,8.88,0,0,0-2.72-.23,9.86,9.86,0,0,0-2.8.23l-1.22,2.45-.92.08a29.3,29.3,0,0,1-3.26.23c-1.56,0-3.31.08-5.25.08H14.52q-3.37,0-7.2-.2c-2.56-.12-4.22-.19-5-.19A7.76,7.76,0,0,0,2,84.71a8.45,8.45,0,0,0,.3,2.91l6.75,1.23v.08a1.08,1.08,0,0,1,.16.26,4.48,4.48,0,0,1,.15.5c0,.21.1.5.15.88s.1.81.15,1.27.09,1,.12,1.76,0,1.48,0,2.3v21.62q0,6.14-.85,7.59l-6.82,1.22a7.92,7.92,0,0,0-.3,2.88,7.81,7.81,0,0,0,.3,2.87c.77,0,2.43-.06,5-.19s5-.19,7.21-.19q3.83,0,15.64.19t14.41.19a33.67,33.67,0,0,0,2.26-5.82,54.36,54.36,0,0,0,1.8-5.9,5.78,5.78,0,0,0-2.49-1,6.8,6.8,0,0,0-2.72-.12l-3.22,5.52-.46.16c-.3.05-1,.11-2.11.19s-2.44.11-4,.11l-13.65.08-.15-.54a10.65,10.65,0,0,1-.42-2.41,46.28,46.28,0,0,1-.19-4.64v-7.51h7.74q5.37,0,6.13.54"/><path d="M705.7,22.92A15.74,15.74,0,0,1,710.57,28c1.63,0,2.73-.49,3.29-1.46l-1.07-7.59a23.39,23.39,0,0,0-5.44-2.49,24.42,24.42,0,0,0-6.52-.72,13.17,13.17,0,0,0-3.18.53A32.14,32.14,0,0,0,693,17.94a11.11,11.11,0,0,0-4.44,3.6,9.19,9.19,0,0,0-1.84,5.67,10.51,10.51,0,0,0,.8,3.91,11.16,11.16,0,0,0,3.68,4.22,17.74,17.74,0,0,0,7.48,3.14q5.05,1,6.44,2.07a3.35,3.35,0,0,1,1.37,2.76q0,2.53-3.21,4.06c-.87,0-1.67,0-2.38,0a8.29,8.29,0,0,1-2-.3c-.64-.18-1.18-.32-1.61-.42a4.52,4.52,0,0,1-1.46-.69c-.53-.36-.95-.62-1.23-.77a7,7,0,0,1-1.22-1c-.54-.51-.9-.86-1.08-1.07l-1.18-1.34c-.62-.69-1-1.14-1.23-1.34a3.69,3.69,0,0,0-3.38,1.45l1.31,7.75q5.75,3.3,14.18,3.29a12.17,12.17,0,0,0,2.8-.49,31.55,31.55,0,0,0,4.33-1.58,11.13,11.13,0,0,0,4.25-3.29,7.83,7.83,0,0,0,1.81-5.06A10.11,10.11,0,0,0,712,34.73q-3.18-3-10.69-4.14A10.08,10.08,0,0,1,696.62,29a3,3,0,0,1-1.46-2.33q0-3.37,3.6-5,4.68,0,6.94,1.23m-46,20.51a3.67,3.67,0,0,1-1.15-2.73,3.72,3.72,0,0,1,.58-2,5.32,5.32,0,0,1,1.3-1.46,11.59,11.59,0,0,1,2.22-1.15,22.36,22.36,0,0,1,2.53-.88c.69-.17,1.7-.44,3-.8v7.82q-4.75,2.3-5.67,2.3a4,4,0,0,1-2.84-1.11m-6.09-16.49a6.5,6.5,0,0,0,3.18.2,6,6,0,0,0,1.88-2.07,7.86,7.86,0,0,1,1.88-2.23A5.46,5.46,0,0,1,664,22a4.08,4.08,0,0,1,3.14,1.23c.77.82,1.15,2.5,1.15,5.06v1.76L656.6,33.81a8.5,8.5,0,0,0-5,3.33,9.26,9.26,0,0,0-1.77,5.48c0,3.37.83,5.87,2.5,7.47s4.23,2.42,7.7,2.42l1.15-.61c.77-.41,1.84-1.06,3.22-2s2.68-1.8,3.91-2.72a7.13,7.13,0,0,0,1.42,4.06,4.48,4.48,0,0,0,3.49,1.23,37.92,37.92,0,0,0,8.12-1.46,9.16,9.16,0,0,0,.23-2.53l-4.14-2.45V25q0-8.5-9.58-8.51a63.68,63.68,0,0,0-14.18,2.22,14.36,14.36,0,0,0-2.53,7,5.76,5.76,0,0,0,2.49,1.26m-13.41-10a17.87,17.87,0,0,0-7-1.22q-1.46,0-5,1.87A36.63,36.63,0,0,0,622.8,21a17.33,17.33,0,0,0-4.91,6.06,19.69,19.69,0,0,0-1.53,8.28,20.4,20.4,0,0,0,1.19,7.24,14.83,14.83,0,0,0,3,5.06,15.45,15.45,0,0,0,4.06,3.11,17,17,0,0,0,4.37,1.68,18.46,18.46,0,0,0,4.06.46A15.26,15.26,0,0,0,639.66,51c2.5-1.26,4-2.57,4.45-4a3.27,3.27,0,0,0-1-1.92,2.63,2.63,0,0,0-1.65-1l-7.2,2.15a9.33,9.33,0,0,1-6.29-4.71,17,17,0,0,1-2.37-8.93,12.64,12.64,0,0,1,1.91-6.87,11.62,11.62,0,0,1,5.22-4.48,12.25,12.25,0,0,1,4.56,2,6.23,6.23,0,0,0,2.49,1.38A4.08,4.08,0,0,0,642.85,23a5.23,5.23,0,0,0,1.41-3.3,9.78,9.78,0,0,0-4-2.76m-34.73.5a3.38,3.38,0,0,0-3.1-1.72q-1.92,0-10.5,3.9a4.75,4.75,0,0,0,.68,2.76l4.76,1.69v19.7c0,2.86.75,5,2.26,6.52a7.34,7.34,0,0,0,5.33,2.22c1,0,2.19-.63,3.68-1.88a26.44,26.44,0,0,0,3.14-3c.61-.74,1.1-1.36,1.45-1.88a6.79,6.79,0,0,0-1.14-2.22l-5.52.69V21.62a8,8,0,0,0-1-4.18m-8.74-7.55a7.9,7.9,0,0,0,1.5,1.92q7.43,0,10.57-6.37a4.86,4.86,0,0,0-1.41-3.29A4.38,4.38,0,0,0,604.17.77l-8,6.59a7.4,7.4,0,0,0,.57,2.53M583,1.72A3.38,3.38,0,0,0,579.87,0Q578,0,569.37,3.91a4.86,4.86,0,0,0,.69,2.76l4.75,1.69V43.77c0,2.86.75,5,2.26,6.52a7.36,7.36,0,0,0,5.33,2.22c1,0,2.2-.63,3.68-1.88a26.44,26.44,0,0,0,3.14-3c.62-.74,1.1-1.36,1.46-1.88a7,7,0,0,0-1.15-2.22l-5.52.69V5.9a8,8,0,0,0-1-4.18M560.44,17.44a3.39,3.39,0,0,0-3.11-1.72q-1.92,0-10.5,3.9a4.84,4.84,0,0,0,.69,2.76l4.75,1.69v19.7c0,2.86.75,5,2.26,6.52a7.37,7.37,0,0,0,5.33,2.22c1,0,2.2-.63,3.68-1.88a26.44,26.44,0,0,0,3.14-3c.62-.74,1.1-1.36,1.46-1.88A7,7,0,0,0,567,43.54l-5.52.69V21.62a8,8,0,0,0-1-4.18M551.7,9.89a8.08,8.08,0,0,0,1.49,1.92q7.44,0,10.58-6.37a4.83,4.83,0,0,0-1.42-3.29A4.36,4.36,0,0,0,559.1.77l-8,6.59a7.37,7.37,0,0,0,.58,2.53m-17.94,13A15.74,15.74,0,0,1,538.63,28c1.63,0,2.73-.49,3.29-1.46l-1.07-7.59a23.2,23.2,0,0,0-5.44-2.49,24.42,24.42,0,0,0-6.52-.72,13.25,13.25,0,0,0-3.18.53,32.14,32.14,0,0,0-4.64,1.69,11.11,11.11,0,0,0-4.44,3.6,9.19,9.19,0,0,0-1.84,5.67,10.51,10.51,0,0,0,.8,3.91,11.16,11.16,0,0,0,3.68,4.22,17.74,17.74,0,0,0,7.48,3.14q5.06,1,6.44,2.07a3.36,3.36,0,0,1,1.38,2.76q0,2.53-3.23,4.06c-.86,0-1.66,0-2.37,0a8.29,8.29,0,0,1-2-.3c-.64-.18-1.18-.32-1.61-.42a4.52,4.52,0,0,1-1.46-.69c-.53-.36-.94-.62-1.22-.77a6.64,6.64,0,0,1-1.23-1c-.54-.51-.9-.86-1.08-1.07l-1.18-1.34c-.62-.69-1-1.14-1.23-1.34-1.64,0-2.76.48-3.37,1.45l1.3,7.75q5.75,3.3,14.18,3.29a12.17,12.17,0,0,0,2.8-.49,31.55,31.55,0,0,0,4.33-1.58,11.2,11.2,0,0,0,4.25-3.29,7.78,7.78,0,0,0,1.81-5.06,10.13,10.13,0,0,0-3.18-7.74q-3.18-3-10.7-4.14A10.17,10.17,0,0,1,524.68,29a3.05,3.05,0,0,1-1.46-2.33q0-3.37,3.6-5,4.68,0,6.94,1.23m-46,20.51a3.67,3.67,0,0,1-1.15-2.73,3.72,3.72,0,0,1,.58-2,5.32,5.32,0,0,1,1.3-1.46,11.59,11.59,0,0,1,2.22-1.15,22.36,22.36,0,0,1,2.53-.88c.69-.17,1.7-.44,3-.8v7.82q-4.76,2.3-5.67,2.3a4,4,0,0,1-2.84-1.11m-6.09-16.49a6.5,6.5,0,0,0,3.18.2,6,6,0,0,0,1.88-2.07,7.86,7.86,0,0,1,1.88-2.23A5.46,5.46,0,0,1,492,22a4.08,4.08,0,0,1,3.14,1.23c.77.82,1.15,2.5,1.15,5.06v1.76l-11.65,3.76a8.5,8.5,0,0,0-5,3.33,9.25,9.25,0,0,0-1.76,5.48c0,3.37.83,5.87,2.49,7.47s4.23,2.42,7.7,2.42l1.15-.61c.77-.41,1.84-1.06,3.22-2s2.68-1.8,3.91-2.72a7.13,7.13,0,0,0,1.42,4.06,4.48,4.48,0,0,0,3.49,1.23,37.92,37.92,0,0,0,8.12-1.46,8.79,8.79,0,0,0,.23-2.53l-4.14-2.45V25q0-8.5-9.58-8.51a63.68,63.68,0,0,0-14.18,2.22,14.36,14.36,0,0,0-2.53,7,5.76,5.76,0,0,0,2.49,1.26M432.77,1.72c-2.56-.12-4.22-.19-5-.19a6.29,6.29,0,0,0-.38,2.84,6.84,6.84,0,0,0,.38,2.91l6.82,1.23v.08a.66.66,0,0,1,.16.27,3.7,3.7,0,0,1,.15.49c0,.21.1.5.16.88s.1.81.15,1.27.09,1.05.11,1.76,0,1.48,0,2.3V38.48q0,6.14-.76,7.05l-6.83,1.23a6.42,6.42,0,0,0-.38,2.88,6.39,6.39,0,0,0,.38,2.87c.77,0,2.43-.08,5-.23s5-.23,7.2-.23q1.84,0,6.13.23t8.74.23q7.29,0,11.54-4.56a15,15,0,0,0,4.25-10.54q0-9.88-9.58-13.8a12.22,12.22,0,0,0,5.83-11A10.2,10.2,0,0,0,463,4.25a14.53,14.53,0,0,0-9.39-3.1q-2.61,0-7.36.38T440,1.92q-3.37,0-7.2-.2M456.15,10a6.84,6.84,0,0,1,1.91,5.14q0,4.53-3,6.06t-10.46,2.07v-8c0-2.56.08-4.7.23-6.44a46,46,0,0,1,6.06-.61A7.36,7.36,0,0,1,456.15,10M444.57,38.48V28.9l8.36-.77c2.6-.25,4.56.42,5.86,2a8.57,8.57,0,0,1,1.95,5.55A11.92,11.92,0,0,1,458.41,43a7.65,7.65,0,0,1-6.71,3.1L444.88,46ZM388.23,22.23a7.46,7.46,0,0,1,5.25,2.19,6.59,6.59,0,0,1,1.8,4.63c-2.35,2.05-6.54,3.83-12.57,5.37a15.38,15.38,0,0,1-.08-1.76q0-7,5.6-10.43m-4.45,17.09Q398.65,36,403.1,29.21q0-13.5-13-13.5-1.38,0-4.87,1.88a32.78,32.78,0,0,0-5.4,3.49q-6.14,5-6.14,14.26a21.15,21.15,0,0,0,1.15,7.17,15.28,15.28,0,0,0,2.88,5.09,14.43,14.43,0,0,0,4.06,3.15,17.4,17.4,0,0,0,4.49,1.68,20.19,20.19,0,0,0,4.29.46,15.71,15.71,0,0,0,7.32-2,12.58,12.58,0,0,0,5.25-4.52,3.35,3.35,0,0,0-1-1.77c-.64-.76-1.19-1.12-1.64-1.07l-8.44,2.84q-5.82,0-8.28-7.06M365.27,16.94a17.83,17.83,0,0,0-7-1.22q-1.46,0-5,1.87A37.17,37.17,0,0,0,347.83,21a17.45,17.45,0,0,0-4.91,6.06,19.69,19.69,0,0,0-1.53,8.28,20.62,20.62,0,0,0,1.19,7.24,15,15,0,0,0,2.95,5.06,15.62,15.62,0,0,0,4.06,3.11A17.1,17.1,0,0,0,354,52.43a18.54,18.54,0,0,0,4.07.46A15.3,15.3,0,0,0,364.7,51c2.5-1.26,4-2.57,4.44-4a3.24,3.24,0,0,0-1-1.92,2.63,2.63,0,0,0-1.65-1l-7.21,2.15A9.32,9.32,0,0,1,353,41.59a17,17,0,0,1-2.38-8.93,12.56,12.56,0,0,1,1.92-6.87,11.54,11.54,0,0,1,5.21-4.48,12.18,12.18,0,0,1,4.56,2,6.23,6.23,0,0,0,2.49,1.38A4.07,4.07,0,0,0,367.88,23a5.24,5.24,0,0,0,1.42-3.3,9.76,9.76,0,0,0-4-2.76M297,19.62a4.76,4.76,0,0,0,.69,2.76l4.75,1.69V48.22a5.34,5.34,0,0,0,.65,2.72,3.43,3.43,0,0,0,1,1.3,4.46,4.46,0,0,0,.61.27l6.9-1.53V25.6L319.54,24a3.82,3.82,0,0,1,2.84,1.77,10.3,10.3,0,0,1,.77,4.67V43.77q0,4.83,1,6.79c.69,1.3,2,1.95,3.95,1.95a38.08,38.08,0,0,0,8.13-1.46,9.16,9.16,0,0,0,.23-2.53l-4.14-2.45V25q0-8.5-9.59-8.51l-11.11,5a8.11,8.11,0,0,0-1.11-4.06,3.34,3.34,0,0,0-3-1.68q-1.92,0-10.5,3.9M272.17,43.43A3.63,3.63,0,0,1,271,40.7a3.71,3.71,0,0,1,.57-2,5.35,5.35,0,0,1,1.31-1.46,11,11,0,0,1,2.22-1.15,22.36,22.36,0,0,1,2.53-.88c.69-.17,1.7-.44,3-.8v7.82q-4.76,2.3-5.68,2.3a3.92,3.92,0,0,1-2.83-1.11m-6.09-16.49a6.5,6.5,0,0,0,3.18.2,5.93,5.93,0,0,0,1.87-2.07A8,8,0,0,1,273,22.84a5.49,5.49,0,0,1,3.38-.84,4.09,4.09,0,0,1,3.14,1.23c.77.82,1.15,2.5,1.15,5.06v1.76L269,33.81a8.52,8.52,0,0,0-5,3.33,9.32,9.32,0,0,0-1.76,5.48c0,3.37.83,5.87,2.49,7.47s4.23,2.42,7.71,2.42l1.15-.61c.76-.41,1.84-1.06,3.22-2s2.68-1.8,3.91-2.72a7.14,7.14,0,0,0,1.41,4.06,4.5,4.5,0,0,0,3.49,1.23,38,38,0,0,0,8.13-1.46,9.16,9.16,0,0,0,.23-2.53l-4.14-2.45V25q0-8.5-9.58-8.51a63.52,63.52,0,0,0-14.18,2.22,14.16,14.16,0,0,0-2.53,7,5.7,5.7,0,0,0,2.49,1.26m-19.24-4A15.73,15.73,0,0,1,251.7,28c1.64,0,2.74-.49,3.3-1.46l-1.07-7.59a23.44,23.44,0,0,0-5.45-2.49,24.29,24.29,0,0,0-6.51-.72,13.1,13.1,0,0,0-3.18.53,31.72,31.72,0,0,0-4.64,1.69,11.13,11.13,0,0,0-4.45,3.6,9.19,9.19,0,0,0-1.84,5.67,10.34,10.34,0,0,0,.81,3.91,11,11,0,0,0,3.68,4.22,17.7,17.7,0,0,0,7.47,3.14q5.06,1,6.44,2.07a3.36,3.36,0,0,1,1.38,2.76q0,2.53-3.22,4.06c-.87,0-1.66,0-2.38,0a8.36,8.36,0,0,1-2-.3c-.64-.18-1.17-.32-1.61-.42a4.48,4.48,0,0,1-1.45-.69c-.54-.36-.95-.62-1.23-.77a7,7,0,0,1-1.23-1c-.53-.51-.89-.86-1.07-1.07l-1.19-1.34c-.61-.69-1-1.14-1.23-1.34a3.67,3.67,0,0,0-3.37,1.45l1.3,7.75q5.76,3.3,14.18,3.29a12.09,12.09,0,0,0,2.8-.49,31.16,31.16,0,0,0,4.34-1.58,11.2,11.2,0,0,0,4.25-3.29,7.82,7.82,0,0,0,1.8-5.06,10.13,10.13,0,0,0-3.18-7.74q-3.18-3-10.69-4.14A10.17,10.17,0,0,1,237.75,29a3.05,3.05,0,0,1-1.46-2.33q0-3.37,3.61-5c3.11,0,5.43.41,6.94,1.23m-34.19,0A15.73,15.73,0,0,1,217.51,28c1.64,0,2.74-.49,3.3-1.46l-1.07-7.59a23.44,23.44,0,0,0-5.45-2.49,24.29,24.29,0,0,0-6.51-.72,13.1,13.1,0,0,0-3.18.53A31.72,31.72,0,0,0,200,17.94a11.13,11.13,0,0,0-4.45,3.6,9.25,9.25,0,0,0-1.84,5.67,10.34,10.34,0,0,0,.81,3.91,11.08,11.08,0,0,0,3.68,4.22,17.76,17.76,0,0,0,7.47,3.14c3.38.67,5.52,1.36,6.44,2.07a3.36,3.36,0,0,1,1.38,2.76q0,2.53-3.22,4.06c-.87,0-1.66,0-2.37,0a8.37,8.37,0,0,1-2-.3c-.64-.18-1.17-.32-1.6-.42a4.42,4.42,0,0,1-1.46-.69c-.54-.36-.95-.62-1.23-.77a7,7,0,0,1-1.23-1c-.53-.51-.89-.86-1.07-1.07L198,41.74c-.61-.69-1-1.14-1.22-1.34a3.69,3.69,0,0,0-3.38,1.45l1.3,7.75c3.84,2.2,8.56,3.29,14.19,3.29a12.11,12.11,0,0,0,2.79-.49,31.16,31.16,0,0,0,4.34-1.58,11.2,11.2,0,0,0,4.25-3.29,7.82,7.82,0,0,0,1.8-5.06,10.13,10.13,0,0,0-3.18-7.74q-3.18-3-10.69-4.14A10.17,10.17,0,0,1,203.56,29a3,3,0,0,1-1.45-2.33q0-3.37,3.6-5,4.68,0,6.94,1.23M182.6,17.44a3.39,3.39,0,0,0-3.11-1.72c-1.27,0-4.78,1.3-10.5,3.9a4.84,4.84,0,0,0,.69,2.76l4.75,1.69v19.7c0,2.86.76,5,2.27,6.52A7.33,7.33,0,0,0,182,52.51c1,0,2.2-.63,3.68-1.88a26.71,26.71,0,0,0,3.15-3c.61-.74,1.09-1.36,1.45-1.88a7,7,0,0,0-1.15-2.22l-5.52.69V21.62a8,8,0,0,0-1-4.18m-8.74-7.55a8.08,8.08,0,0,0,1.49,1.92q7.44,0,10.58-6.37a4.83,4.83,0,0,0-1.42-3.29A4.36,4.36,0,0,0,181.26.77l-8,6.59a7.61,7.61,0,0,0,.58,2.53M144.15,43.43A3.67,3.67,0,0,1,143,40.7a3.72,3.72,0,0,1,.58-2,5.32,5.32,0,0,1,1.3-1.46,11.59,11.59,0,0,1,2.22-1.15,23.06,23.06,0,0,1,2.53-.88c.69-.17,1.7-.44,3-.8v7.82q-4.75,2.3-5.67,2.3a4,4,0,0,1-2.84-1.11m-6.09-16.49a6.5,6.5,0,0,0,3.18.2,6,6,0,0,0,1.88-2.07A7.86,7.86,0,0,1,145,22.84a5.46,5.46,0,0,1,3.37-.84,4.08,4.08,0,0,1,3.14,1.23c.77.82,1.15,2.5,1.15,5.06v1.76L141,33.81a8.5,8.5,0,0,0-5,3.33,9.26,9.26,0,0,0-1.77,5.48c0,3.37.83,5.87,2.5,7.47s4.22,2.42,7.7,2.42l1.15-.61c.77-.41,1.84-1.06,3.22-2s2.68-1.8,3.91-2.72a7.13,7.13,0,0,0,1.42,4.06,4.47,4.47,0,0,0,3.48,1.23,37.88,37.88,0,0,0,8.13-1.46,9.16,9.16,0,0,0,.23-2.53l-4.14-2.45V25q0-8.5-9.58-8.51A63.68,63.68,0,0,0,138.1,18.7a14.36,14.36,0,0,0-2.53,7,5.76,5.76,0,0,0,2.49,1.26M89.42,19.62a4.84,4.84,0,0,0,.69,2.76l4.75,1.69V48.22a5.34,5.34,0,0,0,.65,2.72,3.53,3.53,0,0,0,1,1.3,4.46,4.46,0,0,0,.61.27l6.9-1.53V25.6L112,24a3.8,3.8,0,0,1,2.83,1.77,10.3,10.3,0,0,1,.77,4.67V43.77q0,4.83,1,6.79c.69,1.3,2,1.95,3.94,1.95a37.88,37.88,0,0,0,8.13-1.46,9.16,9.16,0,0,0,.23-2.53l-4.14-2.45V25q0-8.5-9.58-8.51l-11.12,5A8.11,8.11,0,0,0,103,17.4a3.34,3.34,0,0,0-3-1.68q-1.92,0-10.5,3.9M71,22.23a7.51,7.51,0,0,1,5.26,2.19,6.59,6.59,0,0,1,1.8,4.63c-2.35,2.05-6.55,3.83-12.57,5.37a13.36,13.36,0,0,1-.08-1.76q0-7,5.59-10.43M66.58,39.32Q81.44,36,85.9,29.21q0-13.5-13-13.5-1.38,0-4.86,1.88a33.37,33.37,0,0,0-5.41,3.49q-6.14,5-6.13,14.26a20.9,20.9,0,0,0,1.15,7.17,15.27,15.27,0,0,0,2.87,5.09,14.48,14.48,0,0,0,4.07,3.15A17.34,17.34,0,0,0,69,52.43a20.19,20.19,0,0,0,4.29.46,15.71,15.71,0,0,0,7.33-2,12.58,12.58,0,0,0,5.25-4.52,3.35,3.35,0,0,0-1-1.77c-.64-.76-1.19-1.12-1.65-1.07l-8.43,2.84q-5.83,0-8.28-7.06M19.89,8a25,25,0,0,1,5.6-.61q5,0,7.09,1.84t2.11,5.67a7.15,7.15,0,0,1-2.3,5.25q-2.31,2.26-8.2,2.26H19.51V15.56A43.09,43.09,0,0,1,19.89,8M41.28,30.89c-.77-.2-1.26-.34-1.49-.42s-.66-.2-1.27-.38a10,10,0,0,1-1.23-.42,8.48,8.48,0,0,0-1-.43,6.69,6.69,0,0,1-1.07-.46l-.92-.49a6.18,6.18,0,0,1-1-.65l-.88-.73,2-.77q10.2-3.53,10.2-11.34,0-6.75-4.14-10t-13-3.26c-.82,0-2.82,0-6,.12s-5.37.11-6.55.11c-2.25,0-4.59,0-7-.11s-4-.12-4.8-.12a6.29,6.29,0,0,0-.38,2.84,6.62,6.62,0,0,0,.39,2.91L9.54,8.51l.08.08a1,1,0,0,0,.08.27,3.7,3.7,0,0,1,.15.49c.05.21.1.5.15.88s.11.81.16,1.27.09,1.05.11,1.76,0,1.48,0,2.3V38.48q0,6.14-.76,7.05L2.72,46.76a7.83,7.83,0,0,0-.31,2.88,7.8,7.8,0,0,0,.31,2.87c.77,0,2.43-.06,5-.19s5-.19,7.21-.19,4.65.06,7.21.19,4.21.19,5,.19a7.8,7.8,0,0,0,.31-2.87,7.83,7.83,0,0,0-.31-2.88l-6.82-1.23-.08-.07a1,1,0,0,0-.08-.27,4.48,4.48,0,0,1-.15-.5,8.59,8.59,0,0,1-.15-.88c-.06-.38-.11-.81-.16-1.27s-.09-1-.11-1.76,0-1.48,0-2.3V28.67c.46,0,1.07,0,1.84,0l1.61,0A30,30,0,0,0,34.15,36.8a13,13,0,0,1,1.38,4.59c.31,2,.56,3.86.77,5.45a7.38,7.38,0,0,0,2,4.21,6.65,6.65,0,0,0,5.1,1.84c3,0,5.8-.13,8.35-.38a20.32,20.32,0,0,0,.15-2.84,7.22,7.22,0,0,0-.3-2.53l-5.37-1.22Q45,35.33,42.81,31.35c-.25-.1-.76-.25-1.53-.46"/></g></g></svg>