<svg xmlns="http://www.w3.org/2000/svg" viewBox="0 0 720 437.23"><title>11-cabana-club</title><g id="Layer_2" data-name="Layer 2"><g id="Layer_1-2" data-name="Layer 1"><polygon points="123.91 373.61 149.02 356.86 164.09 326.72 154.05 303.28 151.53 302.02 149.02 304.95 142.33 320.02 120.56 356.86 117.21 356.86 98.79 341.79 75.35 304.95 46.88 224.58 41.86 191.09 41.86 117 43.53 114.07 56.3 109.47 72 107.37 80.37 110.72 107.16 127.47 111.77 126.84 132.28 114.07 133.95 112.39 142.33 97.74 141.49 95.65 135.63 95.65 95.44 78.91 61.95 78.91 58.6 80.58 30.14 99 28.46 102.35 1.67 177.7 0 226.26 15.07 282.35 31.81 328.39 51.91 365.23 53.58 366.91 120.56 375.28 123.91 373.61"/><path d="M708.28,305v-1.67l4.6-16.95-4.6-8.17-8.37-8.37-5-1.67-36.83-8.38-8.38,1.68-33.48,23.44H597.77l-1.68-1.67v-3.35l1.68-6.7,13.39-16.74,25.12-16.75,3.35-3.35,5-11.72,1.68-5-10.05-26.79-3.35-3.35-3.35-1.68-18.42-15.07h-3.35l-21.76,1.68,8.37-10,1.67-1.67.42-4.61-2.09-2.09-26.16-5-8.17,4.39-23.86,26L513,212.86l-17.37,10-5-6.7v-1.68l8-22.39,9.84-23.23,18.2-33.7-7.53-11.09H497.3L494,122.44l-11.72-11.72-5-1.67-16.74-1.68L427,120.77l-20.1,15.07-17.79-6.7-10.67-6.7L376.74,104l-1.67-6.69-5-1.68-26.79,18.42v3.35l5,15.07L346.6,161l-18.41,35.17h-1.68l-18.42-26.79-2.93-12.56-1-13,19.46-41.86,13-44.79V25.33L329,7.12l-2.09-5.45L322.12,0,289.67,11.93l-8.37,5L264.56,48.77l-11.72,87.07,6.69,51.9-16.74,25.12-6.7,1.67-6.69-3.34-1.68-3.35L209.3,139.19l-3.77-2.93-4.6,1.25-10.05,5h-10l-2.93-1.88-3.77-1.46-11.72-3.35-2.72.42-27.42,23-6.7,8.37-16.74,28.47-3.35,13.39v3.35l11.72,31.81,11.72,20.1,26.79,25.11,20.09,5h3.35l3.35-1.68,10.05-13.39,5-13.4,1.68-1.67L221.65,269l4.4-2.51,23-28.46,20.51-35.17,22.82,19.26,5.65,2.51h26.79L342,206.79l13-17.37,3.35-3.35,18.41-40.19.84-2.72,17.58,7.75,5,2.51-3.77,24.28.42,28.46,1.67,5,10.05,8.37,6.7,3.35,35.16-1.68,2.93.63,3.77,7.74,21.76,6.7L488.93,238l20.09-6.7V238l3.35,3.35,26.79-3.56,5-3.35,11.3-20.3,12.14-16.33,30.14-8.37,3.35,1.67,6.69,11.72-23.44,21.77-6.7,8.37L566,259.74l1.68,8.38,1.67,5,16.75,25.12,3.35,1.67h16.74L602.79,315l3.35,11.72,15.07,5,1.67,1.68-1.67,8.37,5,25.12,10,10,5-1.67-1.67-10,3.35-8.37,23-12.56,25.53-7.74L715,326.72l5-5V315ZM182.51,256.4l-23.44-26.8-6.7-11.72-6.7-15.07L144,169.33l3.35-5,10.88,10.89L166.4,189l4.6-.42,4.81-2.51L187.53,238ZM302,106.12l1.89-33.28,2.51-27.42,1.67-5L318.14,17l3.77,13.4,1.25,10-7.53,33.07-12.56,33.9Zm160.54,82L455,210.56l-4.6.63-16.95-4.61-3.35-2.93,3.35-29.3,3.34-6.7L454,139.19l5.44-.42,4.39,7.11-1.25,17.38,2.3,2.3,6.07,2.72ZM653,316.67l-4.39,2.52L643,323.37l-10.05-1.67L629.58,320v-1.67l6.7-10.05,13.39-10,21.77-10.05,1.68,3.35,1,8.37,8,3.56.62,1.46Z"/><path d="M577.67,358.53l-3.34-3.34-1.68-6.7-3.35-3.35-8.37,1.67-18.42,6.7-1.67,1.68L549.21,382l-1.68,21.76-1.67,1.68-13.39,3.35-1.68-1.68-8.37-43.53.84-16.75,17.58-8.37,16.74-36.84v-3.34l-8.37-43.54-6.7-5-11.72,1.67-5,1.68L499,281.51l-1.68,3.35-10,67-1.68,1.67-10.05,6.7-1.67-3.35,1.05-23,5.44-34.33,8.58-34.74-1.67-1.68H460.47l-6.7,5-9,34.53-6.7,40.82-7.74,10-6.7,6.7-3.35-11.72L422,320,437,256.4l-3.35-3.35H416.93l-11.72,3.35-1.68,1.67-6.69,8.37L380.09,315l-1.67,35.16-1.68,5-15.07,11.72H360l-6.7-3.35-1.67-3.35-5-18.42v-1.67l26.8-60.28L381.77,248l-1.68-8.37L367.33,224l-20.52,2.72L326.51,243l-20.09,51.91,2.93,55.88L324.84,382l1.67,1.67,16.75,6.7,13.39-1.68,8.37-3.34,15.07-15.07h1.68l20.09,8.37,5.65,1L419,375.91l16.75-9,1.67,14.44,3.35,4,23,1.67h3.35l18.42-11.72,3.35,23.44,1.67,1.68,10,11.72,3.35,3.35,18.42,8.37h26.79l10-3.35,13.39-13.4,1.68-3.35L576,377l1.67-1.67,16.75-5,5-6.7-1.67-1.68Zm-49.39-48.34,7.53-37.05,3.35-5,3.35,21.76V301.6l-6.7,20.1-10.25,10ZM344.93,281.51l5.44-16.74L364,240.07l1-.42,3.35,13.4L360,274.81,343.26,301.6Z"/><polygon points="311.44 412.12 313.12 408.77 311.44 383.65 310.19 380.72 307.88 380.72 274.61 413.79 271.26 413.79 256.19 402.07 241.12 376.95 229.4 348.49 230.44 321.49 234.42 291.56 236.09 289.88 256.19 288.21 288 296.58 291.35 294.91 301.39 266.44 299.72 263.09 266.23 256.39 261.21 256.39 221.02 286.54 190.88 331.74 185.86 345.14 185.86 361.88 195.91 402.07 200.93 412.12 234.42 433.88 244.47 437.23 311.44 412.12"/></g></g></svg>