<svg xmlns="http://www.w3.org/2000/svg" viewBox="0 0 720 100.02"><title>18-chinatown</title><g id="Layer_2" data-name="Layer 2"><g id="Layer_1-2" data-name="Layer 1"><path d="M9.28,54.61c0,16.94,11.61,30.68,30.92,30.68,13.61,0,23.92-5,30.72-12.39L74.7,86.15C65.15,94.87,52.44,100,40.2,100,15.74,100,0,79.65,0,54.61S15.74,9.2,40.2,9.2c12.24,0,25,5.16,34.5,13.87L70.92,36.33C64.12,29,53.81,23.93,40.2,23.93,20.89,23.93,9.28,37.68,9.28,54.61Z"/><path d="M97.21,97.57h-8.8V3.8h8.8V54.37h.28c3.5-10.56,14.15-22,25.9-22,15.47.25,35.06,11.29,35.06,52V97.57h-8.8V84.43c0-25.89-12.17-38.41-26.26-38.41S97.21,58.54,97.21,84.43Z"/><path d="M175.29,0c4.4,0,7.9,5,7.9,11.66,0,6.14-3.5,11.66-7.9,11.66s-7.91-5.52-7.91-11.66C167.38,5,170.89,0,175.29,0Zm12.85,100c-11.61,0-17.25-15.09-17.25-42.71V32.65h8.8V57.31c0,18.53,2.81,28.84,8.45,28.84a15.53,15.53,0,0,0,7.77-2.21l2.61,13.38A23.33,23.33,0,0,1,188.14,100Z"/><path d="M219,97.57h-8.8V35.1H219V54.37h.28c3.5-10.56,14.15-22,25.91-22,15.46.25,35.05,11.29,35.05,52V97.57h-8.8V84.43c0-25.89-12.17-38.41-26.25-38.41S219,58.54,219,84.43Z"/><path d="M350.07,86.15h-.28c-8.38,9.21-21,13.87-31.61,13.87-17.46,0-26.6-8.1-26.6-21.48s9-21,26.6-21c13.95,0,21.23,3.19,31.61,7.36h.28C350.07,49.46,336.94,45,326.7,45c-7.84,0-19.59,1.72-26.67,7.12l-2.88-10.92c7.76-5.4,20.48-8.84,29.55-8.84,16.77,0,32.09,9.08,32.09,39.76V97.57h-8.72ZM318.18,87c12.71,0,25-5.52,31.2-12.39-8.87-3.19-18.49-4.67-31.2-4.67-13.89,0-18.15,3-18.15,8.59S304.29,87,318.18,87Z"/><path d="M414,100C389.52,100,377.63,83,377.63,52.4V50.69H368.9V37.31h8.73V11.66h8.73V37.31h35V50.69h-35V52.4c0,21.48,9.55,33.75,27.63,33.75,9.14,0,22.13-3.19,29.21-12l2.88,12.27C438.32,94.38,424.36,100,414,100Z"/><path d="M453.44,66.27c0-21,17.11-33.87,35.05-33.87s35,12.89,35,33.87S506.36,100,488.49,100,453.44,87.26,453.44,66.27Zm61.24,0c0-10.43-8.32-20.74-26.19-20.74s-26.25,10.31-26.25,20.74,8.31,20.5,26.25,20.5S514.68,76.83,514.68,66.27Z"/><path d="M582.38,70.69,563.27,100h-.83L526.36,43.2l5.57-10.55,30.93,49.82L582,53.39h.83l19.1,29.08,30.93-49.82,5.57,10.55L602.31,100h-.83Z"/><path d="M658.76,97.57H650V35.1h8.79V54.37H659c3.5-10.56,14.16-22,25.91-22,15.46.25,35,11.29,35,52V97.57h-8.8V84.43C711.2,58.54,699,46,685,46s-26.19,12.52-26.19,38.41Z"/></g></g></svg>