<svg xmlns="http://www.w3.org/2000/svg" viewBox="0 0 720 95.26"><title>14-classified</title><g id="Layer_2" data-name="Layer 2"><g id="Layer_1-2" data-name="Layer 1"><path d="M62.52,83.36a2.94,2.94,0,0,0-3,3v6a2.94,2.94,0,0,1-3,3H14.89a2.94,2.94,0,0,1-3-3v-6a2.94,2.94,0,0,0-3-3H3a2.94,2.94,0,0,1-3-3V26.79a2.94,2.94,0,0,1,3-3H8.93a3,3,0,0,0,3-3V14.89a2.94,2.94,0,0,1,3-3H56.56a2.94,2.94,0,0,1,3,3v5.95a2.94,2.94,0,0,0,3,3h4.09a2.94,2.94,0,0,1,3,3v6a2.94,2.94,0,0,1-3,3H60.1a4.64,4.64,0,0,1-4.65-2.79c-2.61-4.84-8.75-9.11-18.24-9.11-13.58,0-25.3,8.56-25.3,29.77s11.72,29.77,25.3,29.77c9.49,0,15.63-4.28,18.24-9.12a4.64,4.64,0,0,1,4.65-2.79h6.51a2.94,2.94,0,0,1,3,3v6a3,3,0,0,1-3,3Z"/><path d="M129.12,92.29a2.94,2.94,0,0,1-3,3H96.37a2.93,2.93,0,0,1-3-3v-6a2.93,2.93,0,0,1,3-3h6a2.94,2.94,0,0,0,3-3V14.89a2.94,2.94,0,0,0-3-3h-6a2.94,2.94,0,0,1-3-3V3a2.94,2.94,0,0,1,3-3h17.86a2.94,2.94,0,0,1,3,3v77.4a2.94,2.94,0,0,0,3,3h6a2.94,2.94,0,0,1,3,3Z"/><path d="M212.47,92.29a2.94,2.94,0,0,1-3,3H155.91a2.94,2.94,0,0,1-3-3V62.52a2.94,2.94,0,0,1,3-3h30.14a2.57,2.57,0,0,0,2.23-3c-1.11-5.58-5.95-8.93-15.44-8.93H155.91a2.94,2.94,0,0,1-3-3V38.7a2.94,2.94,0,0,1,3-3h29.77a2.94,2.94,0,0,1,3,3v5.95a2.94,2.94,0,0,0,3,3h6a2.94,2.94,0,0,1,3,3V80.38a2.94,2.94,0,0,0,3,3h6a2.94,2.94,0,0,1,3,3ZM191.82,77.4c0-5-4.1-8-15.07-8s-15.07,3-15.07,8c0,5.21,4.09,7.82,15.07,7.82S191.82,82.61,191.82,77.4Z"/><path d="M264.56,70.52c-11.91-1.86-27.35-8.93-27.35-20.1a2.56,2.56,0,0,1,2.42-2.79h4.28a2.94,2.94,0,0,0,3-3V38.7a3,3,0,0,1,3-3h29.21a2.94,2.94,0,0,1,3,3v5.95a2.94,2.94,0,0,0,3,3h1.3a2.94,2.94,0,0,1,3,3V54.7a2.94,2.94,0,0,1-3,3h-5.21a3.32,3.32,0,0,1-3.54-3c-1.3-6.32-6.69-9.67-13.76-9.67-5.59,0-10.61,2-10.61,7.25,0,4.84,4.28,7.07,11.35,8.19,11.16,1.67,27.17,8.75,27.17,20.28a2.41,2.41,0,0,1-2.42,2.61H286a2.94,2.94,0,0,0-3,3v6a2.94,2.94,0,0,1-3,3H249.3a2.93,2.93,0,0,1-3-3v-6a2.94,2.94,0,0,0-3-3h-4.09a2.94,2.94,0,0,1-3-3v-4.1a2.94,2.94,0,0,1,3-3H248a3.2,3.2,0,0,1,3.54,3c1.11,6.33,6.14,9.68,13.76,9.68,6.52,0,11-2.42,11-7.07C276.28,74.61,272.56,71.82,264.56,70.52Z"/><path d="M344.19,70.52c-11.91-1.86-27.35-8.93-27.35-20.1a2.56,2.56,0,0,1,2.42-2.79h4.28a2.94,2.94,0,0,0,3-3V38.7a2.94,2.94,0,0,1,3-3H358.7a2.94,2.94,0,0,1,3,3v5.95a2.94,2.94,0,0,0,3,3H366a2.94,2.94,0,0,1,3,3V54.7a2.94,2.94,0,0,1-3,3h-5.21a3.32,3.32,0,0,1-3.54-3c-1.3-6.32-6.7-9.67-13.77-9.67-5.58,0-10.6,2-10.6,7.25,0,4.84,4.28,7.07,11.35,8.19,11.16,1.67,27.16,8.75,27.16,20.28a2.4,2.4,0,0,1-2.42,2.61h-3.34a2.94,2.94,0,0,0-3,3v6a2.94,2.94,0,0,1-3,3h-30.7a2.94,2.94,0,0,1-3-3v-6a2.93,2.93,0,0,0-3-3h-4.1a2.94,2.94,0,0,1-3-3v-4.1a2.93,2.93,0,0,1,3-3h8.75a3.19,3.19,0,0,1,3.53,3c1.12,6.33,6.14,9.68,13.77,9.68,6.52,0,11-2.42,11-7.07C355.91,74.61,352.19,71.82,344.19,70.52Z"/><path d="M398.51,95.26a2.93,2.93,0,0,1-3-3v-6a2.93,2.93,0,0,1,3-3h6a2.94,2.94,0,0,0,3-3V62.52a2.94,2.94,0,0,0-3-3h-6a2.94,2.94,0,0,1-3-3v-6a2.94,2.94,0,0,1,3-3h17.86a2.94,2.94,0,0,1,3,3V80.38a2.94,2.94,0,0,0,3,3h5.95a2.94,2.94,0,0,1,3,3v6a2.94,2.94,0,0,1-3,3Zm14-59.54a9.58,9.58,0,1,1,9.67-9.67A9.57,9.57,0,0,1,412.47,35.72Z"/><path d="M502.7,8.93a2.94,2.94,0,0,0,3,3h5.95a2.94,2.94,0,0,1,3,3v5.95a3,3,0,0,1-3,3h-5.58a3.32,3.32,0,0,1-3.54-3c-1.11-5.58-5-8.93-11.72-8.93-7.81,0-11.91,4.65-11.91,11.91v8.93a2.94,2.94,0,0,0,3,3h17.86a2.94,2.94,0,0,1,3,3v5.95a2.94,2.94,0,0,1-3,3H481.86a2.94,2.94,0,0,0-3,3V80.38a3,3,0,0,0,3,3h5.95a2.94,2.94,0,0,1,3,3v6a2.94,2.94,0,0,1-3,3H458.05a2.94,2.94,0,0,1-3-3v-6a2.94,2.94,0,0,1,3-3H464a3,3,0,0,0,3-3V50.61a2.94,2.94,0,0,0-3-3h-5.95a2.94,2.94,0,0,1-3-3V38.7a2.94,2.94,0,0,1,3-3H464a2.94,2.94,0,0,0,3-3V14.89a2.94,2.94,0,0,1,3-3h6a2.94,2.94,0,0,0,3-3V3a2.94,2.94,0,0,1,3-3h17.86a2.94,2.94,0,0,1,3,3Z"/><path d="M523.53,95.26a2.93,2.93,0,0,1-3-3v-6a2.93,2.93,0,0,1,3-3h6a2.94,2.94,0,0,0,3-3V62.52a2.94,2.94,0,0,0-3-3h-6a2.94,2.94,0,0,1-3-3v-6a2.94,2.94,0,0,1,3-3h17.86a2.94,2.94,0,0,1,3,3V80.38a2.94,2.94,0,0,0,3,3h5.95a2.94,2.94,0,0,1,3,3v6a2.94,2.94,0,0,1-3,3Zm14-59.54a9.58,9.58,0,1,1,9.67-9.67A9.57,9.57,0,0,1,537.49,35.72Z"/><path d="M589,47.63a2.94,2.94,0,0,0,3-3V38.7a2.94,2.94,0,0,1,3-3h29.77a2.94,2.94,0,0,1,3,3v5.95a2.94,2.94,0,0,0,3,3h3a2.94,2.94,0,0,1,3,3v6a2.94,2.94,0,0,1-3,3h-3a2.94,2.94,0,0,0-3,3v5.95a2.94,2.94,0,0,1-3,3H594.6a2.57,2.57,0,0,0-2.23,3c1.12,5.59,6,8.94,15.44,8.94h16.93a2.94,2.94,0,0,1,3,3v6a2.94,2.94,0,0,1-3,3H595a2.93,2.93,0,0,1-3-3v-6a2.94,2.94,0,0,0-3-3h-5.95a2.94,2.94,0,0,1-3-3V50.61a2.94,2.94,0,0,1,3-3Zm30.33,11.91a2.59,2.59,0,0,0,2.42-3c-1.31-6.7-7.63-10.79-14.7-10.79s-13.4,4.09-14.7,10.79a2.59,2.59,0,0,0,2.42,3Z"/><path d="M684.28,3a2.94,2.94,0,0,1,3-3h17.86a2.94,2.94,0,0,1,3,3V68.47a3,3,0,0,0,3,3H717a2.94,2.94,0,0,1,3,3v6a2.94,2.94,0,0,1-3,3H699.16a2.94,2.94,0,0,0-3,3v6a2.93,2.93,0,0,1-3,3H675.35a2.94,2.94,0,0,1-3-3v-6a2.94,2.94,0,0,0-3-3h-5.95a2.94,2.94,0,0,1-3-3V50.61a2.94,2.94,0,0,1,3-3h5.95a2.94,2.94,0,0,0,3-3V38.7a2.94,2.94,0,0,1,3-3h17.86a2.93,2.93,0,0,0,3-3V14.89a2.94,2.94,0,0,0-3-3h-6a2.94,2.94,0,0,1-3-3Zm11.9,62.33c0-13.4-5.39-17.68-12.09-17.68-6.33,0-11.72,4.28-11.72,17.68s5.39,18,11.72,18C690.79,83.36,696.18,78.7,696.18,65.31Z"/></g></g></svg>