<?xml version="1.0" encoding="UTF-8"?><svg xmlns="http://www.w3.org/2000/svg" viewBox="0 0 300 102.15"><g id="a"/><g id="b"><g id="c"><g><path d="M160.12,77.3c0,11.6-10.4,17.48-30.83,17.48s-30.83-5.89-30.83-17.48v-22.01c0-.55-.45-1-1-1h-5.82c-.55,0-1,.45-1,1v22.01c0,16.47,13.07,24.85,38.65,24.85s38.65-8.37,38.65-24.85v-22.01c0-.55-.45-1-1-1h-5.82c-.55,0-1,.45-1,1v22.01Z"/><path d="M215.8,52.45c-25.58,0-38.65,8.37-38.65,24.85s13.07,24.85,38.65,24.85c17.93,0,29.67-4.08,35.13-12.23,.45-.67-.02-1.57-.82-1.57h-7.9c-.23,0-.46,.08-.64,.23-5.01,4.17-13.66,6.21-25.77,6.21-17.27,0-27.36-4.21-30.07-12.51-.21-.64,.29-1.29,.96-1.29h66.77c.55,0,1-.45,1-1v-2.68c0-16.47-13.07-24.85-38.65-24.85Zm0,7.36c17.27,0,27.36,4.21,30.07,12.51,.21,.64-.29,1.29-.96,1.29h-58.23c-.67,0-1.17-.65-.96-1.29,2.71-8.3,12.81-12.51,30.07-12.51Z"/><path d="M300,60.66v-5.36c0-.55-.45-1-1-1h-18.25c-.55,0-1-.45-1-1V1c0-.55-.45-1-1-1H74.16c-.55,0-1,.45-1,1V55.31c0,.86-1.02,1.32-1.66,.75-7.77-7.02-19.41-10.05-31.01-10.05C18.22,46.01,0,57.15,0,74.08s18.22,28.07,40.49,28.07,40.49-11.5,40.49-28.99V8.36c0-.55,.45-1,1-1h188.95c.55,0,1,.45,1,1V53.29c0,.55-.45,1-1,1h-11.8c-.55,0-1,.45-1,1v5.36c0,.55,.45,1,1,1h11.8c.55,0,1,.45,1,1v22.01c0,10.95,4.97,16.56,18.41,16.56h8.66c.55,0,1-.45,1-1v-5.36c0-.55-.45-1-1-1h-8.66c-8.01,0-10.58-3.13-10.58-9.2v-22.01c0-.55,.45-1,1-1h18.25c.55,0,1-.45,1-1ZM40.49,94.79c-18.04,0-32.67-9.2-32.67-20.71s14.63-20.71,32.67-20.71,32.67,9.29,32.67,20.71-14.63,20.71-32.67,20.71Z"/></g></g></g></svg>