<svg xmlns="http://www.w3.org/2000/svg" viewBox="0 0 720 754.72"><title>04-flw</title><g id="Layer_2" data-name="Layer 2"><g id="Layer_1-2" data-name="Layer 1"><path d="M297.1,743.06,297,599.57l-203.58-83V497.3l221.38,91.63L314.7,751Zm40.22-57.58L699,430.11l17.56,7.19L337.32,706ZM136,490.28l90.8-65,18,7-91,65.4ZM578.59,339.92l15.34,6.25-178.57,125-126-46.53L130.87,363.88l13.49-9.67L413.51,457.94ZM3.41,490.8V316l17,7.45V497.92ZM40.48,383.44,439.14,98.53l16.31,6.68-415,297.21ZM5.23,313.06,439.38,3.2l15.93,6.49L21.86,320.35ZM438.05,0,0,312.6V493l20.36,8.82L40.44,488V428.65L109.2,379.4l92.58,36.08L90,495.55V518.9l203.58,83V745.16l21.12,9.56L720,463.05l-.12-27.15-22.27-9L337.32,681.2V573.89L157.53,499.21l91.12-65.46L417.89,499.7,597,372.09l.11-27.31L577.2,336.7,413,454.08,147.68,351.84,458.47,129.21V103.77l-20.73-8.44L40.48,379.24l0-46L458.72,33.63V8.41Z"/></g></g></svg>