<svg xmlns="http://www.w3.org/2000/svg" viewBox="0 0 720 67.1"><defs><style>.cls-1{fill:none;}</style></defs><title>12-hollander</title><g id="Layer_2" data-name="Layer 2"><g id="Hollander_light" data-name="Hollander light"><polygon class="cls-1" points="4.61 12.46 23.22 12.46 23.22 60.61 30.05 60.61 30.05 12.46 48.49 12.46 48.49 6.32 4.61 6.32 4.61 12.46"/><polygon class="cls-1" points="104.15 30.39 73.59 30.39 73.59 6.32 66.93 6.32 66.93 60.61 73.59 60.61 73.59 36.54 104.15 36.54 104.15 60.61 110.81 60.61 110.81 6.32 104.15 6.32 104.15 30.39"/><polygon class="cls-1" points="131.3 60.61 163.91 60.61 163.91 54.47 137.96 54.47 137.96 36.54 156.22 36.54 156.22 30.39 137.96 30.39 137.96 12.46 163.91 12.46 163.91 6.32 131.3 6.32 131.3 60.61"/><path class="cls-1" d="M299.64,4.61a21.78,21.78,0,0,0-21.85,21.85V40.64a21.86,21.86,0,0,0,43.71,0V26.46A21.79,21.79,0,0,0,299.64,4.61Zm15.2,36a15.2,15.2,0,0,1-30.39,0V26.46a15.2,15.2,0,0,1,30.39,0Z"/><polygon class="cls-1" points="346.6 6.32 339.94 6.32 339.94 60.61 370.76 60.61 370.76 54.47 346.6 54.47 346.6 6.32"/><polygon class="cls-1" points="252.69 30.39 222.13 30.39 222.13 6.32 215.47 6.32 215.47 60.61 222.13 60.61 222.13 36.54 252.69 36.54 252.69 60.61 259.35 60.61 259.35 6.32 252.69 6.32 252.69 30.39"/><polygon class="cls-1" points="393.89 6.32 387.23 6.32 387.23 60.61 418.05 60.61 418.05 54.47 393.89 54.47 393.89 6.32"/><polygon class="cls-1" points="624.64 60.61 657.25 60.61 657.25 54.47 631.3 54.47 631.3 36.54 649.57 36.54 649.57 30.39 631.3 30.39 631.3 12.46 657.25 12.46 657.25 6.32 624.64 6.32 624.64 60.61"/><path class="cls-1" d="M584.52,6.32H565.57V60.61h18.95A21.71,21.71,0,0,0,606.2,38.93V28A21.71,21.71,0,0,0,584.52,6.32Zm15,32.61A15.59,15.59,0,0,1,584,54.47H572.23v-42H584A15.59,15.59,0,0,1,599.54,28Z"/><path class="cls-1" d="M463.13,6.32h-7L435.64,60.61h5.89l3.16-8.19h29.87l3.16,8.19h5.89ZM446.56,47.47l13.07-35.18,13.06,35.18Z"/><polygon class="cls-1" points="538.42 45.42 504.96 6.32 501.2 6.32 501.2 60.61 507.86 60.61 507.86 21.51 541.32 60.61 545.08 60.61 545.08 6.32 538.42 6.32 538.42 45.42"/><path class="cls-1" d="M714.11,25.1V21.68A15.3,15.3,0,0,0,698.74,6.32h-23V60.61h6.66V40.46h13.49l10.24,20.15h6.49L702.16,40.38C710,38,714.11,31.33,714.11,25.1Zm-15.11,9a14.44,14.44,0,0,1-3.42.26H682.35V12.46h14.17A10.94,10.94,0,0,1,699,34.06Z"/><path d="M30.55,13.67l3.61,3.61V64L30.55,60.4V13.67m-.5-1.21V60.61l4.61,4.61V17.07l-4.61-4.61Z"/><path d="M74.09,37.74l3.61,3.61V64L74.09,60.4V37.74m-.5-1.2V60.61l4.61,4.61V41.15l-4.61-4.61Z"/><path d="M52.6,2.21V15.87L49,12.26V5.82H4.82L1.21,2.21H52.6m.5-.5H0L4.61,6.32H48.49v6.14l4.61,4.61V1.71Z"/><path d="M77.7,2.21V26.28H99.33l3.61,3.61H74.09V5.82h-7L63.53,2.21H77.7m.5-.5H62.32l4.61,4.61h6.66V30.39h30.56l-4.61-4.61H78.2V1.71Z"/><path d="M114.92,2.21V64l-3.61-3.61V5.82h-7l-3.61-3.61h14.17m.5-.5H99.54l4.61,4.61h6.66V60.61l4.61,4.61V1.71Z"/><path d="M138.46,13.67l3.61,3.61v9h18.26V39.94l-3.61-3.61V29.89H138.46V13.67m-.5-1.21V30.39h18.26v6.15l4.61,4.61V25.78H142.57V17.07L138,12.46Z"/><path d="M138.46,37.74l3.61,3.61v9h26V64l-3.61-3.61V54H138.46V37.74m-.5-1.2V54.47h25.95v6.14l4.61,4.61V49.86h-26V41.15L138,36.54Z"/><path d="M299.64.5a26,26,0,0,1,26,26V40.14H322V26.46a22.35,22.35,0,0,0-44.7-.5h-3.62A26,26,0,0,1,299.64.5m0-.5a26.48,26.48,0,0,0-26.46,26.46h4.61a21.86,21.86,0,0,1,43.71,0V40.64h4.61V26.46A26.38,26.38,0,0,0,299.64,0Z"/><path d="M288.56,27V40.64a11.24,11.24,0,0,0,11.08,11.08,11.1,11.1,0,0,0,11.08-10.58h3.61a14.71,14.71,0,0,1-14.69,14.19A14.89,14.89,0,0,1,285,40.64V27h3.61m.5-.5h-4.61V40.64a15.2,15.2,0,0,0,30.39,0h-4.61a10.64,10.64,0,0,1-10.59,10.58,10.75,10.75,0,0,1-10.58-10.58V26.46Z"/><path d="M350.71,2.21V50.36h24.16V64l-3.61-3.61V54H347.1V5.82h-7l-3.61-3.61h14.17m.5-.5H335.33l4.61,4.61h6.66V54.47h24.16v6.14l4.61,4.61V49.86H351.21V1.71Z"/><path d="M222.63,37.74l3.61,3.61V64l-3.61-3.61V37.74m-.5-1.2V60.61l4.61,4.61V41.15l-4.61-4.61Z"/><path d="M226.24,2.21V26.28h21.63l3.61,3.61H222.63V5.82h-6.95l-3.61-3.61h14.17m.5-.5H210.86l4.61,4.61h6.66V30.39h30.56l-4.61-4.61H226.74V1.71Z"/><path d="M263.46,2.21V64l-3.61-3.61V5.82h-7l-3.61-3.61h14.17m.5-.5H248.08l4.61,4.61h6.66V60.61L264,65.22V1.71Z"/><path d="M398,2.21V50.36h24.16V64l-3.61-3.61V54H394.39V5.82h-6.95l-3.61-3.61H398m.5-.5H382.62l4.61,4.61h6.66V54.47h24.16v6.14l4.61,4.61V49.86H398.5V1.71Z"/><path d="M661.36,2.21V15.87l-3.61-3.61V5.82h-32.9l-3.61-3.61h40.12m.5-.5H620l4.61,4.61h32.61v6.14l4.61,4.61V1.71Z"/><path d="M631.8,13.67l3.61,3.61v9h18.27V39.94l-3.61-3.61V29.89H631.8V13.67m-.5-1.21V30.39h18.27v6.15l4.61,4.61V25.78H635.91V17.07l-4.61-4.61Z"/><path d="M631.8,37.74l3.61,3.61v9h26V64l-3.61-3.61V54h-26V37.74m-.5-1.2V54.47h26v6.14l4.61,4.61V49.86h-26V41.15l-4.61-4.61Z"/><path d="M584.52,2.21A25.82,25.82,0,0,1,610.31,28V38.43H606.7V28A22.21,22.21,0,0,0,584.52,5.82H565.78l-3.61-3.61h22.35m0-.5H561l4.61,4.61h18.95A21.71,21.71,0,0,1,606.2,28V38.93h4.61V28A26.3,26.3,0,0,0,584.52,1.71Z"/><path d="M572.73,13.67l3.61,3.61V50.36h7.84a11.44,11.44,0,0,0,11.41-10.93H599A15.07,15.07,0,0,1,584,54H572.73V13.67m-.5-1.21v42H584a15.59,15.59,0,0,0,15.53-15.54h-4.43a10.9,10.9,0,0,1-10.93,10.93h-7.34V17.07l-4.61-4.61Z"/><path d="M444.79,53.54,447,57.08l-2.63,7-2.24-3.54,2.71-7m-.1-1.12-3.16,8.19,2.9,4.61L447.5,57l-2.81-4.61Z"/><path d="M465.6,2.21l23.27,61.62L484,60.3,463.59,6.14l-.12-.32h-7.06L454.2,2.21h11.4m.34-.5H453.31l2.82,4.61h7l20.48,54.29,6.32,4.61-24-63.51Z"/><path d="M459.13,15.08V24.5l-6.72,18.18-.25.68h14L471.15,47H447.28l11.85-31.89m.5-2.79L446.56,47.47h26.13l-6.32-4.61H452.88l6.75-18.27V12.29Z"/><path d="M508.36,24.34l3.61,9.9V64l-3.61-3.61V24.34m-.5-2.83v39.1l4.61,4.61V34.15l-4.61-12.64Z"/><path d="M507,2.21,533.37,33,537,43,505.34,6l-.15-.17h-3.78L497.8,2.21H507m.23-.5H496.59l4.61,4.61H505l33.46,39.1-4.61-12.64L507.18,1.71Z"/><path d="M549.19,2.21V64l-3.61-3.61V5.82h-7L535,2.21h14.17m.5-.5H533.81l4.61,4.61h6.66V60.61l4.61,4.61V1.71Z"/><path d="M682.85,41.67l3.61,3.61V64l-3.61-3.61V41.67m-.5-1.21V60.61L687,65.22V45.07l-4.61-4.61Z"/><path d="M703.16,41.24l4.88,1.6,10.7,21L713,60.26l-9.79-19m-1-.86,10.41,20.23L720,65.22,708.39,42.43l-6.23-2Z"/><path d="M698.74,2.21a19.5,19.5,0,0,1,19.48,19.47V24.6h-3.61V21.68A15.88,15.88,0,0,0,698.74,5.82H675.9l-3.61-3.61h26.45m0-.5H671.08l4.61,4.61h23a15.3,15.3,0,0,1,15.37,15.36V25.1h4.61V21.68a19.89,19.89,0,0,0-20-20Z"/><path d="M682.85,13.67l3.61,3.61V30.21h10l1.78,3.49a19.3,19.3,0,0,1-2.67.12H682.85V13.67m-.5-1.21V34.32h13.23a14.44,14.44,0,0,0,3.42-.26l-2.22-4.35H687V17.07l-4.61-4.61Z"/><path d="M168,2.21V15.87l-3.61-3.61V5.82H131.5l-3.61-3.61H168m.5-.5H126.69l4.61,4.61h32.61v6.14l4.61,4.61V1.71Z"/><polygon points="104.15 30.39 99.54 25.78 99.54 1.71 104.15 6.32 104.15 30.39"/><polygon points="156.22 36.54 160.84 41.15 142.57 41.15 137.96 36.54 156.22 36.54"/><polygon points="163.91 12.46 168.52 17.07 142.57 17.07 137.96 12.46 163.91 12.46"/><polygon points="48.49 12.46 53.1 17.07 34.66 17.07 30.05 12.46 48.49 12.46"/><polygon points="23.22 60.61 23.22 12.46 4.61 12.46 4.61 6.32 0 1.71 0 17.07 18.61 17.07 18.61 65.22 34.66 65.22 30.05 60.61 23.22 60.61"/><polygon points="66.93 60.61 66.93 6.32 62.32 1.71 62.32 65.22 78.2 65.22 73.59 60.61 66.93 60.61"/><polygon points="104.15 36.54 73.59 36.54 78.2 41.15 99.54 41.15 99.54 65.22 115.42 65.22 110.81 60.61 104.15 60.61 104.15 36.54"/><polygon points="131.3 60.61 131.3 6.32 126.69 1.71 126.69 65.22 168.52 65.22 163.91 60.61 131.3 60.61"/><path d="M310.23,26.46V40.64h4.61V26.46a15.2,15.2,0,0,0-30.39,0h4.61a10.59,10.59,0,0,1,21.17,0Z"/><path d="M273.18,40.64a26.47,26.47,0,0,0,52.93,0H321.5a21.86,21.86,0,0,1-43.71,0V26.46h-4.61Z"/><polygon points="339.94 60.61 339.94 6.32 335.33 1.71 335.33 65.22 375.37 65.22 370.76 60.61 339.94 60.61"/><polygon points="252.69 30.39 248.08 25.78 248.08 1.71 252.69 6.32 252.69 30.39"/><polygon points="215.47 60.61 215.47 6.32 210.86 1.71 210.86 65.22 226.74 65.22 222.13 60.61 215.47 60.61"/><polygon points="252.69 36.54 222.13 36.54 226.74 41.15 248.08 41.15 248.08 65.22 263.96 65.22 259.35 60.61 252.69 60.61 252.69 36.54"/><polygon points="387.23 60.61 387.23 6.32 382.62 1.71 382.62 65.22 422.66 65.22 418.05 60.61 387.23 60.61"/><polygon points="649.57 36.54 654.18 41.15 635.91 41.15 631.3 36.54 649.57 36.54"/><polygon points="657.25 12.46 661.86 17.07 635.91 17.07 631.3 12.46 657.25 12.46"/><polygon points="624.64 60.61 624.64 6.32 620.03 1.71 620.03 65.22 661.86 65.22 657.25 60.61 624.64 60.61"/><path d="M584.52,60.61H565.57V6.32L561,1.71V65.22h23.56a26.3,26.3,0,0,0,26.29-26.29H606.2A21.71,21.71,0,0,1,584.52,60.61Z"/><path d="M595.11,28V38.93h4.43V28A15.59,15.59,0,0,0,584,12.46H572.23l4.61,4.61h7.34A10.9,10.9,0,0,1,595.11,28Z"/><polygon points="459.63 12.29 459.63 24.59 466.37 42.85 472.69 47.47 459.63 12.29"/><polygon points="477.72 60.61 474.56 52.42 444.69 52.42 447.5 57.03 471.75 57.03 474.82 65.22 489.93 65.22 483.61 60.61 477.72 60.61"/><polygon points="435.64 60.61 456.13 6.32 453.31 1.71 429.32 65.22 444.43 65.22 441.53 60.61 435.64 60.61"/><polygon points="538.42 45.42 533.81 32.78 533.81 1.71 538.42 6.32 538.42 45.42"/><polygon points="501.2 60.61 501.2 6.32 496.59 1.71 496.59 65.22 512.47 65.22 507.86 60.61 501.2 60.61"/><polygon points="541.32 60.61 507.86 21.51 512.47 34.15 539.1 65.22 549.69 65.22 545.08 60.61 541.32 60.61"/><path d="M714.11,25.1h4.61c0,8-4.87,15.11-10.33,17.33l-6.23-2C710,38,714.11,31.33,714.11,25.1Z"/><polygon points="675.69 60.61 675.69 6.32 671.08 1.71 671.08 65.22 686.96 65.22 682.35 60.61 675.69 60.61"/><polygon points="706.09 60.61 695.84 40.47 682.35 40.47 686.96 45.08 692.94 45.08 703.18 65.22 720 65.22 712.57 60.61 706.09 60.61"/><path d="M699,34.06a10.94,10.94,0,0,0-2.48-21.6H682.35L687,17.07h9.56a6.2,6.2,0,0,1,6.32,6.32,6.2,6.2,0,0,1-6.06,6.32Z"/></g></g></svg>