<svg xmlns="http://www.w3.org/2000/svg" viewBox="0 0 720 88.97"><title>03-icala</title><g id="Layer_2" data-name="Layer 2"><g id="Layer_1-2" data-name="Layer 1"><path d="M0,.51H4.27V29.23H0Z"/><path d="M13,8.72h4.06v2.82h.08A19,19,0,0,1,27.26,8.46c6.33,0,10.34,3.63,10.34,9.66V29.23H33.5V18.89c0-4.19-2.43-6.5-6.71-6.5A16.38,16.38,0,0,0,17.09,16V29.23H13Z"/><path d="M64.69,13.8A28.54,28.54,0,0,0,56,12.35H53c-3.3,0-5,.77-5,2.26s1.41,2.14,4,2.14h5.09c6.49,0,9.7,2.18,9.7,6.16,0,4.31-3.8,6.58-10.81,6.58H54.4a30.23,30.23,0,0,1-10.64-1.84L45,23.85a26.49,26.49,0,0,0,9.1,1.75h2.4c4,0,6.11-.81,6.11-2.69,0-1.67-1.67-2.23-5.64-2.23H53c-6,0-9.19-2.09-9.19-5.89,0-4.15,3.72-6.33,10.3-6.33h1.62A30.92,30.92,0,0,1,66,10.17Z"/><path d="M81.83,25.3h3.59v3.93h-4.1c-4.23,0-6.24-2-6.24-6.24V12.61h-4V8.72h4V2.56h4.1V8.72h6.24v3.89H79.18v10A2.32,2.32,0,0,0,81.83,25.3Z"/><path d="M95.93.51V5H91.31V.51ZM91.57,8.72h4.1V29.23h-4.1Z"/><path d="M111.82,25.3h3.59v3.93h-4.1c-4.23,0-6.24-2-6.24-6.24V12.61h-4V8.72h4V2.56h4.1V8.72h6.24v3.89h-6.24v10A2.32,2.32,0,0,0,111.82,25.3Z"/><path d="M145.41,29.23h-4.06V26.41h-.08a19,19,0,0,1-10.13,3.08c-6.33,0-10.34-3.64-10.34-9.66V8.72h4.1V19.06c0,4.19,2.44,6.49,6.71,6.49a16.37,16.37,0,0,0,9.7-3.58V8.72h4.1Z"/><path d="M161.82,25.3h3.59v3.93h-4.1c-4.24,0-6.24-2-6.24-6.24V12.61h-4V8.72h4V2.56h4.1V8.72h6.24v3.89h-6.24v10A2.32,2.32,0,0,0,161.82,25.3Z"/><path d="M194.46,20.94H174.38c1.11,3.29,4.53,4.66,8,4.66a18.86,18.86,0,0,0,8.25-2.22L192.41,27a20.86,20.86,0,0,1-9.87,2.53C175,29.49,170,25.26,170,19s4.92-10.56,12-10.56C189.76,8.46,195.06,13.63,194.46,20.94Zm-20.17-3.8h15.9c-1.15-3.38-4.61-4.92-8-4.92S175.32,13.72,174.29,17.14Z"/><path d="M240.14,19c0,6.63-5.55,10.52-12.3,10.52S215.53,25.6,215.53,19s5.55-10.51,12.31-10.51S240.14,12.35,240.14,19Zm-20.51,0c0,3.51,3.29,6.58,8.21,6.58S236,22.48,236,19s-3.29-6.58-8.2-6.58S219.63,15.47,219.63,19Z"/><path d="M244.5,8.72h4v-2A6.22,6.22,0,0,1,254.76.51h4.1V4.44h-4.1a2.12,2.12,0,0,0-2.14,2.14V8.72h6.24v3.93h-6.24V29.23h-4.1V12.65h-4Z"/><path d="M295.69,0a17.38,17.38,0,0,1,12.39,4.83l-2.9,3.42a13.41,13.41,0,0,0-9.7-4.15c-6.63,0-11.92,4.7-11.92,10.77s5.29,10.77,11.92,10.77a13.41,13.41,0,0,0,9.7-4.15l2.9,3.42a17.38,17.38,0,0,1-12.39,4.83c-9.4,0-16.41-6.07-16.41-14.87S286.29,0,295.69,0Z"/><path d="M337.14,19c0,6.63-5.55,10.52-12.31,10.52S312.53,25.6,312.53,19s5.55-10.51,12.3-10.51S337.14,12.35,337.14,19Zm-20.51,0c0,3.51,3.29,6.58,8.2,6.58S333,22.48,333,19s-3.29-6.58-8.21-6.58S316.63,15.47,316.63,19Z"/><path d="M343.55,8.72h4.06v2.82h.08a19,19,0,0,1,10.13-3.08c6.33,0,10.34,3.63,10.34,9.66V29.23h-4.1V18.89c0-4.19-2.44-6.5-6.71-6.5a16.36,16.36,0,0,0-9.7,3.59V29.23h-4.1Z"/><path d="M383.54,25.3h3.59v3.93H383c-4.23,0-6.24-2-6.24-6.24V12.61h-4V8.72h4V2.56h4.1V8.72h6.24v3.89h-6.24v10A2.32,2.32,0,0,0,383.54,25.3Z"/><path d="M416.19,20.94H396.11c1.11,3.29,4.53,4.66,8,4.66a18.81,18.81,0,0,0,8.24-2.22l1.8,3.58a20.88,20.88,0,0,1-9.87,2.53c-7.52,0-12.52-4.23-12.52-10.47S396.66,8.46,403.8,8.46C411.49,8.46,416.79,13.63,416.19,20.94ZM396,17.14h15.9c-1.16-3.38-4.62-4.92-8-4.92S397.05,13.72,396,17.14Z"/><path d="M422.64,8.72h4.06v2.65h.09a13.77,13.77,0,0,1,8.37-2.91,10.68,10.68,0,0,1,8.38,3.68,16,16,0,0,1,9.91-3.68c6,0,10.22,3.63,10.22,9.66V29.23h-4.11V18.89c0-4.19-2.48-6.5-6.32-6.5a12,12,0,0,0-8,3.59V29.23h-4.1V18.89c0-4.19-2.56-6.5-6.28-6.5a12.62,12.62,0,0,0-8.08,3.46V29.23h-4.1Z"/><path d="M471.35,8.72h4.11v2.35a13.11,13.11,0,0,1,8.29-2.61C490.46,8.46,496,12.35,496,19s-5.51,10.52-12.22,10.52a13.17,13.17,0,0,1-8.29-2.61V37.43h-4.11Zm12.35,3.67A10.72,10.72,0,0,0,475.46,16v5.89a10.75,10.75,0,0,0,8.24,3.63c5,0,8.17-3.07,8.17-6.58S488.7,12.39,483.7,12.39Z"/><path d="M525,19c0,6.63-5.55,10.52-12.3,10.52S500.37,25.6,500.37,19s5.55-10.51,12.31-10.51S525,12.35,525,19Zm-20.51,0c0,3.51,3.29,6.58,8.21,6.58s8.2-3.07,8.2-6.58-3.29-6.58-8.2-6.58S504.47,15.47,504.47,19Z"/><path d="M531.39,8.72h4v3.12h.08c1.71-2.1,3.81-3.12,7.22-3.12h3.12v4.1h-2.94c-3.72,0-5.82,1.37-7.4,4.23V29.23h-4.1Z"/><path d="M571.05,23c0,1.8.76,2.52,2.77,2.52h.77v3.68h-2.22c-2.14,0-3.59-.77-4.19-2.14h-.08c-.69,1.41-2.52,2.14-5.3,2.14h-5.3c-4.92,0-7.57-2.14-7.57-6.15S552.58,17,557.5,17h6.24c2.31,0,3.46-.73,3.46-2.23s-1.37-2.48-4.1-2.48h-4.7c-2.48,0-3.72.82-3.85,2.61h-4.06c.21-4.23,3.21-6.41,8.72-6.41h3.25c5.68,0,8.59,2.22,8.59,6.5Zm-3.85-3-.09,0a4.23,4.23,0,0,1-2.82.69h-6.92c-2.26,0-3.46.81-3.46,2.35s1.2,2.35,3.46,2.35h5.34c2.95,0,4.49-1.29,4.49-3.76Z"/><path d="M579.72,8.72h4v3.12h.09c1.71-2.1,3.8-3.12,7.22-3.12h3.12v4.1h-2.95c-3.72,0-5.81,1.37-7.39,4.23V29.23h-4.1Z"/><path d="M601.89,37.43h-4.18V33.5h3.42A3.76,3.76,0,0,0,605,31.28l1.2-2.39-10-20.09V8.72h4.53l7.78,15.64L616.3,8.72h4.44V8.8L608.56,33.16C607,36.28,604.89,37.43,601.89,37.43Z"/><path d="M653.38.51h4.49L672,29.23H667.4l-3-6.15H646.85l-3,6.15h-4.57Zm9,18.46L655.61,5.26,648.85,19Z"/><path d="M677.53,8.72h4v3.12h.09c1.71-2.1,3.8-3.12,7.22-3.12H692v4.1h-3c-3.72,0-5.81,1.37-7.39,4.23V29.23h-4.1Z"/><path d="M705.73,25.3h3.59v3.93h-4.1c-4.23,0-6.24-2-6.24-6.24V12.61h-4V8.72h4V2.56h4.1V8.72h6.24v3.89h-6.24v10A2.32,2.32,0,0,0,705.73,25.3Z"/><path d="M720,25v4l-3.72,4.36h-.55V25Z"/><path d="M23.59,80.51H0V51.79H4.27V76.4H23.59Z"/><path d="M51.53,70.25c0,6.62-5.55,10.51-12.3,10.51S26.92,76.87,26.92,70.25s5.55-10.51,12.31-10.51S51.53,63.63,51.53,70.25ZM31,70.25c0,3.5,3.29,6.58,8.21,6.58s8.2-3.08,8.2-6.58-3.29-6.58-8.2-6.58S31,66.75,31,70.25Z"/><path d="M77.86,65.08a28.66,28.66,0,0,0-8.68-1.45h-3c-3.29,0-5,.77-5,2.26S62.6,68,65.16,68h5.09c6.49,0,9.7,2.18,9.7,6.15,0,4.32-3.8,6.58-10.81,6.58H67.56a30.54,30.54,0,0,1-10.64-1.83l1.19-3.81a26.25,26.25,0,0,0,9.1,1.75h2.4c4,0,6.11-.81,6.11-2.69,0-1.66-1.67-2.22-5.64-2.22H66.15c-6,0-9.19-2.09-9.19-5.9,0-4.14,3.72-6.32,10.3-6.32h1.62a30.67,30.67,0,0,1,10.3,1.71Z"/><path d="M115.24,51.79h4.49l14.15,28.72h-4.62l-3-6.16H108.7l-3,6.16H101.1Zm9,18.46-6.75-13.72-6.76,13.72Z"/><path d="M139.39,60h4.05v2.82h.09a19.13,19.13,0,0,1,10.13-3.07C160,59.74,164,63.37,164,69.4V80.51h-4.1V70.16c0-4.18-2.44-6.49-6.71-6.49a16.29,16.29,0,0,0-9.7,3.59V80.51h-4.1Z"/><path d="M181.69,59.74a13.16,13.16,0,0,1,8.29,2.6V60h4.1V78.88c0,6.58-5.17,10.09-13,10.09a22.46,22.46,0,0,1-11.75-3.21l1.92-3.63A20.14,20.14,0,0,0,181.43,85c5.6,0,8.55-2.53,8.55-6.29v-.59a13.16,13.16,0,0,1-8.29,2.6c-6.71,0-12.22-3.89-12.22-10.51S175,59.74,181.69,59.74Zm0,17.09A10.75,10.75,0,0,0,190,73.2V67.3a10.75,10.75,0,0,0-8.25-3.63c-5,0-8.16,3.08-8.16,6.58S176.73,76.83,181.73,76.83Z"/><path d="M224.68,72.22H204.59c1.11,3.29,4.53,4.65,8,4.65a18.72,18.72,0,0,0,8.25-2.22l1.79,3.59a20.84,20.84,0,0,1-9.87,2.52c-7.52,0-12.52-4.23-12.52-10.47s4.92-10.55,12.05-10.55C220,59.74,225.27,64.91,224.68,72.22Zm-20.17-3.81H220.4c-1.15-3.37-4.61-4.91-8-4.91S205.53,65,204.51,68.41Z"/><path d="M230.61,80.51V51.79h4.11V80.51Z"/><path d="M265.06,72.22H245c1.11,3.29,4.53,4.65,8,4.65a18.72,18.72,0,0,0,8.25-2.22L263,78.24a20.84,20.84,0,0,1-9.87,2.52c-7.52,0-12.52-4.23-12.52-10.47s4.92-10.55,12-10.55C260.36,59.74,265.65,64.91,265.06,72.22Zm-20.17-3.81h15.89c-1.15-3.37-4.61-4.91-8-4.91S245.91,65,244.89,68.41Z"/><path d="M291.42,65.08a28.59,28.59,0,0,0-8.67-1.45h-3c-3.29,0-5,.77-5,2.26s1.41,2.14,4,2.14h5.08c6.5,0,9.7,2.18,9.7,6.15,0,4.32-3.8,6.58-10.81,6.58h-1.58a30.54,30.54,0,0,1-10.64-1.83l1.2-3.81a26.21,26.21,0,0,0,9.1,1.75h2.39c4,0,6.11-.81,6.11-2.69,0-1.66-1.66-2.22-5.64-2.22h-3.93c-6,0-9.19-2.09-9.19-5.9,0-4.14,3.72-6.32,10.3-6.32h1.63a30.61,30.61,0,0,1,10.29,1.71Z"/></g></g></svg>