<?xml version="1.0" encoding="utf-8"?>
<!-- Generator: Adobe Illustrator 22.1.0, SVG Export Plug-In . SVG Version: 6.00 Build 0)  -->
<svg version="1.1" id="Layer_1" xmlns="http://www.w3.org/2000/svg" xmlns:xlink="http://www.w3.org/1999/xlink" x="0px" y="0px"
	 viewBox="0 0 96.2 72" style="enable-background:new 0 0 96.2 72;" xml:space="preserve">
<title>jiji</title>
<path d="M0.5,0h5.3C5.6,1,5.6,2,5.6,3c0,4,1.6,4.7,5.6,4.7h39.1v5.7H10.6C3.8,13.4,0,10.7,0,4.3C0,2.8,0.2,1.4,0.5,0z"/>
<path d="M61.4,6.5c2.2,0,4,1.8,4,4s-1.8,4-4,4s-4-1.8-4-4S59.2,6.5,61.4,6.5z"/>
<rect x="23.6" y="28.1" transform="matrix(0.7071 -0.7071 0.7071 0.7071 -9.8152 38.1147)" width="35" height="5.7"/>
<path d="M50.9,71.5v-5.3c1,0.2,2,0.3,3,0.3c4,0,4.7-1.7,4.7-5.6V21.8h5.7v39.6c0,6.8-2.7,10.6-9.1,10.6C53.7,72,52.3,71.8,50.9,71.5
	z"/>
<rect x="78.9" y="13.4" transform="matrix(0.7071 -0.7071 0.7071 0.7071 2.0998 66.8639)" width="5.7" height="35"/>
</svg>
