<svg xmlns="http://www.w3.org/2000/svg" viewBox="0 0 720 253.27"><title>09-kylie-jenner</title><g id="Layer_2" data-name="Layer 2"><g id="Layer_1-2" data-name="Layer 1"><path d="M666.29,13.21c17.16,15.45,25.57,34.15,25.57,57.66.17,19.56-5.32,42.9-18.19,76.87l11.49,65,27.46,14.42L696.15,150c17-36.2,24-61.26,23.85-84.94-.17-24.88-8.41-48.73-22.48-65Z"/><path d="M314.53,99.69c-1.55,18.19-5.84,33.29-14.25,49.08h20.08c9.95-11.84,15.27-25.91,17.16-41.7L350.39,4.46H322.93Z"/><polygon points="402.55 115.82 380.93 113.42 384.19 86.65 405.99 85.8 408.56 65.03 387.28 64.52 390.88 36.21 411.99 35.52 414.91 8.92 365.83 8.92 360.86 37.41 384.71 36.55 384.71 36.89 364.8 43.93 356.39 136.07 399.81 137.1 402.55 115.82"/><polygon points="296.51 117.2 274.89 117.54 278.32 89.4 300.11 86.48 302.69 65.38 281.58 66.23 285.36 37.06 306.29 35.52 309.38 8.92 260.3 8.92 255.16 39.64 278.66 37.75 278.66 38.09 258.93 46.33 250.35 144.14 293.94 138.82 296.51 117.2"/><polygon points="162.67 8.92 150.66 166.62 195.1 154.78 198.02 130.24 175.71 134.18 189.44 8.92 162.67 8.92"/><polygon points="217.75 8.92 206.42 152.2 228.9 147.91 245.2 8.92 217.75 8.92"/><polygon points="419.88 138.47 439.27 140.19 448.02 52.16 448.37 52.16 454.03 142.08 481.66 146.02 496.24 8.92 473.59 5.32 466.9 115.14 466.56 115.14 461.07 16.64 426.58 16.64 419.88 138.47"/><polygon points="502.25 149.97 521.64 153.92 530.04 58 530.39 58 536.39 157.52 564.02 164.9 578.43 8.92 555.61 5.32 549.09 129.21 548.75 129.21 543.09 16.64 508.77 16.64 502.25 149.97"/><path d="M103,182.92l22.65-8.24L151.34,8.92H123.72L109,136.76h-.34c-.86-8.58-1.72-18.53-1.2-28.14l4.63-87-25.74,1.2L84.25,85.11C83.56,105,83.56,126,88,145.68l20.07-6Z"/><polygon points="646.21 194.41 667.83 204.37 681.39 35.18 655.13 33.29 646.21 194.41"/><polygon points="630.25 159.58 608.98 150.83 612.07 115.65 633.69 118.91 636.09 90.43 614.98 86.65 618.41 48.9 639.52 49.59 642.27 11.84 593.19 11.84 588.39 47.87 611.89 48.73 611.89 49.25 592.16 56.63 584.78 171.42 627.85 186.69 630.25 159.58"/><polygon points="0 231.65 22.14 219.47 26.94 149.63 27.28 149.63 42.04 209.17 70.18 196.3 50.96 139.16 78.59 8.92 50.1 8.92 27.45 146.2 27.11 146.2 37.06 25.4 10.29 26.94 0 231.65"/><path d="M205.05,248.46l-2.57-32.77-21.79,29.52a4.89,4.89,0,0,1-3.61,2.06H151a2.28,2.28,0,1,0,0,4.55h27.8a4.92,4.92,0,0,0,4.12-2.11l9.78-12.38c.34,2.58,1.54,3.58,4.29,3.58h2.74l.52,8.15a2.49,2.49,0,0,0,2.57,2.53C204.37,251.59,205.22,250,205.05,248.46Zm-11.32-12.1,5.14-6.86.35,6.86Z"/><path d="M101.58,244.69a3.68,3.68,0,0,1-3.26,1.89H2.4a2.4,2.4,0,0,0,0,4.8h98.5a3.69,3.69,0,0,0,3.26-1.89l13-21.45,11,7.38a3.09,3.09,0,0,0,3.43.35l15.79-7.38L138,247.61a2.32,2.32,0,0,0,1,3.26,2.39,2.39,0,0,0,3.26-1.2l15.44-31.41L132.3,230.1a3.65,3.65,0,0,1-4-.34l-12.53-8.58Z"/><path d="M325.51,248.46l-2.58-32.77-21.79,29.52a4.89,4.89,0,0,1-3.6,2.06H271.46a2.28,2.28,0,1,0,0,4.55h27.8a4.9,4.9,0,0,0,4.11-2.11l9.78-12.38c.35,2.58,1.55,3.58,4.29,3.58h2.75l.51,8.15a2.49,2.49,0,0,0,2.58,2.53C324.82,251.59,325.68,250,325.51,248.46Zm-11.33-12.1,5.15-6.86.34,6.86Z"/><path d="M258.42,239.54h4.8l-3.43,6a1.75,1.75,0,0,1-1.55,1H245.89l12-20.42a2.48,2.48,0,0,1,2.23-1.38h13.56a2.4,2.4,0,0,0,0-4.8H258.42a4.22,4.22,0,0,0-4,2.23l-13.21,22.65a2.89,2.89,0,0,1-3.09,1.72H211.92a2.4,2.4,0,1,0,0,4.8h48a3.38,3.38,0,0,0,2.92-1.54l6.35-11c1.2-2.06.17-4.12-2.06-4.12h-8.75a2.4,2.4,0,1,0,0,4.8Z"/><path d="M355.19,246.58H331.86a2.4,2.4,0,0,0,0,4.8h23.33a2.4,2.4,0,1,0,0-4.8Z"/><path d="M429,251.38a3.43,3.43,0,0,0,3.09-1.89l15.61-27.11a2.46,2.46,0,0,0-.86-3.43,2.71,2.71,0,0,0-3.43,1.37l-14.07,24.37a3.38,3.38,0,0,1-3.26,1.89H372.87l21.79-22c1.89-1.88.86-4.63-1.54-4.63H369.78a2.4,2.4,0,1,0,0,4.8h17.67l-26.59,26.6Z"/><path d="M507.22,253.27l17-30.37c.86-1.55.86-3.09-.69-4-1.37-.69-2.74,0-3.6,1.72l-11.84,21.27-9.61-25.05-16,27.8a3.67,3.67,0,0,1-3.26,1.89h-41a2.4,2.4,0,0,0,0,4.8h43.25a4,4,0,0,0,3.6-1.89L497.61,228Z"/><path d="M551.15,246.58H517.69a2.4,2.4,0,0,0,0,4.8h33.46a2.4,2.4,0,0,0,0-4.8Z"/><path d="M560.76,251.38H710.22a2.4,2.4,0,0,0,0-4.8h-146l7-11.33c.68,2.58,2.23,3.09,4.29,3.09h7.2a2.4,2.4,0,1,0,0-4.8H572.43l4.29-7.38a2.94,2.94,0,0,1,2.74-1.38h11.67a2.4,2.4,0,0,0,0-4.8H577.4a3.58,3.58,0,0,0-3.6,2.06l-15.44,25.05C557,249.32,558.19,251.38,560.76,251.38Z"/></g></g></svg>