<svg xmlns="http://www.w3.org/2000/svg" viewBox="0 0 720 155.88"><title>08-lestudio</title><g id="Layer_2" data-name="Layer 2"><g id="Layer_1-2" data-name="Layer 1"><path d="M0,0H15.52V153.66H0Z"/><path d="M43,0H58.54V59.42H43Z"/><path d="M71.84,106.65c0-27.27,21.51-49.44,49-49.44,28.82,0,52.1,24.61,49.66,53.43H88a33.57,33.57,0,0,0,59.65,17.52l12.41,9.54a50.3,50.3,0,0,1-38.8,18.18A49,49,0,0,1,71.84,106.65ZM153,96.9c-2.66-14.19-16.63-24.84-31.71-24.84C106,72.06,92,82.71,89.36,96.9Z"/><path d="M188.92,138.14l12-9.31c6,8.87,13.52,13.3,21.28,13.3,9.76,0,16.86-5.76,16.86-14.19,0-5.77-3.77-11.75-20.18-18.63-17.74-7.53-24-17.07-24-27.49,0-14.41,12.2-24.61,28.16-24.61a36.37,36.37,0,0,1,27.72,12.86l-10.87,9.75c-6.65-7.54-13.3-8.87-17.07-8.87-6.65,0-12.64,4-12.64,10.87,0,4.88,3.11,10,20.84,17.52,17.08,7.53,23.29,17.07,23.29,28.16,0,16.4-14,28.38-32.6,28.38C208.44,155.88,197.35,149.67,188.92,138.14Z"/><path d="M292.48,73.39H271.41v-14h21.07v-35H308v35h21.06v14H308v80.27H292.48Z"/><path d="M349.69,112.86V59.42h15.52v51.89c0,20.62,12.2,29.71,24.39,29.71S414,131.93,414,111.31V59.42h15.52v53.44c0,30.16-18.4,43-39.91,43S349.69,143,349.69,112.86Z"/><path d="M452.58,106.65c0-27.27,20.62-49.44,46.79-49.44,13.52,0,24.61,5.76,31.26,14.63h.45V0H546.6V153.66H531.08V141.24h-.45c-6.65,8.65-17.51,14.64-31,14.64C473.2,155.88,452.58,133.7,452.58,106.65Zm78.5,0c0-18.84-14-34.37-31.27-34.37s-31,15.53-31,34.37c0,19.07,13.75,34.15,31,34.15S531.08,125.72,531.08,106.65Z"/><path d="M574.32,20a11.64,11.64,0,1,1,23.28,0,12,12,0,0,1-11.75,11.75C579.64,31.71,574.32,26.16,574.32,20Zm3.77,39.46h15.52v94.24H578.09Z"/><path d="M621.33,106.65a49.34,49.34,0,1,1,49.22,49.23A49.44,49.44,0,0,1,621.33,106.65Zm82.48,0c0-18.84-15.07-34.37-33.26-34.37s-33.26,15.53-33.26,34.37c0,19.07,15.08,34.15,33.26,34.15S703.81,125.72,703.81,106.65Z"/></g></g></svg>