<svg xmlns="http://www.w3.org/2000/svg" viewBox="0 0 720 277.58"><title>05-midtown-center</title><g id="Layer_2" data-name="Layer 2"><g id="Layer_1-2" data-name="Layer 1"><g id="_Group_" data-name="&lt;Group&gt;"><rect id="_Path_" data-name="&lt;Path&gt;" x="179.33" y="42.35" width="21.94" height="91"/><circle id="_Path_2" data-name="&lt;Path&gt;" cx="190.21" cy="15.26" r="15.26" transform="translate(44.92 138.97) rotate(-45)"/><polygon id="_Path_3" data-name="&lt;Path&gt;" points="156.44 133.35 156.44 4.77 127.25 4.77 83.18 101.49 38.54 4.77 9.73 4.77 9.73 133.35 31.67 133.35 31.67 39.3 74.59 133.35 91 133.35 134.31 38.92 134.31 133.35 156.44 133.35"/><path id="_Path_4" data-name="&lt;Path&gt;" d="M62.38,277.58c29.58,0,48.46-17.74,55.71-39.68l-20.6-7.06c-5.73,14.5-17.55,26.52-36.06,26.52-21,0-39.49-15.64-39.49-42.54,0-27.09,18.51-42.74,38.73-42.74,16.4,0,29.76,10.11,35.48,26.14l21.75-7.06c-8.2-23.66-29-39.3-56.09-39.3-33.19,0-61.81,23.66-61.81,63C0,253.55,28.24,277.58,62.38,277.58Z"/><polygon id="_Path_5" data-name="&lt;Path&gt;" points="549.06 40.45 528.46 103.02 511.67 40.45 488.2 40.45 516.44 133.35 538.38 133.35 559.36 67.15 580.92 133.35 602.29 133.35 630.14 40.45 607.82 40.45 591.41 103.02 570.81 40.45 549.06 40.45"/><path id="_Path_6" data-name="&lt;Path&gt;" d="M251.26,221.11c0-12.21,6.29-21.94,19.07-21.94,12.4,0,18.32,9.16,18.32,20.61v54.94h22.13V216c0-20.41-11.83-36.82-32.62-36.82-10.88,0-21.37,4.39-27.48,15.07v-12.4H229.13v92.91h22.13Z"/><path id="_Path_7" data-name="&lt;Path&gt;" d="M660.48,79.75c0-12.21,6.29-21.94,19.07-21.94,12.41,0,18.32,9.15,18.32,20.6v54.94H720V74.59c0-20.41-11.83-36.82-32.62-36.82-10.88,0-21.37,4.39-27.48,15.08V40.45H638.35v92.9h22.13Z"/><circle id="_Path_8" data-name="&lt;Path&gt;" cx="548.49" cy="262.32" r="15.26" transform="translate(-45.82 134.05) rotate(-13.38)"/><path id="_Path_9" data-name="&lt;Path&gt;" d="M326,42.35A15.3,15.3,0,0,0,341.3,27.09V14.31h20V40.45h19.45V60.1H361.34v43.11c0,8,3.81,11.64,12,11.64a42.52,42.52,0,0,0,7.44-.76V132.4a31.74,31.74,0,0,1-12.2,2.1c-17.37,0-29.19-9.35-29.19-26.71V60.1H322.23V42.35Z"/><path id="_Compound_Path_" data-name="&lt;Compound Path&gt;" d="M438.79,37.58c-27.66,0-48.07,20.8-48.07,49.22,0,28.62,20.41,49.42,48.07,49.42,27.86,0,48.27-20.8,48.27-49.42C487.06,58.38,466.65,37.58,438.79,37.58Zm0,78.8c-13.54,0-25.94-10.31-25.94-29.58s12.4-29.18,25.94-29.18c13.74,0,25.95,9.92,25.95,29.18C464.74,106.26,452.53,116.38,438.79,116.38Z"/><path id="_Path_10" data-name="&lt;Path&gt;" d="M548.49,181.24a29.77,29.77,0,0,0-5.91-.57c-11.64,0-22.52,5.91-26.9,16V181.81H494.12v92.91h22.13V230.46c0-17.36,8.39-27.28,25-27.28a48.48,48.48,0,0,1,7.25.57Z"/><path id="_Path_11" data-name="&lt;Path&gt;" d="M326,183.72a15.3,15.3,0,0,0,15.26-15.26V155.68h20v26.13H381v19.65H361.34v43.12c0,8,3.81,11.64,12,11.64a42.46,42.46,0,0,0,7.44-.77v18.32a31.93,31.93,0,0,1-12.2,2.1c-17.37,0-29.19-9.35-29.19-26.71v-47.7H322.23V183.72Z"/><path id="_Compound_Path_2" data-name="&lt;Compound Path&gt;" d="M481.34,226.45c0-27.66-17.17-47.5-43.88-47.5-26.33,0-46.74,19.46-46.74,49.22,0,31.1,21.93,49.41,47.69,49.41,21.94,0,36.82-13.16,41.78-29.38l-18.7-5.91c-3.05,9.16-11.06,16.22-22.89,16.22-14.12,0-25.18-10.12-25.75-24.23h67.91A50.41,50.41,0,0,0,481.34,226.45Zm-67.92-8.39c.76-9.92,8.77-20.6,23.27-20.6,13.93,0,21.94,9.73,22.32,20.6Z"/><path id="_Compound_Path_3" data-name="&lt;Compound Path&gt;" d="M216.34,226.45c0-27.66-17.17-47.5-43.88-47.5-26.32,0-46.74,19.46-46.74,49.22,0,31.1,21.94,49.41,47.7,49.41,21.94,0,36.82-13.16,41.78-29.38l-18.7-5.91c-3.05,9.16-11.06,16.22-22.89,16.22-14.12,0-25.18-10.12-25.76-24.23h67.92A50.46,50.46,0,0,0,216.34,226.45Zm-67.91-8.39c.76-9.92,8.77-20.6,23.27-20.6,13.93,0,21.94,9.73,22.32,20.6Z"/><path id="_Compound_Path_4" data-name="&lt;Compound Path&gt;" d="M289.22,4.77V51.32C286.36,45.41,278.16,38,262.51,38c-26.71,0-44.83,21.93-44.83,49.22s17.93,48.45,43.69,48.45c14.11,0,23.84-6.48,28.23-14.3v12h21.18V4.77ZM265,116.18c-14.5,0-25.18-11.44-25.18-29.18S250.49,57.81,265,57.81c14.31,0,24.42,11.25,24.42,29.19S279.3,116.18,265,116.18Z"/></g></g></g></svg>