<?xml version="1.0" encoding="UTF-8"?><svg xmlns="http://www.w3.org/2000/svg" viewBox="0 0 694.52 353.03"><g id="a"/><g id="b"><g id="c"><g><polygon points="34.26 234.96 29.34 235.62 8.45 235.62 3.54 234.96 0 247.74 .65 248.2 3.21 245.97 12.51 245.97 12.51 283.17 9.1 287.37 9.76 288.02 28.03 288.02 28.69 287.37 25.28 283.17 25.28 245.97 34.58 245.97 37.14 248.2 37.79 247.74 34.26 234.96"/><polygon points="57.38 288.02 39.76 288.02 39.11 287.37 42.51 283.17 42.51 250.95 39.11 246.76 39.76 246.1 57.38 246.1 58.04 246.76 54.63 250.95 54.63 261.43 64.45 261.43 64.45 250.95 61.05 246.76 61.7 246.1 79.32 246.1 79.98 246.76 76.57 250.95 76.57 283.17 79.98 287.37 79.32 288.02 61.7 288.02 61.05 287.37 64.45 283.17 64.45 272.23 54.63 272.23 54.63 283.17 58.04 287.37 57.38 288.02"/><polygon points="111.68 288.74 106.77 288.02 84.56 288.02 83.91 287.37 87.31 283.17 87.31 250.95 83.91 246.76 84.56 246.1 104.8 246.1 109.72 245.31 113.91 257.5 113.25 258.22 110.04 255.73 99.43 255.73 99.43 262.21 107.03 262.21 108.99 260.44 109.65 261.17 109.65 272.89 108.99 273.68 107.03 271.97 99.43 271.97 99.43 278.39 110.7 278.39 114.56 275.12 115.22 275.9 111.68 288.74"/><polygon points="163.62 254.81 169.98 238.04 169.32 235.62 184.58 235.62 185.24 236.27 181.83 239.81 185.63 283.17 189.04 287.37 188.38 288.02 171.88 288.02 171.22 287.37 173.97 283.17 172.27 261.49 172.14 261.49 162.77 285.53 162.12 285.53 152.75 261.49 152.62 261.49 150.92 283.17 153.67 287.37 153.01 288.02 136.51 288.02 135.85 287.37 139.26 283.17 143.06 239.81 139.65 236.27 140.31 235.62 156.22 235.62 155.57 238.04 161.92 254.81 162.84 258.09 163.62 254.81"/><path d="M210,277.61c3.21,0,5.57-2.88,5.57-10.55s-2.36-10.55-5.57-10.55-5.57,2.88-5.57,10.55,2.36,10.55,5.57,10.55m0-32.16c9.96,0,17.68,7.14,17.68,21.62s-7.73,21.62-17.68,21.62-17.69-7.14-17.69-21.62,7.73-21.62,17.69-21.62"/><path d="M234.7,269.22v-18.27l-3.41-4.19,.65-.65h16.38l.65,.65-2.1,4.19v20.44c0,4.52,2.36,6.81,4.85,6.81s4.85-2.29,4.85-6.81v-20.44l-2.1-4.19,.65-.65h16.37l.65,.65-3.4,4.19v18.27c0,12.71-6.68,19.52-17.03,19.52s-17.03-6.81-17.03-19.52"/><polygon points="302.29 250.95 299.54 246.76 300.2 246.1 316.18 246.1 316.83 246.76 313.43 250.95 313.43 281.6 314.15 288.02 305.11 288.68 291.09 268.04 290.96 268.04 290.96 283.17 293.71 287.37 293.06 288.02 277.08 288.02 276.42 287.37 279.83 283.17 279.83 250.95 276.42 246.76 277.08 246.1 289.98 246.1 290.31 248.07 302.16 265.55 302.29 265.55 302.29 250.95"/><polygon points="327.25 287.37 330.66 283.83 330.66 255.73 322.67 255.73 320.11 257.96 319.46 257.5 322.99 245.44 327.91 246.1 345.53 246.1 350.44 245.44 353.97 257.5 353.32 257.96 350.77 255.73 342.77 255.73 342.77 283.83 346.18 287.37 345.53 288.02 327.91 288.02 327.25 287.37"/><path d="M368.84,271.45h4.58l-1.11-4.91-1.11-5.9h-.13l-1.11,5.9-1.11,4.91Zm-.52,16.57h-15.33l-.65-.65,3.08-4.19,8.97-31.7-2.62-4.72,.65-.66h17.42l.65,.66-2.62,4.72,8.97,31.7,3.08,4.19-.65,.65h-15.33l-.65-.65,2.82-4.19-.79-3.08h-8.38l-.79,3.08,2.82,4.19-.65,.65Z"/><polygon points="411.48 246.76 408.08 250.95 408.08 283.17 411.48 287.37 410.83 288.02 393.21 288.02 392.55 287.37 395.96 283.17 395.96 250.95 392.55 246.76 393.21 246.1 410.83 246.1 411.48 246.76"/><polygon points="442.93 250.95 440.17 246.76 440.83 246.1 456.81 246.1 457.47 246.76 454.06 250.95 454.06 281.6 454.78 288.02 445.74 288.68 431.72 268.04 431.59 268.04 431.59 283.17 434.34 287.37 433.69 288.02 417.71 288.02 417.05 287.37 420.46 283.17 420.46 250.95 417.05 246.76 417.71 246.1 430.61 246.1 430.94 248.07 442.79 265.55 442.93 265.55 442.93 250.95"/><polygon points="489.24 288.02 488.58 287.37 491.2 282.45 480.2 240.47 477.45 236.27 478.1 235.62 495.2 235.62 495.85 236.27 493.17 240.47 498.87 265.82 499.45 269.22 500.04 265.82 505.74 240.47 503.06 236.27 503.71 235.62 520.15 235.62 520.81 236.27 518.06 240.47 507.05 282.45 509.67 287.37 509.02 288.02 489.24 288.02"/><path d="M533.06,271.45h4.58l-1.11-4.91-1.11-5.9h-.13l-1.11,5.9-1.11,4.91Zm-.52,16.57h-15.33l-.66-.65,3.08-4.19,8.97-31.7-2.62-4.72,.66-.66h17.42l.65,.66-2.62,4.72,8.97,31.7,3.08,4.19-.66,.65h-15.33l-.66-.65,2.82-4.19-.79-3.08h-8.38l-.79,3.08,2.82,4.19-.65,.65Z"/><polygon points="556.11 246.76 556.77 246.1 574.39 246.1 575.04 246.76 571.64 250.95 571.64 278.39 582.9 278.39 586.77 275.12 587.42 275.9 583.89 288.74 578.97 288.02 556.77 288.02 556.11 287.37 559.52 283.17 559.52 250.95 556.11 246.76"/><polygon points="589.72 246.76 590.37 246.1 607.99 246.1 608.65 246.76 605.24 250.95 605.24 278.39 616.51 278.39 620.37 275.12 621.03 275.9 617.49 288.74 612.58 288.02 590.37 288.02 589.72 287.37 593.12 283.17 593.12 250.95 589.72 246.76"/><polygon points="651.09 288.74 646.18 288.02 623.97 288.02 623.32 287.37 626.73 283.17 626.73 250.95 623.32 246.76 623.97 246.1 644.21 246.1 649.13 245.31 653.32 257.5 652.66 258.22 649.45 255.73 638.84 255.73 638.84 262.21 646.44 262.21 648.41 260.44 649.06 261.17 649.06 272.89 648.41 273.68 646.44 271.97 638.84 271.97 638.84 278.39 650.11 278.39 653.97 275.12 654.63 275.9 651.09 288.74"/><polygon points="679.59 246.1 678.93 246.76 680.96 249.64 677.23 259.27 675.72 264.05 674.21 259.27 670.48 249.64 672.51 246.76 671.86 246.1 656.92 246.1 656.27 246.76 659.02 249.64 668.97 275.05 668.97 283.17 665.57 286.71 666.22 288.02 684.56 288.02 685.22 286.71 681.81 283.17 681.81 275.05 691.77 249.64 694.52 246.76 693.86 246.1 679.59 246.1"/><path d="M71.69,348.83l-2.56,4.19-.79-.65-2.29-20.11,.52-.65c4.39,5.76,9.43,8.38,14.54,8.38,4.78,0,6.42-2.29,6.42-4.06,0-1.38-.98-3.86-8.91-6.88-10.61-4.06-12.97-10.74-12.97-15.59,0-8.97,8.06-15.39,17.16-15.39,3.21,0,6.55,.79,9.24,2.23l2.03-3.6,.98,.59,2.23,19.32-.59,.59c-3.6-5.37-8.91-7.4-13.1-7.4-3.21,0-5.5,1.25-5.5,3.34,0,2.23,2.49,3.6,7.79,5.83,8.65,3.6,14.47,8.65,14.47,16.7,0,9.17-7.53,16.11-17.62,16.11-3.41,0-8.12-.79-11.07-2.95"/><path d="M123.11,319.36h-2.95v9.56h2.95c4.32,0,5.7-2.36,5.7-4.78s-1.38-4.78-5.7-4.78m-.2,31.77h-17.62l-.65-.65,3.41-4.19v-32.23l-3.41-4.19,.65-.66h19.06c9.5,0,15.79,6.03,15.79,14.94s-6.29,14.93-15.79,14.93h-4.19v7.2l3.41,4.19-.65,.65Z"/><path d="M158.61,328.79h2.95c4.45,0,5.9-2.29,5.9-4.85s-1.44-4.85-5.9-4.85h-2.95v9.69Zm0,9.5v7.99l3.41,4.19-.65,.66h-17.62l-.65-.66,3.41-4.19v-32.23l-3.41-4.19,.65-.66h18.41c9.89,0,16.44,5.37,16.44,14.48,0,5.44-2.36,10.22-7.99,12.18v.13c4.65,1.96,3.86,9.43,11.07,11.4l.13,.26c-2.68,2.75-5.37,4.26-8.32,4.26-10.22,0-8.12-13.62-14.87-13.62"/><polygon points="204.99 309.86 201.58 314.05 201.58 346.28 204.99 350.47 204.33 351.13 186.71 351.13 186.06 350.47 189.46 346.28 189.46 314.05 186.06 309.86 186.71 309.21 204.33 309.21 204.99 309.86"/><polygon points="236.43 314.05 233.68 309.86 234.33 309.21 250.32 309.21 250.97 309.86 247.56 314.05 247.56 344.71 248.29 351.13 239.25 351.78 225.23 331.15 225.1 331.15 225.1 346.28 227.85 350.47 227.19 351.13 211.21 351.13 210.56 350.47 213.96 346.28 213.96 314.05 210.56 309.86 211.21 309.21 224.12 309.21 224.44 311.17 236.3 328.66 236.43 328.66 236.43 314.05"/><polygon points="350.8 299.38 347.98 303.57 354.53 327.28 355.12 330.69 355.71 327.28 360.62 303.57 357.94 299.38 358.59 298.73 374.12 298.73 374.77 299.38 372.02 303.57 362.65 345.56 365.27 350.47 364.62 351.13 346.41 351.13 345.75 350.47 348.37 345.56 343.07 328.53 342.48 325.12 341.89 328.53 336.58 345.56 339.2 350.47 338.55 351.13 320.34 351.13 319.68 350.47 322.3 345.56 312.94 303.57 310.19 299.38 310.84 298.73 327.02 298.73 327.68 299.38 324.99 303.57 329.9 327.28 330.49 330.69 331.08 327.28 337.63 303.57 334.82 299.38 335.47 298.73 350.14 298.73 350.8 299.38"/><path d="M388.33,334.55h4.58l-1.11-4.91-1.11-5.9h-.13l-1.11,5.9-1.11,4.91Zm-.52,16.57h-15.33l-.65-.65,3.08-4.19,8.97-31.7-2.62-4.72,.65-.66h17.42l.65,.66-2.62,4.72,8.97,31.7,3.08,4.19-.65,.65h-15.33l-.65-.65,2.82-4.19-.79-3.08h-8.38l-.79,3.08,2.82,4.19-.65,.65Z"/><polygon points="415.58 350.47 418.98 346.93 418.98 318.83 410.99 318.83 408.44 321.06 407.78 320.6 411.32 308.55 416.23 309.21 433.85 309.21 438.77 308.55 442.3 320.6 441.65 321.06 439.09 318.83 431.1 318.83 431.1 346.93 434.51 350.47 433.85 351.13 416.23 351.13 415.58 350.47"/><polygon points="473.35 351.85 468.44 351.13 446.23 351.13 445.58 350.47 448.98 346.28 448.98 314.05 445.58 309.86 446.23 309.21 466.47 309.21 471.39 308.42 475.58 320.6 474.92 321.32 471.71 318.83 461.1 318.83 461.1 325.32 468.7 325.32 470.67 323.55 471.32 324.27 471.32 336 470.67 336.78 468.7 335.08 461.1 335.08 461.1 341.5 472.37 341.5 476.23 338.22 476.89 339.01 473.35 351.85"/><path d="M497.33,328.79h2.95c4.45,0,5.9-2.29,5.9-4.85s-1.44-4.85-5.9-4.85h-2.95v9.69Zm0,9.5v7.99l3.41,4.19-.65,.66h-17.62l-.65-.66,3.41-4.19v-32.23l-3.41-4.19,.65-.66h18.41c9.89,0,16.44,5.37,16.44,14.48,0,5.44-2.36,10.22-7.99,12.18v.13c4.65,1.96,3.86,9.43,11.07,11.4l.13,.26c-2.68,2.75-5.37,4.26-8.32,4.26-10.22,0-8.12-13.62-14.87-13.62"/><path d="M561.26,298.07c2.23,0,4.72,.33,7.66,1.51l1.83-2.23,.98,.59,1.96,16.05-.59,.59c-3.86-4.32-7.47-4.78-9.1-4.78-6.09,0-10.55,6.61-10.55,15.13s4.46,15.13,10.55,15.13c1.64,0,5.24-.46,9.1-4.78l.59,.59-1.96,16.05-.98,.59-1.83-2.23c-2.95,1.18-5.44,1.51-7.66,1.51-11.46,0-20.76-9.17-20.76-26.86s9.3-26.85,20.76-26.85"/><path d="M595.97,340.71c3.21,0,5.57-2.88,5.57-10.55s-2.36-10.55-5.57-10.55-5.57,2.88-5.57,10.55,2.36,10.55,5.57,10.55m0-32.16c9.96,0,17.68,7.14,17.68,21.61s-7.73,21.62-17.68,21.62-17.69-7.14-17.69-21.62,7.73-21.61,17.69-21.61"/><path d="M616.93,345.03c0-3.8,3.08-6.88,6.88-6.88s6.88,3.08,6.88,6.88-3.08,6.75-6.88,6.75-6.88-3.01-6.88-6.75"/><path d="M267.61,330.49c0,5.7,2.62,10.22,7.14,10.22,2.49,0,5.37-1.38,5.04-5.37l-4.72-4.19,.65-.66h15.46l.65,.66-3.41,4.19v15.72l-.79,.66-4.13-4.19c-2.88,3.34-7.01,4.26-10.35,4.26-9.5,0-17.29-7.6-17.29-21.35s8.12-21.88,18.34-21.88c1.9,0,4.52,.26,7.01,1.51l1.83-2.23,.98,.59,1.64,14.08-.59,.59c-2.16-3.54-5.76-4.13-7.79-4.13-5.57,0-9.69,4.45-9.69,11.53"/></g><g><polygon points="288.73 122.71 288.08 122.05 292.14 117.86 292.14 84.92 286.7 84.92 285.98 84.06 302.03 70.31 304.58 70.31 304.58 117.86 308.65 122.05 307.99 122.71 288.73 122.71"/><path d="M335.57,85.24c0-3.14-2.36-5.5-5.31-5.5s-5.31,2.36-5.31,5.5,2.36,5.5,5.31,5.5,5.31-2.42,5.31-5.5m.65,22.01c0-3.01-1.96-5.9-5.96-5.9s-5.96,2.88-5.96,5.9,1.96,6.03,5.96,6.03,5.96-3.01,5.96-6.03m-23.65,.52c0-5.63,2.49-10.09,7.01-12.44v-.13c-2.42-2.03-5.04-5.63-5.04-10.74,0-8.58,6.88-14.8,15.72-14.8s15.72,6.22,15.72,14.8c0,5.11-2.62,8.71-5.04,10.74v.13c4.52,2.36,7.01,6.81,7.01,12.44,0,9.96-7.79,15.59-17.68,15.59s-17.68-5.63-17.68-15.59"/><polygon points="351.48 80.66 348.93 82.89 348.28 82.43 351.81 69.65 356.72 70.31 378.6 70.31 382.27 79.28 366.62 119.96 367.34 122.71 352.21 122.71 351.55 122.05 354.5 119.57 369.82 81.84 369.24 80.66 351.48 80.66"/><polygon points="388.56 122.71 387.9 122.05 391.96 117.86 391.96 84.92 386.53 84.92 385.81 84.06 401.86 70.31 404.41 70.31 404.41 117.86 408.47 122.05 407.82 122.71 388.56 122.71"/><path d="M347.26,7.33c-47.26,0-85.71,38.45-85.71,85.71s38.45,85.7,85.71,85.7,85.71-38.45,85.71-85.7S394.52,7.33,347.26,7.33m0,178.74c-51.3,0-93.03-41.74-93.03-93.03S295.96,0,347.26,0s93.03,41.73,93.03,93.03-41.73,93.03-93.03,93.03"/></g></g></g></svg>