<svg xmlns="http://www.w3.org/2000/svg" viewBox="0 0 1392.64 478.05"><g id="Layer_2" data-name="Layer 2"><g id="Layer_4" data-name="Layer 4"><path d="M544.65,52.54C481,52.54,415.85,135.12,353,222.79c-36.65,51.22-42.25,59.67-48.36,68.12-3.16,4.38-7.94,9.47-11.2,9.47-2.35,0-3.47-1.63-3.47-5.4,0-8.14,5.3-20.77,9-39.71,8.45-44,8.45-92.15,14.15-123.61.71-4.08-.51-7.33-3.36-2.75C256.09,216.78,137.77,308,48.16,308,16.7,308-.2,297.12,0,282.05c.1-9.06,6.31-16.29,15.78-16.29,18.94,0,19,29.53,56.82,29.53,65.47,0,191.74-89.1,245.91-194.28,8.55-16.7,19.34-28.1,30.24-30.65,4.38-.92,6.11,1.12,3.26,7.64-21.9,50.5-12,103.35-26.38,163.22-1.32,5.6,1,6.92,5,1.32,75.45-106.3,154-207,222-207,15.07,0,26.88,4.78,26.88,12.93,0,3.87-3,7.43-9.57,7.43S558.2,52.54,544.65,52.54Z"/><path d="M652.28,181.14a8.62,8.62,0,0,0-9,8.76c0,5.09,3.87,7,3.87,15.48,0,9.47-5.29,24-20.06,36.35-16.8,14.05-37.88,26.37-49.08,26.37-5.6,0-6.82-3-6.82-5.9,0-6,4.89-13.65,9-18.94,7.74-10.9,16.19-20.67,24.24-31.16,2.74-3.46,6.21-7.33,6.21-11.3,0-3.47-2.75-4.89-5.71-4.89-20.16,0-82.57,69.34-101.51,69.34-3.36,0-4.69-2.24-4.69-5,0-9.77,15.89-28.1,30.85-43.38,7.74-7.94,15-14.56,15-19.24,0-3.56-4.58-4.79-9.57-4.79-30.85,0-74.63,52.75-102.74,68.63-9.88,5.6-19.24,8.66-27,8.66-16.5,0-16.19-18.94-4.79-22.2,37.17-10.49,65.58-29.22,65.58-43.07,0-18.43-31.26-19.45-56.51-1.83-87.78,61.29-13.65,105.69,44.9,51,22-20.57,38.28-34,56-46.43,3.26-2.24,4.28-.51,1.73,1.83-27.69,26.47-37.77,43.07-37.77,56.41,0,7.94,5.09,11.2,12.93,11.2,12.42,0,25.25-7.33,35.84-15.48,11.4-8.55,25.46-19.85,36.05-29.42,5-4.48,8.24-3.77,3.76,1.12-6.41,7.12-15.58,20.77-15.58,30.75,0,8.75,7.34,12.93,17.31,12.93,32,0,99.59-47.55,99.59-80.54C664.3,187.25,658.9,181.14,652.28,181.14Zm-251.5,58.14c11.1-18.83,34.62-40.93,43.58-40.93,3.36,0,5.29,2,5.29,5.91,0,11.81-22.4,30.24-46,37.88C399.56,243.46,399.25,241.83,400.78,239.28Z"/><path d="M1345.7,235.72c-44,0-82.17,32.18-112.62,32.18-11,0-17.61-8.25-17.61-20.77,0-12,5.8-18.84,17.51-22.1,23-6.42,29.94-10.28,29.94-18.12,0-8-7.33-12.53-19.86-12.53-21.18,0-41.75,12.83-89,55.8-1.63,1.43-3.36.51-2.14-1.22,10.89-15.17,28.31-41.85,39.91-50.4C1273.91,138,1373.9,62,1373.9,19.55,1373.9,7,1364.54,0,1351.2,0c-24.44,0-48,20.26-76.47,52.54-20.37,23.11-57.94,76.88-102.64,134.82-26,33.6-80.54,80.23-95.2,80.23-2.55,0-4.08-1.83-4.08-5.09,0-4.17,2.45-10,23.83-33.8,13.34-14.87,15.78-18.23,15.78-22.1s-2.75-6.62-7.74-7.94c-9.36-2.45-24.74-1.63-24.74-5.7,0-4.79,9.06-8.25,9.06-13.65,0-2.54-2.44-4-6.72-4-10.08,0-20.16,6.31-20.16,14.26,0,3.15,1.63,5.49,1.63,7.33,0,2.75-2.55,6.11-7.74,12.32-15,18-33,31.46-53.35,39.81-7.23,2.95-10.29.81-5.3-3.36,11.41-9.37,18.64-22,18.64-32.18s-7.23-16.08-5.71-9.57c2,8.56.92,14.05-3.36,16.7-4.78,2.95-13.85-.61-22.7,6.52-9.78,7.74-5.1,17.61-10.7,24.13-9.57,11.4-27.69,22.4-37.06,22.4-4.89,0-7.53-2.85-7.53-7.94,0-18.13,32.68-53.87,61-66.08,7.13-3.16,7.13-5.5-.21-5.5-34.31,0-81.25,37.67-81.25,66.18,0,12.12,8.25,19.15,23.52,19.15,25.25,0,42-16.7,60.69-22.61,51.62-16.29,65.57-49.18,79.73-54.27,5-1.83,10.69-1.22,16.19-.31,8.24,1.33,9.26,4.08,5.49,7.84-10.59,10.59-47.75,36-47.75,56.72,0,7.64,5.19,11,14.25,11,18.33,0,40.12-13.24,74.64-45.42,6.42-5.7,8.86-3.05,2.55,4.48-15.79,18.64-22.3,28.82-22.3,34.62,0,3.67,3.46,5.81,7.84,5.81a22.94,22.94,0,0,0,13.54-4.69c32.79-26.17,72.8-72,96.43-72,5.39,0,7.63,2.35,7.63,6.72,0,12.22-17.92,11.41-30.54,18.43-11.61,6.42-17.21,19.15-17.21,31.47,0,13.85,6.92,20.46,19.85,20.46,44.81,0,69.45-29.63,113.54-29.63,33.6,0,48,16.7,58.65,16.7,5,0,7.43-4.07,7.43-7.84C1392.64,245.29,1369.63,235.72,1345.7,235.72Zm-146-54.78c45.72-65.68,121-173.2,153.55-173.2,6.42,0,10.19,4.38,10.19,11.71,0,32.79-82.28,104.67-160.27,162.51C1196.94,186.54,1197.14,184.61,1199.68,180.94Z"/><path d="M1020.17,41.14C1008,41.14,993.9,51.62,977,75.45c-22.1,31.06-52.24,72.4-73.42,97C866,216.07,798.91,276.86,771,276.86c-6.11,0-9.47-3-9.47-7.54,0-13.74,30.14-52.84,53.86-79.11,24.14-27.6,59.06-56.62,59.06-86.45,0-24.13-24.13-33.91-49.79-33.91-52.54,0-125.75,44.19-125.75,100.7,0,22.61,12.42,36.76,28.71,36.76,12.53,0,23.42-8.55,23.42-17.41,0-4.48-2.75-7.74-7.74-7.74-10.28,0-11.81,14.26-23.62,14.26-7.84,0-12.32-6.42-12.32-17.41,0-50.1,82.68-102.44,123.2-102.44,13.34,0,25.36,6,25.36,18.13,0,23.52-45.11,64.45-71.48,94.69-42,48.06-49.18,61.2-49.18,74.33s7.43,22.61,22.7,22.61c33.61,0,81.77-40.22,113-70.46,5.29-5.2,8.45-5.71,1.63,4.37-13.24,19.55-43.38,61.4-62.42,89.3-2,2.85-4,3.77-7.23,4.48-37.88,8.35-79.93,29.53-112.82,53.66-123.72,90.83-28.2,188.89,93.68,12,14.46-21,28.3-40.32,42.15-59.87,2.34-3.26,4.79-5,8.15-5,42.56,0,74.84,18.94,68.63,59.56-.72,4.48,3.56,4.89,4.68-2,6.82-42.26-29.12-62-72.4-62.73-1.52,0-1.52-.71-.1-2.74,24.75-35.44,48.47-66,71-98.77,19.76-28.72,31-44.81,42.77-54.68,35.43-29.63,63.23-55.09,74.43-68.12,9.68-11.3,13.55-20.57,13.55-27.7C1036.67,48.37,1030.15,41,1020.17,41.14ZM798.91,326.55c-15.17,21.48-39.71,53.76-54.27,72.39-78.82,101-137.36,76.88-85.74,16.19,28.41-33.39,90.83-80.84,137.77-94.18C804.1,318.81,803.39,320.23,798.91,326.55ZM1020.58,78.71c-11,15.07-40.73,42.05-70,66.08-2.24,1.84-4.58,3.36-2.24-.4,31.47-50.81,51.53-79.43,60.79-88.9,4.79-4.88,9.07-6.92,12.43-6.92,4.58,0,7.33,3.87,7.33,9.67C1028.93,63.54,1026.58,70.46,1020.58,78.71Z"/></g></g></svg>