<svg xmlns="http://www.w3.org/2000/svg" viewBox="0 0 720 30.44"><title>21-ns-architects</title><g id="Layer_2" data-name="Layer 2"><g id="Layer_1-2" data-name="Layer 1"><path d="M226.53,5.27c3.6,0,6.7,1.92,7.72,5.07h6.09C239.07,4.25,233.31,0,226.69,0a15,15,0,0,0-15.12,15.2,15,15,0,0,0,15.12,15.2c6.7,0,12.38-4.25,13.61-10.34h-6.05c-1,3.15-4.12,5.07-7.72,5.07-5.31,0-9.24-4.25-9.24-9.93S221.22,5.27,226.53,5.27Z"/><path d="M373.91,9.64a8.72,8.72,0,0,0-2.61-6.33c-1.72-1.76-4.25-2.74-7.64-2.74H350.83V29.79H357V18.51h4.82l6.78,11.28h6.86l-7.31-12A8.07,8.07,0,0,0,373.91,9.64Zm-10.83,4H357v-8h6.21c2.94,0,4.65,1.31,4.65,4S366.19,13.69,363.08,13.69Z"/><path d="M198.54,12.18c-4.33-.94-6.37-1.64-6.37-4,0-2.08,2.08-3.43,5.27-3.43,3,0,5.31,1.47,5.64,4.41h5.68C208.31,3.27,204.06,0,197.48,0s-11.2,3-11.2,8.75c0,6.08,4.78,7.47,10,8.66,4.46,1,7.23,1.59,7.23,4.45,0,2.7-2.65,3.76-5.67,3.76-4.17,0-6.17-1.39-6.58-4.9h-5.81c.21,6.17,4.7,9.68,12.63,9.68,6.58,0,11.36-3.31,11.36-9.23C209.45,14.91,204.55,13.48,198.54,12.18Z"/><path d="M311.27,9.23c-.85,1.76-2,4.17-2,4.17h-.08s-1-2.41-1.92-4.17L302.9.57h-6.46l9.73,17.94V29.79h5.92V18.51L321.82.57h-6.21Z"/><path d="M342.12,14.14V14c2.74-.94,4.58-2.87,4.58-5.85a6.88,6.88,0,0,0-2.33-5.47C342.86,1.35,340.45.57,337.3.57H324.23V29.79h13.4A11.07,11.07,0,0,0,345,27.46a7.38,7.38,0,0,0,2.58-6.09A7.31,7.31,0,0,0,342.12,14.14Zm-12-8.75h6.54c2.61,0,4.21,1.27,4.21,3.44s-1.76,3.51-4.33,3.51h-6.42ZM337,24.88h-6.83V16.71h6.66c2.7,0,4.74,1.43,4.74,4.21C341.55,23.29,339.84,24.88,337,24.88Z"/><path d="M288.31,18.71c0,3.72-1.63,6.62-5.68,6.62S277,22.43,277,18.71V.57H271v18c0,6.82,3.14,11.85,11.6,11.85s11.6-5,11.6-11.85V.57h-5.92Z"/><path d="M161.77,12.18c-4.34-.94-6.38-1.64-6.38-4,0-2.08,2.09-3.43,5.27-3.43,3,0,5.31,1.47,5.64,4.41H172C171.53,3.27,167.28,0,160.7,0s-11.19,3-11.19,8.75c0,6.08,4.78,7.47,10,8.66,4.45,1,7.23,1.59,7.23,4.45,0,2.7-2.66,3.76-5.68,3.76-4.17,0-6.17-1.39-6.58-4.9h-5.8c.2,6.17,4.7,9.68,12.63,9.68,6.57,0,11.36-3.31,11.36-9.23C172.68,14.91,167.77,13.48,161.77,12.18Z"/><polygon points="261.01 12.75 249.53 12.75 249.53 0.57 243.61 0.57 243.61 29.79 249.53 29.79 249.53 17.65 261.01 17.65 261.01 29.79 266.94 29.79 266.94 0.57 261.01 0.57 261.01 12.75"/><rect x="27.87" y="0.57" width="5.92" height="29.22"/><path d="M17.69,15.89c0,2.05.17,5.07.17,5.07h-.09s-1.1-2.49-2-4.08L6,.57H0V29.79H5.84V14.71c0-2-.16-5.11-.16-5.11h.08s1.15,2.49,2.09,4.05l10,16.14h5.72V.57H17.69Z"/><path d="M131.73.57,121.56,29.79h6l1.93-6.21H140l2,6.21h6.17L137.86.57ZM130.87,19l2.62-8.42c.49-1.55,1.23-4.49,1.23-4.49h.08s.69,2.94,1.18,4.49L138.6,19Z"/><path d="M51.65,5.27c3.59,0,6.7,1.92,7.72,5.07h6.09C64.19,4.25,58.43,0,51.81,0A15,15,0,0,0,36.69,15.2,15,15,0,0,0,51.81,30.4c6.7,0,12.38-4.25,13.61-10.34H59.37c-1,3.15-4.13,5.07-7.72,5.07-5.31,0-9.24-4.25-9.24-9.93S46.34,5.27,51.65,5.27Z"/><path d="M82.74,0A15.2,15.2,0,1,0,98,15.2,15.15,15.15,0,0,0,82.74,0Zm0,25.13a9.65,9.65,0,0,1-9.52-9.93,9.65,9.65,0,0,1,9.52-9.93c5.23,0,9.52,4.09,9.52,9.93S88,25.13,82.74,25.13Z"/><polygon points="106.77 0.57 100.84 0.57 100.84 29.79 120.5 29.79 120.5 24.84 106.77 24.84 106.77 0.57"/><polygon points="592.43 5.56 601.22 5.56 601.22 29.79 607.14 29.79 607.14 5.56 615.93 5.56 615.93 0.57 592.43 0.57 592.43 5.56"/><path d="M521.91,9.64a8.69,8.69,0,0,0-2.62-6.33C517.58,1.55,515,.57,511.65.57H498.82V29.79H505V18.51h4.82l6.79,11.28h6.86l-7.31-12A8.08,8.08,0,0,0,521.91,9.64Zm-10.83,4H505v-8h6.21c2.94,0,4.66,1.31,4.66,4S514.19,13.69,511.08,13.69Z"/><polygon points="624.84 17.65 638.28 17.65 638.28 12.75 624.84 12.75 624.84 5.56 640.2 5.56 640.2 0.57 618.91 0.57 618.91 29.79 640.32 29.79 640.32 24.84 624.84 24.84 624.84 17.65"/><polygon points="458.54 0.57 451.18 0.57 439.94 12.22 439.94 0.57 434.02 0.57 434.02 29.79 439.94 29.79 439.94 19.16 442.93 16.14 452.32 29.79 459.27 29.79 447.09 12.26 458.54 0.57"/><rect x="583.49" y="0.57" width="5.92" height="29.22"/><path d="M538.74,5.27c3.6,0,6.7,1.92,7.73,5.07h6.08C551.29,4.25,545.53,0,538.91,0a15,15,0,0,0-15.12,15.2,15,15,0,0,0,15.12,15.2c6.7,0,12.38-4.25,13.6-10.34h-6c-1,3.15-4.13,5.07-7.73,5.07-5.31,0-9.23-4.25-9.23-9.93S533.43,5.27,538.74,5.27Z"/><polygon points="573.23 12.75 561.75 12.75 561.75 0.57 555.82 0.57 555.82 29.79 561.75 29.79 561.75 17.65 573.23 17.65 573.23 29.79 579.15 29.79 579.15 0.57 573.23 0.57 573.23 12.75"/><path d="M480.15.57,470,29.79h6l1.92-6.21h10.54l2,6.21h6.17L486.28.57ZM479.29,19l2.62-8.42c.49-1.55,1.22-4.49,1.22-4.49h.08s.7,2.94,1.19,4.49L487,19Z"/><polygon points="415.06 17.65 428.5 17.65 428.5 12.75 415.06 12.75 415.06 5.56 430.42 5.56 430.42 0.57 409.13 0.57 409.13 29.79 430.55 29.79 430.55 24.84 415.06 24.84 415.06 17.65"/><path d="M391,0a15.2,15.2,0,1,0,15.24,15.2A15.16,15.16,0,0,0,391,0Zm0,25.13a9.65,9.65,0,0,1-9.52-9.93A9.65,9.65,0,0,1,391,5.27c5.23,0,9.52,4.09,9.52,9.93S396.26,25.13,391,25.13Z"/><path d="M709.09,12.18c-4.33-.94-6.37-1.64-6.37-4,0-2.08,2.08-3.43,5.27-3.43,3,0,5.31,1.47,5.64,4.41h5.68C718.86,3.27,714.61,0,708,0s-11.2,3-11.2,8.75c0,6.08,4.78,7.47,10,8.66,4.46,1,7.24,1.59,7.24,4.45,0,2.7-2.66,3.76-5.68,3.76-4.17,0-6.17-1.39-6.58-4.9H696c.21,6.17,4.7,9.68,12.63,9.68,6.58,0,11.36-3.31,11.36-9.23C720,14.91,715.1,13.48,709.09,12.18Z"/><polygon points="671.46 5.56 680.24 5.56 680.24 29.79 686.17 29.79 686.17 5.56 694.95 5.56 694.95 0.57 671.46 0.57 671.46 5.56"/><path d="M656.71,5.27c3.59,0,6.7,1.92,7.72,5.07h6.09C669.25,4.25,663.49,0,656.87,0a15,15,0,0,0-15.12,15.2,15,15,0,0,0,15.12,15.2c6.7,0,12.38-4.25,13.61-10.34h-6.05c-1,3.15-4.13,5.07-7.72,5.07-5.31,0-9.24-4.25-9.24-9.93S651.4,5.27,656.71,5.27Z"/></g></g></svg>