<?xml version="1.0" encoding="UTF-8"?><svg xmlns="http://www.w3.org/2000/svg" viewBox="0 0 1166.04 451.38"><g id="a"/><g id="b"><g id="c"><path d="M758.02,451.38c1.26,0,2.32-.43,3.18-1.29,.86-.86,1.29-1.92,1.29-3.18s-.43-2.26-1.29-3.15c-.86-.89-1.93-1.33-3.18-1.33s-2.32,.44-3.18,1.33c-.86,.89-1.3,1.94-1.3,3.15s.43,2.32,1.3,3.18c.86,.86,1.92,1.29,3.18,1.29m-26.67-29.47c2.61,0,4.82,.85,6.62,2.56,1.8,1.7,2.79,3.93,2.97,6.68h-19.46c.47-3.08,1.65-5.39,3.54-6.93,1.89-1.54,4-2.31,6.33-2.31m14.84,21.63l-4.97-3.15c-.93,1.63-2.18,2.94-3.74,3.92-1.56,.98-3.49,1.47-5.77,1.47-2.47,0-4.68-.74-6.61-2.2-1.94-1.47-3.14-3.84-3.61-7.11h25.83c.05-.47,.09-.89,.14-1.26,.05-.37,.07-.84,.07-1.4,0-5.23-1.49-9.44-4.48-12.63-2.99-3.2-6.88-4.79-11.69-4.79s-8.78,1.6-11.79,4.79-4.52,7.41-4.52,12.63,1.49,9.52,4.48,12.74c2.99,3.22,7.05,4.83,12.18,4.83,3.36,0,6.27-.69,8.71-2.06,2.45-1.38,4.38-3.3,5.78-5.77m-52.92-21.63c2.61,0,4.82,.85,6.61,2.56,1.8,1.7,2.79,3.93,2.98,6.68h-19.46c.47-3.08,1.65-5.39,3.53-6.93,1.89-1.54,4-2.31,6.34-2.31m14.84,21.63l-4.97-3.15c-.93,1.63-2.18,2.94-3.74,3.92-1.56,.98-3.49,1.47-5.78,1.47-2.47,0-4.68-.74-6.61-2.2s-3.14-3.84-3.6-7.11h25.83c.05-.47,.09-.89,.14-1.26,.05-.37,.07-.84,.07-1.4,0-5.23-1.49-9.44-4.48-12.63s-6.88-4.79-11.69-4.79-8.78,1.6-11.79,4.79-4.52,7.41-4.52,12.63,1.49,9.52,4.48,12.74c2.99,3.22,7.05,4.83,12.18,4.83,3.36,0,6.27-.69,8.72-2.06,2.45-1.38,4.38-3.3,5.78-5.77m-47.74-11.06c0-2.94,.9-5.3,2.7-7.07,1.8-1.77,4.19-2.66,7.17-2.66h2.94v-6.37h-1.75c-2.47,0-4.66,.44-6.54,1.33-1.89,.89-3.4,2.36-4.52,4.41h-.14v-5.04h-6.3v33.6h6.44v-18.2Zm-15.47-9.8h-21.84v-15.47h23.24v-6.23h-30.24v49.7h7v-21.7h21.84v-6.3Zm-64.82,9.8c0-2.94,.9-5.3,2.7-7.07,1.8-1.77,4.19-2.66,7.17-2.66h2.94v-6.37h-1.75c-2.47,0-4.66,.44-6.54,1.33-1.89,.89-3.4,2.36-4.52,4.41h-.14v-5.04h-6.3v33.6h6.44v-18.2Zm-31.71,13.23c-3.17,0-5.71-1.09-7.6-3.26-1.89-2.17-2.84-5.03-2.84-8.57,0-3.83,.99-6.76,2.98-8.78,1.98-2.03,4.47-3.05,7.46-3.05s5.48,1.01,7.49,3.05c2.01,2.03,3.01,4.96,3.01,8.78,0,3.55-.96,6.4-2.87,8.57-1.91,2.17-4.46,3.26-7.63,3.26m0-29.33c-2.47,0-4.75,.41-6.83,1.22-2.08,.82-3.86,1.98-5.36,3.5-1.49,1.52-2.66,3.36-3.5,5.53-.84,2.17-1.26,4.59-1.26,7.25,0,5.23,1.55,9.45,4.65,12.67,3.1,3.22,7.2,4.83,12.29,4.83s9.18-1.61,12.28-4.83c3.1-3.22,4.66-7.44,4.66-12.67s-1.58-9.62-4.73-12.78c-3.15-3.15-7.22-4.72-12.21-4.72m-29.05,6.3h8.47v-5.6h-8.47v-4.83c0-2.05,.51-3.6,1.54-4.65s2.47-1.58,4.34-1.58h3.15v-5.74h-3.29c-4.11,0-7.19,1.09-9.24,3.26-2.05,2.17-3.08,5.01-3.08,8.51v5.04h-6.72v5.6h6.79v28h6.51v-28Zm-60.27,28h6.44v-10.36l4.76-4.9,10.78,15.26h7.63l-14.14-19.67,13.58-13.93h-7.98l-14.63,15.47v-32.27h-6.44v50.4Zm-12.25-10.36c-.89,1.63-2.09,2.9-3.61,3.81-1.52,.91-3.28,1.37-5.29,1.37-3.17,0-5.7-1.06-7.6-3.18-1.89-2.12-2.83-4.94-2.83-8.43,0-3.78,.99-6.66,2.98-8.65,1.98-1.98,4.45-2.98,7.38-2.98,2.01,0,3.75,.43,5.22,1.3s2.65,2.23,3.53,4.09l5.53-3.15c-1.17-2.38-2.9-4.33-5.21-5.84-2.31-1.52-5.31-2.27-8.99-2.27-2.47,0-4.75,.41-6.82,1.22-2.08,.82-3.86,1.98-5.36,3.5-1.49,1.52-2.66,3.36-3.5,5.53s-1.26,4.59-1.26,7.25c0,5.23,1.55,9.45,4.65,12.67,3.1,3.22,7.22,4.83,12.36,4.83,3.45,0,6.36-.72,8.71-2.17,2.36-1.45,4.12-3.27,5.29-5.46l-5.18-3.43Zm-48.86,5.39c-3.17,0-5.7-1.09-7.6-3.26-1.89-2.17-2.83-5.03-2.83-8.57,0-3.83,.99-6.76,2.98-8.78,1.98-2.03,4.47-3.05,7.45-3.05s5.48,1.01,7.49,3.05c2.01,2.03,3.01,4.96,3.01,8.78,0,3.55-.96,6.4-2.87,8.57-1.91,2.17-4.46,3.26-7.63,3.26m0-29.33c-2.47,0-4.75,.41-6.82,1.22-2.08,.82-3.86,1.98-5.36,3.5-1.49,1.52-2.66,3.36-3.5,5.53s-1.26,4.59-1.26,7.25c0,5.23,1.55,9.45,4.65,12.67,3.1,3.22,7.2,4.83,12.29,4.83s9.18-1.61,12.29-4.83c3.1-3.22,4.65-7.44,4.65-12.67s-1.57-9.62-4.73-12.78c-3.15-3.15-7.22-4.72-12.21-4.72m-26.88,23.94c-.89,1.63-2.09,2.9-3.61,3.81-1.52,.91-3.28,1.37-5.28,1.37-3.17,0-5.71-1.06-7.6-3.18-1.89-2.12-2.83-4.94-2.83-8.43,0-3.78,.99-6.66,2.98-8.65,1.98-1.98,4.45-2.98,7.39-2.98,2.01,0,3.74,.43,5.21,1.3,1.47,.86,2.65,2.23,3.54,4.09l5.53-3.15c-1.17-2.38-2.9-4.33-5.21-5.84-2.31-1.52-5.31-2.27-8.99-2.27-2.47,0-4.75,.41-6.83,1.22-2.08,.82-3.86,1.98-5.36,3.5-1.49,1.52-2.66,3.36-3.5,5.53s-1.26,4.59-1.26,7.25c0,5.23,1.55,9.45,4.65,12.67,3.1,3.22,7.22,4.83,12.36,4.83,3.45,0,6.36-.72,8.71-2.17,2.36-1.45,4.12-3.27,5.29-5.46l-5.18-3.43Zm-50.82,5.39c-3.08,0-5.55-1.07-7.42-3.22-1.87-2.15-2.8-5.02-2.8-8.61s.93-6.46,2.8-8.61c1.87-2.15,4.34-3.22,7.42-3.22s5.58,1.07,7.49,3.22c1.91,2.15,2.87,5.02,2.87,8.61s-.97,6.46-2.9,8.61c-1.94,2.15-4.42,3.22-7.45,3.22m10.36-28.63v5.11h-.14c-1.26-1.87-2.87-3.3-4.83-4.3-1.96-1-4.18-1.51-6.65-1.51-2.29,0-4.38,.44-6.27,1.33-1.89,.89-3.51,2.1-4.86,3.64-1.35,1.54-2.42,3.38-3.18,5.53-.77,2.15-1.15,4.48-1.15,7s.39,4.85,1.15,7c.77,2.15,1.83,3.99,3.18,5.53,1.35,1.54,2.98,2.75,4.86,3.64,1.89,.89,3.98,1.33,6.27,1.33,2.47,0,4.69-.5,6.65-1.5,1.96-1,3.57-2.44,4.83-4.3h.14v5.11h6.51v-33.6h-6.51Zm-48.79,4.83c2.61,0,4.82,.85,6.61,2.56,1.8,1.7,2.79,3.93,2.98,6.68h-19.46c.47-3.08,1.64-5.39,3.54-6.93,1.89-1.54,4-2.31,6.33-2.31m14.84,21.63l-4.97-3.15c-.93,1.63-2.18,2.94-3.74,3.92-1.56,.98-3.49,1.47-5.77,1.47-2.47,0-4.68-.74-6.61-2.2-1.94-1.47-3.14-3.84-3.61-7.11h25.83c.05-.47,.09-.89,.14-1.26,.05-.37,.07-.84,.07-1.4,0-5.23-1.49-9.44-4.48-12.63s-6.88-4.79-11.69-4.79-8.79,1.6-11.8,4.79c-3.01,3.2-4.51,7.41-4.51,12.63s1.49,9.52,4.48,12.74c2.99,3.22,7.05,4.83,12.18,4.83,3.36,0,6.26-.69,8.71-2.06,2.45-1.38,4.38-3.3,5.77-5.77m-62.44-17.5v-18.83h8.26c3.92,0,6.86,.78,8.82,2.35,1.96,1.56,2.94,3.91,2.94,7.03s-.98,5.54-2.94,7.1c-1.96,1.56-4.9,2.35-8.82,2.35h-8.26Zm-7,24.64h7v-18.48h8.68c5.83,0,10.36-1.36,13.58-4.1,3.22-2.73,4.83-6.59,4.83-11.58s-1.61-8.77-4.83-11.48c-3.22-2.71-7.75-4.06-13.58-4.06h-15.68v49.7Zm-49.21-19.46c0-3.08,.75-5.37,2.24-6.86,1.49-1.49,3.5-2.24,6.02-2.24s4.55,.75,5.95,2.24c1.4,1.49,2.1,3.78,2.1,6.86v19.46h6.51v-19.81c0-4.71-1.1-8.31-3.29-10.78-2.19-2.47-5.37-3.71-9.52-3.71-2.24,0-4.25,.5-6.02,1.51-1.77,1-3.06,2.37-3.85,4.09h-.14v-21.7h-6.51v50.4h6.51v-19.46Zm-18.76,9.1c-.89,1.63-2.09,2.9-3.6,3.81-1.52,.91-3.28,1.37-5.29,1.37-3.17,0-5.71-1.06-7.6-3.18-1.89-2.12-2.83-4.94-2.83-8.43,0-3.78,.99-6.66,2.97-8.65,1.98-1.98,4.45-2.98,7.38-2.98,2.01,0,3.75,.43,5.22,1.3s2.65,2.23,3.53,4.09l5.53-3.15c-1.17-2.38-2.9-4.33-5.21-5.84-2.31-1.52-5.31-2.27-8.99-2.27-2.47,0-4.75,.41-6.82,1.22-2.08,.82-3.86,1.98-5.35,3.5-1.49,1.52-2.66,3.36-3.5,5.53-.84,2.17-1.26,4.59-1.26,7.25,0,5.23,1.55,9.45,4.65,12.67,3.1,3.22,7.22,4.83,12.35,4.83,3.45,0,6.36-.72,8.72-2.17,2.36-1.45,4.12-3.27,5.28-5.46l-5.18-3.43Zm-33.11,2.87c-.56,.79-1.18,1.39-1.86,1.78-.68,.4-1.46,.59-2.35,.59-1.35,0-2.41-.49-3.18-1.47-.77-.98-1.15-2.26-1.15-3.85v-17.57h8.47v-5.6h-8.47v-11.2h-6.44v11.2h-6.86v5.6h6.79v17.71c0,3.36,.97,6.03,2.9,8.01,1.94,1.98,4.52,2.97,7.74,2.97,1.63,0,3.15-.34,4.55-1.01,1.4-.68,2.61-1.67,3.64-2.97l-3.78-4.2Zm-44.73,2.52c-3.08,0-5.55-1.07-7.42-3.22-1.87-2.15-2.8-5.02-2.8-8.61s.93-6.46,2.8-8.61c1.87-2.15,4.34-3.22,7.42-3.22s5.58,1.07,7.49,3.22c1.91,2.15,2.87,5.02,2.87,8.61s-.97,6.46-2.9,8.61c-1.94,2.15-4.42,3.22-7.46,3.22m10.36-28.63v5.11h-.14c-1.26-1.87-2.87-3.3-4.83-4.3-1.96-1-4.18-1.51-6.65-1.51-2.29,0-4.38,.44-6.27,1.33-1.89,.89-3.51,2.1-4.86,3.64-1.35,1.54-2.41,3.38-3.18,5.53-.77,2.15-1.15,4.48-1.15,7s.38,4.85,1.15,7c.77,2.15,1.83,3.99,3.18,5.53,1.35,1.54,2.98,2.75,4.86,3.64,1.89,.89,3.98,1.33,6.27,1.33,2.47,0,4.69-.5,6.65-1.5,1.96-1,3.57-2.44,4.83-4.3h.14v5.11h6.51v-33.6h-6.51ZM14.21,450.68h5.81l11.48-37.52,11.55,37.52h5.81l14.14-49.7h-7.21l-9.87,37.73-11.06-37.73h-6.51l-11.06,37.73-9.94-37.73H0l14.21,49.7Z"/><path d="M824.94,371.38c1.26,0,2.32-.43,3.18-1.3,.86-.86,1.29-1.92,1.29-3.18s-.43-2.26-1.29-3.15c-.86-.89-1.92-1.33-3.18-1.33s-2.32,.44-3.18,1.33c-.86,.89-1.29,1.94-1.29,3.15s.43,2.32,1.29,3.18c.86,.86,1.92,1.3,3.18,1.3m-26.67-29.47c2.61,0,4.82,.85,6.61,2.56,1.8,1.7,2.79,3.93,2.97,6.68h-19.46c.47-3.08,1.64-5.39,3.53-6.93s4-2.31,6.34-2.31m14.84,21.63l-4.97-3.15c-.93,1.63-2.18,2.94-3.74,3.92-1.56,.98-3.49,1.47-5.78,1.47-2.47,0-4.68-.73-6.61-2.2-1.94-1.47-3.14-3.84-3.6-7.11h25.83c.05-.47,.09-.89,.14-1.26,.05-.37,.07-.84,.07-1.4,0-5.23-1.49-9.44-4.48-12.64-2.99-3.2-6.88-4.79-11.69-4.79s-8.79,1.6-11.8,4.79c-3.01,3.2-4.51,7.41-4.51,12.64s1.49,9.52,4.48,12.74c2.99,3.22,7.05,4.83,12.18,4.83,3.36,0,6.27-.69,8.72-2.07s4.38-3.3,5.77-5.78m-47.74-11.06c0-2.94,.9-5.3,2.7-7.07,1.8-1.77,4.19-2.66,7.17-2.66h2.94v-6.37h-1.75c-2.47,0-4.65,.44-6.54,1.33-1.89,.89-3.4,2.36-4.52,4.41h-.14v-5.04h-6.3v33.6h6.44v-18.2Zm-23.45,4.06c0,3.08-.75,5.37-2.24,6.86-1.49,1.49-3.5,2.24-6.02,2.24s-4.56-.75-5.98-2.24c-1.42-1.49-2.14-3.78-2.14-6.86v-19.46h-6.51v19.81c0,4.71,1.11,8.31,3.33,10.78,2.22,2.47,5.4,3.71,9.55,3.71,2.19,0,4.2-.5,6.02-1.51,1.82-1,3.15-2.37,3.99-4.1h.14v4.9h6.37v-33.6h-6.51v19.46Zm-31.85,6.65c-.56,.79-1.18,1.39-1.86,1.79-.68,.4-1.46,.59-2.34,.59-1.35,0-2.41-.49-3.18-1.47-.77-.98-1.16-2.26-1.16-3.85v-17.57h8.47v-5.6h-8.47v-11.2h-6.44v11.2h-6.86v5.6h6.79v17.71c0,3.36,.97,6.03,2.9,8.01,1.94,1.98,4.52,2.98,7.73,2.98,1.63,0,3.15-.34,4.55-1.01,1.4-.68,2.61-1.67,3.64-2.98l-3.78-4.2Zm-34.72,7.49h6.51v-50.4h-6.51v50.4Zm-17.29-14.14c0,3.08-.75,5.37-2.24,6.86-1.49,1.49-3.5,2.24-6.02,2.24s-4.56-.75-5.98-2.24c-1.42-1.49-2.14-3.78-2.14-6.86v-19.46h-6.51v19.81c0,4.71,1.11,8.31,3.33,10.78,2.22,2.47,5.4,3.71,9.55,3.71,2.19,0,4.2-.5,6.02-1.51,1.82-1,3.15-2.37,3.99-4.1h.14v4.9h6.37v-33.6h-6.51v19.46Zm-29.82-26.25c-1.73-2.94-4.26-5.34-7.59-7.21-3.34-1.87-7.32-2.8-11.94-2.8-3.55,0-6.81,.63-9.8,1.89-2.99,1.26-5.54,3.02-7.66,5.28-2.12,2.26-3.79,4.97-5.01,8.12-1.21,3.15-1.82,6.57-1.82,10.25s.61,7.11,1.82,10.25c1.21,3.15,2.88,5.86,5.01,8.12,2.12,2.26,4.68,4.03,7.66,5.29,2.99,1.26,6.23,1.89,9.73,1.89,4.48,0,8.39-.89,11.72-2.66,3.34-1.77,6.05-4.36,8.16-7.77l-5.32-3.78c-1.54,2.52-3.49,4.46-5.85,5.81-2.36,1.35-5.24,2.03-8.65,2.03-2.47,0-4.77-.46-6.89-1.36-2.12-.91-3.96-2.19-5.49-3.85-1.54-1.66-2.74-3.68-3.61-6.06-.86-2.38-1.29-5.02-1.29-7.91s.43-5.61,1.29-8.01c.86-2.4,2.05-4.43,3.57-6.09,1.52-1.66,3.34-2.93,5.46-3.81,2.12-.89,4.42-1.33,6.9-1.33,3.36,0,6.23,.68,8.61,2.03,2.38,1.35,4.25,3.17,5.6,5.46l5.39-3.78Zm-82.39,35.42c-3.03,0-5.52-1.07-7.45-3.22-1.94-2.15-2.91-5.02-2.91-8.61s.96-6.46,2.87-8.61c1.91-2.15,4.41-3.22,7.49-3.22s5.55,1.07,7.42,3.22c1.87,2.15,2.8,5.02,2.8,8.61s-.93,6.46-2.8,8.61c-1.87,2.15-4.34,3.22-7.42,3.22m-10.36-28.63h-6.51v49h6.51v-20.51h.14c1.26,1.87,2.87,3.3,4.83,4.31,1.96,1,4.18,1.51,6.65,1.51,2.29,0,4.38-.44,6.27-1.33,1.89-.89,3.51-2.1,4.86-3.64,1.35-1.54,2.41-3.38,3.18-5.53,.77-2.15,1.15-4.48,1.15-7s-.38-4.85-1.15-7c-.77-2.15-1.83-3.99-3.18-5.53-1.35-1.54-2.98-2.75-4.86-3.64-1.89-.89-3.98-1.33-6.27-1.33-2.47,0-4.69,.5-6.65,1.5-1.96,1-3.57,2.44-4.83,4.31h-.14v-5.11Zm-31.64,28.63c-3.17,0-5.7-1.08-7.6-3.25-1.89-2.17-2.83-5.03-2.83-8.57,0-3.83,.99-6.76,2.98-8.79,1.98-2.03,4.47-3.04,7.45-3.04s5.48,1.01,7.49,3.04c2.01,2.03,3.01,4.96,3.01,8.79,0,3.55-.96,6.4-2.87,8.57-1.91,2.17-4.46,3.25-7.63,3.25m0-29.33c-2.47,0-4.75,.41-6.83,1.22-2.08,.82-3.86,1.98-5.35,3.5-1.49,1.52-2.66,3.36-3.5,5.53s-1.26,4.58-1.26,7.25c0,5.23,1.55,9.45,4.65,12.67,3.1,3.22,7.2,4.83,12.29,4.83s9.18-1.61,12.29-4.83c3.1-3.22,4.65-7.44,4.65-12.67s-1.58-9.62-4.72-12.78c-3.15-3.15-7.22-4.72-12.21-4.72m-48.23,9.66v-18.83h8.26c3.92,0,6.86,.78,8.82,2.35,1.96,1.56,2.94,3.91,2.94,7.04s-.98,5.54-2.94,7.1c-1.96,1.56-4.9,2.35-8.82,2.35h-8.26Zm-7,24.64h7v-18.48h8.68c5.83,0,10.36-1.37,13.58-4.1,3.22-2.73,4.83-6.59,4.83-11.58s-1.61-8.77-4.83-11.48-7.75-4.06-13.58-4.06h-15.68v49.7Zm-28.21,.7c1.26,0,2.32-.43,3.19-1.3,.86-.86,1.29-1.92,1.29-3.18s-.43-2.26-1.29-3.15c-.86-.89-1.93-1.33-3.19-1.33s-2.32,.44-3.18,1.33c-.86,.89-1.29,1.94-1.29,3.15s.43,2.32,1.29,3.18c.86,.86,1.93,1.3,3.18,1.3m-38.43-6.72c1.45,2.19,3.42,3.86,5.92,5,2.5,1.14,5.36,1.72,8.58,1.72,3.92,0,7.08-.93,9.48-2.8,2.4-1.87,3.61-4.29,3.61-7.28s-1.02-5.47-3.05-7.18c-2.03-1.7-5.19-2.9-9.48-3.6-2.89-.47-4.88-1.06-5.95-1.79-1.07-.72-1.61-1.64-1.61-2.76s.55-2.15,1.64-2.94c1.1-.79,2.58-1.19,4.45-1.19,1.73,0,3.37,.36,4.93,1.08,1.56,.72,2.76,1.83,3.6,3.32l4.48-3.78c-1.31-1.91-3.01-3.41-5.11-4.48-2.1-1.07-4.67-1.61-7.7-1.61-3.78,0-6.8,.92-9.07,2.76-2.26,1.84-3.39,4.17-3.39,6.96s.92,4.87,2.76,6.62c1.84,1.75,5.08,3,9.7,3.74,2.66,.47,4.58,1.07,5.77,1.82s1.79,1.77,1.79,3.08-.6,2.44-1.79,3.25c-1.19,.82-2.81,1.23-4.86,1.23s-3.89-.42-5.64-1.26c-1.75-.84-3.23-2.12-4.45-3.85l-4.62,3.92Zm-40.04,6.02h5.74l7.63-23.66,7.7,23.66h5.74l11.27-33.6h-6.65l-7.42,24.5-7.91-24.5h-5.46l-7.77,24.5-7.7-24.5h-6.72l11.55,33.6Zm-30.52-28.77c2.61,0,4.82,.85,6.61,2.56,1.8,1.7,2.79,3.93,2.98,6.68h-19.46c.47-3.08,1.64-5.39,3.54-6.93,1.89-1.54,4-2.31,6.33-2.31m14.84,21.63l-4.97-3.15c-.93,1.63-2.18,2.94-3.74,3.92-1.56,.98-3.49,1.47-5.77,1.47-2.47,0-4.68-.73-6.61-2.2-1.94-1.47-3.14-3.84-3.61-7.11h25.83c.05-.47,.09-.89,.14-1.26,.05-.37,.07-.84,.07-1.4,0-5.23-1.49-9.44-4.48-12.64-2.99-3.2-6.88-4.79-11.69-4.79s-8.79,1.6-11.79,4.79c-3.01,3.2-4.52,7.41-4.52,12.64s1.49,9.52,4.48,12.74,7.05,4.83,12.18,4.83c3.36,0,6.26-.69,8.71-2.07s4.38-3.3,5.77-5.78m-80.57,7.14h6.93v-37.38l26.81,37.38h6.37v-49.7h-6.93v37.52l-26.81-37.52h-6.37v49.7Zm-28.21,.7c1.26,0,2.32-.43,3.18-1.3,.86-.86,1.29-1.92,1.29-3.18s-.43-2.26-1.29-3.15c-.86-.89-1.93-1.33-3.18-1.33s-2.32,.44-3.18,1.33c-.86,.89-1.29,1.94-1.29,3.15s.43,2.32,1.29,3.18c.86,.86,1.93,1.3,3.18,1.3m-38.43-6.72c1.45,2.19,3.42,3.86,5.91,5,2.5,1.14,5.36,1.72,8.58,1.72,3.92,0,7.08-.93,9.49-2.8,2.4-1.87,3.6-4.29,3.6-7.28s-1.01-5.47-3.04-7.18c-2.03-1.7-5.19-2.9-9.49-3.6-2.89-.47-4.88-1.06-5.95-1.79-1.07-.72-1.61-1.64-1.61-2.76s.55-2.15,1.64-2.94c1.1-.79,2.58-1.19,4.45-1.19,1.73,0,3.37,.36,4.93,1.08,1.56,.72,2.76,1.83,3.6,3.32l4.48-3.78c-1.31-1.91-3.01-3.41-5.11-4.48-2.1-1.07-4.67-1.61-7.7-1.61-3.78,0-6.8,.92-9.06,2.76-2.26,1.84-3.4,4.17-3.4,6.96s.92,4.87,2.76,6.62c1.84,1.75,5.07,3,9.69,3.74,2.66,.47,4.59,1.07,5.78,1.82s1.79,1.77,1.79,3.08-.6,2.44-1.79,3.25c-1.19,.82-2.81,1.23-4.87,1.23s-3.88-.42-5.63-1.26c-1.75-.84-3.23-2.12-4.45-3.85l-4.62,3.92Zm-6.86-1.47c-.56,.79-1.18,1.39-1.85,1.79-.68,.4-1.46,.59-2.35,.59-1.35,0-2.42-.49-3.18-1.47-.77-.98-1.15-2.26-1.15-3.85v-17.57h8.47v-5.6h-8.47v-11.2h-6.44v11.2h-6.86v5.6h6.79v17.71c0,3.36,.97,6.03,2.9,8.01,1.94,1.98,4.51,2.98,7.74,2.98,1.63,0,3.15-.34,4.55-1.01,1.4-.68,2.61-1.67,3.64-2.98l-3.78-4.2Zm-37.45-10.71c0-2.94,.9-5.3,2.7-7.07,1.8-1.77,4.19-2.66,7.17-2.66h2.94v-6.37h-1.75c-2.47,0-4.65,.44-6.54,1.33-1.89,.89-3.4,2.36-4.51,4.41h-.14v-5.04h-6.3v33.6h6.44v-18.2Zm-31.71,13.23c-3.17,0-5.71-1.08-7.6-3.25s-2.83-5.03-2.83-8.57c0-3.83,.99-6.76,2.97-8.79s4.47-3.04,7.46-3.04,5.48,1.01,7.49,3.04c2.01,2.03,3.01,4.96,3.01,8.79,0,3.55-.96,6.4-2.87,8.57s-4.46,3.25-7.63,3.25m0-29.33c-2.47,0-4.75,.41-6.83,1.22-2.08,.82-3.86,1.98-5.35,3.5-1.49,1.52-2.66,3.36-3.5,5.53-.84,2.17-1.26,4.58-1.26,7.25,0,5.23,1.55,9.45,4.65,12.67s7.2,4.83,12.29,4.83,9.18-1.61,12.28-4.83c3.1-3.22,4.65-7.44,4.65-12.67s-1.57-9.62-4.72-12.78-7.22-4.72-12.21-4.72m-39.62,29.33c-3.03,0-5.52-1.07-7.45-3.22-1.94-2.15-2.91-5.02-2.91-8.61s.96-6.46,2.87-8.61c1.91-2.15,4.41-3.22,7.49-3.22s5.55,1.07,7.42,3.22c1.87,2.15,2.8,5.02,2.8,8.61s-.93,6.46-2.8,8.61c-1.87,2.15-4.34,3.22-7.42,3.22m-10.36-28.63h-6.51v49h6.51v-20.51h.14c1.26,1.87,2.87,3.3,4.83,4.31,1.96,1,4.18,1.51,6.65,1.51,2.29,0,4.38-.44,6.26-1.33s3.51-2.1,4.86-3.64,2.42-3.38,3.18-5.53c.77-2.15,1.15-4.48,1.15-7s-.38-4.85-1.15-7c-.77-2.15-1.83-3.99-3.18-5.53-1.35-1.54-2.97-2.75-4.86-3.64-1.89-.89-3.98-1.33-6.26-1.33-2.47,0-4.69,.5-6.65,1.5s-3.57,2.44-4.83,4.31h-.14v-5.11Zm-21.42,19.88c0,2.29-1.03,4.2-3.08,5.74-2.05,1.54-4.76,2.31-8.12,2.31s-5.97-.62-8.26-1.85c-2.29-1.24-4.25-3-5.88-5.29l-5.39,4.48c2.05,2.85,4.69,5.07,7.91,6.68,3.22,1.61,7.05,2.42,11.48,2.42,2.71,0,5.19-.39,7.45-1.15,2.26-.77,4.2-1.81,5.81-3.12s2.86-2.85,3.74-4.62c.89-1.77,1.33-3.69,1.33-5.74,0-4.57-1.46-7.93-4.38-10.08-2.92-2.15-7.29-3.9-13.12-5.25-4.11-.93-7.03-2.01-8.78-3.22-1.75-1.21-2.62-2.85-2.62-4.9,0-2.29,.92-4.04,2.76-5.25s4.31-1.82,7.39-1.82c2.75,0,5.23,.48,7.42,1.43,2.19,.96,3.94,2.42,5.25,4.38l5.18-4.27c-1.87-2.52-4.24-4.47-7.11-5.85-2.87-1.38-6.45-2.07-10.74-2.07-5.04,0-9.16,1.26-12.35,3.78-3.2,2.52-4.8,5.79-4.8,9.8s1.45,7,4.34,9.24c2.89,2.24,7.23,4.01,13.02,5.32,4.15,.93,7.12,2.05,8.89,3.36,1.77,1.31,2.66,3.15,2.66,5.53"/><path d="M1161.56,291.38c1.26,0,2.32-.43,3.18-1.29,.86-.86,1.3-1.93,1.3-3.19s-.43-2.26-1.3-3.15c-.86-.89-1.92-1.33-3.18-1.33s-2.32,.44-3.19,1.33c-.86,.89-1.29,1.94-1.29,3.15s.43,2.32,1.29,3.19c.86,.86,1.93,1.29,3.19,1.29m-2.59-50.4h-7.49l-15.12,41.72-15.12-41.72h-7.56l18.62,49.7h8.05l18.62-49.7Zm-70.84,49.7h7v-43.4h15.26v-6.3h-37.45v6.3h15.19v43.4Zm-65.24,15.4h2.03c3.36,0,6.14-.82,8.33-2.45,2.19-1.63,4.11-4.46,5.74-8.47l15.47-38.08h-6.65l-9.59,25.34h-.14l-9.66-25.34h-7l13.58,32.48-1.61,3.71c-1.17,2.75-2.45,4.64-3.85,5.67-1.4,1.03-3.06,1.54-4.97,1.54h-1.68v5.6Zm-29.68-34.86c0-3.08,.75-5.37,2.24-6.86s3.5-2.24,6.02-2.24,4.55,.75,5.95,2.24c1.4,1.49,2.1,3.78,2.1,6.86v19.46h6.51v-19.81c0-4.71-1.1-8.31-3.29-10.78-2.19-2.47-5.37-3.71-9.52-3.71-2.24,0-4.25,.5-6.02,1.5-1.77,1-3.06,2.37-3.85,4.1h-.14v-21.7h-6.51v50.4h6.51v-19.46Zm-16.94,11.97c-.56,.79-1.18,1.39-1.85,1.79-.68,.4-1.46,.6-2.35,.6-1.35,0-2.41-.49-3.18-1.47-.77-.98-1.15-2.26-1.15-3.85v-17.57h8.47v-5.6h-8.47v-11.2h-6.44v11.2h-6.86v5.6h6.79v17.71c0,3.36,.97,6.03,2.91,8.01,1.94,1.98,4.51,2.98,7.73,2.98,1.63,0,3.15-.34,4.55-1.01s2.61-1.67,3.64-2.98l-3.78-4.2Zm-37.45-10.71c0-2.94,.9-5.3,2.7-7.07,1.8-1.77,4.19-2.66,7.17-2.66h2.94v-6.37h-1.75c-2.47,0-4.66,.44-6.54,1.33-1.89,.89-3.4,2.36-4.52,4.41h-.14v-5.04h-6.3v33.6h6.44v-18.2Zm-31.71,13.23c-3.17,0-5.71-1.09-7.59-3.26-1.89-2.17-2.84-5.03-2.84-8.57,0-3.83,.99-6.76,2.97-8.79,1.98-2.03,4.47-3.04,7.46-3.04s5.48,1.01,7.49,3.04c2.01,2.03,3.01,4.96,3.01,8.79,0,3.55-.96,6.4-2.87,8.57s-4.46,3.26-7.63,3.26m0-29.33c-2.47,0-4.75,.41-6.83,1.22-2.08,.82-3.86,1.98-5.35,3.5s-2.66,3.36-3.5,5.53-1.26,4.59-1.26,7.25c0,5.23,1.55,9.45,4.66,12.67,3.1,3.22,7.2,4.83,12.28,4.83s9.18-1.61,12.29-4.83c3.1-3.22,4.65-7.44,4.65-12.67s-1.58-9.62-4.72-12.78c-3.15-3.15-7.22-4.72-12.22-4.72m-58.24,34.3h5.74l7.63-23.66,7.7,23.66h5.74l11.27-33.6h-6.65l-7.42,24.5-7.91-24.5h-5.46l-7.77,24.5-7.7-24.5h-6.72l11.55,33.6Zm-30.52-28.77c2.61,0,4.82,.85,6.61,2.55,1.8,1.7,2.79,3.93,2.98,6.68h-19.46c.47-3.08,1.65-5.39,3.54-6.93,1.89-1.54,4-2.31,6.33-2.31m14.84,21.63l-4.97-3.15c-.93,1.63-2.18,2.94-3.74,3.92s-3.49,1.47-5.77,1.47c-2.47,0-4.68-.74-6.61-2.21-1.94-1.47-3.14-3.84-3.61-7.1h25.83c.05-.47,.09-.89,.14-1.26,.05-.37,.07-.84,.07-1.4,0-5.23-1.49-9.44-4.48-12.63-2.99-3.2-6.88-4.79-11.69-4.79s-8.78,1.6-11.79,4.79c-3.01,3.2-4.52,7.41-4.52,12.63s1.49,9.52,4.48,12.74,7.05,4.83,12.18,4.83c3.36,0,6.26-.69,8.71-2.07s4.38-3.3,5.78-5.78m-56.21-21.49c3.08,0,5.58,1.07,7.49,3.22,1.91,2.15,2.87,5.02,2.87,8.61s-.97,6.46-2.9,8.61c-1.94,2.15-4.42,3.22-7.46,3.22s-5.55-1.07-7.42-3.22c-1.87-2.15-2.8-5.02-2.8-8.61s.93-6.46,2.8-8.61c1.87-2.15,4.34-3.22,7.42-3.22m16.87,26.11v-31.08h-6.51v5.11h-.14c-1.26-1.87-2.87-3.3-4.83-4.31-1.96-1-4.18-1.5-6.65-1.5-2.29,0-4.38,.44-6.26,1.33-1.89,.89-3.51,2.1-4.87,3.64-1.35,1.54-2.41,3.38-3.18,5.53-.77,2.15-1.15,4.48-1.15,7s.39,4.85,1.15,7c.77,2.15,1.83,3.99,3.18,5.53,1.35,1.54,2.98,2.75,4.87,3.64,1.89,.89,3.98,1.33,6.26,1.33,2.47,0,4.69-.5,6.65-1.51s3.57-2.44,4.83-4.3h.14v2.73c0,3.92-.85,7.05-2.55,9.38-1.7,2.33-4.42,3.5-8.15,3.5-2.33,0-4.28-.5-5.85-1.5-1.56-1-2.86-2.37-3.89-4.1l-5.32,3.15c1.4,2.57,3.36,4.55,5.88,5.95,2.52,1.4,5.53,2.1,9.03,2.1,5.97,0,10.36-1.71,13.16-5.15,2.8-3.43,4.2-7.92,4.2-13.47m-64.05-16.94c0-3.08,.75-5.37,2.24-6.86,1.49-1.49,3.5-2.24,6.02-2.24s4.55,.75,5.95,2.24c1.4,1.49,2.1,3.78,2.1,6.86v19.46h6.51v-19.81c0-4.71-1.1-8.31-3.29-10.78-2.19-2.47-5.37-3.71-9.52-3.71-2.24,0-4.26,.5-6.05,1.5-1.8,1-3.11,2.37-3.96,4.1h-.14v-4.9h-6.37v33.6h6.51v-19.46Zm-23.94,19.46h6.51v-33.6h-6.51v33.6Zm3.29-41.44c1.17,0,2.21-.43,3.11-1.3,.91-.86,1.37-1.92,1.37-3.18s-.46-2.32-1.37-3.18c-.91-.86-1.95-1.29-3.11-1.29s-2.26,.43-3.15,1.29c-.89,.86-1.33,1.93-1.33,3.18s.44,2.32,1.33,3.18c.89,.86,1.94,1.3,3.15,1.3m-38.43,35.28v-16.45h8.33c3.55,0,6.29,.63,8.22,1.89,1.94,1.26,2.91,3.34,2.91,6.23s-.96,5.06-2.87,6.37c-1.91,1.31-4.67,1.96-8.26,1.96h-8.33Zm0-22.61v-14.77h7.98c3.22,0,5.59,.61,7.11,1.82,1.52,1.21,2.27,3.08,2.27,5.6s-.73,4.32-2.2,5.53c-1.47,1.21-3.86,1.82-7.18,1.82h-7.98Zm-7,28.77h15.61c6.11,0,10.63-1.29,13.55-3.88,2.92-2.59,4.38-6.05,4.38-10.4,0-2.8-.62-5.21-1.86-7.24-1.24-2.03-3.26-3.56-6.05-4.59,2.24-1.12,3.77-2.55,4.59-4.3,.82-1.75,1.22-3.72,1.22-5.92,0-3.92-1.34-7.13-4.02-9.62-2.68-2.5-6.83-3.74-12.43-3.74h-14.98v49.7Zm-28.21,.7c1.26,0,2.32-.43,3.18-1.29,.86-.86,1.3-1.93,1.3-3.19s-.43-2.26-1.3-3.15c-.86-.89-1.92-1.33-3.18-1.33s-2.32,.44-3.18,1.33c-.86,.89-1.29,1.94-1.29,3.15s.43,2.32,1.29,3.19c.86,.86,1.92,1.29,3.18,1.29m-38.43-6.72c1.45,2.19,3.42,3.86,5.91,5,2.5,1.14,5.35,1.72,8.58,1.72,3.92,0,7.08-.93,9.48-2.8,2.4-1.87,3.6-4.29,3.6-7.28s-1.02-5.47-3.04-7.18c-2.03-1.7-5.19-2.9-9.48-3.6-2.89-.47-4.88-1.06-5.95-1.79-1.07-.72-1.61-1.65-1.61-2.76s.55-2.15,1.64-2.94c1.1-.79,2.58-1.19,4.45-1.19,1.73,0,3.37,.36,4.93,1.09,1.56,.72,2.77,1.83,3.61,3.32l4.48-3.78c-1.31-1.91-3.01-3.41-5.11-4.48-2.1-1.07-4.67-1.61-7.7-1.61-3.78,0-6.8,.92-9.07,2.76s-3.4,4.16-3.4,6.96,.92,4.87,2.77,6.62c1.84,1.75,5.08,3,9.7,3.74,2.66,.47,4.59,1.07,5.77,1.82,1.19,.75,1.79,1.77,1.79,3.08s-.6,2.44-1.79,3.26c-1.19,.82-2.81,1.23-4.86,1.23s-3.89-.42-5.64-1.26-3.23-2.12-4.44-3.85l-4.62,3.92Zm-20.93-22.75c2.61,0,4.82,.85,6.61,2.55,1.8,1.7,2.79,3.93,2.97,6.68h-19.46c.47-3.08,1.64-5.39,3.53-6.93,1.89-1.54,4-2.31,6.34-2.31m14.84,21.63l-4.97-3.15c-.93,1.63-2.18,2.94-3.74,3.92-1.56,.98-3.49,1.47-5.78,1.47-2.47,0-4.68-.74-6.61-2.21-1.94-1.47-3.14-3.84-3.6-7.1h25.83c.05-.47,.09-.89,.14-1.26,.05-.37,.07-.84,.07-1.4,0-5.23-1.49-9.44-4.48-12.63-2.99-3.2-6.88-4.79-11.69-4.79s-8.79,1.6-11.79,4.79c-3.01,3.2-4.52,7.41-4.52,12.63s1.49,9.52,4.48,12.74c2.99,3.22,7.05,4.83,12.18,4.83,3.36,0,6.27-.69,8.72-2.07s4.38-3.3,5.77-5.78m-46.34,7.14h6.51v-33.6h-6.51v33.6Zm3.29-41.44c1.17,0,2.21-.43,3.12-1.3,.91-.86,1.36-1.92,1.36-3.18s-.46-2.32-1.36-3.18c-.91-.86-1.95-1.29-3.12-1.29s-2.26,.43-3.15,1.29c-.89,.86-1.33,1.93-1.33,3.18s.44,2.32,1.33,3.18c.89,.86,1.94,1.3,3.15,1.3m-9.8,7.84h-6.86l-9.45,25.48-9.73-25.48h-7l14,33.6h5.32l13.72-33.6Zm-52.64,28.63c-3.17,0-5.7-1.09-7.6-3.26-1.89-2.17-2.83-5.03-2.83-8.57,0-3.83,.99-6.76,2.98-8.79,1.98-2.03,4.47-3.04,7.45-3.04s5.48,1.01,7.49,3.04c2.01,2.03,3.01,4.96,3.01,8.79,0,3.55-.96,6.4-2.87,8.57-1.91,2.17-4.46,3.26-7.63,3.26m0-29.33c-2.47,0-4.75,.41-6.82,1.22-2.08,.82-3.86,1.98-5.36,3.5-1.49,1.52-2.66,3.36-3.5,5.53s-1.26,4.59-1.26,7.25c0,5.23,1.55,9.45,4.65,12.67,3.1,3.22,7.2,4.83,12.29,4.83s9.18-1.61,12.29-4.83c3.1-3.22,4.65-7.44,4.65-12.67s-1.58-9.62-4.73-12.78c-3.15-3.15-7.22-4.72-12.21-4.72m-54.32,34.3h5.88l15.33-33.18v33.18h6.86v-49.7h-6.02l-19.04,40.81-19.11-40.81h-6.09v49.7h6.86v-33.25l15.33,33.25Zm-54.04-28h8.47v-5.6h-8.47v-4.83c0-2.05,.51-3.6,1.54-4.65,1.03-1.05,2.47-1.57,4.34-1.57h3.15v-5.74h-3.29c-4.11,0-7.19,1.09-9.24,3.26-2.05,2.17-3.08,5-3.08,8.5v5.04h-6.72v5.6h6.79v28h6.51v-28Zm-34.37,23.03c-3.17,0-5.7-1.09-7.6-3.26-1.89-2.17-2.83-5.03-2.83-8.57,0-3.83,.99-6.76,2.98-8.79,1.98-2.03,4.47-3.04,7.45-3.04s5.48,1.01,7.49,3.04c2.01,2.03,3.01,4.96,3.01,8.79,0,3.55-.96,6.4-2.87,8.57-1.91,2.17-4.46,3.26-7.63,3.26m0-29.33c-2.47,0-4.75,.41-6.83,1.22-2.08,.82-3.86,1.98-5.35,3.5-1.49,1.52-2.66,3.36-3.5,5.53s-1.26,4.59-1.26,7.25c0,5.23,1.55,9.45,4.65,12.67,3.1,3.22,7.2,4.83,12.29,4.83s9.18-1.61,12.29-4.83c3.1-3.22,4.65-7.44,4.65-12.67s-1.58-9.62-4.73-12.78c-3.15-3.15-7.22-4.72-12.21-4.72m-65.17,28.28c1.45,2.19,3.42,3.86,5.92,5,2.5,1.14,5.35,1.72,8.57,1.72,3.92,0,7.08-.93,9.49-2.8,2.4-1.87,3.6-4.29,3.6-7.28s-1.01-5.47-3.04-7.18-5.19-2.9-9.49-3.6c-2.89-.47-4.88-1.06-5.95-1.79-1.07-.72-1.61-1.65-1.61-2.76s.55-2.15,1.64-2.94c1.1-.79,2.58-1.19,4.45-1.19,1.73,0,3.37,.36,4.93,1.09,1.56,.72,2.77,1.83,3.61,3.32l4.48-3.78c-1.31-1.91-3.01-3.41-5.11-4.48-2.1-1.07-4.67-1.61-7.7-1.61-3.78,0-6.8,.92-9.07,2.76-2.26,1.84-3.4,4.16-3.4,6.96s.92,4.87,2.77,6.62c1.84,1.75,5.07,3,9.7,3.74,2.66,.47,4.58,1.07,5.77,1.82,1.19,.75,1.79,1.77,1.79,3.08s-.6,2.44-1.79,3.26-2.81,1.23-4.87,1.23-3.88-.42-5.63-1.26-3.23-2.12-4.45-3.85l-4.62,3.92Zm-24.15,1.05c-3.08,0-5.55-1.07-7.42-3.22-1.87-2.15-2.8-5.02-2.8-8.61s.93-6.46,2.8-8.61c1.87-2.15,4.34-3.22,7.42-3.22s5.58,1.07,7.49,3.22c1.91,2.15,2.87,5.02,2.87,8.61s-.97,6.46-2.9,8.61c-1.94,2.15-4.42,3.22-7.46,3.22m10.36-45.43v21.91h-.14c-1.26-1.87-2.87-3.3-4.83-4.31-1.96-1-4.18-1.5-6.65-1.5-2.29,0-4.38,.44-6.26,1.33-1.89,.89-3.51,2.1-4.87,3.64-1.35,1.54-2.41,3.38-3.18,5.53-.77,2.15-1.15,4.48-1.15,7s.38,4.85,1.15,7c.77,2.15,1.83,3.99,3.18,5.53,1.35,1.54,2.98,2.75,4.87,3.64,1.89,.89,3.98,1.33,6.26,1.33,2.47,0,4.69-.5,6.65-1.51s3.57-2.44,4.83-4.3h.14v5.11h6.51v-50.4h-6.51Zm-48.79,21.63c2.61,0,4.82,.85,6.61,2.55,1.8,1.7,2.79,3.93,2.98,6.68h-19.46c.47-3.08,1.65-5.39,3.54-6.93,1.89-1.54,4-2.31,6.34-2.31m14.84,21.63l-4.97-3.15c-.93,1.63-2.18,2.94-3.74,3.92-1.56,.98-3.49,1.47-5.78,1.47-2.47,0-4.68-.74-6.61-2.21-1.94-1.47-3.14-3.84-3.61-7.1h25.83c.05-.47,.09-.89,.14-1.26,.05-.37,.07-.84,.07-1.4,0-5.23-1.49-9.44-4.48-12.63-2.99-3.2-6.88-4.79-11.69-4.79s-8.79,1.6-11.79,4.79c-3.01,3.2-4.51,7.41-4.51,12.63s1.49,9.52,4.48,12.74c2.99,3.22,7.05,4.83,12.18,4.83,3.36,0,6.26-.69,8.72-2.07,2.45-1.38,4.38-3.3,5.77-5.78m-47.74-11.06c0-2.94,.9-5.3,2.69-7.07,1.8-1.77,4.19-2.66,7.18-2.66h2.94v-6.37h-1.75c-2.47,0-4.65,.44-6.54,1.33-1.89,.89-3.4,2.36-4.51,4.41h-.14v-5.04h-6.3v33.6h6.44v-18.2Zm-33.67,13.23c-3.08,0-5.55-1.07-7.42-3.22-1.87-2.15-2.8-5.02-2.8-8.61s.93-6.46,2.8-8.61c1.87-2.15,4.34-3.22,7.42-3.22s5.58,1.07,7.49,3.22c1.91,2.15,2.87,5.02,2.87,8.61s-.97,6.46-2.9,8.61c-1.94,2.15-4.42,3.22-7.45,3.22m10.36-45.43v21.91h-.14c-1.26-1.87-2.87-3.3-4.83-4.31-1.96-1-4.18-1.5-6.65-1.5-2.29,0-4.38,.44-6.26,1.33-1.89,.89-3.51,2.1-4.87,3.64-1.35,1.54-2.41,3.38-3.18,5.53-.77,2.15-1.15,4.48-1.15,7s.39,4.85,1.15,7c.77,2.15,1.83,3.99,3.18,5.53,1.35,1.54,2.98,2.75,4.87,3.64,1.89,.89,3.98,1.33,6.26,1.33,2.47,0,4.69-.5,6.65-1.51,1.96-1,3.57-2.44,4.83-4.3h.14v5.11h6.51v-50.4h-6.51Zm-57.54,30.94c0-3.08,.75-5.37,2.24-6.86,1.49-1.49,3.5-2.24,6.02-2.24s4.55,.75,5.95,2.24,2.1,3.78,2.1,6.86v19.46h6.51v-19.81c0-4.71-1.1-8.31-3.29-10.78-2.19-2.47-5.37-3.71-9.52-3.71-2.24,0-4.26,.5-6.06,1.5-1.8,1-3.11,2.37-3.96,4.1h-.14v-4.9h-6.37v33.6h6.51v-19.46Zm-23.52,5.32c0,3.08-.75,5.37-2.24,6.86-1.49,1.49-3.5,2.24-6.02,2.24s-4.56-.75-5.98-2.24c-1.42-1.49-2.13-3.78-2.13-6.86v-19.46h-6.51v19.81c0,4.71,1.11,8.31,3.33,10.78,2.22,2.47,5.4,3.71,9.55,3.71,2.19,0,4.2-.5,6.02-1.51s3.15-2.37,3.99-4.1h.14v4.9h6.37v-33.6h-6.51v19.46Zm-33.81,14.14v-49.7h-7v21.7H11.9v-21.7H4.9v49.7h7v-21.7h25.06v21.7h7Z"/><path d="M1067.84,123.54c-2.52,0-4.6-.84-6.23-2.52-1.63-1.68-2.45-4.06-2.45-7.14s.82-5.46,2.45-7.14c1.63-1.68,3.71-2.52,6.23-2.52s4.74,.84,6.37,2.52c1.63,1.68,2.45,4.06,2.45,7.14s-.83,5.46-2.48,7.14c-1.66,1.68-3.77,2.52-6.33,2.52m8.68-43.26v21.7h-.14c-1.17-1.77-2.66-3.15-4.48-4.13-1.82-.98-3.9-1.47-6.23-1.47s-4.3,.43-6.19,1.3c-1.89,.86-3.51,2.07-4.86,3.6-1.35,1.54-2.4,3.38-3.15,5.53-.75,2.15-1.12,4.5-1.12,7.07s.37,4.93,1.12,7.11c.75,2.17,1.79,4.01,3.11,5.53s2.94,2.71,4.83,3.57c1.89,.86,3.98,1.29,6.27,1.29s4.41-.49,6.23-1.47c1.82-.98,3.31-2.36,4.48-4.13h.14v4.9h9.1v-50.4h-9.1Zm-42.91,50.4h9.1v-50.4h-9.1v50.4Zm-19.67-15.47c0-2.94,.93-5.31,2.8-7.11s4.29-2.7,7.28-2.7h3.36v-9.03h-2.17c-2.38,0-4.55,.51-6.51,1.54-1.96,1.03-3.55,2.57-4.76,4.62h-.14v-5.46h-8.68v33.6h8.82v-15.47Zm-33.74,8.26c-2.71,0-4.87-.86-6.48-2.59s-2.41-4.06-2.41-7,.82-5.45,2.45-7.11c1.63-1.66,3.78-2.48,6.44-2.48s4.79,.83,6.4,2.48c1.61,1.66,2.41,4.03,2.41,7.11s-.8,5.27-2.41,7-3.74,2.59-6.4,2.59m0-27.09c-5.27,0-9.54,1.6-12.81,4.8-3.27,3.2-4.9,7.43-4.9,12.7s1.62,9.45,4.86,12.67c3.24,3.22,7.53,4.83,12.85,4.83s9.53-1.61,12.77-4.83c3.24-3.22,4.86-7.44,4.86-12.67s-1.63-9.51-4.9-12.7c-3.27-3.2-7.51-4.8-12.74-4.8m-68.53,34.3h7.56l10.5-33.18,10.57,33.18h7.56l14.14-49.7h-8.89l-9.03,34.16-10.29-34.16h-7.56l-10.29,34.16-9.03-34.16h-9.45l14.21,49.7Zm-72.03,0h7.63l6.65-20.44,6.93,20.44h7.63l11.62-33.6h-8.89l-6.44,21.49-7.14-21.49h-7.07l-7,21.49-6.65-21.49h-9.1l11.83,33.6Zm-30.8-27.02c2.24,0,4.11,.63,5.6,1.89,1.49,1.26,2.33,2.89,2.52,4.9h-16.66c.51-2.52,1.59-4.28,3.22-5.29,1.63-1,3.41-1.51,5.32-1.51m15.54,20.72l-6.09-4.62c-1.07,1.4-2.32,2.44-3.74,3.11-1.42,.68-3,1.02-4.73,1.02-2.24,0-4.26-.54-6.05-1.61-1.8-1.07-2.97-2.89-3.53-5.46h24.99c.05-.42,.09-.89,.14-1.4,.05-.51,.07-1.14,.07-1.89,0-5.23-1.53-9.39-4.59-12.49-3.06-3.1-7.01-4.65-11.86-4.65s-9.14,1.56-12.29,4.69c-3.15,3.13-4.72,7.33-4.72,12.6s1.58,9.72,4.72,12.92c3.15,3.2,7.48,4.79,12.99,4.79,3.17,0,6.02-.57,8.54-1.71s4.57-2.9,6.16-5.29m-82.11,6.3h9.24v-33.53l23.45,33.53h8.68v-49.7h-9.24v33.67l-23.52-33.67h-8.61v49.7Zm-40.11-27.02c2.24,0,4.11,.63,5.6,1.89,1.49,1.26,2.33,2.89,2.52,4.9h-16.66c.51-2.52,1.59-4.28,3.22-5.29s3.41-1.51,5.32-1.51m15.54,20.72l-6.09-4.62c-1.07,1.4-2.32,2.44-3.75,3.11-1.42,.68-3,1.02-4.72,1.02-2.24,0-4.26-.54-6.05-1.61s-2.97-2.89-3.53-5.46h24.99c.05-.42,.09-.89,.14-1.4,.05-.51,.07-1.14,.07-1.89,0-5.23-1.53-9.39-4.58-12.49-3.06-3.1-7.01-4.65-11.86-4.65s-9.14,1.56-12.29,4.69-4.72,7.33-4.72,12.6,1.57,9.72,4.72,12.92c3.15,3.2,7.48,4.79,12.98,4.79,3.17,0,6.02-.57,8.54-1.71,2.52-1.14,4.57-2.9,6.16-5.29m-34.65-27.3h-9.1l-8.33,22.33-8.89-22.33h-9.45l14.42,33.6h7.21l14.14-33.6Zm-58.73,26.46c-2.52,0-4.6-.84-6.23-2.52-1.63-1.68-2.45-4.06-2.45-7.14s.82-5.46,2.45-7.14c1.63-1.68,3.71-2.52,6.23-2.52s4.74,.84,6.37,2.52c1.63,1.68,2.45,4.06,2.45,7.14s-.83,5.46-2.48,7.14c-1.66,1.68-3.77,2.52-6.33,2.52m8.68-26.46v4.9h-.14c-1.17-1.77-2.66-3.15-4.48-4.13s-3.9-1.47-6.23-1.47-4.3,.43-6.2,1.3c-1.89,.86-3.51,2.07-4.86,3.6-1.35,1.54-2.4,3.38-3.15,5.53-.75,2.15-1.12,4.5-1.12,7.07s.37,4.93,1.12,7.11c.75,2.17,1.78,4.01,3.11,5.53s2.94,2.71,4.83,3.57c1.89,.86,3.98,1.29,6.26,1.29s4.41-.49,6.23-1.47,3.31-2.36,4.48-4.13h.14v4.9h9.1v-33.6h-9.1Zm-42.84,18.13c0-2.94,.93-5.31,2.8-7.11,1.87-1.8,4.29-2.7,7.28-2.7h3.36v-9.03h-2.17c-2.38,0-4.55,.51-6.51,1.54-1.96,1.03-3.55,2.57-4.76,4.62h-.14v-5.46h-8.68v33.6h8.82v-15.47Zm-43.61,7.21v-13.3h7.91c2.94,0,5.2,.54,6.79,1.61,1.59,1.07,2.38,2.75,2.38,5.04s-.77,3.91-2.31,5c-1.54,1.1-3.83,1.65-6.86,1.65h-7.91Zm0-21.56v-11.62h7.35c2.61,0,4.54,.47,5.78,1.4,1.24,.93,1.85,2.4,1.85,4.41s-.61,3.48-1.82,4.41c-1.21,.93-3.15,1.4-5.81,1.4h-7.35Zm-9.45,29.82h18.34c5.83,0,10.27-1.22,13.3-3.67,3.03-2.45,4.55-5.87,4.55-10.26,0-2.71-.58-5.12-1.75-7.24-1.17-2.12-3.08-3.82-5.74-5.08,2.05-1.26,3.46-2.79,4.23-4.58s1.16-3.74,1.16-5.85c0-4.01-1.46-7.19-4.38-9.52-2.92-2.33-7.11-3.5-12.57-3.5h-17.15v49.7Zm-80.01-15.26h52.5v-9.31h-52.5v9.31Zm-24.92-11.48h-24.99v8.68h14.91c-.56,3.45-2.03,5.99-4.41,7.6-2.38,1.61-5.25,2.42-8.61,2.42-2.15,0-4.15-.4-6.02-1.19s-3.48-1.92-4.83-3.39-2.43-3.24-3.22-5.32-1.19-4.38-1.19-6.89c0-5.13,1.4-9.23,4.2-12.29,2.8-3.06,6.42-4.59,10.85-4.59,2.66,0,5.01,.55,7.04,1.65,2.03,1.1,3.79,2.7,5.29,4.79l7.49-5.18c-1.82-2.94-4.36-5.33-7.63-7.17-3.27-1.84-7.26-2.77-11.97-2.77-3.64,0-6.99,.62-10.04,1.86s-5.67,2.98-7.84,5.21c-2.17,2.24-3.86,4.93-5.08,8.08-1.21,3.15-1.82,6.62-1.82,10.4s.61,7.24,1.82,10.39c1.21,3.15,2.92,5.85,5.11,8.08,2.19,2.24,4.81,3.98,7.84,5.21,3.03,1.24,6.37,1.86,10.01,1.86,3.92,0,7.4-.64,10.43-1.92,3.03-1.28,5.53-3.1,7.49-5.46,1.96-2.36,3.38-5.24,4.27-8.64,.89-3.41,1.19-7.21,.91-11.41m-98.21,26.74h9.24v-33.53l23.45,33.53h8.68v-49.7h-9.24v33.67l-23.52-33.67h-8.61v49.7Zm-21.63,0h9.38v-49.7h-9.38v49.7Zm-28.77-41.3c2.99,0,5.19,.62,6.61,1.86s2.14,3.04,2.14,5.42c0,2.52-.69,4.43-2.07,5.74-1.38,1.31-3.54,1.96-6.48,1.96h-8.75v-14.98h8.54Zm18.34,7.42c0-4.95-1.52-8.82-4.55-11.62-3.03-2.8-7.26-4.2-12.67-4.2h-19.11v49.7h9.45v-18.06h8.68l9.38,18.06h10.78l-10.64-19.6c2.8-1.07,4.95-2.84,6.44-5.29,1.49-2.45,2.24-5.45,2.24-8.99m-48.02,4.55h-20.86v-11.97h22.26v-8.4h-31.71v49.7h32.06v-8.4h-22.61v-12.46h20.86v-8.47Zm-51.94,29.33h9.38v-49.7h-9.38v49.7Zm-42.28,0h7.21l13.79-31.5v31.5h9.03v-49.7h-9.59l-16.73,36.68-16.8-36.68h-9.66v49.7h9.03v-31.5l13.72,31.5Zm-34.44-29.33h-20.86v-11.97h22.26v-8.4h-31.71v49.7h32.06v-8.4h-22.61v-12.46h20.86v-8.47Zm-58.45-11.97c2.99,0,5.19,.62,6.61,1.86,1.42,1.24,2.14,3.04,2.14,5.42,0,2.52-.69,4.43-2.07,5.74-1.38,1.31-3.54,1.96-6.47,1.96h-8.75v-14.98h8.54Zm18.34,7.42c0-4.95-1.52-8.82-4.55-11.62-3.03-2.8-7.26-4.2-12.67-4.2h-19.11v49.7h9.45v-18.06h8.68l9.38,18.06h10.78l-10.64-19.6c2.8-1.07,4.95-2.84,6.44-5.29,1.49-2.45,2.24-5.45,2.24-8.99M13.86,104.99v-15.61h8.68c2.94,0,5.12,.63,6.55,1.89,1.42,1.26,2.14,3.15,2.14,5.67,0,2.71-.71,4.73-2.14,6.05-1.42,1.33-3.6,2-6.55,2H13.86Zm-9.45,25.69H13.86v-17.43h9.17c5.6,0,9.97-1.45,13.12-4.34s4.73-6.95,4.73-12.18-1.58-8.87-4.73-11.62c-3.15-2.75-7.52-4.13-13.12-4.13H4.41v49.7Z"/><path d="M999.79,50.68h6.51V.28h-6.51V50.68Zm-27.51-4.97c-3.08,0-5.55-1.07-7.42-3.22-1.87-2.15-2.8-5.02-2.8-8.61s.93-6.46,2.8-8.61c1.87-2.15,4.34-3.22,7.42-3.22s5.58,1.07,7.49,3.22c1.91,2.15,2.87,5.02,2.87,8.61s-.97,6.46-2.9,8.61c-1.94,2.15-4.42,3.22-7.46,3.22m10.36-28.63v5.11h-.14c-1.26-1.87-2.87-3.3-4.83-4.3-1.96-1-4.18-1.51-6.65-1.51-2.29,0-4.38,.44-6.27,1.33-1.89,.89-3.51,2.1-4.86,3.64-1.35,1.54-2.41,3.38-3.18,5.53s-1.15,4.48-1.15,7,.38,4.85,1.15,7,1.83,3.99,3.18,5.53c1.35,1.54,2.97,2.75,4.86,3.64,1.89,.89,3.98,1.33,6.27,1.33,2.47,0,4.69-.5,6.65-1.51,1.96-1,3.57-2.44,4.83-4.3h.14v5.11h6.51V17.08h-6.51Zm-59.85,27.58c1.45,2.19,3.42,3.86,5.91,5.01,2.5,1.14,5.36,1.71,8.58,1.71,3.92,0,7.08-.93,9.48-2.8,2.4-1.87,3.61-4.29,3.61-7.28s-1.02-5.47-3.04-7.18c-2.03-1.7-5.19-2.9-9.49-3.6-2.89-.47-4.88-1.06-5.95-1.79-1.07-.72-1.61-1.65-1.61-2.77s.55-2.15,1.65-2.94c1.1-.79,2.58-1.19,4.45-1.19,1.73,0,3.37,.36,4.93,1.09,1.56,.72,2.77,1.83,3.6,3.32l4.48-3.78c-1.31-1.91-3.01-3.41-5.11-4.48-2.1-1.07-4.67-1.61-7.7-1.61-3.78,0-6.8,.92-9.07,2.77-2.26,1.84-3.39,4.16-3.39,6.96s.92,4.86,2.77,6.61c1.84,1.75,5.07,3,9.69,3.74,2.66,.47,4.59,1.07,5.78,1.82s1.78,1.77,1.78,3.08-.59,2.44-1.78,3.26c-1.19,.82-2.81,1.23-4.86,1.23s-3.89-.42-5.64-1.26-3.23-2.12-4.45-3.85l-4.62,3.92Zm-16.45-12.18c0-2.94,.9-5.3,2.7-7.07,1.8-1.77,4.19-2.66,7.17-2.66h2.94v-6.37h-1.75c-2.47,0-4.66,.44-6.55,1.33-1.89,.89-3.39,2.36-4.51,4.41h-.14v-5.04h-6.3V50.68h6.44v-18.2Zm-30.45-10.57c2.61,0,4.82,.85,6.61,2.55,1.8,1.7,2.79,3.93,2.97,6.68h-19.46c.47-3.08,1.64-5.39,3.53-6.93s4-2.31,6.34-2.31m14.84,21.63l-4.97-3.15c-.93,1.63-2.18,2.94-3.74,3.92-1.56,.98-3.49,1.47-5.78,1.47-2.47,0-4.68-.73-6.61-2.2-1.94-1.47-3.14-3.84-3.6-7.11h25.83c.05-.47,.09-.89,.14-1.26,.05-.37,.07-.84,.07-1.4,0-5.23-1.49-9.44-4.48-12.63-2.99-3.2-6.88-4.8-11.69-4.8s-8.79,1.6-11.79,4.8c-3.01,3.2-4.52,7.41-4.52,12.63s1.49,9.52,4.48,12.74c2.99,3.22,7.05,4.83,12.18,4.83,3.36,0,6.27-.69,8.72-2.07,2.45-1.38,4.38-3.3,5.77-5.77m-33.74-26.46h-6.86l-9.45,25.48-9.73-25.48h-7l14,33.6h5.32l13.72-33.6Zm-46.06,33.6h6.51V17.08h-6.51V50.68Zm3.29-41.44c1.17,0,2.21-.43,3.11-1.3,.91-.86,1.36-1.92,1.36-3.18s-.45-2.32-1.36-3.18c-.91-.86-1.95-1.3-3.11-1.3s-2.26,.43-3.15,1.3c-.89,.86-1.33,1.92-1.33,3.18s.44,2.32,1.33,3.18c.89,.86,1.94,1.3,3.15,1.3m-36.47,21.98c0-3.08,.75-5.37,2.24-6.86,1.49-1.49,3.5-2.24,6.02-2.24s4.55,.75,5.95,2.24c1.4,1.49,2.1,3.78,2.1,6.86v19.46h6.51V30.87c0-4.71-1.1-8.31-3.29-10.78-2.19-2.47-5.37-3.71-9.52-3.71-2.24,0-4.26,.5-6.05,1.51s-3.12,2.37-3.96,4.1h-.14v-4.9h-6.37V50.68h6.51V31.22Zm-36.61,20.16c2.85,0,5.47-.47,7.88-1.4,2.4-.93,4.48-2.26,6.23-3.99,1.75-1.73,3.11-3.84,4.09-6.34,.98-2.5,1.47-5.31,1.47-8.43V.98h-7V31.08c0,4.2-1.2,7.51-3.6,9.94-2.4,2.43-5.43,3.64-9.07,3.64s-6.67-1.21-9.1-3.64-3.64-5.74-3.64-9.94V.98h-7V31.22c0,3.13,.49,5.94,1.47,8.43,.98,2.5,2.34,4.61,4.09,6.34,1.75,1.73,3.84,3.06,6.27,3.99,2.43,.93,5.06,1.4,7.91,1.4m-27.58-41.09c-1.73-2.94-4.26-5.34-7.59-7.21-3.34-1.87-7.32-2.8-11.93-2.8-3.55,0-6.81,.63-9.8,1.89-2.99,1.26-5.54,3.02-7.67,5.29-2.12,2.26-3.79,4.97-5.01,8.12-1.21,3.15-1.82,6.57-1.82,10.26s.61,7.1,1.82,10.26c1.21,3.15,2.88,5.86,5.01,8.12,2.12,2.26,4.68,4.02,7.67,5.29,2.99,1.26,6.23,1.89,9.73,1.89,4.48,0,8.39-.89,11.72-2.66,3.34-1.77,6.05-4.36,8.16-7.77l-5.32-3.78c-1.54,2.52-3.49,4.46-5.85,5.81-2.36,1.35-5.24,2.03-8.64,2.03-2.47,0-4.77-.46-6.9-1.36-2.12-.91-3.96-2.19-5.49-3.85-1.54-1.66-2.74-3.68-3.6-6.05-.86-2.38-1.3-5.02-1.3-7.91s.43-5.61,1.3-8.02c.86-2.4,2.05-4.43,3.57-6.09,1.52-1.66,3.34-2.93,5.46-3.82,2.12-.89,4.42-1.33,6.9-1.33,3.36,0,6.23,.68,8.61,2.03s4.25,3.17,5.6,5.46l5.39-3.78Zm-77.42,34.23V28.07h8.33c3.55,0,6.29,.63,8.23,1.89,1.94,1.26,2.9,3.34,2.9,6.23s-.96,5.06-2.87,6.37c-1.91,1.31-4.67,1.96-8.26,1.96h-8.33Zm0-22.61V7.14h7.98c3.22,0,5.59,.61,7.1,1.82,1.52,1.21,2.28,3.08,2.28,5.6s-.74,4.32-2.21,5.53c-1.47,1.21-3.86,1.82-7.17,1.82h-7.98Zm-7,28.77h15.61c6.11,0,10.63-1.29,13.54-3.88,2.92-2.59,4.38-6.05,4.38-10.4,0-2.8-.62-5.21-1.85-7.24-1.24-2.03-3.26-3.56-6.06-4.58,2.24-1.12,3.77-2.55,4.59-4.3,.82-1.75,1.23-3.72,1.23-5.92,0-3.92-1.34-7.13-4.03-9.62s-6.83-3.74-12.42-3.74h-14.98V50.68Zm-52.71,0h6.93V13.3l26.81,37.38h6.37V.98h-6.93V38.5L582.81,.98h-6.37V50.68Zm-35.98-18.2c0-2.94,.9-5.3,2.69-7.07,1.8-1.77,4.19-2.66,7.18-2.66h2.94v-6.37h-1.75c-2.47,0-4.66,.44-6.55,1.33-1.89,.89-3.39,2.36-4.51,4.41h-.14v-5.04h-6.3V50.68h6.44v-18.2Zm-31.71,13.23c-3.17,0-5.71-1.09-7.6-3.26-1.89-2.17-2.83-5.03-2.83-8.58,0-3.83,.99-6.76,2.97-8.79,1.98-2.03,4.47-3.04,7.46-3.04s5.48,1.01,7.49,3.04c2.01,2.03,3.01,4.96,3.01,8.79,0,3.55-.96,6.4-2.87,8.58-1.91,2.17-4.46,3.26-7.63,3.26m0-29.33c-2.47,0-4.75,.41-6.83,1.23-2.08,.82-3.86,1.98-5.35,3.5-1.49,1.52-2.66,3.36-3.5,5.53-.84,2.17-1.26,4.58-1.26,7.24,0,5.23,1.55,9.45,4.65,12.67,3.1,3.22,7.2,4.83,12.29,4.83s9.18-1.61,12.28-4.83c3.1-3.22,4.66-7.44,4.66-12.67s-1.58-9.62-4.72-12.77c-3.15-3.15-7.22-4.73-12.22-4.73m-29.05,6.3h8.47v-5.6h-8.47v-4.83c0-2.05,.51-3.6,1.54-4.65,1.03-1.05,2.47-1.57,4.34-1.57h3.15V.28h-3.29c-4.11,0-7.19,1.09-9.24,3.26-2.05,2.17-3.08,5.01-3.08,8.51v5.04h-6.72v5.6h6.79v28h6.51V22.68Zm-61.74,22.19c1.59,2.19,3.74,3.83,6.48,4.9,2.73,1.07,5.61,1.61,8.64,1.61,4.48,0,8.06-1.01,10.74-3.04,2.68-2.03,4.02-4.66,4.02-7.88,0-1.91-.37-3.51-1.12-4.8-.75-1.28-1.74-2.32-2.98-3.11-1.24-.79-2.69-1.41-4.38-1.86-1.68-.44-3.45-.8-5.32-1.08-2.01-.33-3.59-.71-4.76-1.15-1.17-.44-1.75-1.15-1.75-2.14,0-.89,.48-1.6,1.43-2.14,.96-.54,2.14-.8,3.54-.8,1.73,0,3.37,.33,4.93,.98,1.56,.65,2.81,1.63,3.74,2.94l5.46-4.9c-1.45-1.87-3.29-3.34-5.53-4.41-2.24-1.07-4.9-1.61-7.98-1.61-4.15,0-7.47,.99-9.94,2.98-2.47,1.98-3.71,4.58-3.71,7.8s1.18,5.6,3.54,7.14c2.36,1.54,5.43,2.57,9.21,3.08,2.15,.33,3.92,.69,5.32,1.08,1.4,.4,2.1,1.18,2.1,2.35,0,.98-.52,1.79-1.57,2.42-1.05,.63-2.44,.95-4.17,.95-1.87,0-3.71-.35-5.53-1.05-1.82-.7-3.34-1.89-4.55-3.57l-5.88,5.32Zm-28.42-13.23c0-2.29,.6-4.05,1.79-5.29s2.86-1.86,5.01-1.86,3.73,.62,4.9,1.86c1.17,1.24,1.75,3,1.75,5.29v19.04h9.1V30.52c0-4.39-1.1-7.84-3.29-10.36-2.19-2.52-5.23-3.78-9.1-3.78-2.19,0-4.19,.5-5.98,1.51-1.8,1-3.14,2.35-4.03,4.02h-.14v-4.83h-9.1V50.68h9.1V31.64Zm-36.26,11.9c-2.52,0-4.6-.84-6.23-2.52-1.63-1.68-2.45-4.06-2.45-7.14s.82-5.46,2.45-7.14c1.63-1.68,3.71-2.52,6.23-2.52s4.74,.84,6.37,2.52c1.63,1.68,2.45,4.06,2.45,7.14s-.83,5.46-2.48,7.14c-1.66,1.68-3.77,2.52-6.34,2.52m8.68-26.46v4.9h-.14c-1.17-1.77-2.66-3.15-4.48-4.13-1.82-.98-3.9-1.47-6.23-1.47s-4.31,.43-6.2,1.3c-1.89,.86-3.51,2.07-4.86,3.6-1.35,1.54-2.4,3.38-3.15,5.53-.75,2.15-1.12,4.5-1.12,7.07s.37,4.93,1.12,7.11c.75,2.17,1.79,4.01,3.12,5.53,1.33,1.52,2.94,2.71,4.83,3.57,1.89,.86,3.98,1.29,6.27,1.29s4.41-.49,6.23-1.47c1.82-.98,3.31-2.36,4.48-4.13h.14v4.9h9.1V17.08h-9.1Zm-40.88,19.6c0,1.73-.89,3.19-2.66,4.38-1.77,1.19-4.15,1.79-7.14,1.79-2.71,0-5.18-.5-7.42-1.5-2.24-1-4.2-2.6-5.88-4.8l-7,6.02c2.38,3.13,5.25,5.4,8.61,6.83,3.36,1.42,7.09,2.14,11.2,2.14,6.07,0,10.86-1.43,14.38-4.31,3.52-2.87,5.29-6.61,5.29-11.23,0-2.61-.49-4.78-1.47-6.51-.98-1.73-2.27-3.15-3.88-4.27-1.61-1.12-3.48-2.01-5.6-2.66-2.12-.65-4.33-1.21-6.62-1.68-3.36-.7-5.98-1.51-7.88-2.42-1.89-.91-2.83-2.32-2.83-4.24,0-1.73,.83-3.08,2.49-4.06,1.66-.98,3.84-1.47,6.54-1.47,2.52,0,4.71,.44,6.58,1.33s3.43,2.19,4.69,3.92l6.79-5.95c-2.19-2.75-4.74-4.77-7.63-6.05-2.89-1.28-6.35-1.93-10.36-1.93-5.55,0-10.05,1.38-13.48,4.13s-5.14,6.32-5.14,10.71c0,2.47,.5,4.56,1.51,6.27,1,1.7,2.37,3.13,4.1,4.27,1.73,1.14,3.72,2.08,5.98,2.8,2.26,.72,4.65,1.32,7.18,1.79,2.94,.56,5.28,1.33,7.03,2.31,1.75,.98,2.62,2.45,2.62,4.41m-80.78,14h8.82v-10.5l4.13-4.2,9.17,14.7h10.64l-13.93-20.65,12.74-12.95h-11.06l-11.69,12.53V.28h-8.82V50.68Zm-13.09-11.76c-.89,1.45-1.97,2.53-3.26,3.26-1.28,.72-2.81,1.08-4.58,1.08-2.66,0-4.79-.86-6.4-2.59-1.61-1.73-2.42-3.99-2.42-6.79s.81-5.18,2.42-6.86c1.61-1.68,3.7-2.52,6.26-2.52,1.68,0,3.14,.35,4.38,1.05,1.24,.7,2.32,1.84,3.25,3.43l7.07-4.62c-1.4-2.66-3.3-4.65-5.71-5.99-2.4-1.33-5.35-1.99-8.85-1.99-5.23,0-9.46,1.6-12.71,4.8-3.24,3.2-4.87,7.43-4.87,12.7s1.63,9.45,4.9,12.67c3.27,3.22,7.56,4.83,12.88,4.83,3.41,0,6.35-.68,8.82-2.03,2.47-1.35,4.41-3.29,5.81-5.81l-7-4.62Zm-48.23,4.55c-2.71,0-4.87-.86-6.48-2.59s-2.41-4.06-2.41-7,.82-5.45,2.45-7.11c1.63-1.66,3.78-2.48,6.44-2.48s4.79,.83,6.4,2.48c1.61,1.66,2.41,4.03,2.41,7.11s-.8,5.27-2.41,7-3.74,2.59-6.4,2.59m0-27.09c-5.27,0-9.54,1.6-12.81,4.8-3.27,3.2-4.9,7.43-4.9,12.7s1.62,9.45,4.87,12.67,7.52,4.83,12.85,4.83,9.53-1.61,12.77-4.83,4.87-7.44,4.87-12.67-1.63-9.51-4.9-12.7c-3.27-3.2-7.51-4.8-12.74-4.8m-28.42,22.54c-.89,1.45-1.97,2.53-3.25,3.26-1.28,.72-2.81,1.08-4.59,1.08-2.66,0-4.79-.86-6.4-2.59-1.61-1.73-2.42-3.99-2.42-6.79s.81-5.18,2.42-6.86c1.61-1.68,3.7-2.52,6.26-2.52,1.68,0,3.14,.35,4.38,1.05,1.24,.7,2.32,1.84,3.26,3.43l7.07-4.62c-1.4-2.66-3.3-4.65-5.71-5.99-2.4-1.33-5.35-1.99-8.85-1.99-5.23,0-9.46,1.6-12.71,4.8-3.24,3.2-4.86,7.43-4.86,12.7s1.63,9.45,4.9,12.67c3.27,3.22,7.56,4.83,12.88,4.83,3.41,0,6.35-.68,8.82-2.03,2.47-1.35,4.41-3.29,5.81-5.81l-7-4.62Zm-50.47,4.62c-2.52,0-4.6-.84-6.23-2.52-1.63-1.68-2.45-4.06-2.45-7.14s.82-5.46,2.45-7.14c1.63-1.68,3.71-2.52,6.23-2.52s4.74,.84,6.37,2.52c1.63,1.68,2.45,4.06,2.45,7.14s-.83,5.46-2.49,7.14c-1.66,1.68-3.77,2.52-6.33,2.52m8.68-26.46v4.9h-.14c-1.17-1.77-2.66-3.15-4.48-4.13s-3.9-1.47-6.23-1.47-4.31,.43-6.19,1.3c-1.89,.86-3.51,2.07-4.86,3.6-1.35,1.54-2.4,3.38-3.15,5.53s-1.12,4.5-1.12,7.07,.37,4.93,1.12,7.11c.75,2.17,1.79,4.01,3.12,5.53,1.33,1.52,2.94,2.71,4.83,3.57,1.89,.86,3.98,1.29,6.26,1.29s4.41-.49,6.23-1.47,3.31-2.36,4.48-4.13h.14v4.9h9.1V17.08h-9.1Zm-47.74,6.58c2.24,0,4.11,.63,5.6,1.89,1.49,1.26,2.33,2.89,2.52,4.9h-16.66c.51-2.52,1.59-4.28,3.22-5.29,1.63-1,3.41-1.51,5.32-1.51m15.54,20.72l-6.09-4.62c-1.07,1.4-2.32,2.44-3.75,3.11-1.42,.68-3,1.02-4.72,1.02-2.24,0-4.26-.54-6.06-1.61s-2.97-2.89-3.53-5.46h24.99c.05-.42,.09-.89,.14-1.4,.05-.51,.07-1.14,.07-1.89,0-5.23-1.53-9.39-4.58-12.49s-7.01-4.65-11.86-4.65-9.14,1.56-12.28,4.69c-3.15,3.13-4.73,7.33-4.73,12.6s1.58,9.72,4.73,12.92c3.15,3.2,7.48,4.79,12.99,4.79,3.17,0,6.02-.57,8.54-1.71s4.57-2.9,6.16-5.29M13.86,24.99V9.38h8.68c2.94,0,5.12,.63,6.55,1.89,1.42,1.26,2.14,3.15,2.14,5.67,0,2.71-.71,4.73-2.14,6.05-1.42,1.33-3.6,2-6.55,2H13.86ZM4.41,50.68H13.86v-17.43h9.17c5.6,0,9.97-1.45,13.12-4.34s4.73-6.95,4.73-12.18-1.58-8.87-4.73-11.62c-3.15-2.75-7.52-4.13-13.12-4.13H4.41V50.68Z"/></g></g></svg>