<svg xmlns="http://www.w3.org/2000/svg" viewBox="0 0 720 335.53"><title>17-robey</title><g id="Layer_2" data-name="Layer 2"><g id="Marks"><path d="M668.34,218.58v-51.2L720,115.72H688.23l-31.46,31.46-31.45-31.46h-32.7l51.66,51.66v51.2Z"/><path d="M308,218.58h67.85c25,0,35.47-13.88,35.47-29,0-9.56-4.16-19.43-13.88-24.36v-.16c6.79-4.93,9.25-12.64,9.25-20.2,0-15.57-10.48-29.14-36.24-29.14H308Zm23.13-21V177.4h41.33c10.49,0,14.19,3.7,14.19,10S383,197.6,372.46,197.6Zm0-41V136.69h36.7c10.49,0,14.19,3.7,14.19,10s-3.7,9.87-14.19,9.87Z"/><path d="M202.57,199.61a32.54,32.54,0,1,1,32.54-32.39A32.52,32.52,0,0,1,202.57,199.61Zm0,22c31,0,56.14-24.36,56.14-54.44s-25.14-54.59-56.14-54.59-56.13,24.52-56.13,54.59S171.57,221.66,202.57,221.66Z"/><path d="M23.13,159.05V136.84H60.6C69.86,136.84,74,140.7,74,148s-4.16,11.1-13.42,11.1Zm0,59.53V180H44.57l38.55,38.56h31.77L74.48,178.17c15.58-3.55,24.21-15.11,24.21-30.69,0-17.27-10.48-31.76-36.24-31.76H0V218.58Z"/><path d="M465.45,218.58H558v-21H488.59V177.71h34.69V156.58H488.59V136.69H558v-21H465.45Z"/><path d="M287,38.57h8.85V7.86h14.86V0H272.11V7.86H287Z"/><path d="M334,38.57h8.67V23.31h21.22V38.57h8.68V0h-8.68V15.21H342.67V0H334Z"/><path d="M218.89,334.29h8.68V319h21.22v15.27h8.68V295.72h-8.68v15.21H227.57V295.72h-8.68Z"/><path d="M154.5,315c0,11.27,9.46,20.5,21.19,20.5a21.44,21.44,0,0,0,14.46-5.46L184,323.92a12.29,12.29,0,1,1,0-17.83l6.1-6.09a21.65,21.65,0,0,0-14.46-5.52C164,294.48,154.5,303.71,154.5,315Z"/><path d="M325.21,315c0,11.27,9.46,20.5,21.19,20.5a21.44,21.44,0,0,0,14.46-5.46l-6.16-6.15a12.29,12.29,0,1,1,0-17.83l6.1-6.09a21.65,21.65,0,0,0-14.46-5.52C334.67,294.48,325.21,303.71,325.21,315Z"/><path d="M288.06,334.29h8.67V295.72h-8.67Z"/><path d="M411,320.4h-11.4l5.67-9.79Zm7.76,13.89h9.32L405.43,295.1l-22.64,39.19h9l3.71-6.37h19.39Z"/><path d="M488.69,313.23h-19v7.61h10.22l.11.12c-1,4.18-5.22,6.62-10.22,6.62a12,12,0,0,1-12.36-12.31A12.23,12.23,0,0,1,478.94,307l6.09-6.1a21.59,21.59,0,0,0-15.38-6.44c-11.67,0-21.14,9.23-21.14,20.55,0,10.75,8.54,20.5,21.25,20.5C482,335.53,490.38,326.59,488.69,313.23Z"/><path d="M532,327.23A12.26,12.26,0,1,1,544.25,315,12.25,12.25,0,0,1,532,327.23Zm0,8.3c11.67,0,21.13-9.17,21.13-20.5s-9.46-20.55-21.13-20.55-21.14,9.23-21.14,20.55S520.32,335.53,532,335.53Z"/><path d="M401.73,38.57h34.7V30.71h-26V23.25h13V15.32h-13V7.86h26V0h-34.7Z"/></g></g></svg>