<svg xmlns="http://www.w3.org/2000/svg" viewBox="0 0 720 470.78"><title>02-selectas</title><g id="Layer_2" data-name="Layer 2"><g id="Layer_1-2" data-name="Layer 1"><path d="M545.91,172.45c.47-6.41,3.77-32.81,2.91-36-.17-.66-.56-1.07-1.56-.78-.76.21-1.6,1.15-2.56,2.64-3.73,5.41-11.29,18.89-17.28,40.29-.58,1.91-.07,2.81,1.79,2.63a60.43,60.43,0,0,0,12.06-1.66c3.28-.93,4.33-3.15,4.64-7.07m101.57-65.71c2.34,8.76.23,17.2-7.86,19.49-5.31,1.5-12.49-1-13.7-5.54-1.51-5.68,1.17-8.88.26-12.28-.47-1.79-3.48-2.86-7.77-1.64-7.08,2-8.56,8.7-6.83,15.19,5.44,20.43,33.65,17.16,41,44.89,7.2,27.09-14.51,51.72-31,56.37-16.18,4.57-32.57,1.19-34.43-5.78-1.16-4.39.5-8.34.72-15.73.32-10-2.7-14.23,2.35-15.66,3.79-1.08,7.72.43,9.28,6.27.6,2.27,1.57,9,4.47,13.73,2.47,4.18,5.74,7.27,11.55,5.63,11.89-3.36,13.45-17.93,11-27.18-5.13-19.29-32.57-14.15-39.18-39-6-22.71,2.48-45.87,28.26-53.17,14.92-4.21,28.2.75,31.82,14.37m-71.09,10.69c3.32,12.49-2.5,83.55.43,94.58,1.47,5.51,7.29,4.91,8.28,8.64,1.38,5.2-5.16,6.17-12.18,10.43-6.31,3.87-10.12,7.92-13.16,8.77-6.32,1.79-9.59-2.34-10.71-6.56-4-14.92-1.52-28.17-3.85-36.92-1.08-4.06-5.85-4.63-10.4-3.34-14.16,4-11.15,20.42-8.34,31,1.68,6.33,10.29,6,11.67,11.17,1.16,4.38-4.52,6.52-10.41,9.93-5,2.79-8.91,6.35-11.94,7.21-4.8,1.35-8.24-1.33-9.71-6.85-12.56-47.2,22.21-128,58.11-138.16,6.57-1.86,10.14,2.36,12.21,10.14M512.64,133.2a26.86,26.86,0,0,1,.07,12.54c-2,11.73,4.88,19.37-1.69,21.23-5.82,1.65-7.95-2.29-9.2-7-1.86-7-1.83-17.1-9.92-14.81-3,.86-3.39,4.63-3.26,13.31.21,14.06-.8,71.55,1,78.2,1.59,6,7.08,5.15,8.24,9.53,1,3.89-6.25,6.13-13.27,10.38-4.92,3-7.48,6.65-13.54,8.36-6.58,1.86-9.4-4.66-10-6.93-5.31-19.95.55-84.74-1.61-94.94-.83-4.13-2.66-5.88-4.93-5.24-3.29.94-5.9,9.52-6.38,13.84-1,9.37-.93,12.82-6.24,14.32-4.55,1.29-4-1.82-9.84-.18-2.27.64-3.66,1.56-5.93,2.2a10.93,10.93,0,0,1-13.64-7.3c-1.68-6.32,2-8.77,1.29-11.52-.52-1.95-2.64-3.79-4.41-3.29-12.9,3.64-22,47.2-14,77.2,2.51,9.4,6,20.45,12.32,18.66,11.12-3.14,12.4-21.81,16.13-32.29,1.21-3.66,2.42-6.27,5.2-7,4-1.14,7.09.09,8.21,4.3,1.77,6.65-4.39,49.9-35.49,58.7C380,291.58,371,274.07,365.81,254.61c-7.25-27.25-1.86-57,10.73-77.16,7.82-12.5,15.91-21.94,29-25.66,20.48-5.79,27.23,8.34,29.26,7.77s.45-8.5,2.78-14c.88-1.82,3.32-2.86,5.34-3.43,6.57-1.86,16.19-2.49,29.09-6.13,14.15-4,24.5-9,29.05-10.32,6.83-1.92,10.31,2,11.53,7.56M355.18,176.87c1.47,5.52.44,9.82.4,17.85-.33,7.95,2.25,16.63-3.82,18.35-3.79,1.07-8-1.4-8.76-4.32-1.34-5-.43-8.77-1.59-13.15-2.21-8.27-6.35-9.54-12.92-7.68-4.8,1.36-4.57,5.3-3.59,21.24.43,8.77-.1,12.93.47,15s2.67,2.91,4.7,2.34c3-.86,3.4-1.49,6.69-2.42,5.56-1.57,13.37-1.86,15.1,4.62,1.07,4.06.09,8.52-4.46,9.81-5.06,1.43-4.57-1.84-14.18.87-5.81,1.65-7.78,3.42-8.06,7.51-1,15.63-2.17,31.66,0,39.93.52,1.95,3.14,2.6,5.42,2,14.41-4.08,14.61-26.81,18.54-33.5a5.73,5.73,0,0,1,3.57-2.93c3-.86,6.25,0,7.24,3.71,1.12,4.22-1.9,8.21-1.31,13.45.53,5.08,2.52,12.54,1.66,18.54-1.06,5.18-4.29,9.41-8.58,10.62-5.82,1.65-9.16.33-20.79,3.61-8.85,2.51-11.07,5.4-20.67,8.12-10.62,3-12.29-1.23-13.8-6.91-2.89-10.86-2.61-41.46-1.9-57.19,1.12-25.43,2.35-31-.15-40.41-1.94-7.3-6.16-6.81-7.33-11.19-.73-2.75.77-5.27,9.37-7.7,18.2-5.15,29.48-11.83,39.59-14.69,15.67-4.44,17.55-1.47,19.14,4.52m-66,99.26c1.12,4.21-1.89,8.2-1.32,13.44s2.53,12.54,1.68,18.53c-1.07,5.19-4.3,9.41-8.6,10.63-5.81,1.64-9.15.32-20.78,3.61-8.85,2.51-11.07,5.4-20.67,8.12-10.62,3-12.29-1.23-13.8-6.91-2.89-10.87-2.6-41.47-1.9-57.19,1.12-25.43,2.31-31.17-.19-40.58-1.94-7.3-6.16-6.8-7.33-11.18-.73-2.76.27-5.13,10.38-8,7.58-2.15,12.33-6.8,16.87-8.09,6.58-1.86,8.69,5,9.81,9.26,2.29,8.6,2.15,42.82,1.06,59.17-1,15.63-2.18,31.66,0,39.93.51,1.95,3.13,2.6,5.41,2,14.41-4.08,14.61-26.8,18.54-33.5a5.73,5.73,0,0,1,3.57-2.93c3-.86,6.25,0,7.24,3.72m-79.09-58.21c1.46,5.52.44,9.82.4,17.85-.34,7.94,2.25,16.63-3.82,18.35-3.79,1.07-8-1.4-8.76-4.33-1.34-5-.43-8.77-1.59-13.15-2.21-8.27-6.35-9.54-12.92-7.68-4.8,1.36-4.57,5.3-3.59,21.25.43,8.77-.09,12.93.47,15s2.68,2.9,4.7,2.33c3-.86,3.41-1.49,6.69-2.42,5.57-1.57,13.37-1.86,15.1,4.63,1.08,4.06.09,8.52-4.46,9.81-5.06,1.43-4.57-1.85-14.18.87-5.81,1.64-7.78,3.42-8.06,7.5-1,15.63-2.18,31.66,0,39.93.51,2,3.14,2.61,5.41,2,14.41-4.07,14.62-26.8,18.54-33.5a5.71,5.71,0,0,1,3.57-2.92c3-.86,6.25,0,7.24,3.71,1.12,4.21-1.9,8.2-1.32,13.44.54,5.08,2.53,12.55,1.68,18.54-1.07,5.18-4.3,9.41-8.6,10.62-5.81,1.65-9.15.33-20.78,3.62-8.85,2.5-11.07,5.39-20.67,8.11-10.62,3-12.25-1.07-13.76-6.74-2.89-10.87-2.65-41.63-1.94-57.35,1.12-25.43,2.35-31-.15-40.42-1.94-7.3-6.16-6.8-7.32-11.19-.74-2.75.77-5.27,9.36-7.7,18.2-5.15,29.48-11.83,39.58-14.69,15.68-4.43,17.55-1.47,19.15,4.53m-73.75,33.42c2.34,8.76.23,17.2-7.85,19.49-5.31,1.5-12.51-1-13.71-5.54-1.51-5.68,1.17-8.88.27-12.29-.48-1.78-3.48-2.85-7.78-1.64-7.08,2-8.56,8.71-6.83,15.19,5.44,20.44,33.65,17.17,41,44.9,7.2,27.09-14.52,51.72-30.94,56.36C94.34,372.39,78,369,76.09,362c-1.17-4.39.5-8.34.71-15.73.32-10-2.7-14.23,2.36-15.66,3.79-1.07,7.72.43,9.27,6.27.61,2.27,1.58,9,4.47,13.73,2.48,4.18,5.74,7.27,11.56,5.62,11.88-3.35,13.44-17.92,11-27.17-5.13-19.3-32.58-14.15-39.18-39-6-22.71,2.47-45.87,28.26-53.17,14.91-4.22,28.19.74,31.81,14.37M718.4,182.89C699.85,56.19,524.34-23,326.4,6S-17,161.19,1.6,287.89s194.06,205.9,392,176.91S737,309.59,718.4,182.89"/></g></g></svg>