<?xml version="1.0" encoding="UTF-8"?><svg xmlns="http://www.w3.org/2000/svg" viewBox="0 0 666.12 200.57"><g id="a"/><g id="b"><g id="c"><g><g><path d="M12.23,2.43L7.39,20.54h-.64L1.68,.41v-.14h.98L7.1,18.05,11.79,.26h.84l4.72,17.73L21.7,.26h.99v.14l-4.98,20.14h-.64L12.23,2.43Z"/><path d="M33.4,18.28c-.75,1.54-2.17,2.52-4.4,2.52-3.04,0-4.58-1.62-4.58-4.08v-.2c0-2.98,2.14-4.26,5.56-4.26h3.39v-1.48c0-2.69-1.3-4.2-3.77-4.2-1.71,0-3.13,.78-3.8,2.9l-.81-.23c.87-2.52,2.58-3.45,4.61-3.45,3.01,0,4.64,1.94,4.64,4.98v9.76h-.67l-.17-2.26Zm-.03-3.59v-1.65h-3.39c-3.19,0-4.69,1.19-4.69,3.48v.2c0,2,1.3,3.27,3.71,3.27,2.2,0,4.37-1.04,4.37-5.3Z"/><path d="M42.79,20.54h-.52l-5.27-14.37v-.12h.84l4.69,12.95,4.69-12.95h.84v.12l-5.27,14.37Z"/><path d="M55.65,20.8c-3.42,0-5.27-2.14-5.27-5.82v-3.36c0-3.68,1.97-5.82,5.24-5.82s5.27,2.14,5.27,5.82v1.8h-9.65v1.56c0,3.45,1.8,5.04,4.4,5.04,2.03,0,3.59-.99,4.2-2.81l.78,.23c-.67,2.14-2.61,3.36-4.98,3.36Zm-4.4-8.17h8.78v-1.01c0-3.45-1.8-5.04-4.4-5.04s-4.37,1.59-4.37,5.04v1.01Z"/><path d="M70.54,16.43l.96-.29c.67,2.49,2.38,3.77,4.84,3.77s4.4-1.83,4.4-4.46-1.85-3.77-4.32-4.92c-2.67-1.25-5.22-2.55-5.22-5.71,0-2.96,2.35-4.81,5.16-4.81s4.52,1.56,5.21,3.62l-.87,.29c-.78-1.94-2-3.01-4.35-3.01-2.09,0-4.14,1.36-4.14,3.91s1.91,3.51,4.37,4.72c2.61,1.27,5.16,2.64,5.16,5.94,0,3.1-2.43,5.33-5.45,5.33s-4.93-1.56-5.77-4.37Z"/><path d="M86.48,18.22v8.11h-.87V6.05h.64l.23,2.32c.84-1.68,2.4-2.58,4.52-2.58,3.51,0,5.42,2.14,5.42,5.82v3.36c0,3.68-2.03,5.82-5.39,5.82-2.17,0-3.71-.93-4.55-2.58Zm4.55,1.8c2.69,0,4.52-1.59,4.52-5.04v-3.36c0-3.45-1.85-5.04-4.55-5.04s-4.52,1.59-4.52,5.04v3.36c0,3.45,1.85,5.04,4.55,5.04Z"/><path d="M105.4,20.8c-3.42,0-5.27-2.14-5.27-5.82v-3.36c0-3.68,1.97-5.82,5.24-5.82s5.27,2.14,5.27,5.82v1.8h-9.65v1.56c0,3.45,1.8,5.04,4.4,5.04,2.03,0,3.59-.99,4.2-2.81l.78,.23c-.67,2.14-2.61,3.36-4.98,3.36Zm-4.4-8.17h8.78v-1.01c0-3.45-1.8-5.04-4.4-5.04s-4.37,1.59-4.37,5.04v1.01Z"/><path d="M123.42,9.3c-.67-1.85-2.14-2.72-4.06-2.72-2.61,0-4.37,1.59-4.37,5.04v3.36c0,3.45,1.8,5.04,4.4,5.04,1.91,0,3.36-.87,4.03-2.72l.78,.23c-.75,2.11-2.38,3.27-4.81,3.27-3.42,0-5.27-2.14-5.27-5.82v-3.36c0-3.68,1.97-5.82,5.24-5.82,2.52,0,4.14,1.16,4.87,3.24l-.81,.26Z"/><path d="M126.54,6.05h2.29l.23-3.19h.64v3.19h4.58v.81h-4.58v9.73c0,2.06,.52,3.13,2.55,3.13h1.94v.81h-1.94c-2.55,0-3.42-1.25-3.42-3.94V6.87h-2.29v-.81Z"/><path d="M138.68,20.54h-.87V6.05h.64l.2,2.14c.61-1.22,1.85-2.14,3.82-2.14h1.16v.84h-1.16c-2.58,0-3.8,1.8-3.8,4.26v9.39Z"/><path d="M155.92,18.4c-.81,1.56-2.35,2.4-4.46,2.4-3.1,0-4.87-1.97-4.87-5.1V6.05h.87V15.7c0,2.61,1.42,4.32,4,4.32s4.43-1.71,4.43-4.29V6.05h.87v14.49h-.64l-.2-2.14Z"/><path d="M162.5,10.86v9.68h-.87V6.05h.64l.2,2.03c.72-1.51,2.06-2.29,3.88-2.29,2.06,0,3.42,1.13,3.97,3.01,.67-1.97,2.2-3.01,4.17-3.01,2.72,0,4.29,1.97,4.29,5.1v9.65h-.87V10.89c0-2.61-1.22-4.32-3.42-4.32s-3.85,1.71-3.85,4.29v9.68h-.87V10.89c0-2.61-1.22-4.32-3.42-4.32s-3.85,1.71-3.85,4.29Z"/><path d="M190.72,6.37V14.51c0,3.62,2.03,5.39,5.13,5.39,2.4,0,3.82-1.04,4.64-2.84l.9,.26c-.9,2.23-2.9,3.48-5.53,3.48-3.82,0-6.14-2.32-6.14-6.29V6.37c0-3.97,2.23-6.37,5.94-6.37,3.01,0,4.75,1.33,5.56,3.51l-.87,.26c-.75-1.85-2.09-2.87-4.69-2.87-2.98,0-4.92,1.85-4.92,5.48Z"/><path d="M204.71,.26h.87V16.6c0,2.06,.52,3.13,2.55,3.13h.64v.81h-.64c-2.55,0-3.42-1.25-3.42-3.94V.26Z"/><path d="M210.94,11.62c0-3.68,2.03-5.82,5.39-5.82s5.42,2.14,5.42,5.82v3.36c0,3.68-2.03,5.82-5.39,5.82s-5.42-2.14-5.42-5.82v-3.36Zm5.42,8.4c2.69,0,4.52-1.59,4.52-5.04v-3.36c0-3.45-1.85-5.04-4.55-5.04s-4.52,1.59-4.52,5.04v3.36c0,3.45,1.85,5.04,4.55,5.04Z"/><path d="M235.24,18.4c-.81,1.56-2.35,2.4-4.46,2.4-3.1,0-4.87-1.97-4.87-5.1V6.05h.87V15.7c0,2.61,1.42,4.32,4,4.32s4.43-1.71,4.43-4.29V6.05h.87v14.49h-.64l-.2-2.14Z"/><path d="M250.31,18.22c-.84,1.68-2.4,2.58-4.52,2.58-3.51,0-5.42-2.14-5.42-5.82v-3.36c0-3.68,2.03-5.82,5.39-5.82,2.17,0,3.71,.93,4.55,2.58V.26h.87V20.54h-.64l-.23-2.32Zm-4.52,1.8c2.69,0,4.52-1.59,4.52-5.04v-3.36c0-3.45-1.85-5.04-4.55-5.04s-4.52,1.59-4.52,5.04v3.36c0,3.45,1.85,5.04,4.55,5.04Z"/><path d="M273.72,3.51l-.87,.26c-.75-1.77-2.09-2.87-4.69-2.87-3.16,0-5.21,1.85-5.21,5.48V14.51c0,3.62,2.06,5.39,5.21,5.39s5.24-1.56,5.24-5.39v-2.98h-4.61v-.9h5.62v3.88c0,3.97-2.32,6.29-6.26,6.29s-6.23-2.32-6.23-6.29V6.37c0-3.97,2.35-6.37,6.23-6.37,3.01,0,4.75,1.33,5.56,3.51Z"/><path d="M283.45,20.8c-3.42,0-5.27-2.14-5.27-5.82v-3.36c0-3.68,1.97-5.82,5.24-5.82s5.27,2.14,5.27,5.82v1.8h-9.65v1.56c0,3.45,1.8,5.04,4.4,5.04,2.03,0,3.59-.99,4.2-2.81l.78,.23c-.67,2.14-2.61,3.36-4.98,3.36Zm-4.4-8.17h8.78v-1.01c0-3.45-1.8-5.04-4.4-5.04s-4.37,1.59-4.37,5.04v1.01Z"/><path d="M293.62,10.86v9.68h-.87V6.05h.64l.2,2.14c.81-1.56,2.35-2.4,4.46-2.4,3.1,0,4.87,1.97,4.87,5.1v9.65h-.87V10.89c0-2.61-1.42-4.32-4-4.32s-4.43,1.71-4.43,4.29Z"/><path d="M316.88,18.4c-.81,1.56-2.35,2.4-4.46,2.4-3.1,0-4.87-1.97-4.87-5.1V6.05h.87V15.7c0,2.61,1.42,4.32,4,4.32s4.43-1.71,4.43-4.29V6.05h.87v14.49h-.64l-.2-2.14Z"/><path d="M321.69,17.38l.87-.23c.58,1.97,2.03,2.87,4.11,2.87,2.29,0,3.68-1.16,3.68-3.01,0-2.03-1.56-2.72-3.77-3.53-2.49-.93-4.32-1.77-4.32-4.2,0-2.14,1.71-3.48,4.26-3.48,2.4,0,4.09,1.13,4.64,3.01l-.87,.23c-.43-1.62-1.91-2.46-3.77-2.46-2.06,0-3.36,.96-3.36,2.69,0,1.85,1.45,2.55,3.68,3.36,2.64,.96,4.4,1.83,4.4,4.4,0,2.29-1.8,3.77-4.58,3.77-2.46,0-4.29-1.07-4.98-3.42Z"/></g><g><path d="M348.99,0c3.53,0,5.97,2.09,5.33,6.58l-1.1,7.82c-.55,4.03-2.69,6.4-6.84,6.4-3.53,0-5.97-2.11-5.33-6.49l1.13-7.88c.55-4.03,2.67-6.43,6.81-6.43Zm-.12,.9c-3.3,0-5.13,1.8-5.68,5.53l-1.13,7.88c-.58,3.97,1.3,5.59,4.46,5.59s5.16-1.77,5.68-5.48l1.1-7.85c.55-4.06-1.3-5.68-4.43-5.68Z"/><path d="M366.52,17.47c-.96,2.4-2.98,3.33-5.1,3.33-3.27,0-4.87-2.14-4.35-5.79l.46-3.36c.52-3.74,2.23-5.85,5.97-5.85,2.32,0,3.74,1.27,4.11,3.22l-.7,.29c-.38-1.68-1.62-2.72-3.51-2.72-3.1,0-4.61,1.77-5.01,4.95l-.49,3.74c-.38,3.04,.75,4.75,3.51,4.75,1.85,0,3.51-.7,4.37-2.72l.72,.17Z"/><path d="M379.24,17.47c-.96,2.4-2.98,3.33-5.1,3.33-3.27,0-4.87-2.14-4.35-5.79l.46-3.36c.52-3.74,2.23-5.85,5.97-5.85,2.32,0,3.74,1.27,4.11,3.22l-.7,.29c-.38-1.68-1.62-2.72-3.51-2.72-3.1,0-4.61,1.77-5.01,4.95l-.49,3.74c-.38,3.04,.75,4.75,3.51,4.75,1.85,0,3.51-.7,4.37-2.72l.72,.17Z"/><path d="M385.55,.26l-2.38,16.75c-.32,2.29,.09,2.72,2.06,2.72h.64l-.12,.81h-.64c-2.43,0-3.22-.72-2.81-3.53l2.38-16.75h.87Z"/><path d="M398.76,20.54h-.58l.06-2.09c-1.01,1.39-2.61,2.35-4.61,2.35-3.1,0-4.55-2.06-4.11-5.1l1.33-9.65h.87l-1.33,9.65c-.43,3.04,.99,4.32,3.3,4.32s4.55-1.77,4.9-4.29l1.33-9.68h.87l-2.03,14.49Z"/><path d="M412.87,18.69c-.99,1.42-2.52,2.11-4.58,2.11-3.3,0-4.98-2.14-4.46-5.85l.46-3.36c.55-4,2.17-5.79,5.94-5.79,2.06,0,3.42,.81,4.06,2.29l1.1-7.82h.87l-2.84,20.28h-.64l.09-1.85Zm-4.49,1.33c2.67,0,4.23-1.25,4.84-4.26l.67-4.81c.26-3.04-1.13-4.37-3.74-4.37-2.84,0-4.46,1.27-4.98,5.01l-.46,3.36c-.49,3.53,.96,5.07,3.68,5.07Z"/><path d="M422.6,20.8c-3.33,0-4.93-2.2-4.4-5.79l.46-3.42c.52-3.77,2.4-5.79,5.82-5.79,3.16,0,4.55,2.17,4.09,5.79l-.23,1.83h-9.04l-.2,1.59c-.46,3.48,1.04,4.98,3.51,4.98,1.83,0,3.3-.99,4.26-2.78l.75,.23c-1.04,2.2-2.93,3.36-5.01,3.36Zm-3.19-8.14l8.17-.03c.06-.49,.14-1.07,.14-1.04,.46-3.45-.84-5.01-3.3-5.01-2.93,0-4.4,1.68-4.87,5.01l-.14,1.07Z"/><path d="M440.36,18.69c-.99,1.42-2.52,2.11-4.58,2.11-3.3,0-4.98-2.14-4.46-5.85l.46-3.36c.55-4,2.17-5.79,5.94-5.79,2.06,0,3.42,.81,4.06,2.29l1.1-7.82h.87l-2.84,20.28h-.64l.09-1.85Zm-4.49,1.33c2.67,0,4.23-1.25,4.84-4.26l.67-4.81c.26-3.04-1.13-4.37-3.74-4.37-2.84,0-4.46,1.27-4.98,5.01l-.46,3.36c-.49,3.53,.96,5.07,3.68,5.07Z"/><path d="M454.56,.26h.84l8.95-.03-.12,.9-8.78,.03-1.22,8.69,8.05-.03-.12,.9-8.08,.03-1.36,9.79h-1.01l2.84-20.28Z"/><path d="M466.52,10.23l-1.45,10.31h-.87l2.03-14.49h.64v1.74c.72-1.01,2.03-1.74,3.74-1.74h1.3l-.12,.84h-1.36c-1.27,0-3.33,.43-3.91,3.33Z"/><path d="M473.19,15.01l.46-3.36c.55-4,2.49-5.85,5.97-5.85s4.98,2.14,4.46,5.85l-.46,3.36c-.55,4-2.17,5.79-5.94,5.79-3.42,0-4.98-2.14-4.49-5.79Zm9.56,0l.46-3.36c.49-3.53-.96-5.07-3.68-5.07-2.9,0-4.49,1.48-4.98,5.07l-.46,3.36c-.49,3.48,.9,5.01,3.68,5.01s4.46-1.27,4.98-5.01Z"/><path d="M489.15,6.05h.58l-.06,2.09c1.01-1.39,2.61-2.35,4.61-2.35,3.1,0,4.55,2.06,4.11,5.1l-1.33,9.65h-.87l1.33-9.65c.43-3.04-.99-4.32-3.3-4.32s-4.55,1.77-4.9,4.29l-1.33,9.68h-.87l2.03-14.49Z"/><path d="M507.78,20.54h-1.83c-2.43,0-3.22-.72-2.81-3.53l1.45-10.14h-2.35l.12-.81h2.32l.72-3.16h.58l-.43,3.16h4.43l-.12,.81h-4.43l-1.42,10.14c-.32,2.29,.09,2.72,2.06,2.72h1.83l-.12,.81Z"/><path d="M520.61,.26h4.75c3.65,0,5.22,1.71,4.78,4.98l-.17,1.27c-.43,3.27-2.35,5.16-5.97,5.16h-3.97l-1.25,8.87h-1.01l2.84-20.28Zm.9,.9l-1.36,9.59h3.97c2.87,0,4.46-1.25,4.87-4.23l.17-1.3c.38-2.81-.72-4.06-3.94-4.06h-3.71Z"/><path d="M534.4,.26h.87l-1.16,7.88c1.01-1.39,2.61-2.35,4.61-2.35,3.1,0,4.55,2.06,4.11,5.1l-1.33,9.65h-.87l1.33-9.65c.43-3.04-.99-4.32-3.3-4.32s-4.55,1.77-4.9,4.29l-1.33,9.68h-.87l2.84-20.28Z"/><path d="M550.86,20.8c-3.33,0-4.92-2.2-4.4-5.79l.46-3.42c.52-3.77,2.4-5.79,5.82-5.79,3.16,0,4.55,2.17,4.09,5.79l-.23,1.83h-9.04l-.2,1.59c-.46,3.48,1.04,4.98,3.51,4.98,1.83,0,3.3-.99,4.26-2.78l.75,.23c-1.04,2.2-2.93,3.36-5.01,3.36Zm-3.19-8.14l8.17-.03c.06-.49,.14-1.07,.14-1.04,.46-3.45-.84-5.01-3.3-5.01-2.93,0-4.4,1.68-4.87,5.01l-.14,1.07Z"/><path d="M561.4,6.05h.58l-.06,2.09c1.01-1.39,2.61-2.35,4.61-2.35,3.1,0,4.55,2.06,4.11,5.1l-1.33,9.65h-.87l1.33-9.65c.43-3.04-.99-4.32-3.3-4.32s-4.55,1.77-4.9,4.29l-1.33,9.68h-.87l2.03-14.49Z"/><path d="M574.27,15.01l.46-3.36c.55-4,2.49-5.85,5.97-5.85s4.98,2.14,4.46,5.85l-.46,3.36c-.55,4-2.17,5.79-5.94,5.79-3.42,0-4.98-2.14-4.49-5.79Zm9.56,0l.46-3.36c.49-3.53-.96-5.07-3.68-5.07-2.9,0-4.49,1.48-4.98,5.07l-.46,3.36c-.49,3.48,.9,5.01,3.68,5.01s4.46-1.27,4.98-5.01Z"/><path d="M589.07,20.54h-.87l2.03-14.49h.58l-.12,2.14c.93-1.59,2.38-2.4,4.17-2.4,1.91,0,3.04,1.1,3.36,2.95,.93-1.94,2.58-2.95,4.49-2.95,2.64,0,3.85,1.97,3.42,5.1l-1.36,9.65h-.87l1.36-9.65c.38-2.61-.58-4.32-2.67-4.32s-3.97,1.71-4.32,4.26v.06l-1.36,9.65h-.87l1.36-9.65c.38-2.61-.58-4.32-2.67-4.32s-3.97,1.71-4.32,4.29l-.12,.84-1.25,8.84Z"/><path d="M614.13,20.8c-3.33,0-4.92-2.2-4.4-5.79l.46-3.42c.52-3.77,2.4-5.79,5.82-5.79,3.16,0,4.55,2.17,4.09,5.79l-.23,1.83h-9.04l-.2,1.59c-.46,3.48,1.04,4.98,3.51,4.98,1.83,0,3.3-.99,4.26-2.78l.75,.23c-1.04,2.2-2.93,3.36-5.01,3.36Zm-3.19-8.14l8.17-.03c.06-.49,.14-1.07,.14-1.04,.46-3.45-.84-5.01-3.3-5.01-2.93,0-4.4,1.68-4.87,5.01l-.14,1.07Z"/><path d="M624.67,6.05h.58l-.06,2.09c1.01-1.39,2.61-2.35,4.61-2.35,3.1,0,4.55,2.06,4.11,5.1l-1.33,9.65h-.87l1.33-9.65c.43-3.04-.99-4.32-3.3-4.32s-4.55,1.77-4.9,4.29l-1.33,9.68h-.87l2.03-14.49Z"/><path d="M637.54,15.01l.46-3.36c.55-4,2.49-5.85,5.97-5.85s4.98,2.14,4.46,5.85l-.46,3.36c-.55,4-2.17,5.79-5.94,5.79-3.42,0-4.98-2.14-4.49-5.79Zm9.56,0l.46-3.36c.49-3.53-.96-5.07-3.68-5.07-2.9,0-4.49,1.48-4.98,5.07l-.46,3.36c-.49,3.48,.9,5.01,3.68,5.01s4.46-1.27,4.98-5.01Z"/><path d="M653.5,6.05h.58l-.06,2.09c1.01-1.39,2.61-2.35,4.61-2.35,3.1,0,4.55,2.06,4.11,5.1l-1.33,9.65h-.87l1.33-9.65c.43-3.04-.99-4.32-3.3-4.32s-4.55,1.77-4.9,4.29l-1.33,9.68h-.87l2.03-14.49Z"/></g><g><path d="M16.8,45.83H7.42l-1.33,9.47h-1.59l2.84-20.28h1.59l-1.3,9.36h9.39l1.3-9.36h1.59l-2.84,20.28h-1.59l1.33-9.47Z"/><path d="M30.74,53.74c-.93,1.19-2.29,1.85-4.03,1.85-3.24,0-4.93-2.06-4.49-5.01l1.39-9.76h1.45l-1.42,10c-.29,2.09,1.07,3.48,3.13,3.48,2.2,0,3.82-1.07,4.46-4.11l1.3-9.36h1.45l-2.03,14.49h-1.1l-.12-1.56Z"/><path d="M39.26,45.75l-1.33,9.56h-1.45l2.03-14.49h1.1l.09,1.71v.03c.87-1.22,2.06-2.03,3.59-2.03,2,0,3.24,.96,3.65,2.58,.9-1.54,2.26-2.58,4.03-2.58,2.9,0,4.23,1.97,3.8,5.01l-1.39,9.76h-1.45l1.42-9.99c.32-2.32-.67-3.48-2.46-3.48-2.09,0-3.48,1.56-3.82,3.48,0,.09-.03,.14-.03,.23l-1.39,9.76h-1.45l1.42-9.99c.32-2.32-.67-3.48-2.43-3.48-2.14,0-3.59,1.68-3.88,3.65l-.03,.26Z"/><path d="M59.94,40.82h1.45l-2.03,14.49h-1.45l2.03-14.49Zm.14-4.78c0-.7,.64-1.3,1.3-1.3s1.01,.43,1.01,1.01c0,.67-.61,1.3-1.3,1.3-.61,0-1.01-.43-1.01-1.01Z"/><path d="M73.04,53.57c-1.04,1.3-2.55,2.03-4.37,2.03-3.27,0-4.95-2.29-4.43-6.03l.46-3.13c.58-4,2.32-5.91,5.91-5.91,2,0,3.3,.84,3.97,2.09l1.04-7.59h1.45l-2.84,20.28h-1.1l-.09-1.71v-.03Zm-4.23,.72c2.29,0,4.29-1.13,4.81-4.84l.43-3.22c.32-3.45-1.39-4.4-3.33-4.4-2.64,0-4.11,1.27-4.58,4.64l-.46,3.3c-.41,3.04,.84,4.52,3.13,4.52Z"/><path d="M83.49,55.6c-3.48,0-5.21-2.29-4.69-6.03l.43-3.13c.52-3.74,2.78-5.91,6.08-5.91s4.95,2.26,4.43,6.03l-.26,1.94h-9.1l-.17,1.27c-.41,3.04,.96,4.52,3.3,4.52,1.71,0,3.13-.87,3.94-2.49l1.3,.32c-1.04,2.26-3.01,3.48-5.27,3.48Zm-2.93-8.4l7.65-.03,.12-.81c.41-3.07-.78-4.52-3.1-4.52-2.43,0-4.14,1.59-4.55,4.64l-.12,.72Z"/><path d="M96.76,49.13l-4.72,6.17h-1.48v-.17l5.56-7.3-3.39-6.9v-.12h1.48l2.93,5.94,4.52-5.94h1.51v.12l-5.39,7.1,3.48,7.1v.17h-1.45l-3.04-6.17Z"/><path d="M113.48,35.03h10.4l-.2,1.45h-8.81l-1.1,7.88h8.08l-.2,1.45h-8.08l-1.13,8.05h8.95l-.2,1.45h-10.55l2.84-20.28Z"/><path d="M129.04,55.31h-1.13l-3.13-14.37v-.12h1.42l2.58,12.31,6.03-12.31h1.42v.12l-7.18,14.37Z"/><path d="M145.95,53.57c-1.04,1.3-2.55,2.03-4.37,2.03-3.27,0-4.95-2.29-4.43-6.03l.46-3.13c.58-4,2.32-5.91,5.91-5.91,2,0,3.3,.84,3.97,2.11v-.06l.61-1.77h1.1l-2.03,14.49h-1.1l-.12-1.71v-.03Zm-4.23,.72c2.29,0,4.29-1.13,4.81-4.87l.43-3.1c.35-3.53-1.39-4.49-3.33-4.49-2.64,0-4.11,1.27-4.58,4.64l-.46,3.3c-.41,3.04,.84,4.52,3.13,4.52Z"/><path d="M153.4,53.51l-1.07,7.59h-1.45l2.84-20.28h1.1l.12,1.71c1.04-1.3,2.55-2,4.35-2,3.27,0,4.95,2.29,4.43,6.03l-.46,3.13c-.58,4-2.32,5.91-5.91,5.91-2,0-3.27-.81-3.94-2.09Zm1.04-7.5l-.58,4.17c-.2,3.22,1.48,4.11,3.36,4.11,2.64,0,4.11-1.27,4.58-4.64l.46-3.3c.41-3.04-.84-4.52-3.13-4.52-2.14,0-4.03,.99-4.69,4.17Z"/><path d="M166.78,49.57l.43-3.13c.55-3.94,2.67-5.91,6.23-5.91s5.27,2.29,4.75,6.03l-.46,3.13c-.58,4-2.43,5.91-6.26,5.91-3.48,0-5.21-2.29-4.69-6.03Zm9.5,.09l.46-3.3c.41-3.04-.9-4.52-3.33-4.52-2.64,0-4.32,1.45-4.75,4.64l-.43,3.3c-.41,3.04,.84,4.52,3.27,4.52,2.75,0,4.32-1.27,4.78-4.64Z"/><path d="M187.12,55.31h-2.35c-1.97,0-2.87-.87-2.52-3.27l1.42-9.91h-2.2l.17-1.3h2.23l.75-3.16h1.1l-.43,3.16h4.14l-.17,1.3h-4.17l-1.39,9.88c-.2,1.36,.12,2,1.27,2h2.32l-.17,1.3Z"/><path d="M193.64,45.25l-1.42,10.05h-1.45l2.03-14.49h1.1l.12,1.68c.78-1.04,2.06-1.68,3.68-1.68h1.42l-.2,1.56h-1.62c-1.83,0-3.16,.75-3.65,2.87Z"/><path d="M209.02,53.57c-1.04,1.3-2.55,2.03-4.37,2.03-3.27,0-4.95-2.29-4.43-6.03l.46-3.13c.58-4,2.32-5.91,5.91-5.91,2,0,3.3,.84,3.97,2.11v-.06l.61-1.77h1.1l-2.03,14.49h-1.1l-.12-1.71v-.03Zm-4.23,.72c2.29,0,4.29-1.13,4.81-4.87l.43-3.1c.35-3.53-1.39-4.49-3.33-4.49-2.64,0-4.11,1.27-4.58,4.64l-.46,3.3c-.41,3.04,.84,4.52,3.13,4.52Z"/><path d="M217.6,45.34l-1.39,9.97h-1.45l2.03-14.49h1.1v1.88c.99-1.36,2.46-2.17,4.35-2.17,3.39,0,4.84,1.97,4.4,5.01l-1.39,9.76h-1.45l1.42-9.99c.32-2.32-.84-3.48-3.04-3.48s-4.23,1.59-4.58,3.51Z"/><path d="M229.3,52.06l1.39-.32c.2,1.77,1.54,2.55,3.48,2.55s3.19-1.01,3.42-2.55c.52-3.65-7.24-3.07-6.49-7.94,.29-1.85,1.94-3.27,4.58-3.27,2.46,0,4.14,1.16,4.4,3.16l-1.3,.29c-.26-1.56-1.51-2.14-3.22-2.14-1.97,0-2.84,.96-3.01,2.09-.58,3.74,7.13,3.01,6.49,7.97-.29,2.17-2,3.71-4.98,3.71-2.55,0-4.49-1.25-4.75-3.53Z"/><path d="M244.11,53.51l-1.07,7.59h-1.45l2.84-20.28h1.1l.12,1.71c1.04-1.3,2.55-2,4.35-2,3.27,0,4.95,2.29,4.43,6.03l-.46,3.13c-.58,4-2.32,5.91-5.91,5.91-2,0-3.27-.81-3.94-2.09Zm1.04-7.5l-.58,4.17c-.2,3.22,1.48,4.11,3.36,4.11,2.64,0,4.11-1.27,4.58-4.64l.46-3.3c.41-3.04-.84-4.52-3.13-4.52-2.14,0-4.03,.99-4.69,4.17Z"/><path d="M259.29,40.82h1.45l-2.03,14.49h-1.45l2.03-14.49Zm.14-4.78c0-.7,.64-1.3,1.3-1.3s1.01,.43,1.01,1.01c0,.67-.61,1.3-1.3,1.3-.61,0-1.01-.43-1.01-1.01Z"/><path d="M266.21,45.25l-1.42,10.05h-1.45l2.03-14.49h1.1l.12,1.68c.78-1.04,2.06-1.68,3.68-1.68h1.42l-.2,1.56h-1.62c-1.83,0-3.16,.75-3.65,2.87Z"/><path d="M281.6,53.57c-1.04,1.3-2.55,2.03-4.37,2.03-3.27,0-4.95-2.29-4.43-6.03l.46-3.13c.58-4,2.32-5.91,5.91-5.91,2,0,3.3,.84,3.97,2.11v-.06l.61-1.77h1.1l-2.03,14.49h-1.1l-.12-1.71v-.03Zm-4.23,.72c2.29,0,4.29-1.13,4.81-4.87l.43-3.1c.35-3.53-1.39-4.49-3.33-4.49-2.64,0-4.11,1.27-4.58,4.64l-.46,3.3c-.41,3.04,.84,4.52,3.13,4.52Z"/><path d="M293.42,55.31h-2.35c-1.97,0-2.87-.87-2.52-3.27l1.42-9.91h-2.2l.17-1.3h2.23l.75-3.16h1.1l-.43,3.16h4.14l-.17,1.3h-4.17l-1.39,9.88c-.2,1.36,.12,2,1.27,2h2.32l-.17,1.3Z"/><path d="M299.1,40.82h1.45l-2.03,14.49h-1.45l2.03-14.49Zm.14-4.78c0-.7,.64-1.3,1.3-1.3s1.01,.43,1.01,1.01c0,.67-.61,1.3-1.3,1.3-.61,0-1.01-.43-1.01-1.01Z"/><path d="M303.38,49.57l.43-3.13c.55-3.94,2.67-5.91,6.23-5.91s5.27,2.29,4.75,6.03l-.46,3.13c-.58,4-2.43,5.91-6.26,5.91-3.48,0-5.21-2.29-4.69-6.03Zm9.5,.09l.46-3.3c.41-3.04-.9-4.52-3.33-4.52-2.64,0-4.32,1.45-4.75,4.64l-.43,3.3c-.41,3.04,.84,4.52,3.27,4.52,2.75,0,4.32-1.27,4.78-4.64Z"/><path d="M320.48,45.34l-1.39,9.97h-1.45l2.03-14.49h1.1v1.88c.99-1.36,2.46-2.17,4.35-2.17,3.39,0,4.84,1.97,4.4,5.01l-1.39,9.76h-1.45l1.42-9.99c.32-2.32-.84-3.48-3.04-3.48s-4.23,1.59-4.58,3.51Z"/></g><g><path d="M340.06,35.03h4.98c3.94,0,5.94,1.74,5.94,5.24v1.36c0,3.45-2.17,5.27-5.94,5.27h-3.39v8.4h-1.59v-20.28Zm1.59,1.45v8.98h3.82c2.49,0,3.91-1.36,3.91-3.88v-1.25c0-2.61-1.3-3.85-3.91-3.85h-3.82Z"/><path d="M352.9,52.06l1.36-.38c.55,1.74,1.85,2.61,3.8,2.61,2.09,0,3.33-1.01,3.33-2.64,0-1.77-1.56-2.38-3.62-3.13-2.38-.9-4.32-1.77-4.32-4.37,0-2.2,1.74-3.62,4.52-3.62,2.46,0,4.23,1.13,4.78,3.16l-1.33,.35c-.41-1.45-1.74-2.2-3.48-2.2-1.88,0-3.04,.96-3.04,2.35,0,1.65,1.48,2.29,3.36,3.01,2.52,.98,4.58,1.74,4.58,4.49,0,2.38-1.85,3.91-4.81,3.91-2.67,0-4.55-1.25-5.13-3.53Z"/><path d="M369.04,61.1h-1.33l2.03-5.85-5.13-14.31v-.12h1.45l4.4,12.34,4.29-12.34h1.36v.12l-7.07,20.16Z"/><path d="M387.52,44.38c-.49-1.59-1.85-2.55-3.59-2.55-2.69,0-4.2,1.74-4.2,4.58v3.3c0,2.81,1.54,4.58,4.2,4.58,1.71,0,3.01-.96,3.56-2.55l1.27,.35c-.7,2.23-2.52,3.51-4.84,3.51-3.53,0-5.65-2.23-5.65-5.97v-3.13c0-3.74,2.11-5.97,5.65-5.97,2.55,0,4.32,1.27,5.01,3.48l-1.42,.38Z"/><path d="M393.57,45.46v9.85h-1.45v-20.28h1.45v7.47c.84-1.25,2.26-1.97,4.17-1.97,3.24,0,5.07,1.94,5.07,4.98v9.79h-1.45v-9.94c0-2.17-1.62-3.53-3.62-3.53-2.29,0-4.17,1.62-4.17,3.62Z"/><path d="M408.78,55.31h-1.45v-14.49h1.1l.35,1.71c.61-1.04,1.77-1.71,3.45-1.71h1.54v1.56h-1.74c-1.45,0-3.24,.52-3.24,3.56v9.36Z"/><path d="M416.08,49.63v-3.13c0-3.74,2.09-5.97,5.62-5.97s5.65,2.23,5.65,5.97v3.13c0,3.74-2.11,5.97-5.65,5.97s-5.62-2.23-5.62-5.97Zm9.82,.09v-3.3c0-3.04-1.65-4.58-4.2-4.58s-4.17,1.54-4.17,4.58v3.3c0,3.04,1.65,4.58,4.17,4.58s4.2-1.54,4.2-4.58Z"/><path d="M432.86,55.31h-1.45v-14.49h1.1l.35,1.71c.72-1.25,1.91-2,3.53-2,1.97,0,3.36,.9,3.94,2.52,.7-1.56,1.97-2.52,3.85-2.52,2.67,0,4.26,1.65,4.26,4.49v10.28h-1.45v-10.28c0-1.88-.93-3.19-2.78-3.19s-3.45,1.27-3.56,4.81v8.66h-1.45v-10.28c0-1.88-.93-3.19-2.78-3.19s-3.45,1.27-3.56,4.81v8.66Z"/><path d="M457.95,55.6c-3.48,0-5.56-2.23-5.56-5.97v-3.13c0-3.74,2.09-5.97,5.56-5.97,3.19,0,5.13,2.23,5.13,5.97v2h-9.24v1.22c0,3.04,1.62,4.58,4.11,4.58,1.71,0,3.04-.93,3.62-2.55l1.27,.35c-.7,2.26-2.58,3.51-4.9,3.51Zm-4.11-8.4l7.79-.03v-.75c0-3.04-1.45-4.58-3.68-4.58-2.49,0-4.11,1.54-4.11,4.58v.78Z"/><path d="M472.9,55.31h-2.49c-1.97,0-2.96-.93-2.96-3.22v-9.97h-2.17v-1.3h2.2l.32-3.19h1.1v3.19h4.29v1.3h-4.29v9.82c0,1.45,.43,2.06,1.59,2.06h2.4v1.3Z"/><path d="M477.99,55.31h-1.45v-14.49h1.1l.35,1.71c.61-1.04,1.77-1.71,3.45-1.71h1.54v1.56h-1.74c-1.45,0-3.24,.52-3.24,3.56v9.36Z"/><path d="M485.44,35.9c0-.64,.52-1.16,1.16-1.16s1.16,.52,1.16,1.16-.49,1.16-1.16,1.16-1.16-.52-1.16-1.16Zm.43,4.92h1.45v14.49h-1.45v-14.49Z"/><path d="M500.62,44.38c-.49-1.59-1.85-2.55-3.59-2.55-2.69,0-4.2,1.74-4.2,4.58v3.3c0,2.81,1.54,4.58,4.2,4.58,1.71,0,3.01-.96,3.56-2.55l1.27,.35c-.7,2.23-2.52,3.51-4.84,3.51-3.53,0-5.65-2.23-5.65-5.97v-3.13c0-3.74,2.11-5.97,5.65-5.97,2.55,0,4.32,1.27,5.01,3.48l-1.42,.38Z"/><path d="M504.65,52.06l1.36-.38c.55,1.74,1.85,2.61,3.8,2.61,2.09,0,3.33-1.01,3.33-2.64,0-1.77-1.56-2.38-3.62-3.13-2.38-.9-4.32-1.77-4.32-4.37,0-2.2,1.74-3.62,4.52-3.62,2.46,0,4.23,1.13,4.78,3.16l-1.33,.35c-.41-1.45-1.74-2.2-3.48-2.2-1.88,0-3.04,.96-3.04,2.35,0,1.65,1.48,2.29,3.36,3.01,2.52,.98,4.58,1.74,4.58,4.49,0,2.38-1.85,3.91-4.81,3.91-2.67,0-4.55-1.25-5.13-3.53Z"/><path d="M535.88,45.83h-9.53v9.47h-1.59v-20.28h1.59v9.36h9.53v-9.36h1.59v20.28h-1.59v-9.47Z"/><path d="M544.66,61.1h-1.33l2.03-5.85-5.13-14.31v-.12h1.45l4.4,12.34,4.29-12.34h1.36v.12l-7.07,20.16Z"/><path d="M555.93,53.6v7.5h-1.45v-20.28h1.1l.35,1.71c.84-1.27,2.29-2,4.17-2,3.24,0,5.36,2.23,5.36,5.82v3.42c0,3.59-2.11,5.82-5.36,5.82-1.88,0-3.33-.72-4.17-2Zm4.03,.7c2.09,0,4.06-1.07,4.06-4.81v-2.84c0-3.74-1.97-4.81-4.06-4.81s-4.03,1.07-4.03,4.81v2.84c0,3.74,1.97,4.81,4.03,4.81Z"/><path d="M568.35,52.06l1.36-.38c.55,1.74,1.85,2.61,3.8,2.61,2.09,0,3.33-1.01,3.33-2.64,0-1.77-1.56-2.38-3.62-3.13-2.38-.9-4.32-1.77-4.32-4.37,0-2.2,1.74-3.62,4.52-3.62,2.46,0,4.23,1.13,4.78,3.16l-1.33,.35c-.41-1.45-1.74-2.2-3.48-2.2-1.88,0-3.04,.96-3.04,2.35,0,1.65,1.48,2.29,3.36,3.01,2.52,.98,4.58,1.74,4.58,4.49,0,2.38-1.85,3.91-4.81,3.91-2.67,0-4.55-1.25-5.13-3.53Z"/><path d="M581.36,49.63v-3.13c0-3.74,2.09-5.97,5.62-5.97s5.65,2.23,5.65,5.97v3.13c0,3.74-2.11,5.97-5.65,5.97s-5.62-2.23-5.62-5.97Zm9.82,.09v-3.3c0-3.04-1.65-4.58-4.2-4.58s-4.17,1.54-4.17,4.58v3.3c0,3.04,1.65,4.58,4.17,4.58s4.2-1.54,4.2-4.58Z"/><path d="M598.14,55.31h-1.45v-14.49h1.1l.35,1.71c.72-1.25,1.91-2,3.53-2,1.97,0,3.36,.9,3.94,2.52,.7-1.56,1.97-2.52,3.85-2.52,2.67,0,4.26,1.65,4.26,4.49v10.28h-1.45v-10.28c0-1.88-.93-3.19-2.78-3.19s-3.45,1.27-3.56,4.81v8.66h-1.45v-10.28c0-1.88-.93-3.19-2.78-3.19s-3.45,1.27-3.56,4.81v8.66Z"/><path d="M623.23,55.6c-3.48,0-5.56-2.23-5.56-5.97v-3.13c0-3.74,2.09-5.97,5.56-5.97,3.19,0,5.13,2.23,5.13,5.97v2h-9.24v1.22c0,3.04,1.62,4.58,4.11,4.58,1.71,0,3.04-.93,3.62-2.55l1.27,.35c-.7,2.26-2.58,3.51-4.9,3.51Zm-4.11-8.4l7.79-.03v-.75c0-3.04-1.45-4.58-3.68-4.58-2.49,0-4.11,1.54-4.11,4.58v.78Z"/><path d="M638.17,55.31h-2.49c-1.97,0-2.95-.93-2.95-3.22v-9.97h-2.17v-1.3h2.2l.32-3.19h1.1v3.19h4.29v1.3h-4.29v9.82c0,1.45,.43,2.06,1.59,2.06h2.4v1.3Z"/><path d="M646.81,55.6c-3.48,0-5.56-2.23-5.56-5.97v-3.13c0-3.74,2.09-5.97,5.56-5.97,3.19,0,5.13,2.23,5.13,5.97v2h-9.24v1.22c0,3.04,1.62,4.58,4.11,4.58,1.71,0,3.04-.93,3.62-2.55l1.27,.35c-.7,2.26-2.58,3.51-4.9,3.51Zm-4.11-8.4l7.79-.03v-.75c0-3.04-1.45-4.58-3.68-4.58-2.49,0-4.11,1.54-4.11,4.58v.78Z"/><path d="M657.01,55.31h-1.45v-14.49h1.1l.35,1.71c.61-1.04,1.77-1.71,3.45-1.71h1.54v1.56h-1.74c-1.45,0-3.24,.52-3.24,3.56v9.36Z"/></g><g><path d="M7.04,74.4v15.67h-2.23v-20.28h2.81l5.71,16.72,5.71-16.72h2.81l-.03,20.28h-2.23v-15.73l-5.45,15.73h-1.65l-5.45-15.67Z"/><path d="M31.58,90.39c-3.59,0-5.82-2.32-5.82-6.17v-2.78c0-3.91,2.23-6.17,5.82-6.17,3.39,0,5.5,2.32,5.5,6.17v2.09h-9.24v.81c0,2.72,1.42,4.2,3.74,4.2,1.56,0,2.78-.81,3.3-2.26l1.91,.52c-.72,2.32-2.69,3.59-5.21,3.59Zm-3.74-8.55l7.16-.03v-.55c0-2.69-1.3-4.14-3.42-4.14-2.32,0-3.74,1.48-3.74,4.2v.52Z"/><path d="M39.66,86.74l1.94-.52c.49,1.59,1.68,2.35,3.45,2.35,1.85,0,2.93-.87,2.93-2.26,0-1.54-1.51-2.06-3.45-2.75-2.29-.81-4.32-1.74-4.32-4.46,0-2.26,1.77-3.82,4.75-3.82,2.58,0,4.43,1.13,4.98,3.33l-1.85,.46c-.38-1.3-1.54-1.97-3.13-1.97-1.71,0-2.72,.81-2.72,2.03,0,1.39,1.33,1.94,3.01,2.55,2.46,.9,4.78,1.68,4.78,4.66,0,2.46-1.91,4.06-5.01,4.06-2.93,0-4.81-1.33-5.36-3.65Z"/><path d="M52.93,84.25v-2.84c0-3.82,2.23-6.14,5.88-6.14s5.88,2.32,5.88,6.14v2.84c0,3.82-2.23,6.14-5.88,6.14s-5.88-2.32-5.88-6.14Zm9.68,.06v-2.96c0-2.72-1.45-4.2-3.8-4.2s-3.8,1.48-3.8,4.2v2.96c0,2.72,1.45,4.2,3.8,4.2s3.8-1.48,3.8-4.2Z"/><path d="M73.61,90.07h-1.77l-5.1-14.34v-.14h2.09l3.97,11.68,3.94-11.68h1.97v.14l-5.1,14.34Z"/><path d="M80.77,84.25v-2.84c0-3.82,2.23-6.14,5.88-6.14s5.88,2.32,5.88,6.14v2.84c0,3.82-2.23,6.14-5.88,6.14s-5.88-2.32-5.88-6.14Zm9.68,.06v-2.96c0-2.72-1.45-4.2-3.8-4.2s-3.8,1.48-3.8,4.2v2.96c0,2.72,1.45,4.2,3.8,4.2s3.8-1.48,3.8-4.2Z"/><path d="M98.44,90.07h-2.09v-14.49h1.59l.43,1.74c.67-1.07,1.85-1.74,3.56-1.74h1.51v2.11h-1.71c-1.77,0-3.3,.64-3.3,3.71v8.66Z"/><path d="M112.61,90.07h-2.43c-2.35,0-3.39-1.16-3.39-3.59v-9.1h-2.03v-1.8h2.11l.32-3.19h1.68v3.19h3.97v1.8h-3.97v9.01c0,1.42,.52,1.88,1.51,1.88h2.23v1.8Z"/><path d="M115.62,70.78c0-.81,.64-1.45,1.45-1.45s1.48,.64,1.48,1.45-.64,1.48-1.48,1.48-1.45-.67-1.45-1.48Zm.41,4.81h2.09v14.49h-2.09v-14.49Z"/><path d="M131.15,79.47c-.46-1.48-1.68-2.32-3.33-2.32-2.46,0-3.8,1.62-3.8,4.2v2.96c0,2.55,1.36,4.2,3.8,4.2,1.62,0,2.81-.84,3.3-2.29l1.88,.52c-.67,2.35-2.61,3.65-5.19,3.65-3.62,0-5.88-2.32-5.88-6.14v-2.84c0-3.82,2.26-6.14,5.88-6.14,2.69,0,4.64,1.27,5.33,3.65l-2,.55Z"/><path d="M141.64,90.39c-3.59,0-5.82-2.32-5.82-6.17v-2.78c0-3.91,2.23-6.17,5.82-6.17,3.39,0,5.5,2.32,5.5,6.17v2.09h-9.24v.81c0,2.72,1.42,4.2,3.74,4.2,1.56,0,2.78-.81,3.3-2.26l1.91,.52c-.72,2.32-2.69,3.59-5.21,3.59Zm-3.74-8.55l7.16-.03v-.55c0-2.69-1.3-4.14-3.42-4.14-2.32,0-3.74,1.48-3.74,4.2v.52Z"/><path d="M149.72,86.74l1.94-.52c.49,1.59,1.68,2.35,3.45,2.35,1.85,0,2.93-.87,2.93-2.26,0-1.54-1.51-2.06-3.45-2.75-2.29-.81-4.32-1.74-4.32-4.46,0-2.26,1.77-3.82,4.75-3.82,2.58,0,4.43,1.13,4.98,3.33l-1.85,.46c-.38-1.3-1.54-1.97-3.13-1.97-1.71,0-2.72,.81-2.72,2.03,0,1.39,1.33,1.94,3.01,2.55,2.46,.9,4.78,1.68,4.78,4.66,0,2.46-1.91,4.06-5.01,4.06-2.93,0-4.81-1.33-5.36-3.65Z"/><path d="M170.18,69.79h5.21c4.11,0,6.26,1.85,6.26,5.53v1.3c0,3.65-2.29,5.56-6.26,5.56h-2.98v7.88h-2.23v-20.28Zm2.23,2.06v8.29h3.42c2.29,0,3.59-1.25,3.59-3.56v-1.19c0-2.38-1.22-3.53-3.59-3.53h-3.42Z"/><path d="M186.54,80.66v9.42h-2.09v-20.28h2.09v7.45c.87-1.27,2.29-1.97,4.08-1.97,3.22,0,5.1,2.03,5.1,5.19v9.62h-2.09v-9.5c0-2.23-1.48-3.42-3.33-3.42-2.11,0-3.74,1.54-3.77,3.51Z"/><path d="M199.41,84.25v-2.84c0-3.82,2.23-6.14,5.88-6.14s5.88,2.32,5.88,6.14v2.84c0,3.82-2.23,6.14-5.88,6.14s-5.88-2.32-5.88-6.14Zm9.68,.06v-2.96c0-2.72-1.45-4.2-3.8-4.2s-3.8,1.48-3.8,4.2v2.96c0,2.72,1.45,4.2,3.8,4.2s3.8-1.48,3.8-4.2Z"/><path d="M221.42,90.07h-2.43c-2.35,0-3.39-1.16-3.39-3.59v-9.1h-2.03v-1.8h2.11l.32-3.19h1.68v3.19h3.97v1.8h-3.97v9.01c0,1.42,.52,1.88,1.51,1.88h2.23v1.8Z"/><path d="M224.26,84.25v-2.84c0-3.82,2.23-6.14,5.88-6.14s5.88,2.32,5.88,6.14v2.84c0,3.82-2.23,6.14-5.88,6.14s-5.88-2.32-5.88-6.14Zm9.68,.06v-2.96c0-2.72-1.45-4.2-3.8-4.2s-3.8,1.48-3.8,4.2v2.96c0,2.72,1.45,4.2,3.8,4.2s3.8-1.48,3.8-4.2Z"/><path d="M241.94,90.07h-2.09v-14.49h1.59l.43,1.74c.78-1.27,2-2.06,3.59-2.06,1.97,0,3.39,.93,4.03,2.61,.75-1.62,2.09-2.61,3.91-2.61,2.72,0,4.4,1.8,4.4,4.84v9.97h-2.09v-9.76c0-2-.9-3.16-2.61-3.16-1.83,0-3.16,1.3-3.24,4.43v8.49h-2.09v-9.76c0-2-.9-3.16-2.61-3.16-1.83,0-3.16,1.3-3.24,4.43v8.49Z"/><path d="M267.34,90.39c-3.59,0-5.82-2.32-5.82-6.17v-2.78c0-3.91,2.23-6.17,5.82-6.17,3.39,0,5.5,2.32,5.5,6.17v2.09h-9.24v.81c0,2.72,1.42,4.2,3.74,4.2,1.56,0,2.78-.81,3.3-2.26l1.91,.52c-.72,2.32-2.69,3.59-5.21,3.59Zm-3.74-8.55l7.16-.03v-.55c0-2.69-1.3-4.14-3.42-4.14-2.32,0-3.74,1.48-3.74,4.2v.52Z"/><path d="M282.73,90.07h-2.43c-2.35,0-3.39-1.16-3.39-3.59v-9.1h-2.03v-1.8h2.11l.32-3.19h1.68v3.19h3.97v1.8h-3.97v9.01c0,1.42,.52,1.88,1.51,1.88h2.23v1.8Z"/><path d="M291.39,90.39c-3.59,0-5.82-2.32-5.82-6.17v-2.78c0-3.91,2.23-6.17,5.82-6.17,3.39,0,5.5,2.32,5.5,6.17v2.09h-9.24v.81c0,2.72,1.42,4.2,3.74,4.2,1.56,0,2.78-.81,3.3-2.26l1.91,.52c-.72,2.32-2.69,3.59-5.21,3.59Zm-3.74-8.55l7.16-.03v-.55c0-2.69-1.3-4.14-3.42-4.14-2.32,0-3.74,1.48-3.74,4.2v.52Z"/><path d="M299.76,84.25v-2.84c0-3.82,2.23-6.14,5.88-6.14s5.88,2.32,5.88,6.14v2.84c0,3.82-2.23,6.14-5.88,6.14s-5.88-2.32-5.88-6.14Zm9.68,.06v-2.96c0-2.72-1.45-4.2-3.8-4.2s-3.8,1.48-3.8,4.2v2.96c0,2.72,1.45,4.2,3.8,4.2s3.8-1.48,3.8-4.2Z"/><path d="M317.43,90.07h-2.09v-14.49h1.59l.43,1.74c.67-1.07,1.85-1.74,3.56-1.74h1.51v2.11h-1.71c-1.77,0-3.3,.64-3.3,3.71v8.66Z"/></g><g><path d="M330.36,85.67l2.14-.52c.23,2.09,1.71,3.22,3.88,3.22s3.85-1.33,4.14-3.36c.32-2.26-1.42-3.27-3.39-4.4-2.52-1.42-5.01-2.87-4.46-6.4,.41-2.84,3.01-4.72,6.14-4.72s5.01,1.54,5.33,4.17l-2.09,.52c-.32-1.74-1.39-2.67-3.39-2.67s-3.53,1.13-3.8,2.9c-.38,2.29,1.51,3.24,3.59,4.43,2.72,1.45,4.72,3.13,4.23,6.49-.41,2.78-2.64,5.07-6.46,5.07-3.24,0-5.53-1.65-5.88-4.72Z"/><path d="M354.67,88.45c-.99,1.25-2.38,1.94-4.09,1.94-3.22,0-4.9-2.14-4.46-5.27l1.36-9.53h2.09l-1.36,9.53c-.29,2.17,.93,3.39,2.84,3.39s3.48-1.04,4.06-3.68l1.3-9.24h2.09l-2.03,14.49h-1.56l-.23-1.62Z"/><path d="M366.69,90.39c-1.94,0-3.22-.81-3.88-2.11l-.72,1.8h-1.59l2.84-20.28h2.09l-1.04,7.47c1.04-1.3,2.52-2,4.26-2,3.3,0,5.04,2.38,4.52,6.11-.03,.23-.41,2.75-.43,2.98-.55,3.94-2.52,6.03-6.03,6.03Zm-3.3-5.94c-.23,3.01,1.13,4.06,3.04,4.06,2.49,0,3.8-1.36,4.23-4.4l.38-2.64c.38-2.81-.64-4.32-2.9-4.32s-3.91,1.25-4.37,4.64l-.38,2.67Z"/><path d="M382.16,90.07h-2.23c-2.23,0-3.36-1.01-2.98-3.74l1.27-8.95h-2.06l.26-1.8h2.11l.78-3.16h1.68l-.43,3.16h3.82l-.23,1.8h-3.85l-1.25,8.72c-.23,1.51,.03,2.17,1.27,2.17h2.06l-.23,1.8Z"/><path d="M388.97,80.6l-1.33,9.47h-2.09l2.03-14.49h1.59l.2,1.68c.81-1.07,2.11-1.68,3.79-1.68h1.42l-.32,2.11h-1.56c-1.94,0-3.24,.75-3.74,2.9Z"/><path d="M395.52,84.1l.41-2.84c.55-3.91,2.81-6,6.4-6s5.65,2.46,5.13,6.32l-.43,2.84c-.55,3.94-2.64,5.97-6.4,5.97s-5.62-2.46-5.1-6.29Zm9.44,.14l.38-2.81c.41-2.87-.81-4.29-3.07-4.29-2.4,0-3.88,1.42-4.29,4.26l-.38,2.84c-.38,2.87,.78,4.26,3.07,4.26,2.46,0,3.88-1.27,4.29-4.26Z"/><path d="M412.41,88.33l-1.04,7.53h-2.09l2.84-20.28h1.59l.2,1.74c1.04-1.33,2.52-2.06,4.29-2.06,3.3,0,5.04,2.38,4.52,6.11-.03,.23-.41,2.75-.43,2.98-.55,3.94-2.52,6.03-6.03,6.03-1.91,0-3.16-.78-3.85-2.06Zm1.01-7.04l-.46,3.22c-.2,2.96,1.16,4,3.04,4,2.49,0,3.8-1.36,4.23-4.4l.38-2.64c.38-2.81-.64-4.32-2.9-4.32-2.11,0-3.74,1.13-4.29,4.14Z"/><path d="M427.36,75.59h2.09l-2.03,14.49h-2.09l2.03-14.49Zm.17-4.75c.03-.81,.78-1.51,1.56-1.51,.84,0,1.39,.61,1.33,1.42-.06,.78-.78,1.51-1.59,1.51s-1.36-.64-1.3-1.42Z"/><path d="M442.74,86.77c-.96,2.38-3.1,3.62-5.53,3.62-3.71,0-5.65-2.46-5.13-6.29l.41-2.84c.52-3.77,2.67-6,6.4-6,2.78,0,4.4,1.39,4.87,3.65l-1.94,.52c-.41-1.48-1.45-2.29-3.01-2.29-2.49,0-3.88,1.59-4.26,4.26l-.38,2.84c-.35,2.75,.72,4.26,3.1,4.26,1.56,0,2.84-.75,3.59-2.23l1.88,.49Z"/><path d="M454.44,88.3c-1.04,1.36-2.52,2.09-4.32,2.09-3.3,0-5.04-2.38-4.52-6.11,.03-.23,.41-2.75,.43-2.98,.55-3.94,2.52-6.03,6.03-6.03,1.94,0,3.22,.81,3.88,2.11l.72-1.8h1.59l-2.03,14.49h-1.59l-.2-1.77Zm-3.82,.2c2.23,0,3.91-1.25,4.37-4.64l.38-2.64c.26-3.04-1.13-4.09-3.04-4.09-2.49,0-3.8,1.36-4.23,4.4l-.38,2.64c-.38,2.81,.64,4.32,2.9,4.32Z"/><path d="M465.08,69.79l-2.38,16.83c-.17,1.22,.2,1.65,1.16,1.65h1.65l-.23,1.8h-1.62c-2.55,0-3.33-1.39-2.98-3.71l2.32-16.57h2.09Z"/><path d="M477.27,69.79h5.13c4.11,0,5.94,2.03,5.45,5.59l-.12,.7c-.35,2.67-1.91,4.4-4.23,5.07l2.52,8.86-.03,.06h-2.2l-2.43-8.6h-3.48l-1.22,8.6h-2.23l2.84-20.28Zm1.94,2.06l-1.04,7.56h3.22c2.38,0,3.77-1.25,4.14-3.53l.12-.61c.38-2.2-.72-3.42-3.13-3.42h-3.3Z"/><path d="M498.25,88.3c-1.04,1.36-2.52,2.09-4.32,2.09-3.3,0-5.04-2.38-4.52-6.11,.03-.23,.41-2.75,.43-2.98,.55-3.94,2.52-6.03,6.03-6.03,1.94,0,3.22,.81,3.88,2.11l.72-1.8h1.59l-2.03,14.49h-1.59l-.2-1.77Zm-3.82,.2c2.23,0,3.91-1.25,4.37-4.64l.38-2.64c.26-3.04-1.13-4.09-3.04-4.09-2.49,0-3.8,1.36-4.23,4.4l-.38,2.64c-.38,2.81,.64,4.32,2.9,4.32Z"/><path d="M506.39,75.59h2.09l-2.03,14.49h-2.09l2.03-14.49Zm.17-4.75c.03-.81,.78-1.51,1.56-1.51,.84,0,1.39,.61,1.33,1.42-.06,.78-.78,1.51-1.59,1.51s-1.36-.64-1.3-1.42Z"/><path d="M514.27,80.45l-1.33,9.62h-2.09l2.03-14.49h1.59l.12,1.85c1.01-1.36,2.52-2.17,4.32-2.17,3.36,0,4.87,2.09,4.4,5.27l-1.36,9.53h-2.09l1.36-9.53c.32-2.35-.75-3.39-2.78-3.39s-3.74,1.45-4.17,3.3Z"/><path d="M544.95,80.89h-8.72l-1.27,9.18h-2.23l2.84-20.28h2.23l-1.27,9.04h8.72l1.27-9.04h2.23l-2.84,20.28h-2.23l1.27-9.18Z"/><path d="M550.63,84.1l.41-2.84c.55-3.91,2.81-6,6.4-6s5.65,2.46,5.13,6.32l-.43,2.84c-.55,3.94-2.64,5.97-6.4,5.97s-5.62-2.46-5.1-6.29Zm9.44,.14l.38-2.81c.41-2.87-.81-4.29-3.07-4.29-2.4,0-3.88,1.42-4.29,4.26l-.38,2.84c-.38,2.87,.78,4.26,3.07,4.26,2.46,0,3.88-1.27,4.29-4.26Z"/><path d="M574.27,88.3c-1.04,1.36-2.52,2.09-4.32,2.09-3.3,0-5.04-2.38-4.52-6.11,.03-.23,.41-2.75,.43-2.98,.55-3.94,2.52-6.03,6.03-6.03,1.91,0,3.19,.78,3.85,2.06l1.04-7.53h2.11l-2.84,20.28h-1.59l-.2-1.77Zm-3.82,.2c2.23,0,3.91-1.25,4.37-4.64l.35-2.35c.35-3.24-1.04-4.37-3.01-4.37-2.49,0-3.8,1.36-4.23,4.4l-.38,2.64c-.38,2.81,.64,4.32,2.9,4.32Z"/><path d="M580.5,84.1l.41-2.84c.55-3.91,2.81-6,6.4-6s5.65,2.46,5.13,6.32l-.43,2.84c-.55,3.94-2.64,5.97-6.4,5.97s-5.62-2.46-5.1-6.29Zm9.44,.14l.38-2.81c.41-2.87-.81-4.29-3.07-4.29-2.4,0-3.88,1.42-4.29,4.26l-.38,2.84c-.38,2.87,.78,4.26,3.07,4.26,2.46,0,3.88-1.27,4.29-4.26Z"/><path d="M598.84,96.18c-3.62,0-5.68-1.54-5.33-4.26l.06-.41c.17-1.42,1.07-2.72,3.01-3.53-.61-.38-.84-.84-.81-1.45,.06-.7,.32-1.39,1.54-1.83-1.48-.93-1.97-2.55-1.74-4.26l.06-.38c.35-2.67,2.55-4.81,6-4.81,2.09,0,3.53,.61,4.23,2.49,.52-1.71,1.33-2.17,2.4-2.17h.67l-.26,1.85h-.78c-.87,0-1.22,.41-1.39,1.59l-.2,1.39c-.41,2.84-2.52,4.9-6.11,4.9-2.09,0-2.52,.55-2.52,1.16,0,.52,.43,.87,2.14,.87,3.88,0,5.82,1.65,5.5,4.26l-.06,.41c-.35,2.67-2.96,4.17-6.4,4.17Zm4.32-4.29l.06-.41c.2-1.48-1.22-2.38-3.39-2.38-2.4,0-3.94,.87-4.17,2.49l-.06,.38c-.17,1.39,1.01,2.4,3.39,2.4,2.55,0,3.97-.93,4.17-2.49Zm1.07-11.36l.06-.52c.29-1.8-.84-2.96-2.78-2.96-2.23,0-3.53,1.22-3.8,3.04l-.09,.49c-.23,1.71,.72,2.98,2.84,2.98s3.51-1.16,3.77-3.04Z"/><path d="M612.71,80.6l-1.33,9.47h-2.09l2.03-14.49h1.59l.2,1.68c.81-1.07,2.11-1.68,3.79-1.68h1.42l-.32,2.11h-1.56c-1.94,0-3.24,.75-3.74,2.9Z"/><path d="M628.04,88.3c-1.04,1.36-2.52,2.09-4.32,2.09-3.3,0-5.04-2.38-4.52-6.11,.03-.23,.41-2.75,.43-2.98,.55-3.94,2.52-6.03,6.03-6.03,1.94,0,3.22,.81,3.88,2.11l.72-1.8h1.59l-2.03,14.49h-1.59l-.2-1.77Zm-3.82,.2c2.23,0,3.91-1.25,4.37-4.64l.38-2.64c.26-3.04-1.13-4.09-3.04-4.09-2.49,0-3.8,1.36-4.23,4.4l-.38,2.64c-.38,2.81,.64,4.32,2.9,4.32Z"/><path d="M636.47,88.33l-1.04,7.53h-2.09l2.84-20.28h1.59l.2,1.74c1.04-1.33,2.52-2.06,4.29-2.06,3.3,0,5.04,2.38,4.52,6.11-.03,.23-.41,2.75-.43,2.98-.55,3.94-2.52,6.03-6.03,6.03-1.91,0-3.16-.78-3.85-2.06Zm1.01-7.04l-.46,3.22c-.2,2.96,1.16,4,3.04,4,2.49,0,3.8-1.36,4.23-4.4l.38-2.64c.38-2.81-.64-4.32-2.9-4.32-2.11,0-3.74,1.13-4.29,4.14Z"/><path d="M652.4,81.47l-1.22,8.6h-2.09l2.84-20.28h2.09l-1.04,7.47c1.01-1.27,2.46-2,4.17-2,3.36,0,4.87,2.09,4.4,5.27l-1.36,9.53h-2.09l1.36-9.53c.35-2.35-.72-3.39-2.78-3.39s-3.85,1.56-4.17,3.51c0,.03-.09,.58-.12,.81Z"/></g><g><path d="M11.91,119.94H5.48l-2.11,4.9H.64l.03-.23,8.89-20.05h2.67l3.22,20.05v.23h-2.81l-.72-4.9Zm-.41-2.55l-1.25-8.46-3.68,8.46h4.93Z"/><path d="M23.52,125.18c-3.77,0-5.82-2.46-5.27-6.49l.35-2.38c.52-3.82,3.07-6.32,6.69-6.32s5.68,2.43,5.13,6.52l-.29,2h-9.15l-.06,.46c-.32,2.43,.64,3.85,2.75,3.85,1.42,0,2.61-.7,3.22-2l2.52,.67c-1.01,2.46-3.22,3.68-5.88,3.68Zm-2.26-8.72h6.46c.03-.23,.06-.49,.06-.55,.26-2.29-.67-3.56-2.67-3.56-2.11,0-3.51,1.48-3.82,3.94l-.03,.17Z"/><path d="M36.47,115.97l-1.25,8.86h-2.69l2.03-14.49h2.06l.29,1.74c.84-1.13,2.14-1.74,3.88-1.74h1.42l-.38,2.64h-1.54c-2.09,0-3.3,.78-3.82,2.98Z"/><path d="M42.96,118.64l.38-2.58c.52-3.85,2.98-6.05,6.58-6.05,3.91,0,6.03,2.64,5.48,6.58l-.38,2.58c-.55,3.88-2.84,6.03-6.58,6.03s-6.03-2.61-5.48-6.55Zm9.39,.2l.32-2.35c.38-2.69-.72-4.09-2.87-4.09s-3.45,1.42-3.8,3.97l-.32,2.35c-.38,2.69,.72,4.06,2.84,4.06,2.23,0,3.45-1.3,3.82-3.94Z"/><path d="M61.82,130.98c-3.8,0-5.91-1.59-5.56-4.46l.03-.35c.17-1.48,1.01-2.72,2.93-3.56-.64-.41-.9-.9-.84-1.54,.06-.72,.38-1.39,1.59-1.8-1.33-.96-1.83-2.46-1.59-4.09l.03-.32c.41-2.81,2.67-4.87,6.2-4.87,1.97,0,3.53,.55,4.32,2.43,.55-1.65,1.39-2.09,2.49-2.09h.78l-.32,2.35h-.99c-.84,0-1.22,.35-1.36,1.36l-.14,1.01c-.38,2.9-2.58,4.98-6.32,4.98-1.91,0-2.29,.43-2.29,.99,0,.46,.35,.75,1.94,.75,4.17,0,6.11,1.77,5.79,4.43l-.03,.38c-.32,2.78-3.01,4.37-6.66,4.37Zm3.97-4.52l.06-.32c.17-1.33-1.07-2.11-3.07-2.11-2.23,0-3.59,.72-3.8,2.2l-.03,.32c-.17,1.27,.93,2.14,3.07,2.14,2.35,0,3.59-.75,3.77-2.23Zm.93-11.24l.06-.38c.26-1.54-.7-2.61-2.4-2.61-1.91,0-3.04,1.07-3.3,2.64l-.06,.38c-.2,1.51,.64,2.61,2.49,2.61s2.98-1.01,3.22-2.64Z"/><path d="M76.28,115.97l-1.25,8.86h-2.69l2.03-14.49h2.06l.29,1.74c.84-1.13,2.14-1.74,3.88-1.74h1.42l-.38,2.64h-1.54c-2.09,0-3.3,.78-3.82,2.98Z"/><path d="M91.52,123.07c-1.01,1.36-2.46,2.11-4.23,2.11-3.36,0-5.16-2.43-4.61-6.23,.06-.41,.35-2.38,.41-2.78,.55-3.91,2.69-6.17,6.14-6.17,1.88,0,3.16,.78,3.8,2.14l.81-1.8h2.03l-2.03,14.49h-2.03l-.29-1.77Zm-3.45-.29c2.06,0,3.42-1.27,3.94-4.03l.38-2.72c.12-2.49-.93-3.62-2.75-3.62-2.4,0-3.51,1.51-3.91,4.2l-.29,2.03c-.35,2.55,.46,4.14,2.64,4.14Z"/><path d="M100.93,123.21l-1.04,7.42h-2.72l2.84-20.28h2.06l.29,1.77c1.01-1.36,2.46-2.11,4.23-2.11,3.36,0,5.16,2.43,4.61,6.23-.06,.41-.35,2.38-.41,2.78-.55,3.91-2.69,6.17-6.14,6.17-1.83,0-3.04-.72-3.71-1.97Zm.87-6.37l-.29,2.14c-.2,2.61,.87,3.8,2.72,3.8,2.4,0,3.51-1.51,3.91-4.2l.29-2.03c.35-2.55-.46-4.14-2.64-4.14s-3.56,1.42-4,4.43Z"/><path d="M117.33,115.48l-1.3,9.36h-2.72l2.84-20.28h2.72l-1.04,7.36c1.07-1.22,2.49-1.91,4.11-1.91,3.3,0,4.87,2.2,4.37,5.53l-1.3,9.3h-2.69l1.27-9.1c.35-2.38-.67-3.33-2.52-3.33s-3.3,1.33-3.74,3.07Z"/><path d="M131.85,130.63h-2.55l2.84-5.97-2.98-14.17v-.14h2.69l2.17,10.75,5.1-10.75h2.58v.14l-9.85,20.14Z"/><path d="M153.43,110.82l-1.97,14.02h-2.84l2.84-20.28h3.22l3.42,15.99,7.91-15.99h3.22l-2.87,20.28h-2.84l2-14.05-6.92,14.05h-2.14l-3.01-14.02Z"/><path d="M172.72,110.35h2.69l-2.03,14.49h-2.69l2.03-14.49Zm.17-4.72c.09-.96,.96-1.71,1.88-1.71,1.01,0,1.68,.81,1.59,1.8-.09,.9-.93,1.68-1.85,1.68-1.01,0-1.71-.78-1.62-1.77Z"/><path d="M181.56,115.86l-1.27,8.98h-2.69l2.03-14.49h2.06l.2,1.83c1.07-1.39,2.61-2.17,4.35-2.17,3.3,0,4.87,2.2,4.37,5.53l-1.3,9.3h-2.69l1.27-9.1c.35-2.38-.67-3.33-2.55-3.33s-3.45,1.48-3.77,3.39v.06Z"/><path d="M195.35,110.35h2.69l-2.03,14.49h-2.69l2.03-14.49Zm.17-4.72c.09-.96,.96-1.71,1.88-1.71,1.01,0,1.68,.81,1.59,1.8-.09,.9-.93,1.68-1.85,1.68-1.01,0-1.71-.78-1.62-1.77Z"/><path d="M201.29,115.31h8.43l-.35,2.55h-8.43l.35-2.55Z"/><path d="M212.01,120.29l2.75-.67c.2,1.94,1.59,2.98,3.62,2.98s3.51-1.22,3.74-2.95c.32-2.14-1.42-2.98-3.36-4.03-2.72-1.39-4.98-2.96-4.49-6.4,.43-2.96,3.07-5.01,6.46-5.01s5.36,1.68,5.56,4.52l-2.67,.64c-.23-1.65-1.22-2.58-3.04-2.58s-3.22,1.04-3.45,2.61c-.32,2.06,1.33,2.93,3.45,4,3.13,1.51,4.87,3.39,4.35,6.72-.46,2.75-2.67,5.07-6.75,5.07-3.39,0-5.85-1.71-6.17-4.9Z"/><path d="M236.78,123.1c-1.01,1.33-2.49,2.09-4.17,2.09-3.22,0-4.9-2.23-4.43-5.53l1.33-9.3h2.69l-1.3,9.1c-.32,2.26,.78,3.33,2.55,3.33,1.94,0,3.3-1.19,3.77-3.71l1.22-8.72h2.69l-2.03,14.49h-2.03l-.29-1.74Z"/><path d="M246.16,123.21l-1.04,7.42h-2.72l2.84-20.28h2.06l.29,1.77c1.01-1.36,2.46-2.11,4.23-2.11,3.36,0,5.16,2.43,4.61,6.23-.06,.41-.35,2.38-.41,2.78-.55,3.91-2.69,6.17-6.14,6.17-1.83,0-3.04-.72-3.71-1.97Zm.87-6.37l-.29,2.14c-.2,2.61,.87,3.8,2.72,3.8,2.4,0,3.51-1.51,3.91-4.2l.29-2.03c.35-2.55-.46-4.14-2.64-4.14s-3.56,1.42-4,4.43Z"/><path d="M264.39,125.18c-3.77,0-5.82-2.46-5.27-6.49l.35-2.38c.52-3.82,3.07-6.32,6.69-6.32s5.68,2.43,5.13,6.52l-.29,2h-9.15l-.06,.46c-.32,2.43,.64,3.85,2.75,3.85,1.42,0,2.61-.7,3.22-2l2.52,.67c-1.01,2.46-3.22,3.68-5.88,3.68Zm-2.26-8.72h6.46c.03-.23,.06-.49,.06-.55,.26-2.29-.67-3.56-2.67-3.56-2.11,0-3.51,1.48-3.82,3.94l-.03,.17Z"/><path d="M277.34,115.97l-1.25,8.86h-2.69l2.03-14.49h2.06l.29,1.74c.84-1.13,2.14-1.74,3.88-1.74h1.42l-.38,2.64h-1.54c-2.09,0-3.3,.78-3.82,2.98Z"/><path d="M295.1,121.39c-.93,2.43-3.19,3.8-5.74,3.8-3.94,0-6.08-2.61-5.53-6.55l.38-2.58c.52-3.74,2.84-6.05,6.58-6.05,2.98,0,4.72,1.48,5.24,3.85l-2.58,.67c-.41-1.42-1.36-2.11-2.78-2.11-2.23,0-3.48,1.54-3.8,3.97l-.32,2.35c-.38,2.64,.67,4.06,2.87,4.06,1.42,0,2.58-.78,3.19-2.03l2.49,.64Z"/><path d="M303.09,125.18c-3.77,0-5.82-2.46-5.27-6.49l.35-2.38c.52-3.82,3.07-6.32,6.69-6.32s5.68,2.43,5.13,6.52l-.29,2h-9.15l-.06,.46c-.32,2.43,.64,3.85,2.75,3.85,1.42,0,2.61-.7,3.22-2l2.52,.67c-1.01,2.46-3.22,3.68-5.88,3.68Zm-2.26-8.72h6.46c.03-.23,.06-.49,.06-.55,.26-2.29-.67-3.56-2.67-3.56-2.11,0-3.51,1.48-3.82,3.94l-.03,.17Z"/><path d="M317.26,104.56l-2.32,16.46c-.14,1.16,.2,1.56,1.13,1.56h1.68l-.32,2.26h-1.8c-2.78,0-3.68-1.71-3.36-4.03l2.29-16.25h2.69Z"/><path d="M325.08,104.56l-2.32,16.46c-.14,1.16,.2,1.56,1.13,1.56h1.68l-.32,2.26h-1.8c-2.78,0-3.68-1.71-3.36-4.03l2.29-16.25h2.69Z"/></g><g><path d="M335.32,104.56h5.45c4.29,0,6.61,1.97,6.61,5.82v1.22c0,3.85-2.4,5.85-6.61,5.85h-2.61v7.39h-2.84v-20.28Zm2.84,2.61v7.68h3.04c2.11,0,3.33-1.13,3.33-3.3v-1.1c0-2.17-1.16-3.27-3.33-3.27h-3.04Z"/><path d="M357.8,122.98c-.84,1.45-2.2,2.2-4,2.2-2.95,0-4.58-1.59-4.58-4.17v-.46c0-2.75,2.09-4.37,6.03-4.37h2.46v-1.22c0-1.68-.9-2.55-2.72-2.55-1.51,0-2.52,.78-2.87,1.97l-2.52-.67c.58-2.17,2.46-3.71,5.45-3.71,3.42,0,5.36,1.62,5.36,5.01v9.82h-2.03l-.58-1.85Zm-.09-3.88v-.87h-2.52c-2.38,0-3.27,.87-3.27,2.17v.38c0,1.25,.9,2.03,2.52,2.03,1.85,0,3.27-1.04,3.27-3.71Z"/><path d="M366.81,104.56v16.46c0,1.36,.58,1.56,1.33,1.56h1.68v2.26h-1.88c-2.98,0-3.82-1.62-3.82-4.03v-16.25h2.69Z"/><path d="M377.88,125.18c-3.71,0-6.08-2.43-6.08-6.37v-2.4c0-4.14,2.38-6.4,6.08-6.4s5.85,2.43,5.85,6.4v2.11h-9.24v.43c0,2.43,1.25,3.88,3.39,3.88,1.45,0,2.52-.75,2.96-2.03l2.55,.7c-.72,2.38-2.81,3.68-5.5,3.68Zm-3.39-8.72h6.55v-.32c-.03-2.4-1.16-3.8-3.16-3.8-2.14,0-3.39,1.45-3.39,3.91v.2Z"/><path d="M386.42,118.9v-2.61c0-3.85,2.38-6.29,6.11-6.29s6.11,2.43,6.11,6.29v2.61c0,3.85-2.35,6.29-6.11,6.29s-6.11-2.43-6.11-6.29Zm9.53,0v-2.61c0-2.43-1.22-3.88-3.42-3.88s-3.42,1.45-3.42,3.88v2.61c0,2.43,1.25,3.88,3.42,3.88s3.42-1.45,3.42-3.88Z"/><path d="M410.87,114.55c-.43-1.36-1.54-2.14-3.04-2.14-2.26,0-3.45,1.54-3.45,3.88v2.61c0,2.32,1.19,3.88,3.45,3.88,1.51,0,2.61-.78,3.01-2.09l2.49,.67c-.7,2.46-2.72,3.82-5.5,3.82-3.77,0-6.14-2.43-6.14-6.29v-2.61c0-3.85,2.38-6.29,6.14-6.29,2.78,0,4.9,1.27,5.59,3.82l-2.55,.72Z"/><path d="M418.78,104.56v16.46c0,1.36,.58,1.56,1.33,1.56h1.68v2.26h-1.88c-2.98,0-3.82-1.62-3.82-4.03v-16.25h2.69Z"/><path d="M424.26,105.66c0-.96,.81-1.74,1.77-1.74s1.74,.78,1.74,1.74-.75,1.74-1.74,1.74-1.77-.78-1.77-1.74Zm.41,4.69h2.69v14.49h-2.69v-14.49Z"/><path d="M434.25,124.84h-2.69v-14.49h2.06l.52,1.77c.81-1.33,2.09-2.11,3.65-2.11,2,0,3.45,.96,4.11,2.67,.78-1.68,2.2-2.67,3.97-2.67,2.81,0,4.55,1.91,4.55,5.16v9.68h-2.69v-9.24c0-2.14-.87-3.19-2.46-3.19-1.74,0-2.87,1.36-2.93,4.14v8.29h-2.69v-9.24c0-2.14-.87-3.19-2.46-3.19-1.71,0-2.87,1.36-2.93,4.14v8.29Z"/><path d="M462.3,122.98c-.84,1.45-2.2,2.2-4,2.2-2.95,0-4.58-1.59-4.58-4.17v-.46c0-2.75,2.09-4.37,6.03-4.37h2.46v-1.22c0-1.68-.9-2.55-2.72-2.55-1.51,0-2.52,.78-2.87,1.97l-2.52-.67c.58-2.17,2.46-3.71,5.45-3.71,3.42,0,5.36,1.62,5.36,5.01v9.82h-2.03l-.58-1.85Zm-.09-3.88v-.87h-2.52c-2.38,0-3.27,.87-3.27,2.17v.38c0,1.25,.9,2.03,2.52,2.03,1.85,0,3.27-1.04,3.27-3.71Z"/><path d="M475.65,124.84h-2.4c-2.69,0-3.8-1.39-3.8-3.94v-8.29h-1.91v-2.26h2.03l.35-3.19h2.23v3.19h3.65v2.26h-3.65v8.23c0,1.39,.55,1.74,1.42,1.74h2.09v2.26Z"/><path d="M478.26,118.9v-2.61c0-3.85,2.38-6.29,6.11-6.29s6.11,2.43,6.11,6.29v2.61c0,3.85-2.35,6.29-6.11,6.29s-6.11-2.43-6.11-6.29Zm9.53,0v-2.61c0-2.43-1.22-3.88-3.42-3.88s-3.42,1.45-3.42,3.88v2.61c0,2.43,1.25,3.88,3.42,3.88s3.42-1.45,3.42-3.88Z"/><path d="M496.45,104.56v16.46c0,1.36,.58,1.56,1.33,1.56h1.68v2.26h-1.88c-2.98,0-3.82-1.62-3.82-4.03v-16.25h2.69Z"/><path d="M501.44,118.9v-2.61c0-3.85,2.38-6.29,6.11-6.29s6.11,2.43,6.11,6.29v2.61c0,3.85-2.35,6.29-6.11,6.29s-6.11-2.43-6.11-6.29Zm9.53,0v-2.61c0-2.43-1.22-3.88-3.42-3.88s-3.42,1.45-3.42,3.88v2.61c0,2.43,1.25,3.88,3.42,3.88s3.42-1.45,3.42-3.88Z"/><path d="M522.24,130.98c-3.79,0-6.2-1.62-6.2-4.4v-.38c0-1.51,.64-2.78,2.4-3.62-.78-.43-1.01-.96-1.01-1.59,0-.78,.32-1.33,1.27-1.68-1.54-.99-2.11-2.46-2.11-4.09v-.32c0-2.96,2.06-4.9,5.59-4.9,1.97,0,3.71,.52,4.72,2.35,.38-1.56,1.1-2,2.11-2h.78v2.32h-1.01c-.75,0-1.07,.38-1.07,1.36v1.01c0,2.95-1.88,4.98-5.74,4.98-1.77,0-2.14,.35-2.14,.9,0,.52,.35,.84,2.32,.84,4.08,0,6.29,1.65,6.29,4.37v.43c0,2.78-2.4,4.4-6.2,4.4Zm3.51-4.52v-.23c0-1.45-1.27-2.2-3.51-2.2s-3.51,.75-3.51,2.2v.23c0,1.48,1.25,2.23,3.51,2.23s3.51-.75,3.51-2.23Zm-.67-11.21v-.38c0-1.56-1.04-2.64-2.93-2.64s-2.9,1.07-2.9,2.64v.38c0,1.56,.99,2.61,2.9,2.61s2.93-1.04,2.93-2.61Z"/><path d="M536.11,130.63h-2.52l1.97-5.97-4.98-14.17v-.14h2.69l3.68,10.75,3.59-10.75h2.58v.14l-7.01,20.14Z"/><path d="M552.31,104.56h11.18v2.61h-8.34v6.14h7.62v2.61h-7.62v6.32h8.49v2.61h-11.33v-20.28Z"/><path d="M569.58,124.84h-2.69v-14.49h2.06l.52,1.77c.81-1.33,2.09-2.11,3.65-2.11,2,0,3.45,.96,4.11,2.67,.78-1.68,2.2-2.67,3.97-2.67,2.81,0,4.55,1.91,4.55,5.16v9.68h-2.69v-9.24c0-2.14-.87-3.19-2.46-3.19-1.74,0-2.87,1.36-2.93,4.14v8.29h-2.69v-9.24c0-2.14-.87-3.19-2.46-3.19-1.71,0-2.87,1.36-2.93,4.14v8.29Z"/><path d="M597.62,122.98c-.84,1.45-2.2,2.2-4,2.2-2.95,0-4.58-1.59-4.58-4.17v-.46c0-2.75,2.09-4.37,6.03-4.37h2.46v-1.22c0-1.68-.9-2.55-2.72-2.55-1.51,0-2.52,.78-2.87,1.97l-2.52-.67c.58-2.17,2.46-3.71,5.45-3.71,3.42,0,5.36,1.62,5.36,5.01v9.82h-2.03l-.58-1.85Zm-.09-3.88v-.87h-2.52c-2.38,0-3.27,.87-3.27,2.17v.38c0,1.25,.9,2.03,2.52,2.03,1.85,0,3.27-1.04,3.27-3.71Z"/><path d="M609.24,130.98c-3.8,0-6.2-1.62-6.2-4.4v-.38c0-1.51,.64-2.78,2.4-3.62-.78-.43-1.01-.96-1.01-1.59,0-.78,.32-1.33,1.27-1.68-1.54-.99-2.11-2.46-2.11-4.09v-.32c0-2.96,2.06-4.9,5.59-4.9,1.97,0,3.71,.52,4.72,2.35,.38-1.56,1.1-2,2.11-2h.78v2.32h-1.01c-.75,0-1.07,.38-1.07,1.36v1.01c0,2.95-1.88,4.98-5.74,4.98-1.77,0-2.14,.35-2.14,.9,0,.52,.35,.84,2.32,.84,4.09,0,6.29,1.65,6.29,4.37v.43c0,2.78-2.4,4.4-6.2,4.4Zm3.51-4.52v-.23c0-1.45-1.27-2.2-3.51-2.2s-3.51,.75-3.51,2.2v.23c0,1.48,1.25,2.23,3.51,2.23s3.51-.75,3.51-2.23Zm-.67-11.21v-.38c0-1.56-1.04-2.64-2.93-2.64s-2.9,1.07-2.9,2.64v.38c0,1.56,.99,2.61,2.9,2.61s2.93-1.04,2.93-2.61Z"/><path d="M621.93,124.84h-2.69v-14.49h2.06l.52,1.8c.72-1.13,1.94-1.83,3.71-1.8h1.42v2.64h-1.65c-2.06,0-3.36,.72-3.36,3.82v8.02Z"/><path d="M637.37,122.98c-.84,1.45-2.2,2.2-4,2.2-2.95,0-4.58-1.59-4.58-4.17v-.46c0-2.75,2.09-4.37,6.03-4.37h2.46v-1.22c0-1.68-.9-2.55-2.72-2.55-1.51,0-2.52,.78-2.87,1.97l-2.52-.67c.58-2.17,2.46-3.71,5.45-3.71,3.42,0,5.36,1.62,5.36,5.01v9.82h-2.03l-.58-1.85Zm-.09-3.88v-.87h-2.52c-2.38,0-3.27,.87-3.27,2.17v.38c0,1.25,.9,2.03,2.52,2.03,1.85,0,3.27-1.04,3.27-3.71Z"/><path d="M646.72,124.84h-2.69v-14.49h2.06l.52,1.77c.81-1.33,2.09-2.11,3.65-2.11,2,0,3.45,.96,4.11,2.67,.78-1.68,2.2-2.67,3.97-2.67,2.81,0,4.55,1.91,4.55,5.16v9.68h-2.69v-9.24c0-2.14-.87-3.19-2.46-3.19-1.74,0-2.87,1.36-2.93,4.14v8.29h-2.69v-9.24c0-2.14-.87-3.19-2.46-3.19-1.71,0-2.87,1.36-2.93,4.14v8.29Z"/></g><g><path d="M0,154.91l3.27-.9c.46,1.83,1.8,2.78,3.71,2.78s3.07-1.1,3.07-2.61c0-1.94-1.83-2.64-4-3.42-3.48-1.3-5.45-3.04-5.45-6.11,0-3.48,2.55-5.71,6.37-5.71,3.42,0,5.56,1.83,6.29,4.84l-3.13,.87c-.46-1.65-1.45-2.52-3.16-2.52-1.83,0-2.93,1.04-2.93,2.43,0,1.65,1.42,2.35,3.62,3.16,4.17,1.51,5.82,3.3,5.82,6.34,0,3.56-2.55,5.91-6.52,5.91s-6.23-1.74-6.98-5.07Z"/><path d="M21.06,165.4h-3.1l1.97-6.03-4.92-14.08v-.17h3.3l3.3,9.97,3.27-9.97h3.16v.17l-6.98,20.11Z"/><path d="M33.78,151.03v8.58h-3.3v-14.49h2.49l.64,1.83c.9-1.42,2.38-2.2,4.06-2.2,3.16,0,5.13,2.2,5.13,5.56v9.3h-3.3v-8.66c0-2.35-1.13-3.24-2.75-3.24-1.8,0-2.93,1.39-2.96,3.33Z"/><path d="M46.06,153.52v-2.32c0-3.94,2.46-6.46,6.34-6.46s6.34,2.52,6.34,6.46v2.32c0,3.94-2.49,6.46-6.34,6.46s-6.34-2.52-6.34-6.46Zm9.39-.03v-2.26c0-2.14-1.04-3.53-3.04-3.53s-3.04,1.39-3.04,3.53v2.26c0,2.11,1.04,3.53,3.04,3.53s3.04-1.42,3.04-3.53Z"/><path d="M65.45,158.01v7.39h-3.3v-20.28h2.49l.61,1.8c.87-1.42,2.29-2.2,4.17-2.2,3.19,0,5.33,2.4,5.33,6.06v3.13c0,3.65-2.14,6.06-5.33,6.06-1.74,0-3.1-.67-3.97-1.94Zm0-7.01v2.55c.17,2.23,1.1,3.45,3.01,3.45,1.71,0,2.98-1.22,2.98-3.56v-2.2c0-2.38-1.25-3.56-2.98-3.56-1.91,0-2.84,1.16-3.01,3.33Z"/><path d="M85.06,159.6h-2.38c-3.04,0-4.17-1.62-4.17-4.29v-7.47h-1.77v-2.72h1.88l.38-3.19h2.81v3.19h3.3v2.72h-3.3v7.45c0,1.39,.61,1.59,1.33,1.59h1.91v2.72Z"/><path d="M87.64,140.54c0-1.13,.93-2.03,2.06-2.03s2.03,.9,2.03,2.03-.9,2.03-2.03,2.03-2.06-.9-2.06-2.03Zm.41,4.58h3.3v14.49h-3.3v-14.49Z"/><path d="M103.86,149.61c-.38-1.25-1.36-1.91-2.78-1.91-2.06,0-3.04,1.45-3.04,3.53v2.26c0,2.06,1.01,3.53,3.04,3.53,1.39,0,2.4-.67,2.78-1.85l3.04,.84c-.67,2.58-2.78,3.97-5.82,3.97-3.85,0-6.34-2.52-6.34-6.46v-2.32c0-3.94,2.49-6.46,6.34-6.46,2.93,0,5.19,1.27,5.88,4l-3.1,.87Z"/><path d="M127.96,159.6h-12.86v-1.13l8.26-15.96h-7.85v-3.19h12.46v1.13l-8.26,15.96h8.26v3.19Z"/><path d="M130.34,153.52v-2.32c0-3.94,2.46-6.46,6.34-6.46s6.34,2.52,6.34,6.46v2.32c0,3.94-2.49,6.46-6.34,6.46s-6.34-2.52-6.34-6.46Zm9.39-.03v-2.26c0-2.14-1.04-3.53-3.04-3.53s-3.04,1.39-3.04,3.53v2.26c0,2.11,1.04,3.53,3.04,3.53s3.04-1.42,3.04-3.53Z"/><path d="M149.72,151.03v8.58h-3.3v-14.49h2.49l.64,1.83c.9-1.42,2.38-2.2,4.06-2.2,3.16,0,5.13,2.2,5.13,5.56v9.3h-3.3v-8.66c0-2.35-1.13-3.24-2.75-3.24-1.8,0-2.93,1.39-2.96,3.33Z"/><path d="M168.32,159.98c-3.85,0-6.32-2.52-6.32-6.55v-2.09c0-4.32,2.46-6.61,6.32-6.61s6.23,2.52,6.23,6.61v2.2h-9.24v.03c0,2.11,1.01,3.53,3.01,3.53,1.3,0,2.26-.64,2.64-1.77l3.19,.87c-.78,2.43-2.93,3.77-5.82,3.77Zm-3.01-8.87h5.94v-.12c-.06-2.09-1.04-3.39-2.93-3.39-2,0-3.01,1.39-3.01,3.51Z"/><path d="M184.4,139.32h5.65c4.46,0,6.92,2,6.92,5.91v.55c0,2.69-1.19,4.49-3.36,5.36l3.68,8.4v.06h-3.53l-3.36-7.88h-2.55v7.88h-3.45v-20.28Zm3.45,3.19v6h2.64c1.94,0,3.04-.93,3.04-2.78v-.43c0-1.85-1.07-2.78-3.04-2.78h-2.64Z"/><path d="M208.36,157.66c-.93,1.59-2.26,2.32-4.03,2.32-2.84,0-4.49-1.62-4.49-4.32v-.32c0-2.72,2.11-4.46,6.2-4.46h2.17v-.9c0-1.51-.78-2.29-2.43-2.29-1.36,0-2.17,.67-2.43,1.62l-3.07-.78c.46-2.09,2.35-3.8,5.56-3.8,3.59,0,5.68,1.71,5.68,5.24v9.62h-2.52l-.64-1.94Zm-.14-3.77v-.58h-2.23c-2.11,0-2.84,.75-2.84,1.83v.23c0,1.04,.78,1.68,2.14,1.68,1.74,0,2.93-.99,2.93-3.16Z"/><path d="M224.26,157.78c-.84,1.42-2.26,2.2-4.14,2.2-3.19,0-5.33-2.4-5.33-6.06v-3.13c0-3.65,2.14-6.06,5.33-6.06,1.74,0,3.1,.67,3.97,1.94v-7.36h3.19v20.28h-2.38l-.64-1.83Zm-3.19-.75c1.91,0,2.84-1.16,3.01-3.33v-2.55c-.17-2.23-1.1-3.45-3.01-3.45-1.71,0-2.98,1.22-2.98,3.56v2.2c0,2.38,1.25,3.56,2.98,3.56Z"/><path d="M230.7,140.54c0-1.13,.93-2.03,2.06-2.03s2.03,.9,2.03,2.03-.9,2.03-2.03,2.03-2.06-.9-2.06-2.03Zm.41,4.58h3.3v14.49h-3.3v-14.49Z"/><path d="M237.79,153.52v-2.32c0-3.94,2.46-6.46,6.34-6.46s6.34,2.52,6.34,6.46v2.32c0,3.94-2.49,6.46-6.34,6.46s-6.34-2.52-6.34-6.46Zm9.39-.03v-2.26c0-2.14-1.04-3.53-3.04-3.53s-3.04,1.39-3.04,3.53v2.26c0,2.11,1.04,3.53,3.04,3.53s3.04-1.42,3.04-3.53Z"/><path d="M252.97,156.07l3.04-.75c.35,1.3,1.33,1.88,2.75,1.88s2.2-.61,2.2-1.62c0-1.07-1.45-1.42-3.16-1.97-2.11-.7-4.35-1.68-4.35-4.66,0-2.35,1.85-4.2,5.27-4.2,2.72,0,4.78,1.1,5.33,3.65l-2.84,.7c-.32-1.01-1.13-1.56-2.49-1.56s-2.09,.58-2.09,1.45,1.04,1.27,2.38,1.68c2.29,.72,5.16,1.56,5.16,5.01,0,2.64-2.09,4.32-5.45,4.32s-5.27-1.48-5.77-3.91Z"/><path d="M266.76,153.52v-2.32c0-3.94,2.46-6.46,6.34-6.46s6.34,2.52,6.34,6.46v2.32c0,3.94-2.49,6.46-6.34,6.46s-6.34-2.52-6.34-6.46Zm9.39-.03v-2.26c0-2.14-1.04-3.53-3.04-3.53s-3.04,1.39-3.04,3.53v2.26c0,2.11,1.04,3.53,3.04,3.53s3.04-1.42,3.04-3.53Z"/><path d="M286.15,151.03v8.58h-3.3v-14.49h2.49l.64,1.83c.9-1.42,2.38-2.2,4.06-2.2,3.16,0,5.13,2.2,5.13,5.56v9.3h-3.3v-8.66c0-2.35-1.13-3.24-2.75-3.24-1.8,0-2.93,1.39-2.96,3.33Z"/><path d="M307.9,157.78c-.84,1.42-2.26,2.2-4.14,2.2-3.19,0-5.33-2.4-5.33-6.06v-3.13c0-3.65,2.14-6.06,5.33-6.06,1.74,0,3.1,.67,3.97,1.94v-7.36h3.19v20.28h-2.38l-.64-1.83Zm-3.19-.75c1.91,0,2.84-1.16,3.01-3.33v-2.55c-.17-2.23-1.1-3.45-3.01-3.45-1.71,0-2.98,1.22-2.98,3.56v2.2c0,2.38,1.25,3.56,2.98,3.56Z"/><path d="M320.48,159.98c-3.85,0-6.32-2.52-6.32-6.55v-2.09c0-4.32,2.46-6.61,6.32-6.61s6.23,2.52,6.23,6.61v2.2h-9.24v.03c0,2.11,1.01,3.53,3.01,3.53,1.3,0,2.26-.64,2.64-1.77l3.19,.87c-.78,2.43-2.93,3.77-5.82,3.77Zm-3.01-8.87h5.94v-.12c-.06-2.09-1.04-3.39-2.93-3.39-2,0-3.01,1.39-3.01,3.51Z"/></g><g><path d="M340.82,146.48l-1.85,13.12h-3.45l2.84-20.28h2.87l6,13.15,1.85-13.15h3.45l-2.84,20.28h-2.84l-6.03-13.12Z"/><path d="M355.91,145.12h3.3l-2.03,14.49h-3.3l2.03-14.49Zm.17-4.72c.14-1.04,1.1-1.88,2.14-1.88,1.22,0,2.03,.99,1.88,2.17-.14,1.04-1.07,1.88-2.14,1.88-1.19,0-2.03-.99-1.88-2.17Z"/><path d="M365.71,150.62l-1.27,8.98h-3.27l2.03-14.49h2.46l.38,1.8c.99-1.36,2.32-2.17,3.88-2.17,1.97,0,3.3,1.01,3.82,2.69,1.01-1.68,2.55-2.69,4.37-2.69,2.95,0,4.49,2.29,4,5.77l-1.3,9.1h-3.3l1.25-8.66c.32-2.38-.49-3.24-1.88-3.24-1.56,0-2.64,1.27-2.98,3.07l-1.25,8.84h-3.3l1.22-8.66c.32-2.38-.46-3.24-1.88-3.24-1.51,0-2.58,1.22-2.96,2.93Z"/><path d="M391.46,159.98c-1.85,0-3.1-.81-3.74-2.2l-.87,1.83h-2.52l2.84-20.28h3.3l-1.01,7.27c.99-1.22,2.35-1.85,3.97-1.85,3.39,0,5.22,2.52,4.69,6.32-.09,.61-.29,2-.38,2.64-.55,3.88-2.9,6.29-6.29,6.29Zm-2.69-8.43l-.2,1.56c-.29,2.52,.46,3.91,2.38,3.91,2.26,0,3.22-1.59,3.56-4l.2-1.36c.35-2.35-.26-3.97-2.4-3.97-2,0-3.1,1.39-3.53,3.85Z"/><path d="M400.65,153.2l.32-2.32c.52-3.82,3.13-6.14,6.72-6.14,4.17,0,6.4,2.78,5.85,6.84l-.35,2.32c-.52,3.82-3.01,6.08-6.72,6.08-4.14,0-6.4-2.78-5.82-6.78Zm9.3,.26l.26-1.88c.38-2.55-.67-3.88-2.64-3.88s-3.01,1.39-3.36,3.62l-.26,1.88c-.35,2.55,.67,3.82,2.64,3.82s3.04-1.33,3.36-3.56Z"/><path d="M415.33,156.07l3.16-.75c.12,1.33,1.07,1.88,2.43,1.88s2.2-.61,2.35-1.59c.35-2.49-7.13-1.71-6.4-6.92,.29-2.09,2.2-3.94,5.68-3.94,2.72,0,4.61,1.42,4.81,3.71l-2.96,.61c-.17-1.04-.9-1.54-2.23-1.54s-2,.58-2.11,1.39c-.38,2.46,7.18,1.56,6.4,7.04-.35,2.35-2.23,4.03-5.71,4.03s-5.21-1.77-5.42-3.91Z"/><path d="M435.87,159.6h-2.03c-2.67,0-4.29-1.3-3.82-4.61l1.01-7.16h-1.8l.38-2.72h1.91l.87-3.19h2.78l-.46,3.19h3.27l-.38,2.72h-3.27l-.96,6.55c-.26,1.74-.12,2.49,1.27,2.49h1.59l-.38,2.72Z"/><path d="M443.26,151.23l-1.19,8.37h-3.3l2.03-14.49h2.49l.35,1.74c.9-1.13,2.23-1.74,4.03-1.74h1.42l-.49,3.19h-1.48c-2.2,0-3.36,.75-3.85,2.93Z"/><path d="M458.41,157.81c-1.01,1.42-2.46,2.17-4.23,2.17-3.39,0-5.22-2.52-4.69-6.32,.09-.61,.29-2,.38-2.64,.55-3.88,2.9-6.29,6.29-6.29,1.85,0,3.1,.81,3.74,2.23l.9-1.85h2.49l-2.03,14.49h-2.49l-.35-1.8Zm-3.1-.78c2.11,0,3.22-1.54,3.59-4.26l.12-.84c.38-2.72-.35-4.23-2.35-4.23-2.26,0-3.22,1.59-3.56,4l-.2,1.36c-.35,2.35,.26,3.97,2.4,3.97Z"/><path d="M472.2,159.6h-2.03c-2.67,0-4.29-1.3-3.82-4.61l1.01-7.16h-1.8l.38-2.72h1.91l.87-3.19h2.78l-.46,3.19h3.27l-.38,2.72h-3.27l-.96,6.55c-.26,1.74-.12,2.49,1.27,2.49h1.59l-.38,2.72Z"/><path d="M484.34,157.81c-1.07,1.39-2.61,2.17-4.23,2.17-3.22,0-4.9-2.32-4.4-5.77l1.27-9.1h3.3l-1.22,8.66c-.35,2.32,.64,3.24,2.26,3.24,1.74,0,2.93-1.16,3.36-3.22l1.22-8.69h3.3l-2.03,14.49h-2.46l-.38-1.8Z"/><path d="M490.92,156.07l3.16-.75c.12,1.33,1.07,1.88,2.43,1.88s2.2-.61,2.35-1.59c.35-2.49-7.13-1.71-6.4-6.92,.29-2.09,2.2-3.94,5.68-3.94,2.72,0,4.61,1.42,4.81,3.71l-2.96,.61c-.17-1.04-.9-1.54-2.23-1.54s-2,.58-2.11,1.39c-.38,2.46,7.18,1.56,6.4,7.04-.35,2.35-2.23,4.03-5.71,4.03s-5.21-1.77-5.42-3.91Z"/><path d="M512.82,139.32h13.99l-.43,3.19h-5.27l-2.4,17.09h-3.45l2.4-17.09h-5.27l.43-3.19Z"/><path d="M529.16,151.23l-1.19,8.37h-3.3l2.03-14.49h2.49l.35,1.74c.9-1.13,2.23-1.74,4.03-1.74h1.42l-.49,3.19h-1.48c-2.2,0-3.36,.75-3.85,2.93Z"/><path d="M535.59,153.2l.32-2.32c.52-3.82,3.13-6.14,6.72-6.14,4.17,0,6.4,2.78,5.85,6.84l-.35,2.32c-.52,3.82-3.01,6.08-6.72,6.08-4.14,0-6.4-2.78-5.82-6.78Zm9.3,.26l.26-1.88c.38-2.55-.67-3.88-2.64-3.88s-3.01,1.39-3.36,3.62l-.26,1.88c-.35,2.55,.67,3.82,2.64,3.82s3.04-1.33,3.36-3.56Z"/><path d="M554.28,158.07l-1.01,7.33h-3.3l2.84-20.28h2.49l.35,1.77c1.01-1.39,2.46-2.14,4.2-2.14,3.39,0,5.22,2.52,4.69,6.32-.09,.61-.29,2-.38,2.64-.55,3.88-2.9,6.29-6.29,6.29-1.71,0-2.93-.7-3.59-1.91Zm.96-6.72l-.29,2.03c-.2,2.35,.55,3.65,2.4,3.65,2.26,0,3.22-1.59,3.56-4l.2-1.36c.35-2.35-.26-3.97-2.4-3.97-1.94,0-3.04,1.3-3.48,3.65Z"/><path d="M567.05,153.2l.32-2.32c.52-3.82,3.13-6.14,6.72-6.14,4.17,0,6.4,2.78,5.85,6.84l-.35,2.32c-.52,3.82-3.01,6.08-6.72,6.08-4.14,0-6.4-2.78-5.82-6.78Zm9.3,.26l.26-1.88c.38-2.55-.67-3.88-2.64-3.88s-3.01,1.39-3.36,3.62l-.26,1.88c-.35,2.55,.67,3.82,2.64,3.82s3.04-1.33,3.36-3.56Z"/><path d="M581.74,156.07l3.16-.75c.12,1.33,1.07,1.88,2.43,1.88s2.2-.61,2.35-1.59c.35-2.49-7.13-1.71-6.4-6.92,.29-2.09,2.2-3.94,5.68-3.94,2.72,0,4.61,1.42,4.81,3.71l-2.96,.61c-.17-1.04-.9-1.54-2.23-1.54s-2,.58-2.11,1.39c-.38,2.46,7.18,1.56,6.4,7.04-.35,2.35-2.23,4.03-5.71,4.03s-5.21-1.77-5.42-3.91Z"/><path d="M599.07,158.07l-1.01,7.33h-3.3l2.84-20.28h2.49l.35,1.77c1.01-1.39,2.46-2.14,4.2-2.14,3.39,0,5.22,2.52,4.69,6.32-.09,.61-.29,2-.38,2.64-.55,3.88-2.9,6.29-6.29,6.29-1.71,0-2.93-.7-3.59-1.91Zm.96-6.72l-.29,2.03c-.2,2.35,.55,3.65,2.4,3.65,2.26,0,3.22-1.59,3.56-4l.2-1.36c.35-2.35-.26-3.97-2.4-3.97-1.94,0-3.04,1.3-3.48,3.65Z"/><path d="M615.75,150.97l-1.22,8.63h-3.3l2.84-20.28h3.3l-1.01,7.3c1.07-1.22,2.52-1.88,4.03-1.88,3.27,0,4.9,2.29,4.4,5.77l-1.3,9.1h-3.3l1.25-8.66c.35-2.38-.61-3.24-2.32-3.24-1.8,0-3.04,1.39-3.36,3.24v.03Z"/><path d="M633.17,159.98c-3.91,0-6.14-2.52-5.53-6.72l.26-2c.55-3.88,3.24-6.52,6.98-6.52s6.08,2.52,5.48,6.75l-.26,2.06h-9.21v.03c-.29,2.14,.49,3.53,2.46,3.53,1.3,0,2.38-.58,2.9-1.77l3.1,.87c-.99,2.52-3.3,3.77-6.17,3.77Zm-1.97-8.87h5.91c.03-.17,.03-.35,.06-.41,.14-1.94-.64-3.1-2.46-3.1-2,0-3.19,1.39-3.51,3.51Z"/><path d="M646.87,151.23l-1.19,8.37h-3.3l2.03-14.49h2.49l.35,1.74c.9-1.13,2.23-1.74,4.03-1.74h1.42l-.49,3.19h-1.48c-2.2,0-3.36,.75-3.85,2.93Z"/><path d="M658.83,159.98c-3.91,0-6.14-2.52-5.53-6.72l.26-2c.55-3.88,3.24-6.52,6.98-6.52s6.08,2.52,5.48,6.75l-.26,2.06h-9.21v.03c-.29,2.14,.49,3.53,2.46,3.53,1.3,0,2.38-.58,2.9-1.77l3.1,.87c-.99,2.52-3.3,3.77-6.17,3.77Zm-1.97-8.87h5.91c.03-.17,.03-.35,.06-.41,.14-1.94-.64-3.1-2.46-3.1-2,0-3.19,1.39-3.51,3.51Z"/></g><g><path d="M12.54,183.74c1.74,.81,2.64,2.32,2.29,4.61-.61,3.97-3.3,6.03-8.11,6.03H.43l2.84-20.28h5.68c4.58,0,7.01,2.2,6.49,5.79l-.03,.2c-.23,1.51-1.07,2.9-2.87,3.65Zm-4.81,6.87c1.83,0,2.87-.93,3.07-2.32l.03-.2c.2-1.42-.7-2.4-2.52-2.4h-2.67l-.7,4.93h2.78Zm-1.56-8.69h2.32c1.71,0,2.72-.7,2.9-1.88l.03-.2c.17-1.27-.81-1.97-2.35-1.97h-2.32l-.58,4.06Zm8.66,6.52v-.09c.03-.09,.03-.03,.03-.12l-.03,.2Z"/><path d="M19.21,179.88h3.91l-2.03,14.49h-3.91l2.03-14.49Zm.2-4.69c.17-1.16,1.25-2.09,2.4-2.09,1.42,0,2.38,1.16,2.17,2.55-.17,1.16-1.22,2.09-2.4,2.09-1.39,0-2.38-1.16-2.17-2.55Z"/><path d="M25.2,187.73l.29-2.06c.52-3.77,3.27-6.2,6.89-6.2,4.37,0,6.78,2.96,6.2,7.1l-.29,2.06c-.52,3.77-3.22,6.14-6.9,6.14-4.35,0-6.78-2.93-6.2-7.04Zm9.24,.32l.2-1.42c.35-2.38-.58-3.65-2.43-3.65-1.71,0-2.58,1.36-2.87,3.27l-.2,1.42c-.35,2.38,.61,3.59,2.4,3.59s2.64-1.33,2.9-3.22Z"/><path d="M45.77,185.76l-1.22,8.6h-3.88l2.03-14.49h2.93l.43,1.83c1.01-1.42,2.43-2.23,4.03-2.23,1.94,0,3.3,1.01,3.85,2.75,1.04-1.77,2.64-2.75,4.49-2.75,2.98,0,4.58,2.4,4.06,6.03l-1.25,8.86h-3.91l1.16-8.23c.35-2.4-.41-3.16-1.68-3.16-1.39,0-2.35,1.19-2.72,2.96l-1.19,8.43h-3.91l1.16-8.23c.35-2.4-.41-3.16-1.68-3.16-1.36,0-2.32,1.1-2.69,2.78Z"/><path d="M65.16,187.73l.29-2.06c.52-3.77,3.27-6.2,6.9-6.2,4.37,0,6.78,2.96,6.2,7.1l-.29,2.06c-.52,3.77-3.22,6.14-6.89,6.14-4.35,0-6.78-2.93-6.2-7.04Zm9.24,.32l.2-1.42c.35-2.38-.58-3.65-2.43-3.65-1.71,0-2.58,1.36-2.87,3.27l-.2,1.42c-.35,2.38,.61,3.59,2.4,3.59s2.64-1.33,2.9-3.22Z"/><path d="M85.64,186.6l-1.1,7.76h-3.91l2.03-14.49h2.95l.41,1.8c.93-1.19,2.32-1.8,4.17-1.8h1.42l-.58,3.71h-1.45c-2.35,0-3.42,.75-3.94,3.01Z"/><path d="M95.81,192.92l-.99,7.24h-3.94l2.84-20.28h2.95l.41,1.83c1.01-1.45,2.43-2.23,4.17-2.23,3.45,0,5.33,2.58,4.78,6.4-.12,.81-.23,1.65-.35,2.49-.52,3.82-3.07,6.4-6.4,6.4-1.62,0-2.81-.64-3.48-1.85Zm.87-6.29l-.17,1.25c-.17,2.03,.32,3.39,2.11,3.39,2.14,0,2.93-1.68,3.24-3.77l.12-.75c.32-2.09-.06-3.77-2.14-3.77-1.97,0-2.78,1.48-3.16,3.65Z"/><path d="M112.9,185.71l-1.22,8.66h-3.94l2.84-20.28h3.94l-1.01,7.18c1.1-1.16,2.55-1.8,3.97-1.8,3.22,0,4.9,2.4,4.37,6.03l-1.25,8.86h-3.91l1.16-8.23c.35-2.4-.52-3.16-2.09-3.16-1.48,0-2.46,1.1-2.87,2.72Z"/><path d="M126.2,179.88h3.91l-2.03,14.49h-3.91l2.03-14.49Zm.2-4.69c.17-1.16,1.25-2.09,2.4-2.09,1.42,0,2.38,1.16,2.17,2.55-.17,1.16-1.22,2.09-2.4,2.09-1.39,0-2.38-1.16-2.17-2.55Z"/><path d="M144.65,190.69c-.81,2.49-3.3,4.09-6.17,4.09-4.4,0-6.87-2.93-6.29-7.04l.29-2.06c.52-3.77,3.22-6.2,6.87-6.2s5.42,1.59,6.03,4.29l-3.82,.93c-.43-1.25-1.16-1.71-2.32-1.71-1.71,0-2.61,1.36-2.9,3.27l-.2,1.42c-.35,2.38,.64,3.59,2.46,3.59,1.13,0,2-.75,2.4-1.56l3.65,.99Z"/><path d="M156.36,174.09h11.73l-.52,3.77h-7.68l-.61,4.4h6.95l-.55,3.77h-6.95l-.64,4.58h7.82l-.52,3.77h-11.88l2.84-20.28Z"/><path d="M173.22,189.07l-.75,5.3h-3.94l2.84-20.28h3.94l-1.45,10.43,4.23-4.64h4.64v.17l-6.66,6.72,5.16,7.45-.03,.14h-4.46l-3.51-5.3Z"/><path d="M188.05,185.76l-1.22,8.6h-3.88l2.03-14.49h2.93l.43,1.83c1.01-1.42,2.43-2.23,4.03-2.23,1.94,0,3.3,1.01,3.85,2.75,1.04-1.77,2.64-2.75,4.49-2.75,2.98,0,4.58,2.4,4.06,6.03l-1.25,8.86h-3.91l1.16-8.23c.35-2.4-.41-3.16-1.68-3.16-1.39,0-2.35,1.19-2.72,2.96l-1.19,8.43h-3.91l1.16-8.23c.35-2.4-.41-3.16-1.68-3.16-1.36,0-2.32,1.1-2.69,2.78Z"/><path d="M216.15,192.54c-1.01,1.45-2.43,2.23-4.17,2.23-3.45,0-5.33-2.58-4.78-6.4,.12-.81,.23-1.65,.35-2.49,.52-3.82,3.07-6.4,6.4-6.4,1.83,0,3.07,.78,3.68,2.29l.96-1.88h2.95l-2.03,14.49h-2.96l-.41-1.83Zm-2.75-1.27c1.94,0,2.75-1.42,3.13-3.56l.2-1.42c.17-2-.32-3.3-2.11-3.3-2.14,0-2.93,1.68-3.24,3.77l-.12,.75c-.32,2.09,.06,3.77,2.14,3.77Z"/><path d="M228.38,185.88l-1.19,8.49h-3.91l2.03-14.49h2.96l.43,1.83c1.13-1.45,2.72-2.23,4.32-2.23,3.22,0,4.9,2.4,4.37,6.03l-1.25,8.86h-3.91l1.16-8.23c.35-2.4-.52-3.16-2.09-3.16s-2.52,1.19-2.93,2.9Z"/><path d="M246.02,189.53l3.94-.93c.14,1.59,1.33,2.49,3.1,2.49s2.84-.96,2.98-2.14c.26-1.91-1.48-2.46-3.39-3.27-3.13-1.33-4.9-3.16-4.46-6.4,.43-3.24,3.13-5.59,7.07-5.59,3.74,0,6.03,1.97,6.06,5.19l-3.82,.93c-.14-1.51-.9-2.43-2.46-2.43s-2.55,.93-2.69,2.03c-.23,1.62,.96,2.32,3.13,3.19,4,1.62,5.21,3.85,4.61,7.13-.52,2.69-2.67,5.07-7.3,5.07-3.74,0-6.52-1.77-6.75-5.24Z"/><path d="M266.45,192.92l-.99,7.24h-3.94l2.84-20.28h2.96l.41,1.83c1.01-1.45,2.43-2.23,4.17-2.23,3.45,0,5.33,2.58,4.78,6.4-.12,.81-.23,1.65-.35,2.49-.52,3.82-3.07,6.4-6.4,6.4-1.62,0-2.81-.64-3.48-1.85Zm.87-6.29l-.17,1.25c-.17,2.03,.32,3.39,2.11,3.39,2.14,0,2.93-1.68,3.24-3.77l.12-.75c.32-2.09-.06-3.77-2.14-3.77-1.97,0-2.78,1.48-3.16,3.65Z"/><path d="M280.7,179.88h3.91l-2.03,14.49h-3.91l2.03-14.49Zm.2-4.69c.17-1.16,1.25-2.09,2.4-2.09,1.42,0,2.38,1.16,2.17,2.55-.17,1.16-1.22,2.09-2.4,2.09-1.39,0-2.38-1.16-2.17-2.55Z"/><path d="M291.36,186.6l-1.1,7.76h-3.91l2.03-14.49h2.96l.41,1.8c.93-1.19,2.32-1.8,4.17-1.8h1.42l-.58,3.71h-1.45c-2.35,0-3.42,.75-3.94,3.01Z"/><path d="M306.48,192.54c-1.01,1.45-2.43,2.23-4.17,2.23-3.45,0-5.33-2.58-4.78-6.4,.12-.81,.23-1.65,.35-2.49,.52-3.82,3.07-6.4,6.4-6.4,1.83,0,3.07,.78,3.68,2.29l.96-1.88h2.95l-2.03,14.49h-2.96l-.41-1.83Zm-2.75-1.27c1.94,0,2.75-1.42,3.13-3.56l.2-1.42c.17-2-.32-3.3-2.11-3.3-2.14,0-2.93,1.68-3.24,3.77l-.12,.75c-.32,2.09,.06,3.77,2.14,3.77Z"/><path d="M320.04,174.09l-2.2,15.64c-.14,1.04,.17,1.45,1.04,1.45h1.74l-.43,3.19h-2.17c-3.27,0-4.4-2.38-4.08-4.64l2.2-15.64h3.91Z"/></g><g><path d="M329.61,186.75v-5.04c0-4.9,2.81-8.03,7.56-8.03,3.16,0,6.11,1.54,7.07,5.16l-3.85,1.22c-.55-2-1.71-2.61-3.42-2.61-2.43,0-3.3,1.85-3.3,4.4v4.78c0,2.72,1.16,4.37,3.51,4.37s3.36-1.65,3.36-3.91v-.35h-3.36v-3.77h7.27v4.03c0,4.69-2.69,7.76-7.18,7.76s-7.65-3.13-7.65-8.03Z"/><path d="M354.06,194.77c-3.97,0-6.58-2.61-6.58-6.75v-1.74c0-4.49,2.61-6.81,6.58-6.81s6.58,2.61,6.58,6.81v2.26h-9.24c.12,1.65,.96,2.84,2.67,2.84,1.16,0,2-.55,2.32-1.51l3.8,1.04c-.78,2.49-3.04,3.85-6.11,3.85Zm-2.67-9.01h5.33c-.09-1.71-.93-2.9-2.67-2.9s-2.55,1.19-2.67,2.9Z"/><path d="M363.01,188.17v-2.09c0-4,2.61-6.61,6.58-6.61s6.58,2.61,6.58,6.61v2.09c0,4-2.61,6.61-6.58,6.61s-6.58-2.61-6.58-6.61Zm9.24-.09v-1.91c0-1.85-.81-3.19-2.67-3.19s-2.67,1.33-2.67,3.19v1.91c0,1.83,.84,3.19,2.67,3.19s2.67-1.36,2.67-3.19Z"/><path d="M378.51,190.75l3.56-.9c.29,1.19,1.19,1.65,2.4,1.65s1.85-.46,1.85-1.27-1.42-1.1-3.01-1.59c-2.03-.64-4.35-1.65-4.35-4.75,0-2.4,1.88-4.4,5.5-4.4,2.81,0,4.98,1.1,5.53,3.8l-3.36,.81c-.26-.87-.93-1.33-2.17-1.33-1.16,0-1.77,.46-1.77,1.16,0,.64,.9,.93,2.06,1.25,2.2,.64,5.36,1.48,5.36,5.16,0,2.72-2.17,4.46-5.65,4.46-3.71,0-5.53-1.56-5.97-4.03Z"/><path d="M391.69,179.88h1.8l.41-3.19h3.36v3.19h2.98v3.19h-2.98v6.66c0,1.36,.67,1.45,1.25,1.45h1.74v3.19h-2.32c-3.39,0-4.58-1.85-4.58-4.64v-6.66h-1.65v-3.19Z"/><path d="M406.9,194.37h-3.91v-14.49h2.96l.7,1.91c.78-1.25,2.09-1.94,3.97-1.91h1.33v3.71h-1.56c-2.69,0-3.48,.9-3.48,4.06v6.72Z"/><path d="M413.22,188.17v-2.09c0-4,2.61-6.61,6.58-6.61s6.58,2.61,6.58,6.61v2.09c0,4-2.61,6.61-6.58,6.61s-6.58-2.61-6.58-6.61Zm9.24-.09v-1.91c0-1.85-.81-3.19-2.67-3.19s-2.67,1.33-2.67,3.19v1.91c0,1.83,.84,3.19,2.67,3.19s2.67-1.36,2.67-3.19Z"/><path d="M433.47,192.8v7.36h-3.91v-20.28h2.96l.7,1.88c.87-1.51,2.29-2.32,4.17-2.32,3.16,0,5.33,2.46,5.33,6.11v3.07c0,3.65-2.17,6.11-5.33,6.11-1.71,0-3.04-.67-3.91-1.94Zm0-6.84v2.09c.14,1.91,.81,3.19,2.67,3.19,1.62,0,2.67-1.25,2.67-3.16v-2c0-1.91-1.01-3.13-2.67-3.13-1.85,0-2.52,1.19-2.67,3.01Z"/><path d="M449.52,186.2v8.17h-3.91v-20.28h3.91v7.33c.96-1.25,2.32-1.94,3.8-1.94,3.13,0,5.16,2.29,5.16,5.74v9.15h-3.91v-8.23c0-2.4-.96-3.16-2.46-3.16-1.65,0-2.52,1.3-2.58,3.22Z"/><path d="M461.71,175.42c0-1.27,1.04-2.32,2.35-2.32s2.32,1.04,2.32,2.32-1.04,2.32-2.32,2.32-2.35-1.04-2.35-2.32Zm.38,4.46h3.91v14.49h-3.91v-14.49Z"/><path d="M478.29,184.69c-.35-1.13-1.22-1.71-2.52-1.71-1.83,0-2.67,1.33-2.67,3.19v1.91c0,1.83,.84,3.19,2.67,3.19,1.3,0,2.23-.58,2.52-1.62l3.65,1.01c-.67,2.69-2.9,4.11-6.17,4.11-3.97,0-6.58-2.61-6.58-6.61v-2.09c0-4,2.61-6.61,6.58-6.61,3.04,0,5.48,1.27,6.17,4.17l-3.65,1.04Z"/><path d="M501.9,180.67l-3.56,13.7h-3.74l-5.16-19.99v-.29h4.06l3.16,14.05,3.27-14.05h4.29l3.01,13.73,3.27-13.73h3.85v.29l-5.5,19.99h-3.62l-3.33-13.7Z"/><path d="M516.15,175.42c0-1.27,1.04-2.32,2.35-2.32s2.32,1.04,2.32,2.32-1.04,2.32-2.32,2.32-2.35-1.04-2.35-2.32Zm.38,4.46h3.91v14.49h-3.91v-14.49Z"/><path d="M528.12,186.2v8.17h-3.91v-14.49h2.96l.7,1.88c.96-1.45,2.43-2.29,4.06-2.29,3.13,0,5.16,2.29,5.16,5.74v9.15h-3.91v-8.23c0-2.4-.96-3.16-2.46-3.16-1.65,0-2.52,1.3-2.58,3.22Z"/><path d="M549.61,192.46c-.87,1.51-2.29,2.32-4.17,2.32-3.16,0-5.33-2.46-5.33-6.11v-3.07c0-3.65,2.17-6.11,5.33-6.11,1.71,0,3.04,.67,3.91,1.94v-7.33h3.77v20.28h-2.81l-.7-1.91Zm-2.93-1.19c1.88,0,2.55-1.25,2.67-3.13v-1.85c-.12-2-.78-3.3-2.67-3.3-1.62,0-2.67,1.25-2.67,3.16v2c0,1.91,1.01,3.13,2.67,3.13Z"/><path d="M575.48,194.37h-13.36v-1.13l7.85-15.38h-7.42v-3.77h12.92v1.13l-7.85,15.38h7.85v3.77Z"/><path d="M586.32,192.46c-1.07,1.68-2.43,2.32-4.08,2.32-2.69,0-4.37-1.65-4.37-4.43v-.23c0-2.67,2.09-4.52,6.34-4.52h1.85v-.58c0-1.33-.64-2.03-2.11-2.03-1.25,0-1.83,.58-2,1.27l-3.65-.93c.38-1.94,2.23-3.85,5.71-3.85,3.77,0,5.97,1.77,5.97,5.5v9.39h-2.95l-.7-1.91Zm-.26-3.77v-.32h-1.88c-1.88,0-2.4,.7-2.4,1.51v.09c0,.84,.64,1.36,1.74,1.36,1.62,0,2.55-.99,2.55-2.64Z"/><path d="M592.75,190.75l3.56-.9c.29,1.19,1.19,1.65,2.4,1.65s1.85-.46,1.85-1.27-1.42-1.1-3.01-1.59c-2.03-.64-4.35-1.65-4.35-4.75,0-2.4,1.88-4.4,5.5-4.4,2.81,0,4.98,1.1,5.53,3.8l-3.36,.81c-.26-.87-.93-1.33-2.17-1.33-1.16,0-1.77,.46-1.77,1.16,0,.64,.9,.93,2.06,1.25,2.2,.64,5.36,1.48,5.36,5.16,0,2.72-2.17,4.46-5.65,4.46-3.71,0-5.53-1.56-5.97-4.03Z"/><path d="M605.93,179.88h1.8l.41-3.19h3.36v3.19h2.98v3.19h-2.98v6.66c0,1.36,.67,1.45,1.25,1.45h1.74v3.19h-2.32c-3.39,0-4.58-1.85-4.58-4.64v-6.66h-1.65v-3.19Z"/><path d="M621.14,194.37h-3.91v-14.49h2.96l.7,1.91c.78-1.25,2.09-1.94,3.97-1.91h1.33v3.71h-1.56c-2.69,0-3.48,.9-3.48,4.06v6.72Z"/><path d="M637.51,192.46c-.96,1.48-2.46,2.32-4.06,2.32-3.13,0-5.16-2.4-5.16-6.03v-8.86h3.91v8c0,2.58,.96,3.39,2.46,3.39,1.71,0,2.55-1.45,2.58-3.53v-7.85h3.91v14.49h-2.96l-.7-1.91Z"/><path d="M650.4,200.57c-4.17,0-6.72-1.77-6.72-4.78v-.35c0-1.48,.49-2.72,2.09-3.65-.78-.49-.96-1.01-.96-1.59,0-.78,.32-1.39,1.39-1.74-1.39-1.04-1.83-2.32-1.83-3.82v-.2c0-3.07,2.2-4.95,5.88-4.95,1.8,0,3.8,.46,5.01,2.26,.46-1.45,1.22-1.85,2.2-1.85h1.07v3.33h-1.45c-.67,0-.99,.26-.99,.9v.23c0,3.07-2.03,5.13-6.17,5.13-1.42,0-1.71,.23-1.71,.61,0,.32,.2,.55,2.03,.55,4.64,0,6.87,1.77,6.87,4.69v.46c0,3.01-2.55,4.78-6.72,4.78Zm2.84-4.98v-.09c0-1.22-.93-1.71-2.84-1.71s-2.84,.49-2.84,1.71v.09c0,1.25,.9,1.74,2.84,1.74s2.84-.49,2.84-1.74Zm-.96-10.98v-.12c0-1.1-.7-1.85-2.03-1.85s-2.03,.75-2.03,1.85v.12c0,1.07,.72,1.83,2.03,1.83s2.03-.75,2.03-1.83Z"/><path d="M660.34,175.42c0-1.27,1.04-2.32,2.35-2.32s2.32,1.04,2.32,2.32-1.04,2.32-2.32,2.32-2.35-1.04-2.35-2.32Zm.38,4.46h3.91v14.49h-3.91v-14.49Z"/></g></g></g></g></svg>