<svg xmlns="http://www.w3.org/2000/svg" viewBox="0 0 720 524.53"><title>16-system-gothic</title><g id="Layer_2" data-name="Layer 2"><g id="Layer_1-2" data-name="Layer 1"><path d="M409.71,524.53h17.34v-4H409.71Zm17.34-6v-4H419v-.09l8.05-11.11v-2.8H413v4h8v.09l-8,11.06v2.85Zm-32.23,6h18.45v-4H394.82Zm11.25-6v-6.09l5.42-11.91h-4.67l-2.75,6.35H404l-2.71-6.35H396.6L402,512.44v6.09Zm-28.49,6h20.35v-4H377.58ZM387.75,513l3.38,5.51h5l-5.77-9.25,5.69-8.75h-5.25l-3.07,5.06-3.06-5.06h-5.25l5.69,8.75-5.78,9.25h5Zm-32.62,11.51h25.56v-4H355.13Zm12.76-14.85h0l2.67,8.85h3.15l5.16-18h-4.22l-2.49,10h-.09l-3-10h-2.58l-2.84,10h-.09l-2.49-10h-4.22l5.15,18h3.16Zm-29.65,14.85h20v-4h-20Zm8.67-6h2.67l6.88-18H352.2l-3.91,10.31h-.09l-3.91-10.31H340Zm-26.23,6H341.8v-4H320.68Zm13.56-24V512a3,3,0,1,1-6,0V500.53h-4V512a7,7,0,1,0,14,0V500.53Zm-27.78,24h17.78v-4H306.46Zm6.89-6h4v-14h4.89v-4H308.46v4h4.89Zm-21.33,6h18.44v-4H292Zm9.46-24.45a5.41,5.41,0,0,0-5.46,5.34,5.35,5.35,0,0,0,2.84,4.62l3.56,2.09a1.81,1.81,0,0,1,1,1.47c0,.84-1,1.37-2,1.37a2.89,2.89,0,0,1-2.8-2.13l-3.51,2.31a6.78,6.78,0,0,0,6.13,3.82c3.51,0,6.09-2.53,6.09-5.51a5.63,5.63,0,0,0-3.11-4.89l-3.33-1.95c-.72-.4-1-.8-1-1.25a1.26,1.26,0,0,1,1.33-1.24,2.49,2.49,0,0,1,2.05,1.42l3.33-2.53a6.22,6.22,0,0,0-5.16-2.94m-26,24.45H296v-4H275.44Zm13.2-6h4.49v0l-3.29-6.71a5.6,5.6,0,0,0,2.84-4.89v-.71a5.65,5.65,0,0,0-5.64-5.64h-7.6v18h4v-6h2.49Zm-2.22-14a2,2,0,1,1,0,4h-3v-4Zm-28.09,20H279v-4H258.33ZM268.64,515a3,3,0,0,1-3-3v-4.89a3,3,0,0,1,6,0V512a3,3,0,0,1-3,3m5.06,5.25,2.8-2.8-1.86-1.87a6.62,6.62,0,0,0,1-3.6v-4.89a7,7,0,0,0-14,0V512a7,7,0,0,0,7,7,7.17,7.17,0,0,0,3.11-.71Zm-31.29,4.31h19.92v-4H242.41Zm11.6-12a5.66,5.66,0,0,0,5.65-5.65v-.71a5.65,5.65,0,0,0-5.65-5.64h-7.6v18h4v-6Zm-.62-8a2,2,0,0,1,0,4h-3v-4Zm-27.64,20h20.66v-4H225.75ZM236.06,515a3,3,0,0,1-3-3v-4.89a3,3,0,0,1,6,0V512a3,3,0,0,1-3,3m0-14.89a7,7,0,0,0-7,7V512a7,7,0,1,0,14,0v-4.89a7,7,0,0,0-7-7M207.3,524.53h22v-4h-22Zm15.6-6h2.4v-18h-4v9.38h-.09l-7.51-9.38h-2.4v18h4v-9.38h.09Zm-36.05,6h24v-4h-24Zm4-6h4v-8.18h0l3.73,8.18h.49l3.69-8.18h.05v8.18h4v-18h-3.34l-4.62,9.73h-.05l-4.66-9.73h-3.34Zm-19.11,6h18.67v-4H171.74Zm16-6v-4h-8v-14h-4v18Zm-31.51,6H175.3v-4H156.23Zm12.54-6h4.53l-6.31-10,6.13-8h-5l-3.91,5.2h-.09v-5.2h-3.91v18h3.91v-7.2h.09Zm-28.32,6h19.78v-4H140.45Zm8.8-5.56a7,7,0,0,0,7-7V500.53h-4V512a3,3,0,0,1-3,3,2.94,2.94,0,0,1-3-2.62l-3.83,1.29a7,7,0,0,0,6.8,5.33M132,524.53h12v-4H132Zm8-24h-4v18h4Zm-26.45,24h22v-4h-22Zm8-13.11h6v7.11h4v-18h-4v6.89h-6v-6.89h-4v18h4ZM96.67,524.53h20.67v-4H96.67ZM114,512v-3.42h-6.4v4h2.58a2.79,2.79,0,0,1-2.93,2.67A3.2,3.2,0,0,1,104,512v-4.89a3,3,0,0,1,3-3,3,3,0,0,1,2.67,1.6l3.82-1.29A7,7,0,0,0,100,507.06V512a7,7,0,1,0,14,0M82,524.53h18.67v-4H82Zm8-13.11h6v-4H90v-2.89h8v-4H86v18h4ZM66,524.53H85.56v-4H66Zm4-6H82v-4H74v-3.11h6v-4H74v-2.89h8v-4H70Zm-21.33,6H70v-4H48.67Zm8-10v-10h2a4,4,0,0,1,4,4v2a4,4,0,0,1-4,4Zm-4,4h6a8.08,8.08,0,0,0,8-8v-2a8,8,0,0,0-8-8h-6Zm-19.91,6H52.67v-4H32.76Zm17.11-10.89-3.82-1.29a3,3,0,0,1-6-.4v-4.89a3,3,0,0,1,3-3,3.05,3.05,0,0,1,2.67,1.6l3.82-1.29a7,7,0,0,0-6.49-4.31,7,7,0,0,0-7,7V512a7,7,0,0,0,13.78,1.69m-34,10.89H36.31v-4H15.87Zm11.38-13.2a1.74,1.74,0,0,1,0,3.47H23.87v-3.47Zm-.49-7a1.73,1.73,0,1,1,0,3.46H23.87v-3.46Zm-6.89,14.22h8.44a4.83,4.83,0,0,0,4.67-5v-.89a4.39,4.39,0,0,0-1.56-3.47v-.08a4.08,4.08,0,0,0,1.12-2.94V506a5.4,5.4,0,0,0-5.34-5.42H19.87Zm-18.67,6H19.47v-4H1.2Zm12.4-6h4l-6.89-18H8.09l-6.89,18h4l1-2.67h6.31ZM9.38,507.77h.09l1.73,4.54H7.64Z"/><path d="M623.41,475.59a4.8,4.8,0,0,0,3.91-1.74h0v1.29h6v-24h-6v14.67a4,4,0,1,1-8,0V451.14h-6v32h6v-9.29h.09a4.88,4.88,0,0,0,3.95,1.74m-38-5.78a4,4,0,0,1-4-4v-5.33a4,4,0,0,1,8,0v5.33a4,4,0,0,1-4,4m10-9.33a3.3,3.3,0,0,0,0-.72,4.15,4.15,0,0,1,4-3.42,4.08,4.08,0,0,1,4.08,4.14Zm4,15.33a10,10,0,0,0,9.24-6.22l-5.56-2.23a4,4,0,0,1-7.68-1.55h14v-5.33a10,10,0,0,0-17-7.12,9.89,9.89,0,0,0-7-2.89,10,10,0,0,0-10,10v5.33a10,10,0,0,0,17,7.11,9.86,9.86,0,0,0,7,2.89m-34.45-.67h6v-24h-6Zm-13.47.67a9,9,0,0,0,9-9v-7.38a9,9,0,0,0-9-9,8.13,8.13,0,0,0-5,1.74v-9.07h-6v40h6v-9.06a8.19,8.19,0,0,0,5,1.73m-1-6a4,4,0,0,1-4-4v-5.33a4,4,0,0,1,8,0v5.33a4,4,0,0,1-4,4m-24,0a4.29,4.29,0,0,1-2.53-.89l6.53-6.53v3.42a4,4,0,0,1-4,4m-4-9.33a4,4,0,0,1,4-4,3.85,3.85,0,0,1,2.4.84l-6.4,6.36Zm4,15.33a10,10,0,0,0,10-10v-5.33a10,10,0,0,0-.62-3.47l2.53-2.53-3.33-3.34-1.91,1.91a9.9,9.9,0,0,0-6.67-2.58,10,10,0,0,0-10,10v5.33a9,9,0,0,0,.58,3.29l-2.71,2.71,3.38,3.33,2-2a9.85,9.85,0,0,0,6.75,2.67M502.78,470a4.18,4.18,0,1,1,4.18-4.18,4.18,4.18,0,0,1-4.18,4.18m.05,5.82c5.55,0,10.09-4.31,10.09-11.78A23.92,23.92,0,0,0,508,449.41l3-2.14-2.23-3.33-3.69,2.58a19.55,19.55,0,0,0-7.2-3.38l-1.73,4.67a14.8,14.8,0,0,1,4.53,1.82l-3.42,2.4,2.27,3.33,4.31-3.06a10.48,10.48,0,0,1,2.31,4.84l-.09.09a10,10,0,0,0-4.35-1.11c-4.89,0-8.94,4.44-8.94,9.69a10,10,0,0,0,10.05,10m-33.61-10c0,2.58-2.93,4.09-5,4.09-1.69,0-2.58-1-2.58-2a2.3,2.3,0,0,1,2.45-2.09Zm14-5.33h-8a4,4,0,0,1,8,0m-3.16,15.33c4,0,6.89-2.58,8.4-6.22l-5.56-2.23a4,4,0,0,1-7.68-1.55h14v-5.33a10,10,0,0,0-10-10,9.64,9.64,0,0,0-7,2.85,9.73,9.73,0,0,0-15.87,3.16l5.56,2.26a3.89,3.89,0,0,1,3.47-2.26,4,4,0,0,1,3.86,4h-4.8c-4.84,0-8.8,3.33-8.8,7.6a8,8,0,0,0,8.32,7.73A11.18,11.18,0,0,0,472.2,472a10.36,10.36,0,0,0,7.87,3.78M440,474.92a11.15,11.15,0,0,0,4.27.89,8.2,8.2,0,0,0,8.48-8.45c0-3.82-2.22-6.8-5-7.68v-.09a7.12,7.12,0,0,0,3-6,9.41,9.41,0,0,0-9.46-9.16,9.52,9.52,0,0,0-9.51,9.52v21.15h6V454a3.52,3.52,0,0,1,3.51-3.52,3.47,3.47,0,0,1,3.46,3.47c0,2-1.64,3.91-4.75,3.91v5.56c3.47,0,6.75,1.2,6.75,3.73,0,1.56-1.24,2.76-3.46,2.76a8.53,8.53,0,0,1-3.29-.76Zm-22.89,8.22,12.89-32h-6.45l-5.2,13.78h-.09l-5.15-13.78H406.6l8.62,21.29-4.53,10.71Zm-6.36-34.22h6v-6h-6Zm9.11,0h6v-6h-6Zm-25.91,34.22,12.89-32h-6.44l-5.2,13.78h-.09l-5.16-13.78h-6.49l8.63,21.29-4.54,10.71Zm3.69-34,4.45-6h-6.45l-2.89,6Zm-19.73,26v.09a4.44,4.44,0,0,0-2.71,4c0,2.31,1.86,4.62,6.48,4.62V479.9a2.26,2.26,0,0,1-2.26-2.22c0-1.11,1-2,2.26-2.54v-24h-6v14.67a4,4,0,0,1-8,0V451.14h-6v15.69a9,9,0,0,0,9,9,8.16,8.16,0,0,0,5-1.73v1.06Zm-26.67,0h6v-24h-6v14.67a4,4,0,0,1-8,0V451.14h-6v15.69a9,9,0,0,0,9,9,8.19,8.19,0,0,0,5-1.73Zm-11.56-26h6v-6h-6Zm9.11,0h6v-6h-6Zm-22,26h6v-24h-6v14.67a4,4,0,0,1-8,0V451.14h-6v15.69a9,9,0,0,0,9,9,8.17,8.17,0,0,0,5-1.73Zm-.93-26h4.4l-4.44-6h-6l-4.44,6h4.44l3-3Zm-23.51,26h6v-24h-6v14.67a4,4,0,0,1-8,0V451.14h-6v15.69a9,9,0,0,0,9,9,8.19,8.19,0,0,0,5-1.73Zm-1.51-26,4.44-6h-6.44l-2.89,6Zm-22.94,26h6v-24h-6v14.67a4,4,0,1,1-8,0V451.14h-6v15.69a9,9,0,0,0,9,9,8.19,8.19,0,0,0,5-1.73Zm-1.51-26-2.89-6H267l4.44,6Zm-25.82,26h6v-18h4v-6h-4v-6h-6v6h-6v-6h-6v6h-4v6h4v18h6v-18h6Zm-28-5.33a4,4,0,0,1-4-4v-5.33a4,4,0,0,1,8,0v5.33a4,4,0,0,1-4,4m2.72,14V479.9a2.26,2.26,0,0,1-2.27-2.22,2.58,2.58,0,0,1,1.33-2.05,10,10,0,0,0,8.23-9.82v-5.33a10,10,0,1,0-20,0v5.33a10.07,10.07,0,0,0,8.27,9.87v.09a3.9,3.9,0,0,0-2,3.42c0,2.31,1.86,4.62,6.49,4.62m-26.27-14a4,4,0,0,1-4-4v-5.33a4,4,0,0,1,8,0v5.33a4,4,0,0,1-4,4m0,6a10,10,0,0,0,10-10v-5.33a10,10,0,1,0-20,0v5.33a10,10,0,0,0,10,10m-7.56-26.89h6v-6h-6Zm9.11,0h6v-6h-6Zm-25.11,20.89a4,4,0,0,1-4-4v-5.33a4,4,0,0,1,8,0v5.33a4,4,0,0,1-4,4m0,6a10,10,0,0,0,10-10v-5.33a10,10,0,1,0-20,0v5.33a10,10,0,0,0,10,10m3.91-32.67a1.54,1.54,0,0,1-1.51,1.73c-1.51,0-2.27-1.73-4.89-1.73s-5,1.73-5,6h3.56a1.54,1.54,0,0,1,1.51-1.73c1.51,0,2.27,1.73,4.89,1.73s5-1.73,5-6Zm-27.47,26.67a4,4,0,0,1-4-4v-5.33a4,4,0,0,1,8,0v5.33a4,4,0,0,1-4,4m0,6a10,10,0,0,0,10-10v-5.33a10,10,0,1,0-20,0v5.33a10,10,0,0,0,10,10m3-26.67h4.4l-4.45-6h-6l-4.44,6h4.44l3-3Zm-26.58,20.67a4,4,0,0,1-4-4v-5.33a4,4,0,0,1,8,0v5.33a4,4,0,0,1-4,4m0,6a10,10,0,0,0,10-10v-5.33a10,10,0,1,0-20,0v5.33a10,10,0,0,0,10,10m2.49-26.67,4.44-6h-6.44l-2.89,6Zm-26,20.67a4,4,0,0,1-4-4v-5.33a4,4,0,0,1,8,0v5.33a4,4,0,0,1-4,4m0,6a10,10,0,0,0,10-10v-5.33a10,10,0,1,0-20,0v5.33a10,10,0,0,0,10,10m2.49-26.67-2.89-6H97.92l4.44,6ZM76.76,460.48a4,4,0,0,1,8,0v14.66h6V459.45a9,9,0,0,0-9-9,8.13,8.13,0,0,0-5,1.74v-1.07h-6v24h6Zm7.91-17.34a1.54,1.54,0,0,1-1.51,1.73c-1.51,0-2.27-1.73-4.89-1.73s-5,1.73-5,6h3.56a1.54,1.54,0,0,1,1.51-1.73c1.51,0,2.27,1.73,4.89,1.73s5-1.73,5-6Zm-22.8,32v.09a4.44,4.44,0,0,0-2.71,4c0,2.31,1.87,4.62,6.49,4.62V479.9a2.26,2.26,0,0,1-2.27-2.22c0-1.11,1-2,2.27-2.54v-24h-6v24Zm-2.22-26h6v-6h-6Zm-13.34,26h6v-24h-6Zm4.49-26h6v-6h-6Zm-9,0h6v-6h-6Zm-12.62,26h6v-24h-6Zm6.05-26h4.4l-4.45-6h-6l-4.44,6H29.2l3-3Zm-20.49,26h6v-24h-6Zm5.42-26,4.44-6H18.18l-2.89,6Zm-16.31,26h6v-24h-6Zm5.46-26-2.89-6H0l4.44,6Z"/><path d="M710,425.76h6v-18h4v-6h-4v-6h-6v6h-6a2.65,2.65,0,0,1,3.33-2.63v-6a8.51,8.51,0,0,0-9.33,8.63h-2v6h2v18h6v-18h6Zm-37.56,0h6v-18h3.34v-6h-3.34a2.66,2.66,0,0,1,3.34-2.63v-6a8.51,8.51,0,0,0-9.34,8.63h-6a2.65,2.65,0,0,1,3.33-2.63v-6a8.51,8.51,0,0,0-9.33,8.63h-2v6h2v18h6v-18h6Zm12,0h6v-32h-6Zm-48.89,0h6v-18h3.33v-6h-3.33a2.65,2.65,0,0,1,3.33-2.63v-6a8.51,8.51,0,0,0-9.33,8.63h-6a2.65,2.65,0,0,1,3.33-2.63v-6a8.51,8.51,0,0,0-9.33,8.63h-2v6h2v18h6v-18h6Zm12,0h6v-24h-6Zm0-26h6v-6h-6Zm-39.34,26h6v-18h3.33v-6h-3.33a2.65,2.65,0,0,1,3.33-2.63v-6a8.52,8.52,0,0,0-9.34,8.63h-6a2.66,2.66,0,0,1,3.34-2.63v-6a8.52,8.52,0,0,0-9.34,8.63h-2v6h2v18h6v-18h6Zm-23.55-14.67h-8a4,4,0,0,1,8,0m-1.29,23.33v-3.91a2.26,2.26,0,0,1-2.27-2.22,2.51,2.51,0,0,1,1.29-2,10.13,10.13,0,0,0,7.51-6.09L584.35,418a4,4,0,0,1-7.69-1.56h14v-5.33a10,10,0,0,0-20,0v5.33a10.1,10.1,0,0,0,8.26,9.87v.09a3.92,3.92,0,0,0-2,3.42c0,2.31,1.87,4.62,6.49,4.62m-21.74-23.33h-8.17a4.09,4.09,0,1,1,8.17,0m5.16,9.11L561.23,418a4,4,0,0,1-7.69-1.56h14v-5.33a10,10,0,0,0-20,0v5.33a10,10,0,0,0,19.25,3.78M550,399.76h6v-6h-6Zm9.11,0h6v-6h-6Zm-20.58,11.33h-8.18a4.09,4.09,0,1,1,8.18,0m5.16,9.11L538.12,418a4,4,0,0,1-7.69-1.56h14v-5.33a10,10,0,0,0-20,0v5.33a10,10,0,0,0,19.25,3.78m-6.22-20.44h4.4l-4.45-6h-6l-4.44,6h4.44l3-3Zm-22.05,11.33h-8.18a4.09,4.09,0,1,1,8.18,0m5.16,9.11L515,418a4,4,0,0,1-7.69-1.56h14v-5.33a10,10,0,0,0-20,0v5.33a10,10,0,0,0,19.25,3.78m-6.76-20.44,4.44-6h-6.44l-2.89,6ZM492.3,411.09h-8.18a4.09,4.09,0,1,1,8.18,0m5.15,9.11L491.9,418a4,4,0,0,1-7.69-1.56h14v-5.33a10,10,0,0,0-20,0v5.33a10,10,0,0,0,19.24,3.78m-6.75-20.44-2.89-6h-6.45l4.45,6Zm-22.76,34.66c2.58,0,4.27-1.64,4.27-3.6a3.37,3.37,0,0,0-3.69-3.33v-1.2a10,10,0,0,0,7.69-6.09L470.65,418a4,4,0,0,1-7.69-1.56v-5.33a4,4,0,0,1,7.6-1.73l5.56-2.27a10,10,0,0,0-19.16,4v5.33a9.93,9.93,0,0,0,8,9.78v3.07l1.87,1a1.27,1.27,0,0,1,.93-.4c.71,0,1.25.36,1.25.89a1.14,1.14,0,0,1-1.25,1,2.17,2.17,0,0,1-1.51-.67l-2.13,1.6a4.61,4.61,0,0,0,3.82,1.73m-17.47-8.66v.09a4.42,4.42,0,0,0-2.71,3.95c0,2.31,1.87,4.62,6.49,4.62v-3.91a2.27,2.27,0,0,1-2.27-2.22c0-1.11,1-2,2.27-2.53v-24h-6v1.06a8.19,8.19,0,0,0-5-1.73,9,9,0,0,0-9,9v7.38a9,9,0,0,0,9,9,8.13,8.13,0,0,0,5-1.73v1.07Zm-6.22-5.34a4,4,0,0,1-4-4v-5.33a4,4,0,1,1,8,0v5.33a4,4,0,0,1-4,4m-19.56,5.34h6v-24h-6v1.06a8.16,8.16,0,0,0-5-1.73,9,9,0,0,0-9,9v7.38a9,9,0,0,0,9,9,8.1,8.1,0,0,0,5-1.73Zm-4-5.34a4,4,0,0,1-4-4v-5.33a4,4,0,0,1,8,0v5.33a4,4,0,0,1-4,4m-.62-23.24a1,1,0,0,1-1-1,1,1,0,0,1,2,0,1,1,0,0,1-1,1m0,3a4,4,0,1,0-4-4,4,4,0,0,0,4,4m-18.89,25.56h6v-24h-6v1.06a8.21,8.21,0,0,0-5-1.73,9,9,0,0,0-9,9v7.38a9,9,0,0,0,9,9,8.15,8.15,0,0,0,5-1.73Zm-4-5.34a4,4,0,0,1-4-4v-5.33a4,4,0,0,1,8,0v5.33a4,4,0,0,1-4,4m-7.56-20.66h6v-6h-6Zm9.11,0h6v-6h-6Zm-21.11,26h6v-24h-6v1.06a8.19,8.19,0,0,0-5-1.73,9,9,0,0,0-9,9v7.38a9,9,0,0,0,9,9,8.13,8.13,0,0,0,5-1.73Zm-4-5.34a4,4,0,0,1-4-4v-5.33a4,4,0,0,1,8,0v5.33a4,4,0,0,1-4,4m3.91-26.67a1.55,1.55,0,0,1-1.51,1.74c-1.51,0-2.27-1.74-4.89-1.74s-5,1.74-5,6h3.56a1.55,1.55,0,0,1,1.51-1.74c1.51,0,2.26,1.74,4.89,1.74s5-1.74,5-6Zm-23.47,32h6v-24h-6v1.06a8.19,8.19,0,0,0-5-1.73,9,9,0,0,0-9,9v7.38a9,9,0,0,0,9,9,8.13,8.13,0,0,0,5-1.73Zm-4-5.34a4,4,0,0,1-4-4v-5.33a4,4,0,1,1,8,0v5.33a4,4,0,0,1-4,4m3.07-20.66h4.4l-4.45-6h-6l-4.44,6H347l3-3Zm-22.63,26h6v-24h-6v1.06a8.16,8.16,0,0,0-5-1.73,9,9,0,0,0-9,9v7.38a9,9,0,0,0,9,9,8.1,8.1,0,0,0,5-1.73Zm-4-5.34a4,4,0,0,1-4-4v-5.33a4,4,0,0,1,8,0v5.33a4,4,0,0,1-4,4m2.05-20.66,4.44-6h-6.44l-2.89,6Zm-21.6,26h6v-24h-6v1.06a8.19,8.19,0,0,0-5-1.73,9,9,0,0,0-9,9v7.38a9,9,0,0,0,9,9,8.13,8.13,0,0,0,5-1.73Zm-4-5.34a4,4,0,0,1-4-4v-5.33a4,4,0,0,1,8,0v5.33a4,4,0,0,1-4,4m2-20.66-2.89-6h-6.44l4.44,6Zm-21.69,26H290v-.09l-5.56-10.85a8.53,8.53,0,0,0,4.67-7.6v-2.93a8.53,8.53,0,0,0-8.54-8.53H267.13v30h6v-10h5.06Zm-3.11-24a3,3,0,0,1,3,3v2a3,3,0,0,1-3,3h-7v-8Zm-24,14a8.54,8.54,0,0,0,8.53-8.54v-2.93a8.53,8.53,0,0,0-8.53-8.53H242.68v30h6v-10Zm-.45-14a3,3,0,0,1,3,3v2a3,3,0,0,1-3,3h-7v-8Zm-33.47,24h6v-14h8v-6h-8v-4h12v-6h-18Zm-21.55,0h18v-6h-12v-8h8v-6h-8v-4h12v-6h-18Zm-25,0h12.94a8.54,8.54,0,0,0,8.53-8.54v-.93a8.67,8.67,0,0,0-2.62-6.18,9.09,9.09,0,0,0,1.69-5.38,8.75,8.75,0,0,0-8.53-9h-12Zm6-6v-6h6.49a3,3,0,0,1,0,6Zm0-12v-6h6a2.73,2.73,0,0,1,2.57,3,2.82,2.82,0,0,1-2.57,3Zm-27.24,18H172.1v-6h-12v-6h8v-6h-8v-6h12v-6H154.41v1.46h-.09a8.09,8.09,0,0,0-5.69-2.13c-5.6,0-10.53,5-10.53,11v9.29c0,6.05,4.93,11,10.53,11a8.09,8.09,0,0,0,5.69-2.13h.09Zm-5.34-5.34a5,5,0,0,1-5-5v-9.29a5,5,0,1,1,10,0v9.29a5,5,0,0,1-5,5m-23.51,0a8.54,8.54,0,0,0,8.54-8.53v-2.27a8.54,8.54,0,0,0-8.54-8.53H120.1v-5.33h-6v30h6v-5.34Zm-.44-13.33a3,3,0,0,1,3,3v1.37a3,3,0,0,1-3,3h-5v-7.33ZM98,420.42a5,5,0,0,1-4.13-2.22l9.15-9.11v6.31a5,5,0,0,1-5,5m-5-14.31a5.05,5.05,0,0,1,5-5,4.89,4.89,0,0,1,4.09,2.18L93,412.38Zm5,20.31a11,11,0,0,0,11-11v-9.29a11.19,11.19,0,0,0-.35-2.71l3.91-3.87-3.38-3.33-2.8,2.8A10.86,10.86,0,0,0,98,395.09a11.06,11.06,0,0,0-11,11v9.29a13.55,13.55,0,0,0,.31,2.67L83.38,422l3.34,3.33,2.84-2.84a10.92,10.92,0,0,0,8.4,3.95m-30.53-6.66v-6h6v-6h-6v-6h4a6,6,0,0,1,6,6v6a6,6,0,0,1-6,6Zm4,6a12,12,0,0,0,12-12v-6a12,12,0,0,0-12-12h-10v12h-4v6h4v12Zm-32.67,0H56.54v-6h-12v-6h8v-6h-8v-6h12v-6H38.76l-19.38,30h6.4l3.87-6.05h9.11Zm0-20.14v8.18H33.42l5.25-8.18Zm-23,20.14V416l9-20.22H18.13L12.8,407.93h-.09L7.33,395.76H.76l9,20.13v9.87Zm-.53-32,4.45-6H13.2l-2.89,6Z"/><path d="M679,385v-3.91a2.27,2.27,0,0,1-2.26-2.23,2.58,2.58,0,0,1,1.33-2A11.06,11.06,0,0,0,687.15,366V346.37h-6V366a5,5,0,1,1-10,0V346.37h-6V366a11,11,0,0,0,9.42,10.89V377a3.94,3.94,0,0,0-2.05,3.43c0,2.31,1.87,4.62,6.49,4.62m-29.11-8a11,11,0,0,0,11-11V346.37h-6V366a5,5,0,1,1-10,0V346.37h-6V366a11,11,0,0,0,11,11m-7.56-32.67h6v-6h-6Zm9.12,0h6v-6h-6ZM623.68,377a11,11,0,0,0,11-11V346.37h-6V366a5,5,0,1,1-10,0V346.37h-6V366a11,11,0,0,0,11,11m3.06-32.67h4.4l-4.44-6h-6l-4.45,6h4.45l3-3ZM597.45,377a11.06,11.06,0,0,0,11-11V346.37h-6V366a5,5,0,1,1-10,0V346.37h-6V366a11,11,0,0,0,11,11m2.49-32.67,4.45-6h-6.45l-2.89,6ZM571.23,377a11,11,0,0,0,11-11V346.37h-6V366a5,5,0,1,1-10,0V346.37h-6V366a11,11,0,0,0,11,11m2.49-32.67-2.89-6h-6.45l4.45,6ZM545.23,371a5,5,0,0,1-5-5v-9.28a5,5,0,1,1,10,0V366a5.05,5.05,0,0,1-5,5m2.84,14v-3.91a2.31,2.31,0,0,1-2.27-2.23,2.59,2.59,0,0,1,1.34-2A11,11,0,0,0,556.25,366v-9.28a11,11,0,1,0-22,0V366a11,11,0,0,0,9.38,10.89V377a3.94,3.94,0,0,0-2,3.43c0,2.31,1.87,4.62,6.49,4.62m-28.4-14a5,5,0,0,1-5-5v-9.28a5,5,0,1,1,10,0V366a5,5,0,0,1-5,5m0,6a11,11,0,0,0,11-11v-9.28a11,11,0,1,0-22,0V366a11,11,0,0,0,11,11m-7.56-32.67h6v-6h-6Zm9.12,0h6v-6h-6ZM494.11,371a5,5,0,0,1-5-5v-9.28a5,5,0,1,1,10,0V366a5.05,5.05,0,0,1-5,5m0,6a11.06,11.06,0,0,0,11-11v-9.28a11,11,0,1,0-22,0V366a11,11,0,0,0,11,11M498,338.37a1.54,1.54,0,0,1-1.51,1.73c-1.51,0-2.26-1.73-4.89-1.73s-5,1.73-5,6h3.55a1.54,1.54,0,0,1,1.51-1.73c1.51,0,2.27,1.73,4.89,1.73s5-1.73,5-6ZM468.56,371a5,5,0,0,1-5-5v-9.28a5,5,0,1,1,10,0V366a5.05,5.05,0,0,1-5,5m0,6a11,11,0,0,0,11-11v-9.28a11,11,0,1,0-22,0V366a11,11,0,0,0,11,11m3.06-32.67H476l-4.44-6h-6l-4.45,6h4.45l3-3ZM443,371a5,5,0,0,1-5-5v-9.28a5,5,0,1,1,10,0V366a5,5,0,0,1-5,5m0,6a11,11,0,0,0,11-11v-9.28a11,11,0,1,0-22,0V366a11,11,0,0,0,11,11m2.49-32.67,4.44-6h-6.44l-2.89,6ZM417.44,371a5,5,0,0,1-5-5v-9.28a5,5,0,1,1,10,0V366a5.05,5.05,0,0,1-5,5m0,6a11.06,11.06,0,0,0,11-11v-9.28a11,11,0,1,0-22,0V366a11,11,0,0,0,11,11m2.49-32.67-2.89-6H410.6l4.44,6Zm-21,32h3.55v-30h-6v16.36L384,346.37h-3.56v30h6V360Zm-3.56-38a1.54,1.54,0,0,1-1.51,1.73c-1.51,0-2.27-1.73-4.89-1.73s-5,1.73-5,6h3.56a1.54,1.54,0,0,1,1.51-1.73c1.51,0,2.27,1.73,4.89,1.73s5-1.73,5-6Zm-24.22,38v.09a4.43,4.43,0,0,0-2.71,4c0,2.31,1.87,4.62,6.49,4.62v-3.91a2.27,2.27,0,0,1-2.27-2.23c0-1.11,1-2,2.27-2.53v-32h-6v32Zm-15.33,0h6v-30h-6Zm-4.45-32h6v-6h-6Zm8.89,0h6v-6h-6Zm-22,32h6v-30h-6Zm6-32h4.4l-4.44-6h-6l-4.45,6h4.45l3-3Zm-20.89,32h6v-30h-6Zm5.42-32,4.45-6h-6.45l-2.89,6Zm-16.75,32h6v-30h-6Zm5.47-32-2.89-6h-6.45l4.45,6Zm-13.47,32v.09a4.43,4.43,0,0,0-2.71,4c0,2.31,1.86,4.62,6.49,4.62v-3.91a2.27,2.27,0,0,1-2.27-2.23c0-1.11,1-2,2.27-2.53v-6h-12v-6h8v-6h-8v-6h12v-6h-18v30Zm-35.78,0h18v-6h-12v-6h8v-6h-8v-6h12v-6h-18Zm1.42-32h6v-6h-6Zm9.11,0h6v-6h-6Zm-32.09,32h18v-6h-12v-6h8v-6h-8v-6h12v-6h-18Zm12.05-32h4.4l-4.45-6h-6l-4.44,6h4.44l3-3Zm-33.61,32h18v-6h-12v-6h8v-6h-8v-6h12v-6h-18Zm11.47-32,4.45-6h-6.45l-2.89,6Zm-33,32h18v-6h-12v-6h8v-6h-8v-6h12v-6h-18Zm11.47-32-2.89-6H205.7l4.45,6ZM191.21,385c2.58,0,4.27-1.65,4.27-3.6a3.38,3.38,0,0,0-3.69-3.34v-1.2a11.13,11.13,0,0,0,8.89-8.35L195,366.28a5.06,5.06,0,0,1-5,4.76,5,5,0,0,1-5-5v-9.28a5,5,0,0,1,9.64-1.92l4.85-3.64A11,11,0,0,0,179,356.73V366a11,11,0,0,0,9.24,10.89v3l1.87,1a1.31,1.31,0,0,1,.93-.4c.72,0,1.25.36,1.25.89a1.12,1.12,0,0,1-1.25,1,2.17,2.17,0,0,1-1.51-.67l-2.13,1.6a4.59,4.59,0,0,0,3.82,1.74m-17.33-8.67v.09a4.43,4.43,0,0,0-2.71,4c0,2.31,1.86,4.62,6.49,4.62v-3.91a2.27,2.27,0,0,1-2.27-2.23c0-1.11,1-2,2.27-2.53l-10.45-30h-4l-10.44,30h6.44l1.29-4h9.42l1.29,4ZM165.17,358h.09l2.71,8.36h-5.52Zm-19.29,18.36h6.44l-10.44-30a4.38,4.38,0,0,0,2.44-4,4.45,4.45,0,0,0-8.89,0,4.37,4.37,0,0,0,2.45,4l-10.45,30h6.45l1.28-4h9.43Zm-6-18.36h.09l2.71,8.36h-5.51Zm0-14.17a1.43,1.43,0,1,1,0-2.85,1.43,1.43,0,0,1,0,2.85m-19.34,32.53H127l-10.45-30h-4l-10.44,30h6.44l1.29-4h9.42Zm-6-18.36h.08l2.72,8.36h-5.52ZM107,344.37h6v-6h-6Zm9.12,0h6v-6h-6Zm-20.89,32h6.44l-10.44-30h-4l-10.45,30h6.45l1.28-4h9.43Zm-6-18.36h.09L92,366.37H86.45Zm4-19.64a1.54,1.54,0,0,1-1.51,1.73c-1.52,0-2.27-1.73-4.89-1.73s-5,1.73-5,6h3.55a1.55,1.55,0,0,1,1.52-1.73c1.51,0,2.26,1.73,4.88,1.73s5-1.73,5-6Zm-23.25,38h6.45l-10.45-30h-4l-10.44,30h6.44l1.29-4h9.42Zm-6-18.36h.09l2.71,8.36H61.12Zm3.06-13.64h4.4l-4.44-6h-6l-4.45,6h4.45l3-3Zm-22.35,32H51l-10.44-30h-4l-10.45,30h6.45l1.28-4h9.43Zm-6-18.36h.09l2.71,8.36H35.78ZM41,344.37l4.45-6H39l-2.89,6Zm-21.78,32h6.45l-10.45-30h-4l-10.44,30H7.2l1.29-4h9.42Zm-6-18.36h.09L16,366.37H10.45Zm2.49-13.64-2.89-6H6.31l4.45,6Z"/><path d="M540.07,327h4V301h2.67v26h4V297H540.07a8.54,8.54,0,0,0-8.53,8.54v2.93a8.53,8.53,0,0,0,8.53,8.53Zm-17.2-22.26a2,2,0,0,1-2-2.05,2,2,0,0,1,2-2,2,2,0,0,1,2,2,2.08,2.08,0,0,1-2,2.05m0,4.49a6.45,6.45,0,1,0-6.44-6.45,6.43,6.43,0,0,0,6.44,6.45M501.4,319.43h4.72v-.05l-2.23-5.28a5,5,0,0,0,2.49-4.36v-.58a5,5,0,0,0-5-5H494.2v15.29h4.23v-4.67h1.2Zm-.53-11.11a1.13,1.13,0,0,1,1.07,1.15,1.09,1.09,0,0,1-1.07,1.11h-2.44v-2.26ZM499.67,323a11,11,0,1,1,11-11.07,11.1,11.1,0,0,1-11,11.07m0,4.62A15.67,15.67,0,1,0,484,312a15.74,15.74,0,0,0,15.69,15.69m-26.58-11.33-4.13-2a2.7,2.7,0,0,1-2.4,1.69,2.63,2.63,0,0,1-2.58-2.67v-2.75a2.63,2.63,0,0,1,2.58-2.67,2.66,2.66,0,0,1,2.31,1.56l4.13-2a7.09,7.09,0,0,0-6.44-4.18,7,7,0,0,0-7,7v3.29a7,7,0,0,0,7,7,7.07,7.07,0,0,0,6.53-4.35M466.56,323a11,11,0,1,1,11-11.07,11.1,11.1,0,0,1-11,11.07m0,4.62A15.67,15.67,0,1,0,450.87,312a15.73,15.73,0,0,0,15.69,15.69m-28.36,8c5.69,0,10-3.73,10-8.09a7.31,7.31,0,0,0-2.71-5.46,7.39,7.39,0,0,0,2.71-5.56c0-4.31-4.18-7.38-9.11-9.16-3.33-1.24-4.36-2.35-4.36-3.42s1.25-2.18,3-2.18a4.67,4.67,0,0,1,4.58,3.87l5.6-2.13a10.4,10.4,0,0,0-10.27-7.2c-4.89,0-9.42,3-9.37,7.69a7.07,7.07,0,0,0,2.71,5.51,6.82,6.82,0,0,0-2.71,5.55c0,5.43,5.37,7.34,8.66,8.58,2.58,1,4.85,2.27,4.85,3.91,0,1.43-1.65,2.58-3.56,2.58a5.53,5.53,0,0,1-5.24-4.76l-5.74,2.09c1.16,4.85,5.6,8.18,11,8.18m-3.64-20.84a2.64,2.64,0,0,1,1.55-2.18c3.34,1.2,5.74,2.4,5.74,4a2.71,2.71,0,0,1-1.47,2.23c-4-1.56-5.82-2.63-5.82-4.09M417,333h5.56V315H417Zm5.56-41.34H417v18h5.56Zm-25,5.33-9.25,18h6.45L401,302.67H401L407.22,315h6.45l-9.25-18Zm-10.14,22.18-5.69-2.26a5,5,0,0,1-5,4.75,4.91,4.91,0,0,1-4.67-3.33h7.69V313h-8v-2h8v-5.33h-7.69a5,5,0,0,1,4.72-3.33,5,5,0,0,1,4.62,3.11l5.55-2.22a11,11,0,0,0-21.06,2.44h-2.14V311h2v2h-2v5.34h2.14a11,11,0,0,0,21.55.84M360.29,321v-4h-7.43l1.16-2.66h6.27v-4H355.8L361.75,297h-6.57l-5.38,12.18h-.09L344.33,297h-6.58l6,13.34h-4.54v4h6.32l1.15,2.66h-7.47v4h7.56v6h6v-6Zm-37.07-12.44a3.56,3.56,0,1,1-3.56,3.56,3.57,3.57,0,0,1,3.56-3.56m8.58,16,3.95-3.91-4.09-4.09a9.62,9.62,0,0,0,0-9l4.09-4.09-3.95-3.91-4.05,4a9.79,9.79,0,0,0-4.53-1.11,9.45,9.45,0,0,0-4.49,1.11l-4.05-4-3.91,3.95,4,4a9.82,9.82,0,0,0,0,9.07l-4,4,3.91,3.95,4.05-4a9.45,9.45,0,0,0,4.49,1.11,9.79,9.79,0,0,0,4.53-1.11Zm-25,2.4v-6h-8.53L297,315h5.78v-6h-7a13.56,13.56,0,0,1-.4-2.84c0-2.31,1.51-3.82,3.16-3.82a2.57,2.57,0,0,1,2.57,2.57h5.69a8.45,8.45,0,0,0-8.35-8.57,9.29,9.29,0,0,0-9.07,9.37,16.46,16.46,0,0,0,.4,3.29h-3v6H291l1.25,6h-5.47v6Zm-22.44-5.55-5.56-2.22a4,4,0,0,1-7.69-1.56v-5.33a4,4,0,0,1,4-4,4.05,4.05,0,0,1,3.6,2.26l5.56-2.26a10,10,0,0,0-6.76-5.69v-4.76h-5.55v5a10,10,0,0,0-6.85,9.47v5.33a10,10,0,0,0,6.85,9.47v5h5.55v-4.76a10,10,0,0,0,6.85-5.91M255.39,332.1v-4.58c4.22-.71,7.47-3.91,7.47-8.18,0-2.18-.85-5-4.36-7.56l-5.64-4.09c-1.82-1.33-2.4-2.35-2.4-3.28a2.68,2.68,0,0,1,2.93-2.4c1.65,0,2.94,1.11,4,2.4l4.54-3.52a10.46,10.46,0,0,0-6.54-4.35v-4.67h-5.55v5.07a7.93,7.93,0,0,0-5.38,7.55c0,2,.71,5.07,4.8,7.92l5.51,3.86a4.15,4.15,0,0,1,2.09,3.29c0,1.6-1.47,2.54-3.16,2.54a5.54,5.54,0,0,1-5.15-4.4L243,320a11.49,11.49,0,0,0,6.8,7v5.16ZM223,315h18v-6H223Zm-13.6,7.2h5.65v-5.64h-5.65Zm-6.17-7.42h18v-5.55h-18Zm6.17-7.33h5.65v-5.65h-5.65Zm-13.6,15.33,4.27-4.26L193.66,312l6.48-6.49-4.31-4.31-6.49,6.48-6.53-6.48-4.27,4.26,6.54,6.49-6.54,6.54,4.31,4.31,6.54-6.54ZM174.1,323v-6h-6v-4h6v-6h-6v-6h-6v6h-6v6h6v4h-6v6Zm-44.45-14h16v10h6V303h-22Zm-8.58-.75a2.38,2.38,0,0,1-2.35,2.53c-2.18,0-4-2.75-7.43-2.75-3.91,0-7.2,3.51-7.2,7.77h5a2.38,2.38,0,0,1,2.35-2.53c2.18,0,4,2.76,7.43,2.76,3.91,0,7.2-3.51,7.2-7.78ZM94.09,333h5.56V291.65H94.09Zm-5.33-22.1-18-9.24v6.89l11.87,5.73v.09L70.76,320.1V327l18-9.24Zm-23.11,2.54h-18v5.11h18Zm0-8h-18v5.11h18ZM24.53,317.74l18,9.24V320.1l-11.87-5.74v-.09l11.87-5.73v-6.89l-18,9.24ZM9.42,321h6v-6h6v-6h-6v-6h-6v6h-6v6h6Z"/><path d="M576.16,277.6h6v-6h-6Zm8,0h6v-6h-6Zm8,0h6v-6h-6Zm-29.11-6a8,8,0,1,0-8-8,8,8,0,0,0,8,8m-16.22-7.11v-.89h-6V264c0,6-7.65,6.94-7.65,13.34,0,4.89,4.54,8.89,10.05,8.89a10.68,10.68,0,0,0,9.91-6.89l-5.56-2.23a4.76,4.76,0,0,1-4.57,3.12c-2,0-3.83-1-3.83-2.85,0-3.82,7.65-4.53,7.65-12.93m0-8.89h-6v6h6Zm-22.23,10h6v-6h-6Zm-5.2-2h-6v22h6Zm0-8h-6v6h6Zm-28,11a2.31,2.31,0,0,1-2.18-2.36V262a2.23,2.23,0,0,1,2.18-2.13,2.19,2.19,0,0,1,2.13,2.13v2.31a2.28,2.28,0,0,1-2.13,2.36M492.2,280a16.45,16.45,0,0,0,9-2.62l-3.15-4a10.47,10.47,0,0,1-5.92,1.73,12.11,12.11,0,0,1,.09-24.22c6.54,0,11.87,5,11.87,11.2,0,2.45-.84,4.8-2.76,4.8-1.64,0-2.93-1.73-2.93-3.87v-8h-4.89v1.12a5,5,0,0,0-3.69-1.56,5.47,5.47,0,0,0-5.51,5.29V266a5.94,5.94,0,0,0,6.14,5.78,5.33,5.33,0,0,0,5.15-3.29h.09a5.94,5.94,0,0,0,5.56,3.29c4.35,0,7.95-4.09,7.95-9.82,0-8.31-7.64-16-17-16a17,17,0,1,0,0,34m-34.58-2.44h6v-6h-6Zm0-8.89v.89h6v-.45c0-6,7.65-6.93,7.65-13.33,0-4.89-4.53-8.89-10-8.89a10.68,10.68,0,0,0-9.91,6.89l5.56,2.22a4.77,4.77,0,0,1,4.58-3.11c2,0,3.82,1,3.82,2.85,0,3.82-7.65,4.53-7.65,12.93M442.87,281.6a6,6,0,0,0,6-6v-4h-6v6h2a2,2,0,0,1-2,2Zm0-16h6v-6h-6Zm-10.45,12h6v-6h-6Zm0-12h6v-6h-6ZM422,277.6h6v-6h-6Zm-10.45,4a6,6,0,0,0,6-6v-4h-6v6h2a2,2,0,0,1-2,2Zm-26.44-16h22v-6h-22Zm-20.45,0h16v-6h-16Zm-17.11,0h14v-6h-14Zm-21.65,14h6.67l15.87-34H341.8Zm-6-34H315v5.86l-5.42-1.77-1.47,4.49,5.47,1.77-3.38,4.58,3.82,2.85,3.43-4.67,3.51,4.67,3.82-2.8L321.31,256l5.46-1.77-1.51-4.49-5.38,1.77ZM291,272.4a2.61,2.61,0,0,1-2.89-2.58,4.55,4.55,0,0,1,2.09-3.56l4.31,4.41A4.59,4.59,0,0,1,291,272.4m-2.53-17.07a2.53,2.53,0,1,1,5.06,0c0,1.2-.84,2.45-2.71,3.78-1.64-1.65-2.35-2.67-2.35-3.78m17.64,19.07-3.78-3.73,3.65-3.74-4.09-4.09-3.6,3.78-3.73-3.82c2.75-2.27,4.84-4.49,4.84-7.78a8.4,8.4,0,0,0-16.8.09,9.58,9.58,0,0,0,3.29,6.93,10.4,10.4,0,0,0-4,8c0,4.62,3.82,8.27,8.84,8.27a11.52,11.52,0,0,0,8.05-3.38l3.46,3.38Zm-33.33-.58a1.1,1.1,0,0,1-1.11-1.11v-6.22a1.11,1.11,0,1,1,2.22,0v6.22a1.1,1.1,0,0,1-1.11,1.11m0,4.45a5.67,5.67,0,0,0,5.55-5.78v-5.78a5.56,5.56,0,1,0-11.11,0v5.78a5.67,5.67,0,0,0,5.56,5.78m-18.58-18.45a1.1,1.1,0,0,1-1.11-1.11v-6.22a1.11,1.11,0,1,1,2.22,0v6.22a1.1,1.1,0,0,1-1.11,1.11M251,277.6h5.46l19.38-30h-5.42Zm3.11-13.34a5.66,5.66,0,0,0,5.55-5.77v-5.78a5.56,5.56,0,1,0-11.11,0v5.78a5.66,5.66,0,0,0,5.56,5.77M233.3,277.6h6v-6h5.29v-6H239.3v-6h5.29v-6H239.3v-6h-6v6h-5.38v-6h-6v6h-5.29v6h5.29v6h-5.29v6h5.29v6h6v-6h5.38Zm0-12h-5.38v-6h5.38Zm-27.78,12h6v-6h-6Zm0-8h6v-22h-6Zm-11.11-14a6,6,0,0,0,6-6v-4h-6v6h2a2,2,0,0,1-2,2Zm-8,0a6,6,0,0,0,6-6v-4h-6v6h2a2,2,0,0,1-2,2Zm-10.44,0a6,6,0,0,0,6-6v-4h-6v6h2a2,2,0,0,1-2,2Zm-12.45,0v-6h-2a2,2,0,0,1,2-2v-2a6,6,0,0,0-6,6v4Zm8,0v-6h-2a2,2,0,0,1,2-2v-2a6,6,0,0,0-6,6v4Zm-18.44,0v-6h-2a2,2,0,0,1,2-2v-2a6,6,0,0,0-6,6v4Zm-19.69.22v6.49l4.84,3.2v.18l-4.84,3.2v6.49l10.13-7.52v-4.53Zm-10.8,0v6.49l4.84,3.2v.18l-4.84,3.2v6.49l10.13-7.52v-4.53Zm-25.38,7.51v4.53l10.13,7.52v-6.49l-4.84-3.2v-.18l4.84-3.2v-6.49Zm10.8,0v4.53l10.13,7.52v-6.49l-4.84-3.2v-.18l4.84-3.2v-6.49Zm-15.25-2.8a4.29,4.29,0,0,1-4.31-4.31v-5.87a8.28,8.28,0,0,0-8.31-8.22h-1.6v5h1.29a3.27,3.27,0,0,1,3.29,3.24v7.43c0,3.06,1.73,4.93,3.91,5.11V263c-2.18.31-3.91,2.13-3.91,5v7.47a3.28,3.28,0,0,1-3.29,3.28H78.54v5h1.6a8.29,8.29,0,0,0,8.31-8.26v-5.92a4.32,4.32,0,0,1,4.31-4.35ZM61.65,265.2A4.32,4.32,0,0,1,66,269.55v5.92a8.29,8.29,0,0,0,8.31,8.26h1.6v-5H74.58a3.28,3.28,0,0,1-3.29-3.28V268c0-2.89-1.73-4.71-3.91-5v-.09c2.18-.18,3.91-2.05,3.91-5.11v-7.43a3.27,3.27,0,0,1,3.29-3.24h1.29v-5h-1.6A8.28,8.28,0,0,0,66,250.35v5.87a4.29,4.29,0,0,1-4.31,4.31ZM57.2,283.6V242.26H45.87v5.34h6v30.67h-6v5.33Zm-14,0v-5.33h-6V247.6h6v-5.34H31.87V283.6Zm-22,.67c4.22-5.92,6.17-12.85,6.17-21.29s-2-15.47-6.17-21.38l-4.49,2.71c3.64,5.24,5.33,11.29,5.33,18.67s-1.69,13.33-5.33,18.57Zm-7.16-2.72c-3.64-5.24-5.33-11.28-5.33-18.57s1.69-13.43,5.33-18.67L9.6,241.6C5.38,247.51,3.42,254.49,3.42,263s2,15.37,6.18,21.29Z"/><path d="M485.62,217.06a5.29,5.29,0,0,0,5.2,5.29,3.66,3.66,0,0,0,1.65-.36l.09,0v1.34a1.3,1.3,0,0,1-1.34,1.29,1.47,1.47,0,0,1-1.46-1.2l-4,1.46a5.72,5.72,0,0,0,5.38,4,5.62,5.62,0,0,0,5.6-5.51v-6.31a5.58,5.58,0,0,0-11.16,0m5.56-1.25a1.25,1.25,0,1,1-1.24,1.25,1.27,1.27,0,0,1,1.24-1.25M478.07,222a1.29,1.29,0,1,1-1.29,1.29,1.29,1.29,0,0,1,1.29-1.29m0-6.57a1,1,0,0,1,1,1,1,1,0,1,1-2,0,1,1,0,0,1,1-1m0,13.42a5.73,5.73,0,0,0,5.78-5.56,5.09,5.09,0,0,0-1.83-3.91v0a4.33,4.33,0,0,0,1.16-2.94,5.12,5.12,0,0,0-10.22,0,4.32,4.32,0,0,0,1.15,2.94v0a5.11,5.11,0,0,0-1.82,3.91,5.72,5.72,0,0,0,5.78,5.56m-17.91-.67H465l5.77-13.11v-2.89H460.47v4.45h4.89v.13l-5.2,11.38Zm-7.56-3.6a1.25,1.25,0,1,1,1.25-1.24,1.27,1.27,0,0,1-1.25,1.24m5.56-1.24a5.29,5.29,0,0,0-5.2-5.29,3.66,3.66,0,0,0-1.65.35l-.09,0v-1.33a1.3,1.3,0,0,1,1.34-1.29A1.47,1.47,0,0,1,454,217l4-1.47a5.72,5.72,0,0,0-5.38-3.95,5.61,5.61,0,0,0-5.6,5.51v6.31a5.58,5.58,0,0,0,11.16,0m-19.52,5.51a5.78,5.78,0,0,0,5.92-6,4.78,4.78,0,0,0-6.36-4.75V216.7h5.69v-4.49H433.67v8.09l3.55,2.18a1.5,1.5,0,0,1,1.29-.76A1.44,1.44,0,0,1,440,223.1a1.5,1.5,0,0,1-1.56,1.47,2,2,0,0,1-1.78-1.07L433,225.86a6.62,6.62,0,0,0,5.68,3m-14.89-6.67v-.13l1.56-2.62h.09v2.75Zm1.65,6h4v-2H431v-4h-1.52v-10h-3.86l-6.4,10.36v3.64h6.22Zm-14.27.67c3.69,0,6.05-2.49,6.05-5.51a4.38,4.38,0,0,0-1.74-3.65v0a4.71,4.71,0,0,0,1.2-3.16,5.21,5.21,0,0,0-5.42-5,6.17,6.17,0,0,0-5.64,4l4,2a1.4,1.4,0,0,1,1.25-.93,1,1,0,0,1,1,1,1,1,0,0,1-.94,1h-.35v3.47H411a1.12,1.12,0,0,1,1.2,1.11,1.15,1.15,0,0,1-1.15,1.16,1.68,1.68,0,0,1-1.51-1.47L404.91,224a6.23,6.23,0,0,0,6.22,4.89m-19.91-.67h10.62l.63-4.35h-4.54a6.72,6.72,0,0,1,1.65-1.78c1.82-1.6,2.62-3.11,2.62-4.85a5.72,5.72,0,0,0-5.78-5.68c-2.8,0-4.71,1.86-5.69,4.4l4.09,1.6a1.38,1.38,0,0,1,1.33-1.16,1.15,1.15,0,0,1,1.2,1.11c0,.45-.26,1.11-2.17,2.62-3.25,2.58-4,4.85-4,7.25Zm-3.16-16h-4.89v16h4.89Zm-13.33,12.22a1.1,1.1,0,0,1-1.11-1.11V217.1a1.11,1.11,0,1,1,2.22,0v6.22a1.1,1.1,0,0,1-1.11,1.11m0,4.45a5.67,5.67,0,0,0,5.56-5.78v-5.78a5.56,5.56,0,1,0-11.12,0v5.78a5.67,5.67,0,0,0,5.56,5.78m-23.07-.67h5.47l19.38-30h-5.42Zm-3.82-25.15a5.28,5.28,0,0,0,5.2,5.28,3.66,3.66,0,0,0,1.65-.35l.08,0v1.34a1.3,1.3,0,0,1-1.33,1.29,1.49,1.49,0,0,1-1.47-1.2l-4,1.46a5.71,5.71,0,0,0,5.38,4,5.62,5.62,0,0,0,5.6-5.51v-6.31a5.58,5.58,0,0,0-11.16,0m5.56-1.25a1.25,1.25,0,1,1-1.25,1.25,1.28,1.28,0,0,1,1.25-1.25M340.28,208a1.29,1.29,0,1,1-1.28,1.29,1.29,1.29,0,0,1,1.28-1.29m0-6.57a1,1,0,0,1,1,1,1,1,0,1,1-2.05,0,1,1,0,0,1,1-1m0,13.42a5.72,5.72,0,0,0,5.78-5.56,5.11,5.11,0,0,0-1.82-3.91v0a4.33,4.33,0,0,0,1.16-2.94,5.12,5.12,0,0,0-10.23,0,4.33,4.33,0,0,0,1.16,2.94v0a5.07,5.07,0,0,0-1.82,3.91,5.72,5.72,0,0,0,5.77,5.56m-17.91-.67h4.8L333,201.1v-2.89H322.68v4.45h4.89v.13l-5.2,11.38Zm-7.33-3.6a1.25,1.25,0,1,1,1.24-1.24,1.28,1.28,0,0,1-1.24,1.24m5.56-1.24a5.28,5.28,0,0,0-5.2-5.29,3.63,3.63,0,0,0-1.65.35l-.09,0v-1.33a1.3,1.3,0,0,1,1.34-1.29,1.47,1.47,0,0,1,1.46,1.2l4-1.47a5.73,5.73,0,0,0-5.38-4,5.62,5.62,0,0,0-5.6,5.52v6.31a5.58,5.58,0,0,0,11.16,0m-19.52,5.51a5.77,5.77,0,0,0,5.91-6,4.77,4.77,0,0,0-6.35-4.75V202.7h5.69v-4.49H296.1v8.09l3.56,2.18a1.5,1.5,0,0,1,1.29-.76,1.44,1.44,0,0,1,1.47,1.38,1.51,1.51,0,0,1-1.56,1.47,2,2,0,0,1-1.78-1.07l-3.69,2.36a6.64,6.64,0,0,0,5.69,3m-14.89-6.67v-.13l1.56-2.62h.09v2.75Zm1.65,6h4v-2h1.51v-4h-1.51v-10H288l-6.4,10.36v3.64h6.22Zm-13.83.67c3.69,0,6.05-2.49,6.05-5.51a4.4,4.4,0,0,0-1.73-3.65v0a4.71,4.71,0,0,0,1.2-3.16,5.22,5.22,0,0,0-5.43-5,6.21,6.21,0,0,0-5.64,4l4,2.05a1.4,1.4,0,0,1,1.25-.93,1,1,0,0,1,1,1,1,1,0,0,1-.93,1h-.36v3.47h.45a1.12,1.12,0,0,1,1.2,1.11,1.15,1.15,0,0,1-1.16,1.16,1.68,1.68,0,0,1-1.51-1.47L267.79,210a6.23,6.23,0,0,0,6.22,4.89m-19.24-.67h10.62l.62-4.35h-4.53a6.72,6.72,0,0,1,1.65-1.78c1.82-1.6,2.62-3.11,2.62-4.85a5.72,5.72,0,0,0-5.78-5.69c-2.8,0-4.71,1.87-5.69,4.4l4.09,1.6a1.38,1.38,0,0,1,1.33-1.15,1.15,1.15,0,0,1,1.2,1.11c0,.44-.26,1.11-2.17,2.62-3.25,2.58-4,4.85-4,7.25Zm-2.49-16h-4.89v16h4.89ZM239,210.43a1.1,1.1,0,0,1-1.11-1.11V203.1a1.11,1.11,0,0,1,2.22,0v6.22a1.1,1.1,0,0,1-1.11,1.11m0,4.45a5.67,5.67,0,0,0,5.55-5.78v-5.78a5.56,5.56,0,1,0-11.11,0v5.78a5.67,5.67,0,0,0,5.56,5.78m-19.11-17.34a10,10,0,0,0-10,10,9.54,9.54,0,0,0,9.38,9.56,8.34,8.34,0,0,0,4.63-1.38v3.16a4.08,4.08,0,0,1-4.14,4,3.94,3.94,0,0,1-4-3l-5.15,3.86c1.46,3.07,5.2,5.16,9.06,5.16a10.13,10.13,0,0,0,10.23-10V207.54a10,10,0,0,0-10-10m0,6a4,4,0,1,1-4,4,4,4,0,0,1,4-4m-22.45,19.52a4.28,4.28,0,0,1-4.31-4.27,4.23,4.23,0,0,1,4.31-4.18,4.19,4.19,0,0,1,4.22,4.18,4.23,4.23,0,0,1-4.22,4.27m0-13.38a3.27,3.27,0,1,1,0-6.54,3.27,3.27,0,1,1,0,6.54m0,19.2a10.33,10.33,0,0,0,10.44-10.09,9.08,9.08,0,0,0-3.24-7.07v-.09a7.83,7.83,0,0,0,2-5.24,9.23,9.23,0,0,0-18.45,0,7.55,7.55,0,0,0,2.05,5.24v.09a9.08,9.08,0,0,0-3.25,7.07,10.34,10.34,0,0,0,10.45,10.09m-30.22-.67h6.57l11.43-26v-4h-18v6h10.75v.09l-10.75,23.82Zm-12.23-5.33a4,4,0,1,1,4-4,4,4,0,0,1-4,4m0,6a10,10,0,0,0,10-10,9.54,9.54,0,0,0-9.38-9.56,8.33,8.33,0,0,0-4.62,1.38v-3.16a4.08,4.08,0,0,1,4.14-4,4,4,0,0,1,4,3l5.15-3.87c-1.46-3.07-5.2-5.16-9.07-5.16a10.12,10.12,0,0,0-10.22,10v11.34a10,10,0,0,0,10,10m-24.49,0c6.09,0,10.49-4.62,10.49-10.89,0-7.6-6.4-11.56-12.84-9.38v-4.4h11.55v-6H122.1V213.1l4.26,3a4.27,4.27,0,0,1,4-2.36,4.54,4.54,0,0,1,4.58,4.54,4.75,4.75,0,0,1-4.71,4.75,6,6,0,0,1-4.85-2.84l-4.62,3.55a11.53,11.53,0,0,0,9.73,5.16M104,218.66v-.09l5-7.87h.09v8Zm5.11,9.55h5.55v-4h4v-5.55h-4V198.21h-4l-14,22v4h12.45ZM84,228.88a10.33,10.33,0,0,0,10.44-10.09A8.85,8.85,0,0,0,91,211.72v-.09a6.89,6.89,0,0,0,2.23-5.24c0-4.85-4.23-8.85-9.47-8.85a9.29,9.29,0,0,0-8.53,5.12l4.93,3.64a3.6,3.6,0,0,1,7.15,0,3.45,3.45,0,0,1-3.6,3.11h-1.6V215H84a4.05,4.05,0,1,1-4.27,4l-5.82,2.18A10.41,10.41,0,0,0,84,228.88m-31.7-.67H70.09l1.11-6H59.29c.67-1.78,1.51-3,5.65-6.4,4.71-3.86,5.82-6.67,5.82-9.2a9.42,9.42,0,0,0-18.45-2.31L58,206.57a3.24,3.24,0,0,1,3.47-3,3.07,3.07,0,0,1,3.29,3c0,.75-.27,2-4.13,5.06-7.6,6-8.32,10.36-8.32,14.58Zm-10-30a4,4,0,0,1-4,4v6h4v20h6v-30Zm-8.44,0h-6v30h6ZM13.42,222.88a4,4,0,0,1-4-4V207.54a4,4,0,0,1,8,0v11.34a4,4,0,0,1-4,4m0,6a10,10,0,0,0,10-10V207.54a10,10,0,0,0-20,0v11.34a10,10,0,0,0,10,10"/><path d="M571.85,178.83v-5.78H560.43V173l11.42-14.13v-4h-20v5.77h11.42v.09l-11.42,14.14v4Zm-28.67,0v-9l7.34-15H544l-3.77,8.44h-.09l-3.74-8.44h-6.57l7.37,15.11v8.89Zm-21.2,0h7.07l-7.51-12.18,7.82-11.82h-7.15l-4.27,6.93-4.31-6.93h-7.16l7.78,11.77-7.91,12.23h7.06l4.49-6.89Zm-32.49-12.09h.09l3.87,12.09h4.67l7.55-24H499.8l-4,13.86h-.08l-4.4-13.86h-3.78l-4.23,13.86h-.08l-4-13.86h-5.87l7.55,24h4.67Zm-23.33-11.91-4.45,13.77h-.08l-4.41-13.77h-6.35l8.8,24h4l8.8-24Zm-22.85,0v14.66a4,4,0,0,1-8,0V154.83h-6v14.66a10,10,0,0,0,20,0V154.83Zm-29.87,24h6V160.6h7v-5.77h-20v5.77h7Zm-16.26-24.67c-4.4,0-7.83,3.15-7.83,7.2,0,2.09.94,4.93,6.18,7.78,2.71,1.46,3.78,2.4,3.78,3.29s-1.07,1.46-2.31,1.46A4.24,4.24,0,0,1,393,171l-4.71,3.78a9.77,9.77,0,0,0,8.58,4.71c4.8,0,8.49-3.42,8.49-7.33,0-2.8-1.87-5-6.75-7.87-2.8-1.64-3.25-2.35-3.25-3.06a1.52,1.52,0,0,1,1.69-1.47,3.47,3.47,0,0,1,2.93,2l4.63-3.69a8.8,8.8,0,0,0-7.38-3.91m-22.94,24.67v-7.65h2.27l3.87,7.65h6.31v-.09l-4.36-8.49a7.51,7.51,0,0,0,3.91-6.62v-1.25a7.54,7.54,0,0,0-7.55-7.55H368.24v24Zm0-13.43v-4.8h3.6a2.4,2.4,0,1,1,0,4.8Zm-20,8.09a4,4,0,0,1-4-4v-5.33a4,4,0,1,1,8,0v5.33a4,4,0,0,1-4,4M362,182.6l4.22-4.22-3.51-3.51a10.19,10.19,0,0,0,1.55-5.38v-5.33a10,10,0,1,0-20,0v5.33a10,10,0,0,0,10,10,10.15,10.15,0,0,0,3.87-.75ZM329.8,165.4v-4.8h3.6a2.4,2.4,0,1,1,0,4.8Zm0,13.43v-7.65h4.44a7.55,7.55,0,0,0,7.56-7.55v-1.25a7.55,7.55,0,0,0-7.56-7.55H323.8v24ZM310,173.49a4,4,0,0,1-4-4v-5.33a4,4,0,1,1,8,0v5.33a4,4,0,0,1-4,4m0,6a10,10,0,0,0,10-10v-5.33a10,10,0,1,0-20,0v5.33a10,10,0,0,0,10,10m-18-.66h4v-24h-6V166.6h-.09L280,154.83h-4v24h6V167.09h.08Zm-42.45,0h5.56v-10h.08l4.94,10H261l4.89-10H266v10h5.56v-24h-4.89l-6,12.66h-.09l-6.09-12.66h-4.89Zm-3.56,0v-5.78H236V154.83h-6v24Zm-23.29,0h6.85L220,165.49l9.29-10.66h-7.6l-5.64,6.62H216v-6.62h-6v24h6v-9.29h.09Zm-27.64.66a10,10,0,0,0,10-10V154.83h-6v14.66a4,4,0,0,1-7.69,1.56l-5.56,2.22a10,10,0,0,0,9.25,6.22m-17.47-.66h6v-24h-6Zm-19.11,0v-9h8v9h6v-24h-6v9h-8v-9h-6v24Zm-9.78-9.34v-4h-9.56v5.11h4c0,1.87-1.82,3.34-4,3.34a4.22,4.22,0,0,1-4.4-4v-5.78a4,4,0,0,1,4-4,4.07,4.07,0,0,1,3.6,2.27l5.56-2.27a10,10,0,0,0-19.16,4v5.33a10,10,0,0,0,20,0m-21.78-14.66h-16v24h6v-9.11h7.11v-5.78h-7.11V160.6h10ZM97.16,173.05v-3.33h7.11v-5.78H97.16V160.6h10v-5.77h-16v24h16v-5.78ZM77.38,160.83a4,4,0,0,1,4,4v4a4,4,0,0,1-4,4H74.49v-12Zm-8.89,18h8.89a10,10,0,0,0,10-10v-4a10,10,0,0,0-10-10H68.49Zm-2.89-5.56-5.55-2.22a4,4,0,0,1-7.69-1.56v-5.33a4,4,0,0,1,4-4,4.07,4.07,0,0,1,3.6,2.27l5.56-2.27a10,10,0,0,0-19.16,4v5.33a10,10,0,0,0,19.24,3.78m-35.47.36v-4.54H34.8a2.27,2.27,0,0,1,0,4.54Zm0-9.69V160h3.69A2.1,2.1,0,0,1,36.14,162a2.17,2.17,0,0,1-2.32,2Zm-6,14.89H35.6A7.45,7.45,0,0,0,43,171.36a7,7,0,0,0-2.31-5.29V166a6,6,0,0,0,1.43-4,7.36,7.36,0,0,0-7.56-7.15H24.13Zm-7.91,0h6.14l-8.8-24h-4l-8.8,24H6.84l1-3.11h7.38Zm-4.71-14.45h.09l1.91,6H9.56Z"/><path d="M637.32,129.44v-6H623.9l13.42-20v-4h-22v6h13.42l-13.42,20v4Zm-31.87,0v-9.78l9-20.22h-6.58l-5.33,12.18h-.09l-5.38-12.18h-6.58l9,20.13v9.87Zm-22.53,0H590l-9.47-15.16,9.25-14.84h-7.07l-5.87,9.38L571,99.44h-7.07l9.24,14.84-9.46,15.16h7.11l6-9.64Zm-46.45,0H540l5.2-16.49h.09l5.2,16.49h3.55l8.76-30h-6.14l-4.53,16.22h-.09l-5-16.22h-3.56l-5,16.22h-.09l-4.53-16.22h-6.14Zm-23.42,0h4l9.78-30h-6.45l-5.29,18.36H515l-5.29-18.36h-6.44Zm-22.58.67a11,11,0,0,0,11-11V99.44h-6v19.64a5,5,0,1,1-10,0V99.44h-6v19.64a11,11,0,0,0,11,11m-27.87-.67h6v-24h8v-6h-22v6h8Zm-8.89-7.64c0-2.18-.84-5-4.35-7.56l-5.65-4.09c-1.82-1.33-2.4-2.36-2.4-3.29a2.68,2.68,0,0,1,2.93-2.4c1.65,0,2.94,1.11,4,2.4l4.54-3.51a10.38,10.38,0,0,0-8.63-4.58c-5.11,0-8.84,3.56-8.84,8.18,0,2,.71,5.07,4.8,7.91l5.51,3.87a4.11,4.11,0,0,1,2.09,3.29c0,1.6-1.47,2.53-3.16,2.53a5.54,5.54,0,0,1-5.15-4.4l-5.51,2.27a11.37,11.37,0,0,0,10.62,7.69c5,0,9.2-3.47,9.2-8.31m-27.87,7.64h6.76v-.09L427,118.51a8.55,8.55,0,0,0,4.67-7.6V108a8.53,8.53,0,0,0-8.53-8.53H411.71v30h6v-10h3.07Zm-3.11-24a3,3,0,0,1,3,3v2a3,3,0,0,1-3,3h-5v-8Zm-26,18.67a5,5,0,0,1-5-5V109.8a5,5,0,1,1,10,0v9.28a5.05,5.05,0,0,1-5,5m9.86,8.66,4.23-4.22-4.36-4.35a10.49,10.49,0,0,0,1.29-5.12V109.8a11,11,0,1,0-22,0v9.28a11,11,0,0,0,16.62,9.47Zm-32.26-13.33a8.53,8.53,0,0,0,8.53-8.53V108a8.53,8.53,0,0,0-8.53-8.53H362.82v30h6v-10Zm-.45-14a3,3,0,0,1,3,3v2a3,3,0,0,1-3,3h-5v-8Zm-26,18.67a5,5,0,0,1-5-5V109.8a5,5,0,1,1,10,0v9.28a5.05,5.05,0,0,1-5,5m0,6a11.06,11.06,0,0,0,11-11V109.8a11,11,0,1,0-22,0v9.28a11,11,0,0,0,11,11m-18.54-.67h3.56v-30h-6V115.8L314.37,99.44h-3.55v30h6V113.08Zm-51.34,0h6V114.77H284l7,14.67h1.77l7-14.67h.09v14.67h6v-30H301L292,118h-.09l-9.07-18.58h-4.89Zm-20.88,0h18v-6H263v-24h-6Zm-18.32,0V118.2l1.2-1.52,8.63,12.76h7.37v-.09L244.06,112l10.13-12.44v-.09h-7.78l-7.6,9.33h-.09V99.44h-6v30Zm-21.42.67a11,11,0,0,0,11-11V99.44h-6v19.64a5,5,0,0,1-10,.27l-5.69,2.27a11.05,11.05,0,0,0,10.71,8.49m-19.16-.67h6v-30h-6Zm-21.55,0v-12h10v12h6v-30h-6v12h-10v-12h-6v30Zm-10-10.36v-5.64h-10v6h4a5.09,5.09,0,0,1-5,4.67,5,5,0,0,1-5-5V109.8a5,5,0,0,1,9.64-1.92l5.56-2.22a11,11,0,0,0-21.2,4.14v9.28a11,11,0,1,0,22,0m-42,10.36h6v-12h8v-6h-8v-6h12v-6h-18Zm-21.55,0h18v-6H109v-6h8v-6h-8v-6h12v-6H103Zm-20-6v-18h4a6,6,0,0,1,6,6v6a6,6,0,0,1-6,6Zm-6,6H87a12,12,0,0,0,12-12v-6a12,12,0,0,0-12-12H77Zm-13.6.67a11.06,11.06,0,0,0,10.71-8.49l-5.69-2.27a5.06,5.06,0,0,1-5,4.76,5,5,0,0,1-5-5V109.8a5,5,0,0,1,9.64-1.92l4.85-3.64a11,11,0,0,0-20.49,5.56v9.28a11,11,0,0,0,11,11m-36-.67H40.36a8.53,8.53,0,0,0,8.53-8.53v-1.83A8.39,8.39,0,0,0,46.31,113a8.52,8.52,0,0,0-6.89-13.56h-12Zm6-6v-6.89h6.49a3,3,0,0,1,3,3v.93a3,3,0,0,1-3,3Zm0-12.89v-5.11h6A2.51,2.51,0,0,1,42,108a2.57,2.57,0,0,1-2.58,2.58ZM19.2,129.44h6.45l-10.45-30h-4l-10.44,30H7.2l1.29-4h9.42Zm-6-18.36h.09L16,119.44H10.45Z"/><path d="M569.59,80.05V74.5H558.12l11.47-14.45v-4h-20v5.56h11.47L549.58,76.05v4Zm-34.23,8,12.89-32h-6.44l-5.2,13.78h-.09l-5.16-13.78h-6.49l8.63,21.29L529,88.06Zm-17.82-8h7.24l-7.46-12.22,7.78-11.78h-7.25l-4.27,6.85-4.31-6.85H502l7.73,11.74-7.87,12.26h7.25l4.4-7.11ZM485.72,68h.08l3.87,12.08h4.67l7.55-24H496l-4,13.87h-.09l-4.4-13.87h-3.78l-4.22,13.87h-.09l-4-13.87h-5.87l7.56,24h4.66ZM462.83,56.05l-4.45,13.78h-.09l-4.4-13.78h-6.35l8.8,24h4l8.8-24Zm-23.29,24h6v-24h-6V70.72a4,4,0,0,1-8,0V56.05h-6V71.74a9,9,0,0,0,9,9,8.21,8.21,0,0,0,5-1.73Zm-17.34-18v-6h-4v-6h-6v6h-4v6h4v18h6v-18Zm-24.13-6.66c-4.4,0-7.83,3.15-7.83,7.2,0,2.09.94,4.93,6.18,7.78,2.71,1.46,3.78,2.4,3.78,3.28s-1.07,1.47-2.31,1.47a4.24,4.24,0,0,1-4.05-2.89L389.13,76a9.79,9.79,0,0,0,8.58,4.71c4.8,0,8.49-3.42,8.49-7.33,0-2.8-1.87-5-6.75-7.87-2.81-1.64-3.25-2.36-3.25-3.07A1.52,1.52,0,0,1,397.89,61a3.47,3.47,0,0,1,2.93,2l4.63-3.69a8.8,8.8,0,0,0-7.38-3.91M382,66.05a5.06,5.06,0,0,1,6-4.89V55.48a6.81,6.81,0,0,0-6,2V56.05h-6v24h6Zm-20.44,8.67a4,4,0,0,1-4-4V65.39a4,4,0,1,1,8,0v5.33a4,4,0,0,1-4,4m4,13.34h6v-32h-6v1.07a8.13,8.13,0,0,0-5-1.73,9,9,0,0,0-9,9v7.38a9,9,0,0,0,9,9,8.19,8.19,0,0,0,5-1.73ZM339,80.72a9,9,0,0,0,9-9V64.36a9,9,0,0,0-9-9,8.13,8.13,0,0,0-5,1.73V56.05h-6v32h6V79a8.19,8.19,0,0,0,5,1.73m-1-6a4,4,0,0,1-4-4V65.39a4,4,0,1,1,8,0v5.33a4,4,0,0,1-4,4m-24,0a4,4,0,0,1-4-4V65.39a4,4,0,1,1,8,0v5.33a4,4,0,0,1-4,4m0,6a10,10,0,0,0,10-10V65.39a10,10,0,1,0-20,0v5.33a10,10,0,0,0,10,10M286,65.39a4,4,0,1,1,8,0V80.05h6V64.36a9,9,0,0,0-9-9,8.1,8.1,0,0,0-5,1.73V56.05h-6v24h6Zm-38.45,0a4,4,0,1,1,8,0V80.05h6V65.39a4,4,0,1,1,8,0V80.05h6V64.41a9,9,0,0,0-16-5.69,9.05,9.05,0,0,0-7-3.33,8.13,8.13,0,0,0-5,1.73V56.05h-6v24h6ZM230.46,80.05h6v-32h-6Zm-10,0h7.33l-9.55-13.64,9.55-10.36h-8.18l-7.15,7.78V48.05h-6v32h6V72.68l1.6-1.78Zm-31.78,8.63a8.61,8.61,0,0,0,1,0,11,11,0,0,0,11-11V56.05h-6V77.7a5,5,0,0,1-5,5,6.45,6.45,0,0,1-1-.09Zm6-34.63h6v-6h-6Zm-11.34,26h6v-24h-6Zm0-26h6v-6h-6ZM164.23,65.39a4,4,0,0,1,8,0V80.05h6V64.36a9,9,0,0,0-9-9,8.13,8.13,0,0,0-5,1.73V48.05h-6v32h6ZM143.79,88.72a10,10,0,0,0,10-10V56.05h-6v1.07a8.13,8.13,0,0,0-5-1.73,9,9,0,0,0-9,9v5.38a9,9,0,0,0,9,9,8.19,8.19,0,0,0,5-1.73v1.73a4,4,0,0,1-7.69,1.56l-5.56,2.22a10,10,0,0,0,9.25,6.22m0-16a4,4,0,0,1-4-4V65.39a4,4,0,0,1,8,0v3.33a4,4,0,0,1-4,4M131.56,62.05v-6h-4c0-2.66,2.8-3.15,4.89-2.44v-6a8.76,8.76,0,0,0-10.89,8.44h-2v6h2v18h6v-18ZM110.1,65.39h-8.18a4.09,4.09,0,1,1,8.18,0m5.15,9.11-5.55-2.22A4,4,0,0,1,102,70.72h14V65.39a10,10,0,0,0-20,0v5.33a10,10,0,0,0,19.24,3.78m-29,5.55h6v-32h-6v9.07a8.13,8.13,0,0,0-5-1.73,9,9,0,0,0-9,9v7.38a9,9,0,0,0,9,9,8.19,8.19,0,0,0,5-1.73Zm-4-5.33a4,4,0,0,1-4-4V65.39a4,4,0,0,1,8,0v5.33a4,4,0,0,1-4,4m-12-.22-5.56-2.22A4,4,0,0,1,57,70.72V65.39a4,4,0,0,1,4-4,4.05,4.05,0,0,1,3.6,2.26l5.56-2.26a10,10,0,0,0-19.16,4v5.33A10,10,0,0,0,70.23,74.5m-32.81.22a4,4,0,0,1-4-4V65.39a4,4,0,0,1,8,0v5.33a4,4,0,0,1-4,4m1,6a9,9,0,0,0,9-9V64.36a9,9,0,0,0-9-9,8.15,8.15,0,0,0-5,1.73V48.05h-6v32h6V79a8.21,8.21,0,0,0,5,1.73M17,80.05h6v-24H17v1.07a8.13,8.13,0,0,0-5-1.73,9,9,0,0,0-9,9v7.38a9,9,0,0,0,9,9A8.19,8.19,0,0,0,17,79Zm-4-5.33a4,4,0,0,1-4-4V65.39a4,4,0,0,1,8,0v5.33a4,4,0,0,1-4,4"/><path d="M368.91.67h-6v30h6Zm-40.63,30h18v-6h-18Zm-7.55,0h3.55V.67h-6V17L305.84.67h-3.56v30h6V14.31Zm16.53-15.34a3,3,0,0,1-3-3V9a3,3,0,0,1,6,0v3.38a3,3,0,0,1-3,3m0-15.33a9,9,0,0,0-9,9v3.47a9,9,0,0,0,18,0V9a9,9,0,0,0-9-9M277.35,31.34a11.06,11.06,0,0,0,10.71-8.49l-5.69-2.27a5.06,5.06,0,0,1-5,4.76,5,5,0,0,1-5-5V11A5,5,0,0,1,282,9.11l4.85-3.64A11,11,0,0,0,266.37,11v9.29a11,11,0,0,0,11,11m-21.65-.67h6V.67h-6Zm-21.55,0v-12h10v12h6V.67h-6v12h-10V.67h-6v30Zm-22.45,0h6v-24h8v-6h-22v6h8Zm-20.13-5.33a5,5,0,0,1-5-5V11a5,5,0,1,1,10,0v9.29a5.05,5.05,0,0,1-5,5m0,6a11,11,0,0,0,11-11V11a11,11,0,1,0-22,0v9.29a11,11,0,0,0,11,11M177,20.31V14.67H167v6h4a5.08,5.08,0,0,1-5,4.67,5,5,0,0,1-5-5V11a5,5,0,0,1,9.65-1.91l5.55-2.22A11,11,0,0,0,155,11v9.29a11,11,0,1,0,22,0M111.69,30.67h6V16h.08l7,14.67h1.77l7-14.67h.09V30.67h6V.67h-4.89l-9.07,18.58h-.09L116.58.67h-4.89Zm-21.55,0h18v-6h-12v-6h8v-6h-8v-6h12v-6h-18Zm-16.45,0h6v-24h8v-6h-22v6h8ZM64.8,23c0-2.17-.84-5-4.35-7.55L54.8,11.38C53,10.05,52.4,9,52.4,8.09a2.69,2.69,0,0,1,2.94-2.4c1.64,0,2.93,1.11,4,2.4l4.53-3.51A10.36,10.36,0,0,0,55.25,0C50.14,0,46.4,3.56,46.4,8.18c0,2,.71,5.07,4.8,7.91L56.71,20a4.11,4.11,0,0,1,2.09,3.29c0,1.6-1.46,2.53-3.15,2.53a5.55,5.55,0,0,1-5.16-4.4L45,23.65A11.37,11.37,0,0,0,55.6,31.34c5,0,9.2-3.47,9.2-8.32M36.67,30.67V20.89l9-20.22H39.07L33.74,12.85h-.09L28.27.67H21.69l9,20.13v9.87ZM22.13,23c0-2.17-.84-5-4.35-7.55l-5.65-4.09C10.31,10.05,9.73,9,9.73,8.09a2.69,2.69,0,0,1,2.94-2.4c1.64,0,2.93,1.11,4,2.4L21.2,4.58A10.36,10.36,0,0,0,12.58,0C7.47,0,3.73,3.56,3.73,8.18c0,2,.71,5.07,4.8,7.91L14.05,20a4.12,4.12,0,0,1,2.08,3.29c0,1.6-1.46,2.53-3.15,2.53a5.56,5.56,0,0,1-5.16-4.4L2.31,23.65a11.37,11.37,0,0,0,10.62,7.69c5,0,9.2-3.47,9.2-8.32"/></g></g></svg>