<svg xmlns="http://www.w3.org/2000/svg" viewBox="0 0 720 989.82"><title>22-untitled</title><g id="Layer_2" data-name="Layer 2"><g id="Layer_1-2" data-name="Layer 1"><path d="M718.6,943a133.46,133.46,0,0,1-17.36-15.37l-.5.4,9.48,15.07-9.48,15.06.5.4a134.12,134.12,0,0,1,17.36-15.36Zm-23.05,0a134.11,134.11,0,0,1-17.36-15.37l-.5.4,9.48,15.07-9.48,15.06.5.4a134.79,134.79,0,0,1,17.36-15.36Zm-16,0a132.8,132.8,0,0,1-17.36-15.37l-.5.4,9.48,15.07-9.48,15.06.5.4a133.47,133.47,0,0,1,17.36-15.36Zm-57.87.2a134.79,134.79,0,0,1,17.36,15.36l.5-.4-9.48-15.06,9.48-15.07-.5-.4A134.11,134.11,0,0,1,621.72,943Zm16,0A133.47,133.47,0,0,1,655,958.58l.5-.4-9.48-15.06,9.48-15.07-.5-.4A132.8,132.8,0,0,1,637.68,943Zm-39,0A134.79,134.79,0,0,1,616,958.58l.5-.4-9.48-15.06,9.48-15.07-.5-.4A134.11,134.11,0,0,1,598.67,943Zm-6.49-19.06-17.66,17.66-17.66-17.66-1.3,1.3,17.66,17.66-17.66,17.66,1.3,1.3,17.66-17.66,17.66,17.66,1.3-1.3-17.66-17.66,17.66-17.66ZM553.87,943l-38.62-24.45-.89,1.4,36.12,23v.2l-36.12,23,.89,1.39,38.62-24.44Zm-87.71.2,38.62,24.44.9-1.39-36.12-23V943l36.12-23-.9-1.4L466.16,943Zm-14.07-48.4h-5.78l-.1.1a68.6,68.6,0,0,1,2.29,12.78l-.1.1a69.16,69.16,0,0,1-9.38-8.29h-.1l-3,5v.1a93.64,93.64,0,0,1,12.17,4.19v.1a90.74,90.74,0,0,1-12.17,4.19v.1l3,5h.1a69.79,69.79,0,0,1,9.38-8.28l.1.1a68.35,68.35,0,0,1-2.29,12.77l.1.1h5.78l.1-.1A69.17,69.17,0,0,1,449.9,910l.1-.1a69.18,69.18,0,0,1,9.38,8.28h.1l3-5v-.1a90.74,90.74,0,0,1-12.17-4.19v-.1a93.64,93.64,0,0,1,12.17-4.19v-.1l-3-5h-.1A68.56,68.56,0,0,1,450,907.8l-.1-.1a69.43,69.43,0,0,1,2.29-12.78Zm-19.25,36.52c-9.28,0-15.77-6.58-15.77-15.86h-.5c0,9.28-6.48,15.86-15.76,15.86v.5c9.28,0,15.76,6.59,15.76,15.87h.5c0-9.28,6.49-15.87,15.77-15.87Zm-57.47-36h-.5a9.67,9.67,0,0,1-9.28,9.28v.5a7,7,0,0,1,7.28,7.09c0,3.09-1.89,5.88-5.49,8l.2.5c4.69-1.9,7.29-4.49,9.68-9.38,1.4-2.79,3.29-6.09,6.59-6.09s6.08,3.3,6.08,7c0,3.09-1.89,5.88-5.48,8l.2.5c4.69-1.9,7.28-4.49,9.67-9.38,1.5-3,3.4-6.19,7.39-6.19v-.5a9.75,9.75,0,0,1-9.28-9.28h-.5c0,4.49-4.19,9.18-8.28,9.18s-8.28-4.69-8.28-9.18m-30.24,24.85.2.5c4.69-1.9,7.29-4.49,9.68-9.38,1.5-3,3.39-6.19,7.38-6.19v-.5a9.75,9.75,0,0,1-9.28-9.28h-.49a9.67,9.67,0,0,1-9.28,9.28v.5a7,7,0,0,1,7.28,7.09c0,3.09-1.89,5.88-5.49,8m-6.78-24.35-.2-.5c-4.69,1.9-7.29,4.49-9.68,9.38-1.5,3-3.39,6.19-7.38,6.19v.5a9.75,9.75,0,0,1,9.28,9.28h.49a9.67,9.67,0,0,1,9.28-9.28v-.5a7,7,0,0,1-7.28-7.08c0-3.1,1.9-5.89,5.49-8m-30.24,24.85h.5a9.67,9.67,0,0,1,9.28-9.28v-.5a7,7,0,0,1-7.28-7.08c0-3.1,1.9-5.89,5.49-8l-.2-.5c-4.69,1.9-7.29,4.49-9.68,9.38-1.4,2.8-3.29,6.09-6.59,6.09s-6.08-3.29-6.08-7c0-3.1,1.89-5.89,5.48-8l-.19-.5c-4.69,1.9-7.29,4.49-9.68,9.38-1.5,3-3.4,6.19-7.39,6.19v.5a9.75,9.75,0,0,1,9.28,9.28h.5c0-4.49,4.19-9.18,8.28-9.18s8.28,4.69,8.28,9.18M269.8,976.45l.2.49c4.69-1.89,7.28-4.49,9.68-9.38,1.49-3,3.39-6.18,7.38-6.18v-.5a9.75,9.75,0,0,1-9.28-9.28h-.5a9.67,9.67,0,0,1-9.28,9.28v.5a7,7,0,0,1,7.29,7.08c0,3.1-1.9,5.89-5.49,8m-5-15.57a9.6,9.6,0,0,1-9.28-9.28H255a9.6,9.6,0,0,1-9.28,9.28v.5a9.6,9.6,0,0,1,9.28,9.28h.5a9.6,9.6,0,0,1,9.28-9.28ZM225.3,976.45l.2.49c4.69-1.89,7.28-4.49,9.68-9.38,1.49-3,3.39-6.18,7.38-6.18v-.5a9.75,9.75,0,0,1-9.28-9.28h-.5a9.67,9.67,0,0,1-9.28,9.28v.5a7,7,0,0,1,7.29,7.08c0,3.1-1.9,5.89-5.49,8m17.26-47.6a9.6,9.6,0,0,1-9.28-9.28h-.5a9.6,9.6,0,0,1-9.28,9.28v.5a9.6,9.6,0,0,1,9.28,9.28h.5a9.6,9.6,0,0,1,9.28-9.28Zm-22.25,32A9.6,9.6,0,0,1,211,951.6h-.5a9.6,9.6,0,0,1-9.28,9.28v.5a9.6,9.6,0,0,1,9.28,9.28h.5a9.6,9.6,0,0,1,9.28-9.28Zm0-32a9.6,9.6,0,0,1-9.28-9.28h-.5a9.6,9.6,0,0,1-9.28,9.28v.5a9.6,9.6,0,0,1,9.28,9.28h.5a9.6,9.6,0,0,1,9.28-9.28Zm-23.25,32a9.6,9.6,0,0,1-9.28-9.28h-.5a9.6,9.6,0,0,1-9.28,9.28v.5a9.6,9.6,0,0,1,9.28,9.28h.5a9.6,9.6,0,0,1,9.28-9.28Zm-9.68-15.57a378.18,378.18,0,0,1,5.29-44.8l-.1-.1H181.7l-.1.1a378.18,378.18,0,0,1,5.29,44.8ZM166,960.88a9.6,9.6,0,0,1-9.28-9.28h-.5a9.6,9.6,0,0,1-9.28,9.28v.5a9.6,9.6,0,0,1,9.28,9.28h.5a9.6,9.6,0,0,1,9.28-9.28Zm-10.87-59.37c5.58,0,8.08,5.89,8.08,12.07,0,10.88-7.88,16-7.38,31.73h.49c1-15.66,17-17.56,17-31.93,0-10-7.79-14-15.87-14-7.78,0-10.18,3.8-14.87,3.8a10.1,10.1,0,0,1-5.88-2l-.3.2a45,45,0,0,1,9.88,12.87h.2c.59-8.08,3.69-12.77,8.68-12.77m-45.4,34.62H137.2v-2H109.76ZM52.68,964c-3.39,0-7.08-2.79-7.08-10.77,0-13.47,10.28-31.93,19.36-31.93,5.19,0,6.48,6.08,5.28,10.17L64.66,950.8c-2,6.89-6.89,13.17-12,13.17m1.1,25.85a61.56,61.56,0,0,0,42.91-17.17l-.5-.5c-11.48,9.78-24.45,15.57-39.62,15.57-27.73,0-36.41-19-36.41-35.62,0-26.74,22-53.28,50.28-53.28,20.66,0,31.24,14.16,31.24,30.83,0,18.66-13.47,31.13-24.35,31.13-3.49,0-5.39-1.3-4.39-4.89l10.87-37.22-.19-.1c-2.5,2.7-5.09,4.89-10.58,8-1.3-6.59-5.79-8-9.78-8-14.47,0-28.54,18.26-28.54,33.83,0,10.57,6.59,15.26,13.57,15.26,5.69,0,10.08-3.09,13.37-7.48h.2l-2.09,7.48H60a52.17,52.17,0,0,1,18-5.48c14.47-1.7,25.14-15.57,25.14-32.83,0-18-11.67-32.53-34.42-32.53C38,896.82,12,923.36,12,952.1c0,21,14.27,37.72,41.81,37.72"/><path d="M706.63,841.34c-6,0-7.88-2.29-7.88-7.08,0-4.09,1.4-7.19,1.4-13.67,0-11.38-5.39-21.15-15-29.54l-.3.4A38,38,0,0,1,696,818.79c0,7.09-1.3,10.88-1.3,14.67,0,4.39,1.7,7,7.09,8v.2c-5.39,1-7.09,3.59-7.09,8,0,3.8,1.3,7.59,1.3,14.67a38,38,0,0,1-11.08,27.34l.3.4c9.58-8.38,15-18.16,15-29.53,0-6.49-1.4-9.58-1.4-13.67,0-4.79,1.9-7.09,7.88-7.09Zm-50,50.29.3.4c15.06-13,22.85-30.63,22.85-50.49S672,804,657,791.05l-.3.4c13.07,13.67,18.56,31.33,18.56,50.09s-5.49,36.42-18.56,50.09M638.89,861.1a9.6,9.6,0,0,1-9.28-9.28h-.5a9.28,9.28,0,1,1-18.56,0h-.5a9.6,9.6,0,0,1-9.28,9.28v.5a9.6,9.6,0,0,1,9.28,9.28h.5a9.28,9.28,0,1,1,18.56,0h.5a9.28,9.28,0,0,1,18.56,0h.49a9.6,9.6,0,0,1,9.28-9.28v-.5a9.6,9.6,0,0,1-9.28-9.28h-.49a9.61,9.61,0,0,1-9.28,9.28m-55.38-19.56c0-18.76,5.49-36.42,18.56-50.09l-.3-.4c-15.07,13-22.85,30.64-22.85,50.49s7.78,37.52,22.85,50.49l.3-.4C589,878,583.51,860.4,583.51,841.54m-30.43.2c6,0,7.88,2.3,7.88,7.09,0,4.09-1.4,7.18-1.4,13.67,0,11.37,5.39,21.15,15,29.53l.3-.4a38,38,0,0,1-11.08-27.34c0-7.08,1.3-10.87,1.3-14.67,0-4.39-1.7-7-7.08-8v-.2c5.38-1,7.08-3.59,7.08-8,0-3.79-1.3-7.58-1.3-14.67a38,38,0,0,1,11.08-27.34l-.3-.4c-9.58,8.39-15,18.16-15,29.54,0,6.48,1.4,9.58,1.4,13.67,0,4.79-1.9,7.08-7.88,7.08Zm-15,37.92c-5.59,0-8.08-5.89-8.08-12.08,0-10.87,7.88-16,7.38-31.72h-.5c-1,15.66-17,17.56-17,31.92,0,10,7.78,14,15.87,14,7.78,0,10.17-3.79,14.86-3.79a10.1,10.1,0,0,1,5.89,2l.3-.2A45,45,0,0,1,547,866.89h-.2c-.6,8.08-3.69,12.77-8.68,12.77m-10.87-59.37a9.61,9.61,0,0,1,9.28,9.28H537a9.6,9.6,0,0,1,9.28-9.28v-.5a9.6,9.6,0,0,1-9.28-9.28h-.49a9.61,9.61,0,0,1-9.28,9.28Zm-49.89,43c-3.8,0-7.09-3.29-7.09-9.67V822h18.56v31.93c-4,6-7.58,9.37-11.47,9.37m-31.53-3.09v-.3c-3.1,0-4.89-.8-6-2.09l9-28.54c2.09-6.69,5.49-8.38,11.47-8.38v32.23c0,8.18,3.89,14.76,11.78,14.76,7.08,0,12.57-5.18,16.76-12.67h.1c.6,7.29,4.49,12.67,11.67,12.67,7.39,0,13.18-5.78,17.37-13.67l-.6-.29c-4,6-7.59,9.37-11.48,9.37s-7.08-3.29-7.08-9.67V822.09a30.79,30.79,0,0,1,10.57,2.09h.2l5.59-8.38-.2-.2a40.53,40.53,0,0,1-16.16,4.19V807.12h-.2c-4.39,9.08-9.88,12.67-21.85,12.67h-6.49V807.12h-.2c-2.49,5.19-7.18,10.38-11.47,12.67H437.13v.5c8.39,0,12.28,2,10.08,9l-8.38,26.84h-.2l-8.88-24.05c-2.69-7.28-1.7-11.27,3-16.46l-.29-.3c-6.09,4.59-8.89,7.58-14.27,14.17l15.06,41.61c-4.29,9.18-10.57,14.07-18.26,18.76v.2l13.77,2c5.79-25.44,10.68-30.23,17.07-31.83m-125,0v-.3c-3.09,0-4.89-.8-6-2.09l7.89-24.95h.2l10.27,28.64a28,28,0,0,1,1.8,8.88h.2c2.89-5.29,8.78-8.78,14-10.18v-.3c-3.09,0-4.89-.8-6-2.09l9.28-28.54c2.3-6.69,5.49-8.38,11.48-8.38v32.23c0,8.18,3.89,14.76,11.77,14.76,7.08,0,12.57-5.18,16.76-12.67h.1c.6,7.29,4.49,12.67,11.68,12.67,7.38,0,13.17-5.78,17.36-13.67l-.6-.29c-4,6-7.58,9.37-11.47,9.37s-7.09-3.29-7.09-9.67V822.09A30.85,30.85,0,0,1,413,824.18h.2l5.58-8.38-.19-.2a40.57,40.57,0,0,1-16.17,4.19V807.12h-.2c-4.39,9.08-9.88,12.67-21.85,12.67h-6.49V807.12h-.2c-2.49,5.19-7.18,10.38-11.47,12.67H342.44v.5c6.49,0,10.58,2,8.38,9l-8.68,26.84h-.2l-8.78-25.34c-2.49-7.19-2.59-10.48,5.09-10.48v-.5H312.11v.5c5,0,7.28,3,8.88,7.38l1,2.8-8.18,25.64h-.2l-8.38-24.05c-2.6-7.28-1.7-11.27,3-16.46l-.3-.3c-6.09,4.59-8.88,7.58-14.27,14.17l11.18,32a28.29,28.29,0,0,1,1.79,8.88h.2c2.9-5.29,8.78-8.78,14-10.18M381,863.29c-3.79,0-7.09-3.29-7.09-9.67V822h18.56v31.93c-4,6-7.58,9.37-11.47,9.37m-124.53,0c-3.79,0-7.08-3.29-7.08-9.67V822h18.56v31.93c-4,6-7.59,9.37-11.48,9.37m-18.76-43.5H216.22v.5c8.18,0,12.27,1.9,10.08,9l-8.38,26.84h-.2l-8.88-24.05c-2.7-7.28-1.7-11.27,3-16.46l-.3-.3c-6.09,4.59-8.88,7.58-14.27,14.17l11.88,32a25.16,25.16,0,0,1,1.59,8.88h.2c2.9-5.29,8.78-8.78,14-10.18v-.3c-3.09,0-4.89-.8-6-2.09l9-28.54c2.29-6.69,5.48-8.38,11.47-8.38v32.23c0,8.18,3.89,14.76,11.77,14.76,7.09,0,12.58-5.18,16.77-12.67h.1c.6,7.29,4.49,12.67,11.67,12.67,7.39,0,13.17-5.78,17.36-13.67l-.6-.29c-4,6-7.58,9.37-11.47,9.37s-7.08-3.29-7.08-9.67V822.09a30.79,30.79,0,0,1,10.57,2.09h.2l5.59-8.38-.2-.2a40.57,40.57,0,0,1-16.16,4.19V807.12h-.2c-4.39,9.08-9.88,12.67-21.86,12.67h-6.48V807.12h-.2c-2.5,5.19-7.19,10.38-11.48,12.67m-77.62,43.5c-3.8,0-7.09-3.29-7.09-9.67V822h18.56v31.93c-4,6-7.58,9.37-11.47,9.37m23.24,4.59c7.39,0,13.17-5.78,17.37-13.67l-.6-.29c-4,6-7.59,9.37-11.48,9.37s-7.08-3.29-7.08-9.67V822.09a30.79,30.79,0,0,1,10.57,2.09h.2l5.59-8.38-.2-.2a40.53,40.53,0,0,1-16.16,4.19V807.12h-.2c-4.39,9.08-9.88,12.67-21.85,12.67H153V807.12h-.2c-4.29,7.38-9.08,14.37-14.57,14.37-2.39,0-4.79-1.3-8.88-3.89h-.1a34.75,34.75,0,0,1-7.88,10.27h-.2V817h-.2a35.59,35.59,0,0,1-16.86,11.67l.2.5c5-1.5,6.88-1.4,6.88,3.19v23.15c0,7-.9,10.48-6.78,10.48v.5h23.35V866c-5.79,0-6.59-3.49-6.59-10.48V835.16c0-6.39,3-8.09,5.59-8.09,2.79,0,5.49,2,7.68,4.39h.2c3.29-3.69,5.49-6.18,8.18-9.57l.2.1v31.13c0,8.18,3.89,14.76,11.78,14.76,7.08,0,12.57-5.18,16.76-12.67h.1c.6,7.29,4.49,12.67,11.67,12.67m-135.6-1.39V866c-5.88,0-6.78-3.49-6.78-10.48V802.63H53.58c5.89,0,6.79,3.49,6.79,10.48v42.4c0,7-.9,10.48-6.79,10.48v.5H76.93V866c-5.79,0-6.59-3.49-6.59-10.48v-23c0-6.78,3.7-10.37,8.19-10.37s8.18,3.59,8.18,10.37v23c0,7-.9,10.48-6.79,10.48v.5h23.35V866c-5.79,0-6.58-3.49-6.58-10.48V832.26c0-10.37-7.59-13.87-13.67-13.87a14,14,0,0,0-12.48,7.09h-.2V794.65h-.2a33.84,33.84,0,0,1-6,6H10.28l-1.8,23.25H9c3.89-16.76,10.48-21.25,21.55-21.25v52.88c0,7-.9,10.48-6.78,10.48v.5Z"/><path d="M716.72,754.43l-.6-.29c-4,6-7.58,9.37-11.48,9.37s-7.08-3.29-7.08-9.67V722.31a31.13,31.13,0,0,1,10.58,2.09h.19l5.59-8.38-.2-.2A40.48,40.48,0,0,1,697.56,720V707.34h-.2C692.87,715.82,688.58,720,678,720h-6V705.54c0-6.08,1.89-8.78,4.59-8.78,3.89,0,5,5.59,5,14.07h.2c4.19-5.89,6.29-8.18,12.18-13.67l-.3-.3a9.57,9.57,0,0,1-5.59,2c-4.19,0-5.79-3.59-12.07-3.59a13.6,13.6,0,0,0-10.18,4.19,22.28,22.28,0,0,0-13.47-4.19c-9.68,0-18.46,5.38-18.46,18.06v5.58a21.79,21.79,0,0,1-5.69,2.9v.5h5.69v33.42c0,7-.9,10.48-6.79,10.48v.5h23.35v-.5c-5.78,0-6.58-3.49-6.58-10.48V722.31H662v33.42c0,7-.9,10.48-6.79,10.48v.5H678.6v-.5c-5.79,0-6.58-3.49-6.58-10.48V722.31h15.56v31c0,8.18,3.89,14.76,11.78,14.76,7.38,0,13.17-5.78,17.36-13.67M662,720H643.88V709.73c0-7.58,2.89-12.77,9.08-12.77s9.08,5.29,9.08,12.77Zm-65.26,46.2c-5.79,0-6.58-3.49-6.58-10.48V722.31a27.81,27.81,0,0,1,9.08,2.09h.2l5.58-8.38-.2-.2A37.43,37.43,0,0,1,590.2,720v-8.28c0-10.68,3.79-14.77,9.28-14.77s9.28,4.09,9.28,14.77v44c0,7-.9,10.48-6.79,10.48v.5h23.35v-.5c-5.79,0-6.59-3.49-6.59-10.48V695.27h-.2a28.89,28.89,0,0,1-5.18,5.28c-5.79-3.49-9.58-5.28-14.77-5.28-9.08,0-18.36,5.38-18.36,18.06v5.58a21.79,21.79,0,0,1-5.69,2.9v.5h5.69v33.42c0,7-.9,10.48-6.79,10.48v.5h23.35Zm-102.77,0c-5.79,0-6.59-3.49-6.59-10.48V722.31h18.16v33.42c0,7-.89,10.48-6.78,10.48v.5h23.35v-.5c-5.79,0-6.59-3.49-6.59-10.48V722.31a27.75,27.75,0,0,1,9.08,2.09h.2l5.59-8.38-.2-.2A37.47,37.47,0,0,1,515.56,720v-8.28c0-10.68,3.79-14.77,9.28-14.77s9.28,4.09,9.28,14.77v44c0,7-.9,10.48-6.78,10.48v.5h23.34v-.5c-5.78,0-6.58-3.49-6.58-10.48V740.86h.2L554.38,757c3.79,6,4.39,9.18-.7,9.18v.5H577v-.5c-4.69,0-8.39-4.39-11.78-9.88L552,735.18a81.62,81.62,0,0,1,19.86-15V720H558.07c-2.5,8-5.29,13.57-13.77,19.46h-.2v-44.6h-.2a31.61,31.61,0,0,1-5.49,5.48,19.73,19.73,0,0,0-13.67-5.08,20.42,20.42,0,0,0-14,5.28,22.31,22.31,0,0,0-14.87-5.28c-9.67,0-18.45,5.38-18.45,18.06v5.58a22,22,0,0,1-5.69,2.9v.5h5.69v33.42c0,7-.9,10.48-6.79,10.48v.5H494ZM505.58,720H487.42V709.73c0-7.58,2.9-12.77,9.08-12.77s9.08,5.29,9.08,12.77Zm-66.85,73.74c13.67-3,24.55-9.88,24.55-30.14V715.92l-.2-.1C458.69,719,445.42,720,434.74,720V708.54c0-8.19,3.89-11.78,9.08-11.78,6.78,0,9.48,6.19,9.48,15.57h.2a71.14,71.14,0,0,1,12.17-15.17l-.3-.3a9.78,9.78,0,0,1-6,2c-5.19,0-8.69-3.59-16.17-3.59-9.18,0-18.46,5.38-18.46,18.06v5.58a21.79,21.79,0,0,1-5.69,2.9v.5h5.69v33.42c0,7-.9,10.48-6.78,10.48v.5h23.34v-.5c-5.78,0-6.58-3.49-6.58-10.48V722.31H453.3v37.31c0,20.26-5.19,30.54-14.67,33.63Zm-79.22-27.54c-5.79,0-6.59-3.49-6.59-10.48V722.31h18.16v33.42c0,7-.9,10.48-6.78,10.48v.5h23.34v-.5c-5.78,0-6.58-3.49-6.58-10.48V722.31h18.56v33.42c0,7-.9,10.48-6.79,10.48v.5h23.35v-.5c-5.79,0-6.58-3.49-6.58-10.48V715.92l-.2-.1C405,719,391.74,720,381.06,720V708.54c0-8.19,3.89-11.78,9.08-11.78,6.78,0,9.48,6.19,9.48,15.57h.2A71.14,71.14,0,0,1,412,697.16l-.3-.3a9.79,9.79,0,0,1-6,2c-5.18,0-8.68-3.59-16.16-3.59A19.32,19.32,0,0,0,376,700.35c-3.39-3.09-8.68-5.08-14.57-5.08-9.68,0-18.46,5.38-18.46,18.06v5.58a21.73,21.73,0,0,1-5.68,2.9v.5h5.68v33.42c0,7-.9,10.48-6.78,10.48v.5h23.35ZM371.08,720H352.92V709.73c0-7.58,2.89-12.77,9.08-12.77s9.08,5.29,9.08,12.77Zm-90.9,46.2c-5.79,0-6.58-3.49-6.58-10.48V722.31a27.81,27.81,0,0,1,9.08,2.09h.2l5.58-8.38-.2-.2A37.47,37.47,0,0,1,273.6,720v-8.28c0-10.68,3.79-14.77,9.28-14.77s9.27,4.09,9.27,14.77v44c0,7-.89,10.48-6.78,10.48v.5h23.35v-.5c-5.79,0-6.59-3.49-6.59-10.48V732.68c0-6.78,3.69-10.37,8.18-10.37s8.19,3.59,8.19,10.37v23.05c0,7-.9,10.48-6.79,10.48v.5h23.35v-.5c-5.79,0-6.59-3.49-6.59-10.48V732.48c0-10.37-7.58-13.87-13.67-13.87a14,14,0,0,0-12.47,7.09h-.2V694.87h-.2a35.47,35.47,0,0,1-5.48,5.48c-5.49-3.29-9.28-5.08-14.47-5.08-9.08,0-18.36,5.38-18.36,18.06v5.58a21.79,21.79,0,0,1-5.69,2.9v.5h5.69v33.42c0,7-.9,10.48-6.79,10.48v.5h23.35Zm-56.77-33.13c0-6.78,3.69-10.37,8.68-10.37S243,726.3,243,743.56s-6.48,20.85-11.57,20.85-8-3.69-8-6.58ZM184.89,720H166.73V709.73c0-7.58,2.89-12.77,9.08-12.77s9.08,5.29,9.08,12.77Zm49,48.09c10.18,0,20.06-7.58,20.06-24.54S244.06,719,235.28,719a12.87,12.87,0,0,0-11.67,7.09h-.2V694.87h-.2a32,32,0,0,1-5.49,5.48,19.73,19.73,0,0,0-13.67-5.08,20.42,20.42,0,0,0-14,5.28,22.31,22.31,0,0,0-14.87-5.28c-9.68,0-18.46,5.38-18.46,18.06v5.58a21.73,21.73,0,0,1-5.68,2.9v.5h5.68v33.42c0,7-.89,10.48-6.78,10.48v.5h23.35v-.5c-5.79,0-6.59-3.49-6.59-10.48V722.31h18.16v33.42c0,7-.9,10.48-6.78,10.48v.5h23.34v-.5c-5.78,0-6.58-3.49-6.58-10.48V722.31A27.75,27.75,0,0,1,204,724.4h.2l5.59-8.38-.2-.2A37.47,37.47,0,0,1,194.87,720v-8.28c0-10.68,3.79-14.77,9.28-14.77s9.28,4.09,9.28,14.77v34.72c0,10-.2,17.36-3.49,21.26l.3.39A37.61,37.61,0,0,1,222,762.42c2.49,2.89,5.79,5.68,11.87,5.68m-102.67-4.59c-6.19,0-11.08-5.28-12.87-15.26C125.82,744.76,130,743,133.8,743c5.79,0,9.18,3.59,9,8.68a11.7,11.7,0,0,1-11.57,11.87m-3.39,4.59c11.57,0,17-8.18,16.76-15.56.2-7.28-4.89-10.28-9.78-10.58v-.2a35.42,35.42,0,0,1,15.17-.2l.1-.5c-5.59-2.09-5.79-9.28-9-14.76-2.1-4.19-6.19-7.69-13.77-7.69-6.49,0-10.78,1.8-15.07,7h-.2c-3-4.49-8.88-7-15.16-7-11.38,0-20.76,8.09-20.76,24.75s9.38,24.74,20.76,24.74c6.38,0,12.07-2.49,15.06-7h.2c3.1,4.29,8.88,7,15.67,7M96.89,720.41c7,0,9.77,9.18,9.77,23s-2.79,22.95-9.77,22.95-9.78-9.18-9.78-22.95,2.79-23,9.78-23m30.23,0c5.69,0,7.88,7.08,7.68,11.67.2,7.59-5.88,9.58-16.66,14.37-1.4-11.47.8-26,9-26m-49,34-.6-.29c-4,6-7.58,9.37-11.48,9.37S59,760.22,59,753.84V722.31a31.13,31.13,0,0,1,10.58,2.09h.2L75.33,716l-.2-.2A40.48,40.48,0,0,1,59,720V707.34h-.2l-5.29,8.08a53.42,53.42,0,0,1-8.38,8.68,17.19,17.19,0,0,0-13-5.49C21,718.61,11,726.8,11,743.36S21.15,768.1,31.43,768.1c7.88,0,14-4.88,17.66-11.47h.1c1,6.59,4.79,11.47,11.58,11.47,7.38,0,13.17-5.78,17.36-13.67m-43.41,9.08c-7.28,0-12.77-6.38-12.77-21,0-13,4.29-22.15,10-22.15,3.69,0,6.29,3.89,6.29,8a11,11,0,0,1-2.3,6.59l.4.3a64.43,64.43,0,0,1,12.47-12H49v32c-4.09,5.39-9.48,8.18-14.27,8.18"/><path d="M699.65,666.93l5-16-.3-.2c-8.58,10.78-15.17,15.07-28.74,15.07l27.34-45.4-.2-.2H669.51l-5,16,.3.2c8.29-10.38,14-15.07,26.35-15.07l-27.24,45.4.2.2Zm-15.47-52.19h.2a105.61,105.61,0,0,1,14.37-16.16l-.4-.5-14.07,8.28-14.07-8.28-.4.5a105.61,105.61,0,0,1,14.37,16.16M633,692.47c5.79-25.44,10.68-30.23,17.07-31.83v-.3c-3.1,0-4.89-.8-6-2.09l9.68-28.54c2.29-6.79,6.18-9,12-9v-.5H644.57v.5c5.89,0,9.88,2.19,7.58,9l-9.08,26.84h-.2l-8.48-25.34c-2.39-7.19-2.49-10.48,4.89-10.48v-.5H614.33v.5c5.89,0,7.09,4.39,9.18,10.48l14,40.31c-4.29,9.18-10.57,14.07-18.26,18.76v.2Zm9-85.71a9.6,9.6,0,0,1-9.28-9.28h-.5a9.59,9.59,0,0,1-9.27,9.28v.5a9.59,9.59,0,0,1,9.27,9.28h.5a9.28,9.28,0,0,1,18.56,0h.5a9.6,9.6,0,0,1,9.28-9.28v-.5a9.6,9.6,0,0,1-9.28-9.28h-.5a9.6,9.6,0,0,1-9.28,9.28m-52.38,77.73-.2-.4c-4,1.2-4.29-.9-4.29-3.79V664.23h.2a13.55,13.55,0,0,0,10.28,4.1c10.18,0,20-7.59,20-24.55s-9.87-24.55-18.66-24.55a12.87,12.87,0,0,0-11.67,7.09h-.2V595.49h-.2A35.72,35.72,0,0,1,568,607.16l.2.5c5-1.5,6.88-1.4,6.88,3.19v64.76c0,10-.2,17.36-3.49,21.45l.3.4c5.69-6.59,11.18-10.38,17.66-13m3.49-19.86c-5.09,0-8-3.69-8-6.58V633.3c0-6.78,3.69-10.38,8.68-10.38s10.88,3.6,10.88,20.86-6.49,20.85-11.58,20.85m-66.35-34.92v24.75c0,10.37,7.48,13.87,14.47,13.87,6.18,0,9.48-3,11.27-5.49h.2v5.49h.2a55.16,55.16,0,0,1,16.37-6.59l-.1-.6c-3.6.6-6.49-1-6.49-5.69v-38h-.2A33.34,33.34,0,0,1,545.79,625v.5c5.59-.6,6.88.7,6.88,4.19v26.14c0,6.69-4.19,8.88-7.88,8.88-4.69,0-8.08-3.79-8.08-10.47V617.44h-.2A33.34,33.34,0,0,1,519.85,625v.5c5.58-.6,6.88.7,6.88,4.19m2.79-15,.4.5L544,607l14.07,8.28.4-.5a105.14,105.14,0,0,1-14.37-16.16h-.2a105.14,105.14,0,0,1-14.37,16.16M496.3,668.33c11.37,0,20.75-8.19,20.75-24.75,0-10.18-3.49-17.16-8.88-21.05l5.09-9.68-1.6-.8-4.89,9.48a20.68,20.68,0,0,0-10.47-2.7c-11.38,0-20.76,8.09-20.76,24.75,0,10.58,3.89,17.76,9.58,21.55l-5.49,11.08,1.7.9,5.49-11a20.32,20.32,0,0,0,9.48,2.2m0-1.8c-3.1,0-5.39-1.8-7-5l15.27-32h.1a61.76,61.76,0,0,1,1.4,14.07c0,13.07-2.8,22.95-9.78,22.95m-9.78-22.95c0-13.47,2.79-23,9.78-23,3.49,0,6,2.29,7.48,6.39l-15.37,32h-.1a55.13,55.13,0,0,1-1.79-15.47M453,663.74c-6.18,0-11.07-5.29-12.87-15.27,7.49-3.49,11.68-5.29,15.47-5.29,5.79,0,9.18,3.59,9,8.68A11.71,11.71,0,0,1,453,663.74m-3.39,4.59c11.58,0,17-8.19,16.76-15.57.2-7.28-4.88-10.28-9.77-10.58V642a35.38,35.38,0,0,1,15.16-.2l.1-.5c-5.59-2.09-5.78-9.27-9-14.76-2.09-4.19-6.18-7.69-13.77-7.69-6.48,0-10.77,1.8-15.06,7h-.2c-3-4.49-8.88-7-15.17-7-11.38,0-20.75,8.09-20.75,24.75s9.37,24.75,20.75,24.75c6.39,0,12.07-2.5,15.07-7h.2c3.09,4.29,8.88,7,15.66,7m-30.93-47.7c7,0,9.78,9.18,9.78,23s-2.8,22.95-9.78,22.95-9.78-9.18-9.78-22.95,2.8-23,9.78-23m30.23,0c5.69,0,7.89,7.08,7.69,11.67.2,7.59-5.89,9.58-16.67,14.37-1.39-11.47.8-26,9-26m-80.72,45.8c-5.79,0-6.58-3.49-6.58-10.48V632.9c0-6.78,3.69-10.37,8.18-10.37S378,626.12,378,632.9V656c0,7-.9,10.48-6.78,10.48v.5h23.34v-.5c-5.78,0-6.58-3.49-6.58-10.48V632.7c0-10.37-7.59-13.87-13.67-13.87a14,14,0,0,0-12.47,7.09h-.2v-8.48h-.2a35.57,35.57,0,0,1-16.87,11.67l.2.5c5-1.5,6.89-1.4,6.89,3.19V656c0,7-.9,10.48-6.79,10.48v.5h23.35Zm10.68-53.58a114.37,114.37,0,0,1,9.28-12.08l-.8-.59C384.05,604,382,605,380,605c-4.19,0-9.38-4.59-16.67-4.59a71.39,71.39,0,0,1-9.38,11.08l.8.7c3.59-3.89,5.49-5.09,8.28-5.09,4,0,9.38,2.49,15.57,5.79Zm-49.39,31.93c0,12.37-2.8,21.75-9.78,21.75s-9.78-9.38-9.78-21.75S312.7,624,319.69,624s9.78,8.48,9.78,20.76m-9.78,23.55c11.57,0,21.25-8.69,21.25-28.54,0-13.07-4.29-26.44-14-35.12l13-5.49-.59-1.4-13.67,5.79a37.77,37.77,0,0,0-19.76-8.08l-.1.4a40.18,40.18,0,0,1,15.27,9.67l-13.47,5.69.59,1.4L322,606.76c5.49,6.39,8.88,15.07,8.78,26.94h-.19c-1.9-9-7.09-14.47-14.07-14.47-9,0-17.57,9.08-17.57,24.55,0,16.46,9.38,24.55,20.76,24.55m-24.85-1.4v-.5c-5.78,0-6.58-3.49-6.58-10.48V617.44h-.2a35.59,35.59,0,0,1-16.86,11.67l.2.5c5-1.5,6.88-1.4,6.88,3.19V656c0,7-.9,10.48-6.78,10.48v.5Zm-7.38-68.85a59.72,59.72,0,0,1-9.18,17.06v.1l.8.2h.1a85.36,85.36,0,0,1,17.36-14v-.1l-9-3.29Zm-34.72,65.66c-6.19,0-11.28-5.29-12.87-15.27,7.28-3.49,11.47-5.29,15.46-5.29,5.59,0,9,3.59,9,8.68,0,6.29-5.29,11.88-11.57,11.88m13.37-11c0-7.28-5.09-10.28-9.78-10.58V642a35.28,35.28,0,0,1,15.17-.2l.1-.5c-5.79-2.09-6-9.27-9-14.76-2.3-4.19-6.39-7.69-13.77-7.69-11.78,0-20.56,8.78-20.56,24.75,0,16.56,9.38,24.75,20.86,24.75s17-8.19,17-15.57m-17.46-32.13c5.48,0,7.68,7.08,7.68,11.67,0,7.59-6.09,9.58-16.66,14.37-1.6-11.47,1.09-26,9-26m-.1-13.87a9.6,9.6,0,0,1-9.28-9.28h-.5a9.6,9.6,0,0,1-9.28,9.28v.5a9.6,9.6,0,0,1,9.28,9.28h.5a9.28,9.28,0,1,1,18.56,0h.5a9.6,9.6,0,0,1,9.28-9.28v-.5a9.6,9.6,0,0,1-9.28-9.28h-.5a9.6,9.6,0,0,1-9.28,9.28M207,691.47c5.59,0,9.78-3.79,9.78-9.08,0-6-5.19-10.37-12-9.67l-.09-.1,2-4.29h.4c8.38,0,14.57-5.89,18.76-13.67l-.6-.3c-4.19,6.18-10,9.38-14.87,9.38-6.88,0-11.77-6.39-11.77-21,0-12.87,3.69-22.15,8.68-22.15,4.79,0,8.18,8.48,4.49,15l.5.4a129.2,129.2,0,0,1,12.57-15.27l-.3-.3a8.74,8.74,0,0,1-5.19,1.9c-4,0-5-3.5-11.87-3.5-10.48,0-19.86,8.19-19.86,24.75,0,15.47,8.28,23.65,17.46,24.64l-5.18,10,.1.1a12.24,12.24,0,0,1,4-.8c3.39,0,6.08,2.3,6.08,5.69s-2.69,5.59-6,5.59a10.36,10.36,0,0,1-6.09-2.2l-.3.2a11.39,11.39,0,0,0,9.28,4.69m-39.51-39v2.79c0,6.09-3.59,10-8.38,10-5.09,0-8.38-4.39-8.38-11.37s3.29-11.38,8.38-11.38c4.79,0,8.38,3.89,8.38,10m.2,15.87a55.21,55.21,0,0,1,16.36-6.59l-.1-.6c-3.59.6-6.48-1-6.48-5.69V632.9c0-10.57-7.59-14.07-13.77-14.07-10.88,0-12.87,11.18-23.85,9.38l-.1.5a37.2,37.2,0,0,1,18.06,9.38v.2a15.06,15.06,0,0,0-17.46,15.37c0,10,7.58,14.67,15,14.67a15,15,0,0,0,12-5.49h.2v5.49Zm-.2-22.76h-.2c-5.59-8.18-13.17-9.77-13.17-17.56,0-4.09,2.09-6.38,5.09-6.38,4.09,0,8.28,4.39,8.28,11.47Zm-11.08-38.71a5.49,5.49,0,1,1,5.49,5.69,5.59,5.59,0,0,1-5.49-5.69m5.49,7.88a7.88,7.88,0,1,0-7.88-7.88,7.83,7.83,0,0,0,7.88,7.88m-43.3,49c-6.39,0-11.78-5.29-13.37-15.27,7.68-3.69,12.27-5.29,16.46-5.29,5.59,0,9,3.59,9,8.68a12.21,12.21,0,0,1-12.07,11.88m-24-11.28v2.79c0,6.09-3.79,10-8.88,10-5.39,0-8.88-4.39-8.88-11.37s3.49-11.38,8.88-11.38c5.09,0,8.88,3.89,8.88,10m37.82.3c0-7.08-5.09-10.28-9.78-10.58V642a35.28,35.28,0,0,1,15.17-.2l.1-.5c-5.79-2.09-6-9.27-9-14.76-2.29-4.19-6.58-7.69-13.86-7.69a18.64,18.64,0,0,0-14,5.69H101a12.28,12.28,0,0,0-10.78-5.69c-10.88,0-13,11.18-24.15,9.38l-.1.5A37.16,37.16,0,0,1,84,638.09v.2c-7.78-1.3-17.26,4.19-17.26,15.37,0,9.88,7.29,14.67,16.27,14.67a21.36,21.36,0,0,0,17.16-8h.2c4.09,4.89,8.88,8,15.66,8,10.88,0,16.47-8.19,16.47-15.57m-37.82-7.19h-.2c-5.69-8.38-14.17-10-14.17-17.56,0-4.09,2.5-6.38,5.59-6.38,4.29,0,8.78,4.39,8.78,11.47Zm19.86-24.94c5.88,0,8.18,7.08,8.18,11.67,0,7.59-6.59,9.38-17.66,14.37-1.6-11.47,1.19-26,9.48-26M56.18,652.36V615.84c0-5.59,1.09-8.68,4.88-13.17l-.39-.4A10.64,10.64,0,0,1,53.78,605c-6.19,0-6.09-4.88-16.26-4.88-14.57,0-27.44,10.17-27.44,30.43,0,19.56,12,30.33,27.44,30.33a36.17,36.17,0,0,0,8-.9c-1.7,12.68-6.49,19.66-14,22l.1.5c13.67-3,24.55-9.87,24.55-30.13M40,646.87V611.35c0-5,.6-7.78,3.09-7.78s3.1,2.69,3.1,7.78v37c0,3.69-.2,7.08-.5,10.08-4,.1-5.69-3.89-5.69-11.58"/><path d="M648.47,567.15h46.09l3-26.34h-.5c-4.69,17.46-11.18,24.34-22.55,24.34H662l34.12-63.86h-43.8l-1.8,23.25h.5c3.89-16.76,10.48-21.25,21.55-21.25h10Zm24.44-71.34h.2a105.21,105.21,0,0,1,14.37-16.17l-.4-.5L673,487.42l-14.07-8.28-.4.5a105.21,105.21,0,0,1,14.37,16.17m-53.18,23.44c14,0,15.37,10,15.37,15s-1.4,15-15.37,15h-5.09V519.25Zm1.7,47.4c-5.89,0-6.79-3.49-6.79-10.48v-5h6.29c16.16,0,25.44-6,25.44-17s-9.28-17-25.44-17h-6.29v-5c0-7,.8-10.48,6.59-10.48v-.5H597.68v.5c5.79,0,6.58,3.5,6.58,10.48v43.9c0,7-.89,10.48-6.78,10.48v.5h23.95ZM546.89,543.7c0,17.76,7.18,24.85,20.36,24.85s20.35-7.09,20.35-24.85V512.27c0-7,1.1-10.48,9.78-10.48v-.5H575.83v.5c8.68,0,9.78,3.5,9.78,10.48V544.7c0,16-7.39,21.65-14.17,21.65s-14.17-5.69-14.17-21.65V512.27c0-7,.9-10.48,6.78-10.48v-.5H540.31v.5c5.78,0,6.58,3.5,6.58,10.48Zm8.58-48.89.4.5L569.94,487,584,495.31l.4-.5A105.21,105.21,0,0,1,570,478.64h-.2a105.21,105.21,0,0,1-14.37,16.17m-44.1,73.74c14.37,0,25.74-11.18,25.74-34.13,0-14.37-4.49-24-11.27-29.33l6.88-15.17-1.8-.7-6.68,14.67a23.78,23.78,0,0,0-12.87-3.59c-14.37,0-25.75,11.17-25.75,34.12,0,14.27,4.4,24,11.18,29.34l-7.88,17,2,.9L498.6,565a23.21,23.21,0,0,0,12.77,3.6m0-2.2c-4.29,0-7.58-2.69-9.88-7.38l21-46.5h.1c2,5.49,3,13.27,3,21.95,0,19.26-4.89,31.93-14.17,31.93M497.2,534.42c0-19.26,4.89-31.93,14.17-31.93,4.19,0,7.58,2.6,9.88,7.29l-20.86,46.69h-.1c-2.09-5.49-3.09-13.37-3.09-22.05m-22.15-33.13H434.64a38.32,38.32,0,0,0-8.68-1c-16.57,0-28.44,11.17-28.44,34.12s11.87,34.13,27.54,34.13a34.72,34.72,0,0,0,9.58-1.4h41.21l3-26.34h-.5c-4.69,17.46-11.17,24.34-22.55,24.34H449.5V534.32c6.49,0,10.38,1.8,14.17,9.78h.2l6-19.76h-.2c-5.59,7.59-13.27,8.68-20.16,8.68V503.29h5.29c11.08,0,17.66,4.49,21.56,21.25h.49Zm-47.3,65c-13.37,0-18.66-12.67-18.66-31.93s5.29-32,18.66-32c5,0,11.38,1.8,11.38,9.48v45c0,7.68-6.39,9.48-11.38,9.48m-41.61-54c0-7,.9-10.48,6.79-10.48v-.5H377.56v.5c5.79,0,6.59,3.5,6.59,10.48v42H384l-30.13-53h-16v.5c5.59,0,6.59,3.5,6.59,10.48v43.9c0,7-.9,10.48-6.79,10.48v.5H353v-.5c-5.79,0-6.59-3.49-6.59-10.48v-45.4h.2l27.74,48.6a42.76,42.76,0,0,1,4.39,10.17h.2a21.37,21.37,0,0,1,13.17-10.17v-.3c-3.09,0-4.89-.8-6-2.2Zm-12-19.36a114.27,114.27,0,0,1,9.28-12.07l-.8-.6c-3.29,3.79-5.39,4.79-7.38,4.79-4.19,0-9.38-4.59-16.66-4.59a72.43,72.43,0,0,1-9.38,11.08l.79.69c3.6-3.89,5.49-5.08,8.29-5.08,4,0,9.38,2.49,15.56,5.78Zm-74.43,72.24V535.22h10.07v-2H299.74V503.29h4.89c13,0,18.25,11.77,18.25,30.93s-5.28,30.93-18.25,30.93Zm6.48,2c16.27,0,28.24-10.48,28.24-32.93s-12-32.93-28.24-32.93H282.77v.5c5.79,0,6.59,3.5,6.59,10.48v21h-8.88v2h8.88v20.95c0,7-.8,10.48-6.59,10.48v.5Zm-28.44-65.86H254.24v.5c5.78,0,6.58,3.5,6.58,10.48v43.9c0,7-.9,10.48-6.78,10.48v.5H278v-.5c-5.88,0-6.78-3.49-6.78-10.48v-43.9c0-7,.8-10.48,6.58-10.48Zm-7.28-22.15a59.59,59.59,0,0,1-9.18,17.06v.1l.8.2h.1a85.66,85.66,0,0,1,17.36-14v-.1l-9-3.3Zm-21.85,61.67h-.5c-4.69,17.46-11.17,24.34-22.55,24.34h-6.29V534.32c6.49,0,10.38,1.8,14.17,9.78h.2l6-19.76h-.2c-5.59,7.59-13.27,8.68-20.16,8.68V503.29h5.29c11.08,0,17.66,4.49,21.56,21.25h.49l-1.79-23.25H202.35v.5c5.79,0,6.59,3.5,6.59,10.48v43.9c0,7-.9,10.48-6.79,10.48v.5h43.51Zm-21.25-54a9.6,9.6,0,0,1-9.28-9.28h-.5a9.6,9.6,0,0,1-9.28,9.28v.49a9.6,9.6,0,0,1,9.28,9.28h.5a9.28,9.28,0,0,1,18.56,0h.5a9.6,9.6,0,0,1,9.27-9.28v-.49a9.6,9.6,0,0,1-9.27-9.28h-.5a9.6,9.6,0,0,1-9.28,9.28M174.31,591.69c5.59,0,9.78-3.79,9.78-9.08,0-6-5.19-10.37-12-9.67l-.1-.1,2-4.29c11.47,0,18.26-7.59,23.44-18l-.79-.4c-5,8.18-11.08,12.47-17.86,12.47-10.08,0-19.16-9.48-19.16-30.73,0-16,5.19-29.44,14.37-29.44,4.69,0,9.47,3.49,9.47,11.18a26.55,26.55,0,0,1-2.29,10.27l.5.3a245.2,245.2,0,0,1,16.86-21.35l-.4-.4a11.29,11.29,0,0,1-7.08,2.7c-5.29,0-6.59-4.89-16.57-4.89-15,0-26.24,11.17-26.24,33.92,0,21.85,10.48,33.43,24.15,34.33l-5.19,9.87.1.1a12.26,12.26,0,0,1,4-.79c3.39,0,6.09,2.29,6.09,5.68s-2.7,5.59-6,5.59a10.39,10.39,0,0,1-6.09-2.2l-.29.2a11.36,11.36,0,0,0,9.27,4.69m-68.94-25c-5.89,0-10-2.2-7.59-9l4-11.18h22.85l3.4,9.68c2.49,7.19,2.49,10.48-4.89,10.48v.5h25.74v-.5c-5.89,0-7-4.29-9.18-10.48l-17.56-48.39a25.53,25.53,0,0,1-1.8-8.88h-.2c-2.89,5.29-8.78,8.78-14,10.18v.3c3.1,0,4.89.79,6,2.19l-16.36,46.1c-2.4,6.78-6.19,9-12,9v.5h21.56Zm7.78-52.48h.2l10.58,30.33H102.47Zm-2.8-24.85a5.49,5.49,0,1,1,5.49,5.69,5.59,5.59,0,0,1-5.49-5.69m5.49,7.88a7.88,7.88,0,1,0-7.88-7.88,7.84,7.84,0,0,0,7.88,7.88M21.65,566.65c-6.08,0-10.67-3-7.68-8.28l12.47-22H44.1v19.75c0,7-.9,10.48-6.78,10.48v.5h43.5l3-26.34h-.49c-4.69,17.46-11.18,24.34-22.55,24.34H54.48V536.32c6.49,0,10.88,1.29,14.17,8.28h.2l6-19.76h-.2c-6,8.18-13.27,9.68-20.15,9.68V503.29h5.29c11.07,0,17.66,4.49,21.55,21.25h.5L80,501.29H37.32v.5c2.89,0,6.08,1.3,3.69,5.39L12,557.67c-3.59,6.29-6.18,9-12,9v.5H21.65ZM43.8,505.78h.3v28.74H27.54Z"/><path d="M692.76,443.22c0-11.17,3.19-19.26,7.48-20.55v39.21c-4.49-2.09-7.48-8.08-7.48-18.66M720,453.7l-.6-.3c-4.89,7.18-11.77,10.28-17.16,9.18v-40c4.39.8,7.18,8.78,3.69,14.86l.5.4A130,130,0,0,1,719,422.57l-.3-.3a8.72,8.72,0,0,1-5.19,1.89c-3.89,0-4.89-3.29-11.27-3.49v-9.48h-2v9.48c-9.87.7-18.46,8.48-18.46,23.35,0,15.27,9,22.85,18.46,23.35v9.48h2v-9.48c7.58-.4,13.77-6.19,17.76-13.67m-58.27-40.21c0,3.09-.9,6.08-3,11l.49.3a226.85,226.85,0,0,1,16.87-20.65l-.4-.4c-2.5,1.8-4.19,2.59-6.19,2.59-4.69,0-6.68-4.49-15.56-4.79V392h-2v9.48c-13.27.5-19.06,9.88-19.06,18.06,0,9.08,7,15.07,19.06,19.86v25.84c-4.39-.6-8.48-4.79-8.48-12.17a30.76,30.76,0,0,1,2.29-10.78l-.5-.3a223.65,223.65,0,0,1-16.86,20.66l.4.4c2.5-1.8,4.29-2.6,6-2.6,4.69,0,7.38,6.09,17.16,6.79v9.58h2v-9.48c11.87,0,20.75-7.29,20.75-17.26,0-10.48-10.08-17.66-20.75-21.26V403.71c4.09.5,7.78,3.49,7.78,9.78m2.39,40.41A11.45,11.45,0,0,1,654,465.37V440.23c8.28,4.29,10.17,9.68,10.17,13.67m-22-39.12c0-6.18,4.69-10.87,9.88-11.17v24.45c-7.78-3.8-9.88-9.08-9.88-13.28m-15.36,35-.8-.4c-5.59,8.88-13.47,13-20.46,13-8.68,0-17-6.29-19.15-21.95h17.36l.3-2H586.1c-.2-2.29-.3-5-.3-7.48H605l.3-2H585.9c.59-14.46,5.88-26.24,15.16-26.24,5.09,0,10.38,3.49,10.38,11.08a26.67,26.67,0,0,1-2.3,10.37l.5.3a243.55,243.55,0,0,1,16.87-21.35l-.4-.4a11.31,11.31,0,0,1-7.09,2.7c-5.58,0-7-4.89-17.46-4.89-14.17,0-25.24,9.28-27,28.43H569l-.3,2h5.59c-.1,2.39-.1,4.79,0,7.48h-6.58l-.3,2h7.08c1.8,19.06,13,28.34,26,28.34,12.08,0,20.56-7.79,26.15-19M561.85,441h-.5c-4.69,17.46-11.17,24.34-22.55,24.34H523.93v-.2C531,461,539.3,453.8,539.3,439.43h13.17v-2H539.2c-.7-9.57-6-14.26-6-23.24,0-8.19,4.39-10.68,8-10.68,4.39,0,7.48,3.69,7.48,10,0,3.09-.9,6.08-3,11l.49.3a226.85,226.85,0,0,1,16.87-20.65l-.4-.4c-2.5,1.8-4.19,2.59-6.19,2.59-4.89,0-6.78-4.79-16.36-4.79-11.18,0-17.46,6.29-17.46,15.77,0,7.68,4.19,12.37,5.58,20.15h-9.08v2h9.48c1.5,11-2.69,27.44-13.27,27.44v.5h43.51Zm-62.06,25.84c-5.89,0-6.79-3.49-6.79-10.48V451.2h14.87v-2H493v-7.68h14.87v-2H493v-.2l14.47-28.74c2.89-5.68,6.29-8.58,11.38-8.58v-.5H497.49v.5c4.59,0,8.88,1,8.88,4.79a10.22,10.22,0,0,1-1.19,3.79l-13,25.85H492l-12.78-24.55c-3.49-6.68-3.89-9.88,3.69-9.88v-.5H457.58v.5c5,0,7.28,3.69,10.68,10.08l14.37,27.24v.2H468.36v2h14.27v7.68H468.36v2h14.27v5.19c0,7-.9,10.48-6.79,10.48v.5h24Zm-54.38-32.23c0,19.26-3.79,31.93-11.18,31.93s-11.17-12.67-11.17-31.93,3.79-31.93,11.17-31.93,11.18,12.67,11.18,31.93m-33.93,0c0,22.95,10.08,34.13,22.75,34.13S457,457.59,457,434.64s-10.07-34.12-22.75-34.12-22.75,11.17-22.75,34.12M371,420.77c0-9.88,3.9-18.06,10.88-18.06S393,410.89,393,420.77s-4.1,18.06-11.08,18.06-11-8.18-11-18.06m11-20.25c-10.68,0-21.25,8.08-21.25,22.05,0,12.47,8.68,19.55,17.76,19.55,6.88,0,12.77-4.29,15.16-11.17h.2c-1.19,19.76-9.48,32.13-24.94,37.42l.1.4c24.45-2.8,34.82-21.16,34.82-39.62,0-17.76-9.58-28.63-21.85-28.63m-47.69,33.12c7,0,9.77,7.59,9.77,16.67s-2.79,16.16-9.77,16.16-9.78-7.08-9.78-16.16,2.79-16.67,9.78-16.67m0-1.79c-5.59,0-7.79-6.79-7.79-14.77s2.2-14.27,7.79-14.27S342,409.1,342,417.08s-2.2,14.77-7.78,14.77m0,36.92c11.37,0,20.75-7,20.75-18.46,0-9.18-6-15.77-14.57-17.47v-.2c7.49-1.89,12.58-7.48,12.58-15.56,0-10.48-8.49-16.56-18.76-16.56s-18.76,6.08-18.76,16.56c0,8.08,5.09,13.67,12.57,15.56v.2c-8.58,1.7-14.57,8.29-14.57,17.47,0,11.47,9.38,18.46,20.76,18.46m-44-1.4c-.3-22.25,6.49-42,21.06-65.76l-.1-.1H293.05c-9.08,0-14.57-.4-19.06-1.39l-5.29,18.06.3.2c3.69-6,6.39-7.89,15.67-7.89h19.85v.1c-17.36,26.45-22.95,39-25.64,56.68l.1.1Zm-31.53-18.86c0,9.88-3.89,18.06-10.87,18.06s-11.18-8.18-11.18-18.06,4.09-18.06,11.08-18.06,11,8.18,11,18.06m-11,20.26c10.68,0,21.25-8.09,21.25-22.06,0-12.47-8.68-19.55-17.76-19.55-6.88,0-12.77,4.29-15.17,11.17h-.2c1.2-19.75,9.48-32.13,24.95-37.41l-.1-.4c-24.45,2.79-34.82,21.15-34.82,39.61,0,17.76,9.58,28.64,21.85,28.64M185.39,423l2.29-12.48h6c9.08,0,14.57.4,19.06,1.4L217,397.22l-.3-.2c-3,4.19-4.69,4.49-14.37,4.49H187.78L183,427.16A45.45,45.45,0,0,1,180.8,435l.4.2a14.18,14.18,0,0,1,11.67-5.69c8.48,0,14.77,6.69,14.77,15.47,0,11.77-11.18,21.55-24.85,23.35l.1.4c22.45,0,34.43-12.28,34.43-26.55,0-12.37-9.08-21.35-21.46-21.35a26.68,26.68,0,0,0-10.37,2.2Zm-22.75,20.75v-44.2h-.2c-4.19,10.18-8.48,18.06-19.16,32.33-8.88,11.87-12.77,15.86-18.56,18.56v.3h27.54v5.68c0,7-1.1,10.48-8.28,10.48v.5h26.94v-.5c-7.18,0-8.28-3.49-8.28-10.48v-5.68a28.6,28.6,0,0,1,11.67,2.09l3.89-13.37-.3-.2c-3,4.19-5.48,4.49-15.26,4.49m-26.14,0v-.1l15.66-21.15h.1v21.25Zm-52.29,25c25.05,0,36.32-11.38,36.32-22.45,0-11.28-11.57-19.06-24.64-17.77l-.1-.1,25.74-26.84-.1-.1H109.56c-9.08,0-14.57-.4-19.06-1.39l-5.19,18.06.3.2c3.69-6,6.38-7.89,15.66-7.89h9.48v.1l-13,13.47c-3.59,3.7-6.28,5.29-11.27,7.49l.1.6c10.77-3,22.45,2.89,22.45,15.66,0,12.57-11.48,18.76-25,20.56ZM55,436.64c-8.38,0-13-7.49-13-16s4.69-16,13-16,13,7.48,13,16-4.59,16-13,16m.4,30.73c9.08,0,14.56.4,19.05,1.4l5.49-17.86-.3-.2c-3.79,6.18-7.58,7.78-18.56,7.78H52v-.1c14.17-13.27,27-23.75,27-38.22,0-11.87-9-19.65-19.55-19.65-12.28,0-19.16,10-19.16,20,0,9.08,5.69,17.36,14.57,17.36a13.4,13.4,0,0,0,11.17-5.78l.1.1c-2.69,12-16.06,26.34-26.64,35l.1.2Zm-19.26-.5c-7.18,0-8.28-3.49-8.28-10.48V399.52h-.2A39.62,39.62,0,0,1,7.38,414.29l.2.49c3.2-1,5.29-1.59,6.89-1.59,2.39,0,3,1.3,3,4.79v38.41c0,7-1.1,10.48-8.28,10.48v.5H36.12Z"/><path d="M687.08,367.59l5-16-.3-.2c-8.58,10.78-15.17,15.07-28.74,15.07l27.34-45.4-.2-.2H656.94l-5,16,.3.2c8.29-10.38,14-15.07,26.35-15.07l-27.24,45.4.19.2Zm-65.66,25.54c5.79-25.44,10.68-30.23,17.06-31.83V361c-3.09,0-4.89-.8-6-2.09l9.68-28.54c2.29-6.78,6.18-9,12-9v-.5H633v.5c5.88,0,9.87,2.2,7.58,9l-9.08,26.84h-.2l-8.48-25.34c-2.4-7.19-2.5-10.48,4.89-10.48v-.5h-25v.5c5.89,0,7.09,4.39,9.18,10.48l14,40.31c-4.29,9.18-10.58,14.07-18.26,18.76v.2Zm-51.79-61.86,10,15.37-7.38,11.17c-4.29,6.49-8.18,9.28-14.87,9.28v.5h20.46v-.5c-6.89,0-7.79-3.09-3-10.48l5.59-8.58h.2l5.59,8.58c5.09,7.79,4.49,10.48-2,10.48v.5h25.85v-.5c-4.69,0-8.29-4.49-11.78-9.88L587.2,340.35l6.38-9.68c4.29-6.59,8.18-9.28,14.87-9.28v-.5H588v.5c6.89,0,7.89,3.09,3,10.48l-4.59,7h-.2l-4.49-7c-5-7.88-4.49-10.48,2-10.48v-.5H557.86v.5c4.69,0,8.28,4.49,11.77,9.88M522,361.3V361c-3.09,0-4.89-.8-6-2.09l8.38-25h.2l9.78,28.64a28,28,0,0,1,1.8,8.88h.2c2.89-5.29,8.78-8.78,14-10.18V361c-3.1,0-4.89-.8-6-2.09l9.78-28.54c2.29-6.78,6.18-9,12-9v-.5H544.19v.5c6.49,0,10.78,2.1,8.38,9l-9.18,26.84h-.2l-8.28-25.34c-2.39-7.19-2.59-10.48,5.09-10.48v-.5H515.85v.5c3.89,0,5.39,3.09,6.89,7.38l1,2.8-8.69,25.64h-.19l-8.29-25.34c-2.39-7.19-2.59-10.48,5.09-10.48v-.5H486.32v.5c5.89,0,7.08,4.39,9.18,10.48l10.57,30.73a28,28,0,0,1,1.8,8.88h.2c2.89-5.29,8.78-8.78,14-10.18m-54.58,10.18c2.89-5.29,8.78-8.78,14-10.18V361c-3.09,0-4.89-.8-6-2.09l9.68-28.54c2.3-6.78,6.19-9,12-9v-.5H475.94v.5c5.89,0,9.88,2.2,7.58,9l-9.08,26.84h-.2l-8.48-25.34c-2.39-7.19-2.49-10.48,4.89-10.48v-.5H445.71v.5c5.88,0,7.08,4.39,9.18,10.48l10.57,30.73a28,28,0,0,1,1.8,8.88ZM405.3,330.37v24.75c0,10.37,7.48,13.87,14.47,13.87,6.18,0,9.48-3,11.27-5.49h.2V369h.2a55.21,55.21,0,0,1,16.36-6.59l-.1-.6c-3.59.6-6.48-1-6.48-5.69v-38H441a33.34,33.34,0,0,1-16.66,7.58v.5c5.58-.6,6.88.7,6.88,4.19v26.14c0,6.69-4.19,8.88-7.88,8.88-4.69,0-8.08-3.79-8.08-10.47V318.1h-.2a33.34,33.34,0,0,1-16.67,7.58v.5c5.59-.6,6.89.7,6.89,4.19m-24.15-9.48V308.22H381c-2.89,6.19-9.08,12.47-15.46,14.47v.5h5.69v31c0,8.18,3.89,14.77,11.77,14.77,7.38,0,13.17-5.79,17.36-13.67l-.6-.3c-4,6-7.58,9.38-11.47,9.38s-7.09-3.3-7.09-9.68V323.19a31.28,31.28,0,0,1,10.58,2.09h.2l5.59-8.38-.2-.2a40.41,40.41,0,0,1-16.17,4.19m-38.81,46.3a7.33,7.33,0,0,1-7.58-7.58c0-3.9,2.29-7.89,5.38-11.68,7.89,2.4,10.48,7.39,10.48,11.28a8,8,0,0,1-8.28,8m-7.48-38.12c0-4.59,3.29-8.08,7.38-8.08a7,7,0,0,1,7,7.39c0,3.49-1.9,7-5.29,11.37-6.89-2.49-9.08-7-9.08-10.68M323,365.89c2-1.39,3.49-2,4.89-2,4,0,5.79,5.09,15.27,5.09,10,0,17.86-5.49,17.86-13.08,0-7.18-7-12.27-15.27-15.36a206.11,206.11,0,0,1,15.77-19.16l-.3-.3a8.92,8.92,0,0,1-5.49,1.9c-4.69,0-5.49-3.5-13.47-3.5-11.67,0-16.76,7.39-16.76,14,0,6.39,4.79,11.08,12.87,13.77a137.39,137.39,0,0,1-15.67,18.36ZM310.21,318.7h-.1A34.75,34.75,0,0,1,302.23,329H302V318.1h-.2A35.59,35.59,0,0,1,285,329.77l.2.5c5-1.5,6.88-1.4,6.88,3.19v23.15c0,7-.9,10.48-6.78,10.48v.5h23.34v-.5c-5.78,0-6.58-3.49-6.58-10.48V336.26c0-6.39,3.19-8.08,6.09-8.08s5.88,1.79,8.08,4.29h.2c3.29-4.19,5.68-6.79,9.58-11.08l-.3-.3a8.56,8.56,0,0,1-5.19,1.9c-2.79,0-5.59-1.6-10.28-4.29M261,365.29c-4.79,0-11.27-3.59-11.27-21.55,0-16.36,5.58-21.55,11.27-21.55,5,0,8.28,3.89,8.28,8.78v25.74c0,5.29-3.69,8.58-8.28,8.58m7.28,32.83a44.3,44.3,0,0,1,18.56-14.47l-.2-.5c-5.48,1.9-7.38.9-7.38-3.79V318.1h-.2a25.7,25.7,0,0,1-8.38,8.58c-2.7-5.39-7.48-7.19-12.17-7.19-9.68,0-19.76,7.49-19.76,24.75,0,17.06,9.88,24.75,19.26,24.75a13.27,13.27,0,0,0,11.07-5.49l.2-.1v12.87c0,10-.1,17.16-1.3,21.65Zm-66.75-33.23h.2A13.55,13.55,0,0,0,212,369c10.18,0,20.05-7.69,20.05-24.75s-9.87-24.75-18.65-24.75a12.89,12.89,0,0,0-11.68,7.09h-.2V318.1h-.2a35.72,35.72,0,0,1-16.86,11.77l.2.5c5-1.5,6.88-1.4,6.88,3.19v42.71c0,10-.2,17.36-3.49,21.45l.3.4c5.69-6.58,11.18-10.38,17.66-13l-.2-.4c-4,1.2-4.29-.9-4.29-3.79Zm0-6.18V333.56c0-6.78,3.69-10.37,8.68-10.37s10.88,3.69,10.88,21.05-6.49,21.05-11.58,21.05-8-3.69-8-6.58m-40.91-37.42c7,0,9.78,9.18,9.78,22.95s-2.79,22.95-9.78,22.95-9.78-9.18-9.78-22.95,2.8-22.95,9.78-22.95m0-1.8c-11.37,0-20.75,8.09-20.75,24.75S149.27,369,160.64,369s20.76-8.19,20.76-24.75-9.38-24.75-20.76-24.75m-50.48,47.6c-5.79,0-6.59-3.49-6.59-10.48V333.56c0-6.78,3.69-10.37,8.18-10.37s8.18,3.59,8.18,10.37v23.05c0,7-.89,10.48-6.78,10.48v.5H136.5v-.5c-5.79,0-6.59-3.49-6.59-10.48V333.36c0-10.37-7.58-13.87-13.67-13.87a14,14,0,0,0-12.47,7.09h-.2V318.1h-.2a35.59,35.59,0,0,1-16.86,11.67l.2.5c5-1.5,6.88-1.4,6.88,3.19v23.15c0,7-.9,10.48-6.78,10.48v.5h23.35Zm-77.63,0c-5.79,0-6.59-3.49-6.59-10.48V333.56c0-6.78,3.69-10.37,8.18-10.37s8.19,3.59,8.19,10.37v23.05c0,7-.9,10.48-6.79,10.48v.5H58.87v-.5c-5.79,0-6.59-3.49-6.59-10.48V333.56c0-6.78,3.7-10.37,8.19-10.37s8.18,3.59,8.18,10.37v23.05c0,7-.9,10.48-6.79,10.48v.5H85.21v-.5c-5.79,0-6.58-3.49-6.58-10.48V333.36C78.63,323,71,319.49,65,319.49c-5.89,0-11.58,3.3-13.37,8.89h-.2c-2-6.59-7.79-8.89-12.78-8.89a14,14,0,0,0-12.47,7.09h-.2V318.1h-.2A35.54,35.54,0,0,1,8.88,329.77l.2.5c5-1.5,6.88-1.4,6.88,3.19v23.15c0,7-.89,10.48-6.78,10.48v.5H32.53Z"/><path d="M704.24,267.81v-.5c-5.79,0-6.59-3.49-6.59-10.48V196h-.2a35.59,35.59,0,0,1-16.86,11.67l.2.5c5-1.5,6.88-1.4,6.88,3.19v45.5c0,7-.9,10.48-6.78,10.48v.5Zm-48.6-.5c-5.78,0-6.58-3.49-6.58-10.48V242h.2l10.08,16.16c3.79,6,4.39,9.18-.7,9.18v.5H682v-.5c-4.69,0-8.38-4.39-11.78-9.88l-13.27-21.15a81.62,81.62,0,0,1,19.86-15v-.2H663c-2.5,8-5.29,13.57-13.77,19.46h-.2V196h-.2A35.59,35.59,0,0,1,632,207.64l.2.5c5-1.5,6.88-1.4,6.88,3.19v45.5c0,7-.9,10.48-6.78,10.48v.5h23.34Zm-30.73-2.59v-46.4h-.2A35.54,35.54,0,0,1,607.85,230l.2.5c5-1.5,6.88-1.4,6.88,3.19v27c0,20.26-5.18,30.54-14.66,33.63l.1.5c13.67-3,24.54-9.88,24.54-30.13m4.69-57.08a9.6,9.6,0,0,1-9.28-9.28h-.5a9.6,9.6,0,0,1-9.28,9.28v.5a9.6,9.6,0,0,1,9.28,9.28h.5a9.6,9.6,0,0,1,9.28-9.28Zm-23.25,60.17v-.5c-5.78,0-6.58-3.49-6.58-10.48V218.32h-.2A35.59,35.59,0,0,1,582.71,230l.19.5c5-1.5,6.89-1.4,6.89,3.19v23.15c0,7-.9,10.48-6.79,10.48v.5Zm-2.09-60.17a9.6,9.6,0,0,1-9.28-9.28h-.5a9.6,9.6,0,0,1-9.28,9.28v.5a9.6,9.6,0,0,1,9.28,9.28h.5a9.6,9.6,0,0,1,9.28-9.28Zm-48.69,59.67c-5.79,0-6.59-3.49-6.59-10.48v-23c0-6.78,3.69-10.37,8.18-10.37s8.18,3.59,8.18,10.37v23c0,7-.89,10.48-6.78,10.48v.5h23.35v-.5c-5.79,0-6.59-3.49-6.59-10.48V233.58c0-10.37-7.58-13.86-13.67-13.86a13.94,13.94,0,0,0-12.47,7.08H549V196h-.2a35.59,35.59,0,0,1-16.86,11.67l.2.5c5-1.5,6.88-1.4,6.88,3.19v45.5c0,7-.9,10.48-6.78,10.48v.5h23.35Zm-48.1,24.05a11.27,11.27,0,0,1-11.37-11.48c0-3.79,1.69-7.78,4.39-11.67,13.57,2,19,7.18,19,12.77,0,5.89-6,10.38-12,10.38m20.06-15.07c0-8.38-5.89-13.17-12.57-15.37-9-3-19.76-1.49-19.76-5.78,0-3.5,7.08-2.8,10.68-2.8,10.67,0,18.46-6.48,18.46-15.76a15.56,15.56,0,0,0-8.59-14.07l.1-.2A37.06,37.06,0,0,1,527,225.6h.2l5.59-8.48-.2-.2a32.82,32.82,0,0,1-14.77,4c-4.29,0-7.58-1.19-11.87-1.19-10.68,0-18.66,7.48-18.66,16.76,0,6.38,3.79,12.67,9.48,14.37v.2c-7.09.79-9.28,4.59-9.28,7.68,0,2.09,1,6.88,10.27,9.18A80.19,80.19,0,0,1,481,289l.3.4c2.49-1.89,4.39-2.79,6.39-2.79,5.48,0,7.48,6.78,19.55,6.78,13.47,0,20.26-8.18,20.26-17.06m-21.65-54.88c6,0,7.48,7.58,7.48,14.27S511.86,251,505.88,251s-7.49-8.58-7.49-15.27,1.5-14.27,7.49-14.27m-27.44,45.9c-5.79,0-6.59-3.49-6.59-10.48V223.41a31.33,31.33,0,0,1,10.58,2.09h.2l5.58-8.38-.19-.2a40.41,40.41,0,0,1-16.17,4.19V206.64c0-6.08,1.9-8.78,4.59-8.78,3.89,0,5,5.59,5,14.07h.2c4.19-5.89,6.29-8.18,12.17-13.67l-.3-.3a9.54,9.54,0,0,1-5.58,2c-4.49,0-5.89-3.59-12.08-3.59-7,0-14,4.49-14,15.06V220a21.73,21.73,0,0,1-5.68,2.9v.5h5.68v33.42c0,7-.9,10.48-6.78,10.48v.5h23.35Zm-41.11-2.69c-6.19,0-11.28-5.29-12.87-15.27,7.28-3.49,11.47-5.29,15.46-5.29,5.59,0,9,3.59,9,8.68,0,6.29-5.29,11.88-11.57,11.88m13.37-11c0-7.28-5.09-10.28-9.78-10.58v-.2a35.28,35.28,0,0,1,15.17-.2l.1-.49c-5.79-2.1-6-9.28-9-14.77-2.3-4.19-6.39-7.68-13.77-7.68-11.78,0-20.56,8.78-20.56,24.74,0,16.56,9.38,24.75,20.86,24.75s17-8.19,17-15.57m-17.46-32.13c5.48,0,7.68,7.09,7.68,11.68,0,7.58-6.09,9.57-16.66,14.36-1.6-11.47,1.09-26,9-26m-40,12.27v23.15c0,5.29-3.1,8.58-8,8.58-5.09,0-11.57-3.59-11.57-21s5.89-21.05,10.87-21.05,8.69,3.59,8.69,10.37m0-7H393a12.88,12.88,0,0,0-11.68-7.08c-8.78,0-18.66,7.58-18.66,24.74s9.88,24.75,19.16,24.75A13.35,13.35,0,0,0,393,263.72l.2-.1v5.59h.2a55,55,0,0,1,16.36-6.59l-.1-.6c-3.59.6-6.49-1-6.49-5.69V196H403a35.54,35.54,0,0,1-16.86,11.67l.2.5c5-1.5,6.89-1.4,6.89,3.19Zm-45.9,10.08a128.22,128.22,0,0,1,12.57-15.27l-.3-.3a8.74,8.74,0,0,1-5.19,1.9c-4,0-5-3.49-11.87-3.49-10.48,0-19.86,8.18-19.86,24.74s9.58,24.75,19.46,24.75c8.38,0,14.57-5.89,18.76-13.67l-.6-.3c-4.19,6.18-10,9.38-14.87,9.38-6.88,0-11.77-6.39-11.77-21,0-12.87,3.69-22.15,8.68-22.15,4.79,0,8.18,8.48,4.49,15Zm-61.86-3.1c0-6.78,4.09-10.37,8.68-10.37,5,0,10.87,4.19,10.87,21.05,0,17.46-6.48,21-11.57,21s-8-3.69-8-6.58Zm-10,13.77c0,10-.2,17.37-3.49,21.26l.3.4a37.64,37.64,0,0,1,11.77-5.69c2.49,2.89,5.79,5.69,11.87,5.69,10.18,0,20.06-7.69,20.06-24.75s-9.88-24.74-18.66-24.74a12.86,12.86,0,0,0-11.67,7.08h-.2V196h-.2a35.57,35.57,0,0,1-16.87,11.67l.2.5c5-1.5,6.89-1.4,6.89,3.19Zm-22.65,5.79v2.79c0,6.09-3.59,10-8.38,10-5.09,0-8.38-4.39-8.38-11.37s3.29-11.38,8.38-11.38c4.79,0,8.38,3.89,8.38,10m.2,15.87a55.11,55.11,0,0,1,16.36-6.59l-.1-.6c-3.59.6-6.48-1-6.48-5.69V233.78c0-10.57-7.59-14.06-13.77-14.06-10.88,0-12.87,11.17-23.85,9.37l-.1.5A37.25,37.25,0,0,1,243.16,239v.2a15.06,15.06,0,0,0-17.46,15.37c0,10,7.58,14.67,15,14.67a15,15,0,0,0,12-5.49h.2v5.49Zm-.2-22.75h-.2c-5.59-8.19-13.17-9.78-13.17-17.56,0-4.1,2.09-6.39,5.09-6.39,4.09,0,8.28,4.39,8.28,11.47ZM188,212.23a9,9,0,0,1,9-9.08c5.39,0,9.48,4.69,9.48,10.68a24.12,24.12,0,0,1-2.29,9.18l.5.3a190.26,190.26,0,0,1,16.46-19.76l-.4-.4c-2.49,1.9-4.49,2.7-6.39,2.7-4.69,0-7.38-4.89-16.66-4.89-10.87,0-18.86,6.78-18.86,16,0,5,2.3,9.18,7.29,12.47v.2a14.34,14.34,0,0,0-7.49,12.48c0,6.78,5.09,12.37,15.67,16.36,9.48,3.59,14,8.18,14,13.57a9.25,9.25,0,0,1-9.58,9.18c-5.49,0-9.58-4.19-9.58-10.48a24.41,24.41,0,0,1,2.3-9.38l-.5-.3a174.58,174.58,0,0,1-16.27,19.56l.4.4c2.6-1.9,4.29-2.59,6.19-2.59,5,0,7.48,5,17.06,5,11,0,19.16-6.78,19.16-15.76,0-5-2.5-9.08-7.88-12.67v-.2A14.32,14.32,0,0,0,217,242.37c0-6.79-5.29-12.58-15.37-16.37-9.38-3.59-13.67-8.48-13.67-13.77m.2,24.85a8.94,8.94,0,0,1,1.8-5.39c13.37,5.29,18.26,9.48,18.26,15.27a9.3,9.3,0,0,1-1.8,5.58c-13.17-5.39-18.26-9.88-18.26-15.46m-45.6,27.54c-7.08,0-12.47-6.29-12.47-14.77A15.69,15.69,0,0,1,137.59,236l17.77,21.15c-3.9,5-8.29,7.49-12.78,7.49M176.11,260v-.3c-3.69,0-5.79-1.2-8.48-4.39L149,233h.8a40.15,40.15,0,0,1,14.57,2.89h.2l5.58-9.48-.2-.2c-5.58,2.89-14.76,4.69-22.55,4.89l-7.68-9.28c-2.79-3.29-4.49-6.49-4.49-10.18,0-4.69,2.69-8.48,7.18-8.48,4.29,0,9.08,3.49,9.08,11.08a27,27,0,0,1-2.29,10.37l.5.3a245.2,245.2,0,0,1,16.86-21.35l-.4-.4a11.29,11.29,0,0,1-7.08,2.7c-5.29,0-7.09-4.89-16.27-4.89s-17.16,5-17.16,14c0,5.08,2.5,9.67,6.29,14.26l2.79,3.4v.1c-10,2.79-16.16,9-16.16,18.26,0,11.87,10,18.26,19.45,18.26,8.09,0,13.87-4.69,17.86-11.28h.1l2.1,2.5a25.54,25.54,0,0,1,4.69,9.77h.2A21.41,21.41,0,0,1,176.11,260M61.86,267.81H108l3-26.34h-.49c-4.69,17.46-11.18,24.34-22.55,24.34H75.43L109.56,202H65.75L64,225.2h.5C68.35,208.44,74.93,204,86,204H96Zm-17.76,0v-.5c-5.88,0-6.78-3.49-6.78-10.48V239.77L51.79,211c2.89-5.68,6.28-8.58,11.37-8.58V202H41.81v.5c4.59,0,8.88,1,8.88,4.79a10.08,10.08,0,0,1-1.2,3.79l-13,25.85h-.2L23.55,212.33c-3.49-6.68-3.89-9.88,3.69-9.88V202H1.9v.5c5,0,7.28,3.69,10.67,10.08l14.37,27.24v17.06c0,7-.9,10.48-6.79,10.48v.5Z"/><path d="M626.31,167.53c-7.38,0-11.37-5.19-7.18-12.47L628,139.79h.2l7.38,12.77c5.09,8.88,5.39,15-1.89,15v.5h29.73v-.5c-7,0-10.28-5.19-15.07-13.37L635,131.21l9.48-15.66c5.29-8.79,10.18-12.88,17.36-12.88v-.5H635.19v.5c7.49,0,11.88,4.69,7,12.88L634,129.21h-.19l-7.39-12.77c-4.29-7.38-5.89-13.77,3.29-13.77v-.5h-30v.5c6.89,0,9.58,4.69,14.57,13.27L627,137.8l-10.18,17c-5.19,8.58-9.88,12.77-17.16,12.77v.5h26.64Zm-68.25-7.28V160c-3.09,0-4.89-.8-6-2.2L562,117.94h.19L572,157.25a78,78,0,0,1,2.6,13.17h.2c2.89-5.38,9.58-8.68,15.16-10.17V160c-3.09,0-4.89-.8-6-2.2l11.67-46.1c1.8-7,6.19-9,12-9v-.5H584.9v.5c6.79,0,10.48,2,8.78,9L583,155.16h-.2l-10.58-42c-1.89-7.48-2.79-10.48,6.09-10.48v-.5H551.88v.5c6,0,7.48,3.79,9.28,11.18l-10.08,41.31h-.2l-10.58-42c-1.89-7.38-2.19-10.48,5-10.48v-.5H518.85v.5c6.49,0,8.58,4.19,10.18,10.48l11.07,44.1a78,78,0,0,1,2.6,13.17h.2c2.89-5.38,9.58-8.68,15.16-10.17m-70.54,10.17c2.89-5.28,8.78-8.78,14-10.17V160c-3.09,0-4.89-.8-6-2.2L512,111.65c2.39-6.78,6.18-9,12-9v-.5H502.39v.5c5.88,0,10,2.2,7.58,9L494.5,155.16h-.19l-14.67-42c-2.5-7.18-2.5-10.48,4.89-10.48v-.5H458.88v.5c5.89,0,7,4.29,9.18,10.48l17.46,48.39a25.57,25.57,0,0,1,1.8,8.88Zm-73.84-25.84c0,17.76,7.19,24.85,20.36,24.85s20.35-7.09,20.35-24.85V113.15c0-7,1.1-10.48,9.78-10.48v-.5H442.62v.5c8.68,0,9.78,3.5,9.78,10.48v32.43c0,16-7.39,21.65-14.17,21.65s-14.17-5.69-14.17-21.65V113.15c0-7,.9-10.48,6.79-10.48v-.5H407.1v.5c5.79,0,6.58,3.5,6.58,10.48Zm-25.94,22.95c-5.89,0-6.78-3.49-6.78-10.48V104.17c11.07,0,17.66,4.49,21.55,21.25h.5l-1.8-23.25H350.32l-1.79,23.25h.5c3.89-16.76,10.47-21.25,21.55-21.25v52.88c0,7-.9,10.48-6.79,10.48v.5h23.95Zm-66.75-.3c-5.49,0-9.78-4.29-9.78-10.88,0-5.78,3.39-11.17,7.39-16.76,10.47,3.59,13.66,10.78,13.66,16.07A11.38,11.38,0,0,1,321,167.23m-10.78-52.38c0-6.69,5-11.48,10.68-11.48,5.09,0,9.38,3.89,9.38,10.18,0,5.19-3,9.88-7.28,16.16-10.58-4-12.78-10.47-12.78-14.86m-13.27,50.09c2.5-1.9,4.29-2.7,6-2.7,5.09,0,7.78,7.19,19.26,7.19,11.77,0,20.65-7.59,20.65-18.06,0-9.78-7.88-16.47-18.06-20.76,5.89-9.28,12.07-17,20.56-26.84l-.4-.4a11.31,11.31,0,0,1-7.09,2.7c-5.29,0-6.48-4.89-16.76-4.89-14,0-20.06,10-20.06,18.66,0,8.48,5.79,14.76,15.87,18.95a179.43,179.43,0,0,1-20.36,25.75Zm-32.62,2.59c-5.79,0-6.59-3.49-6.59-10.48V135.6h6.88l10.58,21.45a15.61,15.61,0,0,1,1.9,6.29c0,2-1,4.19-4.79,4.19v.5h25v-.5c-5,0-7.28-3-10.17-8.88L274.89,134.6c8.68-2,15.07-6.38,15.07-15.46,0-10.88-9.08-17-25.74-17H240.77v.5c5.78,0,6.58,3.5,6.58,10.48v43.9c0,7-.89,10.48-6.78,10.48v.5h23.75Zm-5.19-33.83h-1.4V104.17h4.79c14.17,0,16.16,9.28,16.16,15.07,0,4.69-1.29,9.68-5.29,12.27h-.19a21,21,0,0,1-.8-9.68l-.4-.1c-2.3,7-6.09,12-12.87,12m-36.52,1.6c0,16.66-3.39,32-13.87,32-9.58,0-14.47-12.77-14.47-32s4.89-31.93,14.17-31.93S222.61,116,222.61,135.3m16.66,58.27A47.76,47.76,0,0,1,252,177.31l-.2-.3c-13.57,5.19-37,4.19-54.18,3.39v-.2c20.66-9.58,36.52-17.46,36.52-44.7,0-23.15-11.37-34.32-25.74-34.32S182.7,112.35,182.7,135.3s11.87,34.13,24.54,34.13a12.71,12.71,0,0,0,5.79-1.2v.2c-6.19,5.89-15.47,10.57-24.25,13.67l.1.5c11.28-1.7,36.92.8,50.19,11Zm-89.8-89.4c13.67,0,15.47,9,15.47,15s-1.8,15-15.47,15h-5V104.17Zm1.6,63.36c-5.79,0-6.59-3.49-6.59-10.48v-21h6.69c16.16,0,25.34-5.39,25.34-17s-9.18-17-25.34-17H127.52v.5c5.79,0,6.58,3.5,6.58,10.48v43.9c0,7-.89,10.48-6.78,10.48v.5h23.75ZM110.36,135.3c0,19.26-4.89,31.93-14.17,31.93S82,154.56,82,135.3s4.89-31.93,14.17-31.93S110.36,116,110.36,135.3m-39.92,0c0,22.95,11.38,34.13,25.75,34.13s25.74-11.18,25.74-34.13-11.37-34.12-25.74-34.12S70.44,112.35,70.44,135.3M58,113.15c0-7,.9-10.48,6.79-10.48v-.5H49.39v.5c5.79,0,6.59,3.5,6.59,10.48v42h-.2l-30.14-53h-16v.5c5.59,0,6.58,3.5,6.58,10.48v43.9c0,7-.89,10.48-6.78,10.48v.5H24.85v-.5c-5.79,0-6.59-3.49-6.59-10.48v-45.4h.2l27.74,48.6a43.16,43.16,0,0,1,4.39,10.17h.2A21.41,21.41,0,0,1,64,160.25V160c-3.09,0-4.89-.8-6-2.2Z"/><path d="M626.61,67.75c-5.79,0-6.59-3.49-6.59-10.48V11.87h.2l15.37,42.91a25.53,25.53,0,0,1,1.8,8.88h.2c2.89-5.29,8.78-8.78,14-10.18v-.3c-3.1,0-4.89-.8-6-2.19l15-41.61h.2V57.27c0,7-.89,10.48-6.78,10.48v.5H677.9v-.5c-5.89,0-6.79-3.49-6.79-10.48V13.37c0-7,.8-10.48,6.59-10.48v-.5H661.23l-16.66,46.4h-.2L628.21,2.39H611.44v.5c5.59,0,6.59,3.5,6.59,10.48v43.9c0,7-.9,10.48-6.79,10.48v.5h15.37ZM608.85,41.91h-.5c-4.69,17.46-11.17,24.34-22.55,24.34h-6.29V13.37c0-7,.8-10.48,6.59-10.48v-.5H562.55v.5c5.79,0,6.59,3.5,6.59,10.48v43.9c0,7-.9,10.48-6.79,10.48v.5h43.51ZM529.93,67.75c-5.89,0-6.79-3.49-6.79-10.48V42.81l6.19-8.19h.2L540.8,57.27a15.61,15.61,0,0,1,1.9,6.29c0,2-1,4.19-4.79,4.19v.5h25v-.5c-5,0-7.28-3-10.27-8.88L536.31,26.24l10.08-14.77c4-5.88,8.18-8.58,14.07-8.58v-.5H537.71v.5c5.09,0,10.48,2.8,6.48,8.58l-8.68,12.68h-.2A25.47,25.47,0,0,1,533,14.87h-.4c-1.4,11.17-4.19,18.46-9.28,24.84h-.2V13.37c0-7,.8-10.48,6.59-10.48v-.5H506.18v.5c5.79,0,6.58,3.5,6.58,10.48v43.9c0,7-.89,10.48-6.78,10.48v.5h23.95ZM470.06,82.82c13.67-3,24.54-9.88,24.54-30.14V13.37c0-7,.8-10.48,6.59-10.48v-.5H477.64v.5c5.79,0,6.59,3.5,6.59,10.48V48.69c0,20.26-5,30.63-14.27,33.63Zm2.59-80.43H449.1v.5c5.79,0,6.59,3.5,6.59,10.48v43.9c0,7-.9,10.48-6.78,10.48v.5h23.94v-.5c-5.88,0-6.78-3.49-6.78-10.48V13.37c0-7,.8-10.48,6.58-10.48ZM412.79,67.75c-5.79,0-6.59-3.49-6.59-10.48V34.62h20.95V57.27c0,7-.89,10.48-6.78,10.48v.5h23.75v-.5c-5.79,0-6.59-3.49-6.59-10.48V13.37c0-7,.9-10.48,6.79-10.48v-.5H420.57v.5c5.79,0,6.58,3.5,6.58,10.48V32.63H406.2V13.37c0-7,.9-10.48,6.79-10.48v-.5H389.24v.5c5.78,0,6.58,3.5,6.58,10.48v43.9c0,7-.9,10.48-6.78,10.48v.5h23.75Zm-30.74,1.5c-2.49-3.1-3.49-9.28-3.49-16.07V46.6c0-6.79.8-10.28,6.59-10.28v-.5H357.81v.7c8.38,0,10.57,4.39,10.57,12.77v15a14.24,14.24,0,0,1-8.78,3.19c-10.67,0-15.16-12.67-15.16-31.93S349.52,3.59,358.7,3.59c4.69,0,9.58,3.3,9.58,11.08A26.8,26.8,0,0,1,366,25l.5.3A243.3,243.3,0,0,1,383.35,4l-.4-.4a11.29,11.29,0,0,1-7.08,2.7c-5.29,0-7-4.89-16.87-4.89-15.36,0-26.14,11.67-26.14,34.12,0,22.95,11.38,34.13,25.05,34.13,5.28,0,10-1.7,14.76-5.69a53.55,53.55,0,0,1,9.08,5.69Zm-74.93-1.5c-5.89,0-6.79-3.49-6.79-10.48V35.42c6.49,0,10.38,1.8,14.17,9.78h.2l6-19.76h-.2c-5.59,7.59-13.27,8.68-20.16,8.68V4.39h5.29c11.08,0,17.66,4.49,21.55,21.25h.5L325.88,2.39H283.37v.5c5.79,0,6.58,3.5,6.58,10.48v43.9c0,7-.89,10.48-6.78,10.48v.5h23.95ZM277.78,41.91h-.5c-4.69,17.46-11.17,24.34-22.55,24.34h-6.28V35.42c6.48,0,10.37,1.8,14.17,9.78h.2l6-19.76h-.2C263,33,255.33,34.12,248.45,34.12V4.39h5.29c11.07,0,17.66,4.49,21.55,21.25h.5L274,2.39H231.48v.5c5.79,0,6.59,3.5,6.59,10.48v43.9c0,7-.9,10.48-6.78,10.48v.5h43.5ZM191.17,66.25V4.39h4.89c13,0,18.26,11.77,18.26,30.93S209,66.25,196.06,66.25ZM180.8,13.37v43.9c0,7-.8,10.48-6.59,10.48v.5h23.45c16.27,0,28.24-10.48,28.24-32.93s-12-32.93-28.24-32.93H174.21v.5c5.79,0,6.59,3.5,6.59,10.48m-25.54,12A243.3,243.3,0,0,1,172.12,4l-.4-.4a11.31,11.31,0,0,1-7.08,2.7c-5.29,0-6.59-4.89-16.57-4.89-15,0-26.24,11.17-26.24,33.92s11.27,34.33,25.64,34.33c11.58,0,18.36-7.59,23.55-18l-.8-.4c-5,8.18-11.07,12.47-17.86,12.47-10.08,0-19.16-9.48-19.16-30.73,0-16,5.19-29.44,14.37-29.44,4.69,0,9.48,3.49,9.48,11.18A26.74,26.74,0,0,1,154.76,25ZM87,34.32c10.47,0,16.56,5.89,16.56,16s-6.09,16-16.56,16H81.32V34.32Zm-.5-29.93c9.58,0,15,5,15,14.07s-5.38,14.07-15,14.07H81.32V4.39ZM64.16,68.25H88.3c17.07,0,26.84-6.29,26.84-17.26,0-9.08-6.58-15.57-17.86-17.56v-.2c10-2.1,15.37-7.49,15.37-15.17,0-9.88-9-15.67-24.35-15.67H64.36v.5c5.78,0,6.58,3.5,6.58,10.48v43.9c0,7-.9,10.48-6.78,10.48Zm-42.31-.5c-5.89,0-10-2.19-7.58-9l4-11.17H41.11l3.39,9.67C47,64.46,47,67.75,39.61,67.75v.5H65.36v-.5c-5.89,0-7-4.29-9.18-10.48L38.61,8.88A25.73,25.73,0,0,1,36.82,0h-.2c-2.89,5.29-8.78,8.78-14,10.18v.3c3.09,0,4.89.79,6,2.19L12.27,58.77c-2.39,6.79-6.18,9-12,9v.5H21.85Zm7.78-52.48h.2L40.41,45.6H19Z"/></g></g></svg>