<svg xmlns="http://www.w3.org/2000/svg" viewBox="0 0 720 162.74"><title>vampiretime</title><g id="Layer_2" data-name="Layer 2"><g id="Layer_1-2" data-name="Layer 1"><path d="M88.63,19.91c2.4,0,3.9,1.35,3.9,3.45a3.35,3.35,0,0,1-3.6,3.44c-2.84,0-3.89-2.4-6.59-2.4-2.24,0-3.89,1.65-5.24,5.69L48.81,117.53a20,20,0,0,0-1.5,6.44c0,4.79,3.29,6.88,3.29,10.78,0,2.84-1.79,4.79-4.19,4.79s-4.19-1.95-4.19-4.79c0-3.9,3.29-6,3.29-10.78,0-2.25-.74-4-1.49-6.44L15.42,30.09c-1.35-4-3-5.69-5.24-5.69-2.69,0-3.74,2.4-6.59,2.4A3.34,3.34,0,0,1,0,23.36c0-2.1,1.5-3.45,3.89-3.45,4.34,0,7.94,4.49,14.52,4.49s10-4.49,14.38-4.49c2.39,0,3.89,1.35,3.89,3.45a3.34,3.34,0,0,1-3.59,3.44c-2.85,0-4.64-2.4-7.79-2.4-2.84,0-3.74,2.1-2.54,5.69L47.61,106.9l24.7-76.81c1.2-3.59.3-5.69-2.54-5.69-3.15,0-4.94,2.4-7.79,2.4a3.34,3.34,0,0,1-3.59-3.44c0-2.1,1.5-3.45,3.89-3.45,4.34,0,7.79,4.49,13.48,4.49C81.3,24.4,84.29,19.91,88.63,19.91Z"/><path d="M122.32,69.92V107.2c0,2.84.6,4,2.25,4,3.89,0,3.59-7.34,7.78-7.34a3.08,3.08,0,0,1,3.15,3.15c0,6.89-18.12,3.44-18.12,10.33,0,2.54,2.69,3,2.69,6a3.34,3.34,0,0,1-3.44,3.59c-2.1,0-3.44-1.5-3.44-3.89,0-4.94,4.19-6.29,4.34-15.27h-.3c-2.84,10-9.43,15.42-18.86,15.42-13.18,0-22.46-9.58-22.46-23.21,0-15.87,12.57-25.9,28.15-22.46v-.3c-15.88-15.87-28-12.72-28-20.06,0-2.09,1-3.29,2.84-3.29,5.24,0,3.15,9.43,8.09,9.43,6.43,0,3.89-16.77,19.46-16.77C117.53,46.56,122.32,56.29,122.32,69.92ZM83.39,99.86c0,12.28,6.44,20.21,16.47,20.21s16.47-7.93,16.47-20.21-6.44-20.21-16.47-20.21S83.39,87.59,83.39,99.86Zm32.94-31c0-11.23-4.49-18.12-12.13-18.12-5.39,0-9.88,3.3-9.88,8.84,0,10.33,15.12,16.47,21.71,27.1h.3Z"/><path d="M155,53.9c0-2.55-2.7-3-2.7-6a3.34,3.34,0,0,1,3.45-3.59c2.09,0,3.44,1.49,3.44,3.89,0,3.89-3.59,5.09-4.64,13.32h.3c4.19-9.88,10.63-15,17.82-15,7.63,0,14.07,5.54,17.51,15.27,3-9.28,10.63-15.27,19.47-15.27,11.82,0,19.76,10.48,19.76,26.05v40c0,4.49.9,6,3,6,2.85,0,3.6-2.7,6.59-2.7a3.34,3.34,0,0,1,3.59,3.45c0,1.94-1.34,3.44-3.89,3.44-4.49,0-6.74-4.64-12.28-4.64s-7.78,4.64-12.27,4.64c-2.55,0-3.9-1.5-3.9-3.44a3.35,3.35,0,0,1,3.6-3.45c3,0,3.74,2.7,6.59,2.7,2.09,0,3-1.5,3-6V75.46c0-17.52-7.64-24.41-15.72-24.41s-15.72,6.89-15.72,24.41v38.63c0,2.84.9,4.49,2.69,4.49,2.25,0,2.4-2.7,4.94-2.7a3.27,3.27,0,0,1,3.3,3.45c0,2.09-1.5,3.44-3.89,3.44-3.75,0-5.84-4.64-10-4.64s-6.28,4.64-10,4.64c-2.39,0-3.89-1.35-3.89-3.44a3.27,3.27,0,0,1,3.29-3.45c2.55,0,2.7,2.7,4.95,2.7,1.79,0,2.69-1.65,2.69-4.49V75.46c0-17.52-7.64-24.41-15.72-24.41s-15.72,6.89-15.72,24.41v37.13c0,4.49.9,6,3,6,2.85,0,3.6-2.7,6.59-2.7a3.34,3.34,0,0,1,3.59,3.45c0,1.94-1.34,3.44-3.89,3.44-4.49,0-6.74-4.64-12.27-4.64s-7.79,4.64-12.28,4.64c-2.55,0-3.89-1.5-3.89-3.44a3.34,3.34,0,0,1,3.59-3.45c3,0,3.74,2.7,6.59,2.7,2.09,0,3-1.5,3-6V64.08c0-2.85-.6-4-2.25-4-3.89,0-3.59,7.33-7.78,7.33a3.06,3.06,0,0,1-3.14-3.14C135.35,57.34,155,60.79,155,53.9Z"/><path d="M258.71,143c0,2.85.6,4,2.25,4,3.89,0,3.59-7.33,7.78-7.33a3.07,3.07,0,0,1,3.15,3.14c0,6.89-19.61,3.45-19.61,10.33,0,2.55,2.69,3,2.69,6a3.34,3.34,0,0,1-3.44,3.59c-2.1,0-3.45-1.49-3.45-3.89,0-4.49,4.65-5.84,4.65-15.12V64.08c0-2.85-.6-4-2.25-4-3.89,0-3.59,7.33-7.79,7.33a3.07,3.07,0,0,1-3.14-3.14c0-6.89,19.61-3.44,19.61-10.33,0-2.55-2.69-3-2.69-6a3.34,3.34,0,0,1,3.44-3.59c2.1,0,3.45,1.49,3.45,3.89,0,4.49-4.65,5.84-4.65,15h.3c4.49-12.87,12.88-16.62,19.92-16.62,11.08,0,24.55,9.28,24.55,38.33S290,123.22,278.93,123.22c-7,0-15.43-3.74-19.92-16.62h-.3ZM278,119.33c9.73,0,18.71-8.24,18.71-34.44s-9-34.43-18.71-34.43c-10.63,0-19.32,10.18-19.32,34.43S267.4,119.33,278,119.33Z"/><path d="M327.13,62.43v50.16c0,4.49.9,6,3,6,2.84,0,3.59-2.7,6.59-2.7a3.34,3.34,0,0,1,3.59,3.45c0,1.94-1.35,3.44-3.89,3.44-4.5,0-6.74-4.64-12.28-4.64s-7.78,4.64-12.28,4.64c-2.54,0-3.89-1.5-3.89-3.44a3.34,3.34,0,0,1,3.59-3.45c3,0,3.75,2.7,6.59,2.7,2.1,0,3-1.5,3-6V62.43c0-4.49-.9-6-3-6-2.84,0-3.59,2.7-6.59,2.7A3.34,3.34,0,0,1,308,55.7c0-2,1.35-3.45,3.89-3.45,4.5,0,6.74,4.64,12.28,4.64s7.78-4.64,12.28-4.64c2.54,0,3.89,1.5,3.89,3.45a3.34,3.34,0,0,1-3.59,3.44c-3,0-3.75-2.7-6.59-2.7C328,56.44,327.13,57.94,327.13,62.43Zm.6-18.26c0,1.94-1.34,3.29-3.59,3.29s-3.59-1.35-3.59-3.29c0-2.7,3.29-3.75,3.29-7.79-4,0-5.09,3.3-7.78,3.3-1.95,0-3.3-1.35-3.3-3.6s1.35-3.59,3.3-3.59c2.69,0,3.74,3.29,7.78,3.29-.15-4.79-1.35-6.73-3.59-8.38v-.3c3-3.74,3.44-6.89,3.44-27.1h.9c0,20.21.45,23.36,3.44,27.1v.3c-2.24,1.65-3.44,3.59-3.59,8.38,4,0,5.09-3.29,7.79-3.29,1.94,0,3.29,1.35,3.29,3.59s-1.35,3.6-3.29,3.6c-2.7,0-3.75-3.3-7.79-3.3C324.44,40.42,327.73,41.47,327.73,44.17Z"/><path d="M365.46,53.9c0-2.55-2.69-3-2.69-6a3.33,3.33,0,0,1,3.44-3.59c2.1,0,3.44,1.49,3.44,3.89,0,3.89-3.44,4.94-4.19,13.32h.3c3.45-10.78,9.73-15,15.42-15,7,0,12.43,6.29,12.43,14.23s-5.54,14.07-12,14.07a9.29,9.29,0,0,1-9.28-9.58c0-4.34,2.69-7.79,5.84-7.79a3.24,3.24,0,0,1,3.44,3.15c0,3.89-6.74,3.14-6.74,7.63,0,2.4,1.95,4,4.65,4,4.64,0,8.68-4.94,8.68-11.08,0-6-3.89-11.07-9.43-11.07-6.59,0-12.73,7.33-12.73,19.91v43c0,4.49.9,6,3,6,2.84,0,3.59-2.7,6.58-2.7a3.35,3.35,0,0,1,3.6,3.44c0,2-1.35,3.45-3.9,3.45-4.49,0-6.73-4.64-12.27-4.64s-7.79,4.64-12.28,4.64c-2.55,0-3.89-1.5-3.89-3.45a3.34,3.34,0,0,1,3.59-3.44c3,0,3.74,2.7,6.59,2.7,2.09,0,3-1.5,3-6v-49c0-2.85-.6-4-2.24-4-3.9,0-3.6,7.33-7.79,7.33a3.06,3.06,0,0,1-3.14-3.14C346.9,57.34,365.46,60.79,365.46,53.9Z"/><path d="M425.65,123.22c-16.77,0-28.45-15.87-28.45-39.68s11.53-37,26.5-37c10.63,0,16.47,6.59,16.47,15.27,0,7-4,12.13-12.27,16.62v.3c18-3.44,16.46-12,20.51-12,1.34,0,2.24.9,2.24,2.7,0,9.58-25,7.63-46.56,20.21,1.8,17.52,10.93,29.05,22.91,29.05,10,0,17.66-7.94,17.66-18.27,0-8.68-5.39-14.67-13.47-14.67-7.64,0-14.07,5.39-14.07,11.83,0,4.19,2.69,7.63,6,7.63,4.64,0,4.2-6.88,7.94-6.88,1.65,0,2.84,1.34,2.84,3.29,0,3.44-3.74,6.29-8.23,6.29a9.88,9.88,0,0,1-10-10.18c0-7.49,7.19-13.48,16-13.48,9.43,0,15.72,6.74,15.72,17.07C447.36,114.09,438.38,123.22,425.65,123.22ZM403.94,87.74c16.47-8.84,29.35-11.23,29.35-25,0-7.93-4.35-13.32-10.79-13.32-10.77,0-18.71,15.12-18.71,34.13A39.3,39.3,0,0,0,403.94,87.74Z"/><path d="M502.15,112.59c0,4.49.9,6,3,6,2.84,0,3.59-2.7,6.59-2.7a3.34,3.34,0,0,1,3.59,3.45c0,1.94-1.35,3.44-3.89,3.44-4.49,0-6.74-4.64-12.28-4.64s-7.79,4.64-12.28,4.64c-2.54,0-3.89-1.5-3.89-3.44a3.34,3.34,0,0,1,3.59-3.45c3,0,3.75,2.7,6.59,2.7,2.1,0,3-1.5,3-6V35c0-6.58-5.24-6.88-16.32-6.88-12.28,0-17.22,2.39-17.22,6.58s2.69,4.5,2.69,7.49a3.33,3.33,0,0,1-3.44,3.59c-2.25,0-3.44-1.64-3.44-4.34,0-5.39,4.49-7.48,4.49-12.87,0-6.14-5.54-5.24-5.54-9.14A1.61,1.61,0,0,1,459,17.67c1.79,0,1.19,2.54,2.69,4.34,2.1,2.54,4.79,2.69,37.43,2.69s35.33-.15,37.43-2.69c1.5-1.8.9-4.34,2.69-4.34a1.61,1.61,0,0,1,1.65,1.79c0,3.9-5.54,3-5.54,9.14,0,5.39,4.49,7.48,4.49,12.87,0,2.7-1.19,4.34-3.44,4.34A3.34,3.34,0,0,1,533,42.22c0-3,2.69-3.44,2.69-7.49s-4.94-6.58-17.22-6.58c-11.08,0-16.32.3-16.32,6.88Z"/><path d="M540.78,62.43v50.16c0,4.49.9,6,3,6,2.84,0,3.59-2.7,6.59-2.7a3.34,3.34,0,0,1,3.59,3.45c0,1.94-1.35,3.44-3.89,3.44-4.49,0-6.74-4.64-12.28-4.64s-7.79,4.64-12.28,4.64c-2.54,0-3.89-1.5-3.89-3.44a3.34,3.34,0,0,1,3.59-3.45c3,0,3.75,2.7,6.59,2.7,2.1,0,3-1.5,3-6V62.43c0-4.49-.89-6-3-6-2.84,0-3.59,2.7-6.59,2.7a3.34,3.34,0,0,1-3.59-3.44c0-2,1.35-3.45,3.89-3.45,4.49,0,6.74,4.64,12.28,4.64s7.79-4.64,12.28-4.64c2.54,0,3.89,1.5,3.89,3.45a3.34,3.34,0,0,1-3.59,3.44c-3,0-3.75-2.7-6.59-2.7C541.68,56.44,540.78,57.94,540.78,62.43Z"/><path d="M579.41,53.9c0-2.55-2.69-3-2.69-6a3.33,3.33,0,0,1,3.44-3.59c2.1,0,3.44,1.49,3.44,3.89,0,3.89-3.59,5.09-4.64,13.32h.3c4.19-9.88,10.63-15,17.82-15,7.63,0,14.07,5.54,17.52,15.27,3-9.28,10.63-15.27,19.46-15.27,11.83,0,19.76,10.48,19.76,26.05v40c0,4.49.9,6,3,6,2.84,0,3.59-2.7,6.58-2.7a3.35,3.35,0,0,1,3.6,3.45c0,1.94-1.35,3.44-3.89,3.44-4.5,0-6.74-4.64-12.28-4.64s-7.79,4.64-12.28,4.64c-2.54,0-3.89-1.5-3.89-3.44a3.34,3.34,0,0,1,3.59-3.45c3,0,3.74,2.7,6.59,2.7,2.1,0,3-1.5,3-6V75.46c0-17.52-7.63-24.41-15.72-24.41s-15.72,6.89-15.72,24.41v38.63c0,2.84.9,4.49,2.7,4.49,2.24,0,2.39-2.7,4.94-2.7a3.27,3.27,0,0,1,3.29,3.45c0,2.09-1.5,3.44-3.89,3.44-3.74,0-5.84-4.64-10-4.64s-6.29,4.64-10,4.64c-2.4,0-3.9-1.35-3.9-3.44a3.27,3.27,0,0,1,3.3-3.45c2.54,0,2.69,2.7,4.94,2.7,1.8,0,2.69-1.65,2.69-4.49V75.46c0-17.52-7.63-24.41-15.72-24.41S579,57.94,579,75.46v37.13c0,4.49.9,6,3,6,2.84,0,3.59-2.7,6.58-2.7a3.35,3.35,0,0,1,3.6,3.45c0,1.94-1.35,3.44-3.89,3.44-4.5,0-6.74-4.64-12.28-4.64s-7.79,4.64-12.28,4.64c-2.54,0-3.89-1.5-3.89-3.44a3.34,3.34,0,0,1,3.59-3.45c3,0,3.74,2.7,6.59,2.7,2.1,0,3-1.5,3-6V64.08c0-2.85-.6-4-2.24-4-3.89,0-3.6,7.33-7.79,7.33a3.07,3.07,0,0,1-3.14-3.14C559.8,57.34,579.41,60.79,579.41,53.9Z"/><path d="M695,123.22c-16.77,0-28.45-15.87-28.45-39.68s11.53-37,26.5-37c10.63,0,16.47,6.59,16.47,15.27,0,7-4,12.13-12.28,16.62v.3c18-3.44,16.47-12,20.51-12,1.35,0,2.25.9,2.25,2.7,0,9.58-25,7.63-46.56,20.21,1.79,17.52,10.93,29.05,22.9,29.05,10,0,17.67-7.94,17.67-18.27,0-8.68-5.39-14.67-13.47-14.67-7.64,0-14.08,5.39-14.08,11.83,0,4.19,2.7,7.63,6,7.63,4.64,0,4.19-6.88,7.94-6.88,1.64,0,2.84,1.34,2.84,3.29,0,3.44-3.74,6.29-8.23,6.29a9.88,9.88,0,0,1-10-10.18c0-7.49,7.18-13.48,16-13.48,9.43,0,15.72,6.74,15.72,17.07C716.71,114.09,707.72,123.22,695,123.22ZM673.29,87.74c16.47-8.84,29.34-11.23,29.34-25,0-7.93-4.34-13.32-10.78-13.32-10.78,0-18.71,15.12-18.71,34.13A39.3,39.3,0,0,0,673.29,87.74Z"/></g></g></svg>