<svg xmlns="http://www.w3.org/2000/svg" viewBox="0 0 720 260.51"><title>19-vogue</title><g id="Layer_2" data-name="Layer 2"><g id="Layer_1-2" data-name="Layer 1"><path d="M263.38,42.85c-12,0-14.86,6.57-16.78,11.78-4.19,12.06-32.14,100.82-32.51,108-.39,7.39,4.62,11.23,13.66,11.23,12.88,0,16.65-9.32,21.94-26.58,3.28-10.41,18-61.09,21.34-72.6,4.63-15.07,5-16.71,5.14-19.45.38-7.4-3.74-12.33-12.79-12.33"/><path d="M650.51,44.77,638.07,88.61h47.68l-9.12,32.87h-48l-13.82,49.31h54.8l-9.45,34H558L612.81,11.34h97.27l-9.43,33.43Zm-159.2,163c-31,0-57.79-11-55.32-42.46.75-9,3-19.74,9-40.83L477.78,11.07h46.58l-39,138.36a42.1,42.1,0,0,0-2.21,10.68c-.42,7.95,5.15,11.51,13.65,11.51,13.42,0,17.31-11.51,20.62-22.19l39-138.36H603L563.69,149.43c-8.4,29.59-19.49,58.35-72.38,58.35m-122.83-3,6.45-18.59h-1.08c-8.82,11.23-18.41,21.87-41.43,21.87-20.28,0-33.39-11.23-32.18-34.24.67-12.88,6-31.23,9.38-43,5.66-19.18,12.34-42.19,19-64.66C338,33.81,345.94,7.51,398.82,7.51c17,0,26.72,2.74,32.63,4.93,19.87,7.67,24.61,21.92,24.09,31.78a68.92,68.92,0,0,1-3,15.07l-5.72,20.28H401.9l5.69-19.74a33.26,33.26,0,0,0,.82-5.2c.53-10.14-7.61-11.5-11.73-11.5-12.88,0-17.76,9.58-20.79,20.27l-25.2,88.77a52.67,52.67,0,0,0-1.57,9,12.9,12.9,0,0,0,1.52,7.67c2.52,4.11,8.21,5.48,12,5.48,13.43,0,17.06-11.78,19-17.81,1.93-5.48,3.63-11.78,6.58-21.1h-18.9l8.76-31.23h63.3L413.15,204.77Zm-145,4.11c-25.48,0-57.72-7.13-55.81-43.56.39-7.4,2.87-18.09,4.55-24.11l21.73-74.8C203,34.91,212.05,8.06,265.48,8.06c10.14,0,30.89,1.37,43,10.14,12.66,9.31,13.9,22.19,13.4,31.78-.66,12.6-5.67,29.86-9.35,42.46l-18.76,65.2c-11,37.81-27.62,51.24-70.36,51.24m-101.72-4.11H52L70.89,11.34h44.94L97.51,165.93h2.21L158,11.34h50.42ZM720,3.73H550.73L524,40,534.29,3.73H472.14l-15.06,19.1C452.9,16.4,445.88,10,434.15,5.43,427.81,3.08,417.35,0,398.82,0c-39.39,0-52.11,12.17-71.37,32.05-2.34-7.82-6.32-13.9-14.48-19.9C298.46,1.67,274.93.55,265.48.55,242.57.55,227,5.42,215.92,13.09l4.37-9.36H153L119.73,53.57h-1.66l6.22-49.84H64.08L19.72,53.07,0,256.4H91.38l24.42-32.16c2.54,30.09,32,36.27,55.67,36.27,33.8,0,61.25-8.71,76.73-31,.46,20.29,13.18,30.21,32.24,30.21,23,0,32.61-10.69,41.43-21.92-.13.49-5.37,18.63-5.37,18.63h57.61L388,238.06c8.38,15.46,28.74,21.35,51.36,21.35,34,0,58.4-11.91,73.76-28.26L506,256.4h102.2l57.69-44.13,13.64-49h-42L682.34,129,695.63,81.1h-27l37.66-28.82Z"/></g></g></svg>