<svg xmlns="http://www.w3.org/2000/svg" viewBox="0 0 720 161.99"><title>15-wall</title><g id="Layer_2" data-name="Layer 2"><g id="Layer_1-2" data-name="Layer 1"><path d="M85.26,66c-6.34,23.61-13.77,47.66-29.73,93.79H52.9C29.73,77.39,13.55,30.61,0,7.65l.22-.44H43.29l.21.44c-10.27,19.24-7.65,38,19.68,118.05,9-24,17.05-51.37,27.54-93.13h2.63c10.05,38.48,19,68,27.76,91.82,28.42-81.54,29.08-97.94,17-116.74l.22-.44h31.26l.22.44c-11.8,16.4-33.88,78.92-53.78,152.16h-3.49C97.28,110.4,91.38,90.73,85.26,66"/><path d="M170.08,96.63C187.35,90.51,204,82.86,204,60.12c-14.43,3.28-29.08,20.33-33.89,36.51m-12,32.35c0,12,7.43,19.24,17.92,19.24,18.37,0,29.08-22.08,26.67-69.08l-.43-.22c-11.37,24.92-44.16,24.48-44.16,50.06M169,162c-16,0-29.08-11.37-29.08-29.73,0-18.8,13.56-29.73,28.42-35l-16.18-17.7v-.44c10.72-12.9,24.27-25.8,40.67-33.45h.43c6.12,9.4,16.62,19.46,25.58,25.8v50.28a187.32,187.32,0,0,0,4.37,37.82l-.21.22H201.34l-.22-.22,2-33.67h-.44C196.53,149.75,185.6,162,169,162"/><path d="M233.91,159.81l-.22-.22c4.38-16.62,5.25-29.51,5.25-79.58V39.35c0-12.68-2.4-20.77-9-29.95V9c9.4-2.18,19.89-5,27.76-9l.22.44C255.77,19,255.34,32.79,255.34,80c0,50.07.87,63,5.24,79.58l-.21.22Z"/><path d="M271.08,159.81l-.22-.22c4.37-16.62,5.25-29.51,5.25-79.58V39.35c0-12.68-2.41-20.77-9-29.95V9c9.4-2.18,19.9-5,27.77-9l.22.44C292.94,19,292.5,32.79,292.5,80c0,50.07.88,63,5.25,79.58l-.22.22Z"/><path d="M464,68.21c-7.21,27.11-17.05,55.53-30.6,91.6h-2.63C410.22,82,393,31.7,378.74,7.65l.22-.44h54l.22.44c-7.43,21.21-3.5,48.1,15.3,100.78,11.15-32.13,19.24-64.05,27.11-97.94h3.5c9.62,38.92,19,70.83,28.86,97.07C527,56.4,530.24,24.7,518.44,7.65l.22-.44h31.26l.22.44c-13.56,18.8-36.73,89.2-53.78,152.16h-5C482.59,131.82,473,103,464,68.21"/><path d="M559.54,102.09c17.27-6.12,33.88-13.77,33.88-36.51-14.43,3.28-29.07,20.34-33.88,36.51m-4.16,21.65c0,9.83,6.78,17,16.4,17,15.3,0,22.3-17.93,20.33-56.19l-.44-.21c-10.93,18.36-36.29,19.89-36.29,39.35M552.1,162c-18.36,0-31-11.37-31-27.76,0-20.11,18.58-25.14,36.73-31.48L534.62,77.17v-.44c12.46-12,26.67-23,43.72-31h.44c9,14.21,23.39,28,40.66,38.7v37.38a186.61,186.61,0,0,0,4.37,37.82l-.22.22H590.8l-.22-.22,2-33.67h-.44C586,150,571.34,162,552.1,162"/><path d="M633.21,159.81l-.22-.22c4.16-15.74,5.25-26.67,5.25-79.58V41.32c0-12.68-2.41-20.77-9-29.95v-.44A257.85,257.85,0,0,0,666.88,0l.22.44C664.69,21,664.47,38,664.47,80c0,52.91,1.1,63.84,5.25,79.58l-.22.22Z"/><path d="M683.49,159.81l-.22-.22c4.16-15.74,5.25-26.67,5.25-79.58V41.32c0-12.68-2.4-20.77-9-29.95v-.44A257.85,257.85,0,0,0,717.16,0l.22.44C715,21,714.75,38,714.75,80c0,52.91,1.1,63.84,5.25,79.58l-.22.22Z"/></g></g></svg>