<svg xmlns="http://www.w3.org/2000/svg" viewBox="0 0 423.33 443.1"><defs><style>.cls-1{fill:red;}</style></defs><title>Asset 1</title><g id="Layer_2" data-name="Layer 2"><g id="Layer_1-2" data-name="Layer 1"><path class="cls-1" d="M31.61,443.1,0,372.06l7.7-7.7L80,394.69l-8.4,8.4-21.23-9.43L29.72,414.33l9.77,20.89ZM1.19,372.28l30.74,69.08L38.29,435l-9.77-20.89,21.66-21.66,21.23,9.43L78.26,395,7.93,365.55ZM25.44,407.7l-9.59-21.06A91.22,91.22,0,0,0,9,374.32l.66-.72c3.49,1.94,8.22,4.26,14,6.89l20,9ZM10.86,375.42a92.8,92.8,0,0,1,5.9,10.8l9,19.75,16.14-16.14L23.25,381.4C18.31,379.17,14.15,377.17,10.86,375.42Z"/><path class="cls-1" d="M85.44,380.82a20.28,20.28,0,0,1-7.78-1.57c-4.43-1.82-9.4-5.48-14.79-10.86l-29.6-29.6,7.41-7.41,29.56,29.56c4.33,4.33,8,7.16,10.79,8.39a12.72,12.72,0,0,0,8.7.58,20.26,20.26,0,0,0,8.77-5.48c4.8-4.8,7.17-9.35,7-13.51s-3.36-9.45-9.59-15.68L66.39,305.68l7.41-7.41,29.6,29.6c5.11,5.11,8.64,9.81,10.5,14a21.49,21.49,0,0,1,1.1,13.85c-1.14,4.95-4.22,10-9.15,14.88s-9.59,7.91-14.3,9.31A21.35,21.35,0,0,1,85.44,380.82Zm-50.75-42,28.89,28.89C68.87,373,73.74,376.55,78,378.32a19.39,19.39,0,0,0,13.22.62c4.55-1.35,9.22-4.4,13.88-9.06s7.78-9.63,8.88-14.4a20.51,20.51,0,0,0-1-13.22c-1.81-4.07-5.27-8.68-10.29-13.69L73.79,299.68l-6,6,28.86,28.86c6.42,6.42,9.74,11.92,9.88,16.36s-2.32,9.24-7.33,14.25A21.23,21.23,0,0,1,90,370.88a13.68,13.68,0,0,1-9.36-.63c-2.94-1.28-6.68-4.18-11.1-8.6L40.68,332.8Z"/><path class="cls-1" d="M148.44,326.27,103.8,281.63,87.12,298.3l-6.68-6.68,40.83-40.83,6.68,6.68L111.2,274.22l44.64,44.64ZM103.8,280.21l44.64,44.64,6-6-44.64-44.64,16.75-16.75-5.27-5.27L81.85,291.62l5.27,5.27Z"/><path class="cls-1" d="M179,295.75l-51.32-51.32L135,237l20.79,20.79,25.6-25.6-20.78-20.79,7.4-7.4,51.32,51.32-7.41,7.4-23.86-23.86-25.6,25.6,23.86,23.86Zm-49.91-51.32L179,294.33l6-6-23.86-23.86,27-27L212,261.33l6-6-49.91-49.91-6,6,20.78,20.79-27,27L135,238.43Z"/><path class="cls-1" d="M230,244.75l-51.32-51.32,37.31-37.31,6.68,6.68-29.9,29.9,14.79,14.8,28-28,6.65,6.65-28,28,16.52,16.52,31.07-31.07,6.68,6.68ZM180,193.43,230,243.34,267,206.27,261.76,201l-31.07,31.07-17.94-17.94,28-28-5.23-5.23-28,28L191.31,192.7l29.9-29.9-5.27-5.27Z"/><path class="cls-1" d="M276.91,197.8l-51.32-51.32,7.41-7.41,65,12.89L259,113l7.13-7.13,51.32,51.32-7.41,7.41-65-12.92,39,39ZM227,146.47l49.91,49.91,5.71-5.72L242,150.08l67.71,13.46,6.33-6.33L266.18,107.3,260.46,113,301,153.57l-67.68-13.42Z"/><path class="cls-1" d="M340.93,133.78,296.28,89.14l-16.68,16.68-6.68-6.68,40.83-40.83L320.43,65,303.69,81.74l44.64,44.64ZM296.28,87.73l44.64,44.64,6-6L302.27,81.74,319,65l-5.27-5.27L274.34,99.14l5.27,5.27Z"/><path class="cls-1" d="M372.38,102.33,321.06,51l7.41-7.41,51.32,51.32ZM322.47,51l49.91,49.91,6-6L328.46,45Z"/><path class="cls-1" d="M391.34,73.19a31.92,31.92,0,0,1-12-2.47,49.41,49.41,0,0,1-16.41-11A42.87,42.87,0,0,1,352,42.7a29.89,29.89,0,0,1-.35-17.83A36.17,36.17,0,0,1,361,9.32c5.12-5.12,10.81-8.16,16.92-9A29,29,0,0,1,396.34,4l.46.25-5.56,9-.41-.21c-4.74-2.45-9.07-3.42-12.86-2.88a18.86,18.86,0,0,0-10.66,5.76c-3.8,3.8-6.09,7.93-6.82,12.28a20.48,20.48,0,0,0,2,12.71,42.43,42.43,0,0,0,8,11.18,43.39,43.39,0,0,0,13,9.29,19.43,19.43,0,0,0,12.73,1.32A22.81,22.81,0,0,0,407,56.59a20,20,0,0,0,6.14-12.47c.42-4.63-1-9.54-4.27-14.6l-.28-.44,9.26-5.53.26.43c4.14,7,5.84,13.86,5.07,20.48s-3.86,12.68-9.19,18c-5.5,5.5-11.18,8.9-16.89,10.11A27.52,27.52,0,0,1,391.34,73.19ZM381.75,1a25.58,25.58,0,0,0-3.67.27c-5.89.85-11.4,3.8-16.36,8.77a35.19,35.19,0,0,0-9.09,15.12A28.92,28.92,0,0,0,353,42.39,41.9,41.9,0,0,0,363.62,59,48.42,48.42,0,0,0,379.7,69.79a29,29,0,0,0,17.16,1.82c5.52-1.17,11-4.48,16.39-9.84,5.17-5.17,8.16-11,8.9-17.42s-.85-12.79-4.69-19.42L410,29.42c3.19,5.1,4.58,10.07,4.15,14.8a20.94,20.94,0,0,1-6.43,13.08,23.79,23.79,0,0,1-11.21,6.35,20.38,20.38,0,0,1-13.37-1.37,44.37,44.37,0,0,1-13.31-9.5,43.43,43.43,0,0,1-8.23-11.44,21.46,21.46,0,0,1-2-13.32c.76-4.56,3.15-8.87,7.1-12.82a19.83,19.83,0,0,1,11.23-6c3.89-.55,8.28.39,13,2.78l4.52-7.31A28.93,28.93,0,0,0,381.75,1Z"/></g></g></svg>