<svg id="Layer_1" data-name="Layer 1" xmlns="http://www.w3.org/2000/svg" viewBox="0 0 500 145.33"><defs><style>.cls-1{fill:red;}</style></defs><title>AWD</title><path class="cls-1" d="M-265-39.4c-10.56-10.33-22-18.64-30.77-22a26.58,26.58,0,0,0-10.33-.9c-3.59.45-6.29,2.25-9,6.06l-25.16,34.82c-1.8,2.7,1.12,4.72,4.27,4.72h60.65c10.78,0,14.38-1.35,14.82-5.84,0.9-5.62.9-8.76,0-10.56A26.42,26.42,0,0,0-265-39.4Z" transform="translate(711.5 96)"/><path class="cls-1" d="M-354.36,19.68h-7.86V34.05h7.86c3.82,0,6.51-2.92,6.51-7.19S-350.54,19.68-354.36,19.68Z" transform="translate(711.5 96)"/><path class="cls-1" d="M-318,19.68h-8.31v5.39H-318c3.37,0,5.17-.9,5.17-2.7S-314.38,19.68-318,19.68Z" transform="translate(711.5 96)"/><polygon class="cls-1" points="23.14 125.11 30.77 125.11 26.95 117.03 23.14 125.11"/><path class="cls-1" d="M-214.42-36.93c-1.8-3.82-3.82-5.84-12.35-13.7a398.27,398.27,0,0,0-30.77-26.06A151.41,151.41,0,0,0-278.21-89a71.49,71.49,0,0,0-27.85-6.06h-72.33c-7,0-8.54.9-11,4.49L-408.71-63c-1.12,1.57-2.92,1.35-3.37-.45l-4.49-21.79c-0.22-1.57-2-2.7-4.27-2.7h-27.63c-4.27,0-7,.9-9.43,3.37l-22.91,22.69c-1.12,1.12-1.8.9-1.8-.9V-86.57c0-4.94-4.94-9.43-10.56-9.43h-18.64c-41.33,0-60.2,2.7-77.72,11-26.28,13-46.5,24-61.1,33.69-16.17,10.11-38,27.63-51.44,41.11-7.19,7.41-9.43,12.13-9.43,20.44v31c0,4.72,3.14,8.09,7.41,8.09h483.83c6.06,0,8.76-2.7,8.76-8.76V-17.61C-211.5-28.61-212.17-32.88-214.42-36.93ZM-676.23,38.55l-2-4.49h-12.35l-2,4.49h-9.66l13.25-24h9.21l13,24h-9.43Zm40,0h-27v-24h8.09V33.16h18.87v5.39Zm30.77,0h-27.18v-24h8.31V33.16h18.87v5.39Zm25.38-66.71s-8.31,11-10.56,14.15c-1.8,2.47-3.37,3.14-7.86,3.14H-654C-658.27-7.05-664.33-1-668.37,3.28h-32.79c23.14-23.14,33.92-32.12,58.85-48.07,14.82-9.66,13.93-9.21,55.71-31.67,10.33-4.49,13.7-5.84,17.52-7.19a86.65,86.65,0,0,1,15.27-2.47c5.62-.22,12.35-0.45,18.19-0.45,5.17,0.22,8.31,3.37,8.31,8.31V3.51H-564.6c-3.82,0-5.62-1.57-5.62-5.17V-49.5c0-8.09-4.72-10.33-13-6.51-7.19,3.82-27.63,15.95-41.78,24.71h43.58C-579.42-31.31-578.75-29.51-580.1-28.17Zm38.41,66.71H-550l-4.72-16.62-4.72,16.62H-568l-10.11-24h9l5.39,15.72,4.49-15.72h8.76L-546,30.24l5.62-15.72h9Zm42,0h-8.09V28.66h-13v9.88h-8.09v-24h8.09v9h13v-9h8.09v24Zm33.47-18.64h-18.87v3.82h17.52v5.17h-17.52v4.27h18.87v5.39h-27v-24h27V19.9Zm33,0h-18.87v3.82h17.52v5.17h-17.52v4.27h18.87v5.39h-27v-24h27V19.9Zm32.57,18.64h-27v-24h8.09V33.16h18.87v5.39Zm-1.8-35.27h-23.81c-3.82,0-6.06-1.57-7-4.94-0.45-1.57-6.74-35.71-7.19-39.08-0.67-2.92-2.47-3.37-5.17-1.12-0.22.22-4.27,4-44.47,43.35a5.66,5.66,0,0,1-4.72,1.8h-14.38a5.81,5.81,0,0,1-6.06-5.62v-80c0-2.92,1.12-4,3.59-4h15.5a4.66,4.66,0,0,1,4.94,4.72v38.19c0,2,1.12,2.7,2.47,1.35L-453.19-76c2.92-2.7,5.62-3.59,11-3.59h17.52L-417-43.44q1,4.72,3.37,1.35l30.1-42c1.12-1.57,2.25-2,5.39-2h40.43c1.8,0,2.25.9,1.12,2.47L-394.79-1.44C-397,1.93-399.06,3.28-402.43,3.28Zm48.74,35.27h-16.85v-24h16.85c8.54,0,14.38,4.72,14.38,11.9C-339.31,33.83-344.92,38.55-353.68,38.55Zm49.19,0h-7.19q-2,0-2-3.37v-1.8c0-2.25-1.35-3.59-3.82-3.59h-8.76v8.76h-8.31v-24h18.87c7,0,11.23,2.7,11.23,7.19,0,3.14-1.57,4.94-5.39,5.62v0.22c6.74,0.45,2.92,8.54,5.39,9.43C-303.59,37.2-303.59,38.55-304.49,38.55Zm13.25,0h-8.09v-24h8.09v24Zm22.91,0h-8.31l-11.9-24h9l7,17.07,7-17.07h9.21ZM-226.1,19.9H-245v3.82h17.52v5.17H-245v4.27h18.87v5.39h-27.18v-24h27.18V19.9Zm5.62-29.42c0,8.76-4,13-13.93,12.8H-363.34c-7.19,0-11.9-2.47-11.9-6.29-0.22-1.57.67-3.37,3.37-8.09,7-9.43,44.47-61.77,49-67.83,3.82-5.39,6.74-7.19,11.68-7.19h9.66c7.86,0,18.42,3.37,26.73,8.54,13.48,8.31,29,20.44,45.6,36.16,6.06,5.84,8.76,11.9,8.76,20.22V-9.52Z" transform="translate(711.5 96)"/></svg>