<svg id="Layer_1" data-name="Layer 1" xmlns="http://www.w3.org/2000/svg" viewBox="0 0 265 162.67"><defs><style>.cls-1{fill:red;}</style></defs><title>berghain</title><path class="cls-1" d="M2040,1898.77c3.33-.72,7-2.75,7-6,0-4.91-5.64-5-8.47-5h-11.84c0.59,0.39.82,1.54,0.86,3.31,0,2.06-.2,5-0.51,8.83l-0.12,1.57c-0.59,6.74-.94,10.57-2.27,11.55h10.58c8.07,0,13-3.47,13-7.85C2048.21,1901.06,2044.68,1899.16,2040,1898.77Zm-7.05-2.62c0.16-1.86.35-3.57,0.67-5.33,0.74-.07,1.53-0.07,2.12-0.07,3.57,0,5.25,1.18,5.25,2.88,0,2.94-3.53,4.06-7.37,4.06h-0.78C2032.81,1897.75,2032.93,1896.15,2032.93,1896.15Zm2,13.71c-2,0-2.9-.49-2.9-0.72,0-1.64.12-3,.27-4.65l0.31-3.73h2.16c4,0,7.17,1.18,7.17,4.42C2041.9,1908.1,2039.12,1909.86,2034.88,1909.86Z" transform="translate(-2007 -1771.33)"/><path class="cls-1" d="M2023.57,1892a2.48,2.48,0,0,0-2.11-1.36,1.83,1.83,0,0,0-.65.12,1.64,1.64,0,0,0-1,1.5,1.12,1.12,0,0,0,.57,1.16,1.1,1.1,0,0,1-.88.64,2.31,2.31,0,0,1-.37,0,1.46,1.46,0,0,1-1.35-1,7.53,7.53,0,0,1-.4-2.69,4.09,4.09,0,0,0-.5-2.08,1.9,1.9,0,0,0-1.48-.66h-0.12a0.72,0.72,0,0,0-.77.36h-0.2a1.92,1.92,0,0,0-1.31.45,1.31,1.31,0,0,0-.39,1.46,0.68,0.68,0,0,1,.63-0.28l0.22,0c0.67,0.1,1.16.57,1.1,1.79s-0.4,2.59-1.82,2.61a3.51,3.51,0,0,1-.38,0,1.11,1.11,0,0,1-.87-0.64,1.13,1.13,0,0,0,.58-1.16,1.64,1.64,0,0,0-1.06-1.49,1.82,1.82,0,0,0-.66-0.12,2.47,2.47,0,0,0-2.11,1.36c-1.26,2.19-1.36,5.38-1.05,8.35a18.25,18.25,0,0,0,1.78,5.81,0.13,0.13,0,0,0,.09.08l0,0a10.37,10.37,0,0,0,1.46-2.59,1.92,1.92,0,0,1,0,1.53,11.59,11.59,0,0,1-.61,1.81,0.66,0.66,0,0,0-.06.76,0.13,0.13,0,0,0,.08,0c0.28,0,.93-0.64,1.65-1.92a16.48,16.48,0,0,0,1.22-2.72,0.51,0.51,0,0,1,.14.51,11.09,11.09,0,0,1-.85,3,18.2,18.2,0,0,1-1.19,2.25,0.15,0.15,0,0,0,0,.21,14.84,14.84,0,0,0,2.48,2.3,10,10,0,0,0,2.48,1.42,9.83,9.83,0,0,0,2.47-1.42,14.31,14.31,0,0,0,2.48-2.32,0.15,0.15,0,0,0,0-.21,18.35,18.35,0,0,1-1.18-2.25,10.89,10.89,0,0,1-.86-3,0.55,0.55,0,0,1,.14-0.52,16.4,16.4,0,0,0,1.23,2.72c0.73,1.28,1.37,1.92,1.65,1.92a0.14,0.14,0,0,0,.09,0,0.67,0.67,0,0,0-.07-0.77,13.19,13.19,0,0,1-.61-1.81,1.91,1.91,0,0,1,0-1.53,10.11,10.11,0,0,0,1.45,2.59,0.07,0.07,0,0,0,.05,0,0.12,0.12,0,0,0,.08-0.08,18.09,18.09,0,0,0,1.78-5.81C2024.92,1897.41,2024.82,1894.22,2023.57,1892Z" transform="translate(-2007 -1771.33)"/><path class="cls-1" d="M2072.74,1897.52H2059a0.25,0.25,0,0,1-.26-0.25c0-.25,0-3.15,0-3.43a0.23,0.23,0,0,1,.24-0.26h7.7a54.83,54.83,0,0,1,5.93.27c0.16,0,.26,0,0.26-0.08v-5.93a0.12,0.12,0,0,0-.12-0.13H2050.1c-0.15,0-.08.11-0.08,0.11,0.22,0.25.53,1.63,0.53,3.95v16.62a13.67,13.67,0,0,1-.53,4.44s-0.08.11,0.07,0.11h22.66a0.11,0.11,0,0,0,.12-0.11s0-5.83,0-5.91-0.1-.11-0.26-0.07a35.15,35.15,0,0,1-5.89.35H2059a0.22,0.22,0,0,1-.27-0.23c0-.28,0-3.2,0-3.46a0.26,0.26,0,0,1,.29-0.25h13.71a0.11,0.11,0,0,0,.13-0.13v-5.49A0.12,0.12,0,0,0,2072.74,1897.52Z" transform="translate(-2007 -1771.33)"/><path class="cls-1" d="M2103.13,1933.95h0l-0.06,0a29.86,29.86,0,0,1-2.72-2.19l-9.25-7.87s0,0,0-.1l7-8.34c0.07-.09.68-0.77,0.81-0.91a4.75,4.75,0,0,1,.45-0.41,0,0,0,0,0,0,0,0.21,0.21,0,0,0-.12,0h-5l0,0-6,7.21c-0.05.07-.05,0.07-0.13,0l-2.5-2.13s0,0,0-.07l5.43-6.47a9.87,9.87,0,0,1,.94-1l0.11-.08a0,0,0,0,0,0,0l-0.06,0h-5l0,0-4.25,5.09a0.06,0.06,0,0,1-.1,0l-3-2.55h-6.66s0,0,0,0l0,0h0l0,0,0.35,0.24c0.85,0.61,2.33,1.82,2.33,1.82l4.27,3.62h0a0.05,0.05,0,0,1,0,.07l-0.19.23-4.77,5.68-1.13,1.22a6,6,0,0,1-.73.71s0,0,0,0h5.15l0,0c0.17-.22,4.45-5.3,4.51-5.37s0.06-.08.16,0l2.45,2.09s0.07,0.06,0,.11-3.94,4.69-5.17,6.18a13.65,13.65,0,0,1-1.39,1.38,0,0,0,0,0,0,.05H2084l0,0,4.24-5.05c0.1-.13.1-0.13,0.25,0l8.09,6.88h6.5a0,0,0,0,0,0,0h0Z" transform="translate(-2007 -1771.33)"/><path class="cls-1" d="M2110.54,1896.23c0-4.7-4.19-8.51-9.36-8.51h-23.26v25.15h5.32v-20.71h17.6a4.09,4.09,0,1,1,0,8.15l-15,0,15.87,12.58h7.72l-10.68-8.15h2.43C2106.35,1904.72,2110.54,1900.93,2110.54,1896.23Z" transform="translate(-2007 -1771.33)"/><path class="cls-1" d="M2125.77,1916c-3.75-1.41-5.8-2-5.8-4.35,0-1.76,2-2.94,4.78-2.82a6.08,6.08,0,0,1,4.95,2.23,11.22,11.22,0,0,1,1.71,3.29h1.19v-16.8H2123v0.82a18.52,18.52,0,0,1,2.22.35,2.18,2.18,0,0,1,1.37,2.23v3.17a4.08,4.08,0,0,1-1,3.05,3.75,3.75,0,0,1-2.56.7,3.38,3.38,0,0,1-3.41-2.12,28.82,28.82,0,0,1-.68-7.52c0-3.53.51-6.46,1.54-7.87a4.82,4.82,0,0,1,4.26-1.88c3.07,0.12,5.29,2.59,6.31,5.88h1.19v-6.7h-7.85c-8.36,0-12.62,5.41-12.62,10.46-0.17,5.05,2,9.75,9.55,10.34-3.58.7-6.82,2.47-7,5.29,0,3.29,2.39,4.23,7.51,6.23,3.58,1.29,6.14,2.23,6.31,4.82,0,2-1.53,3.41-4.78,3.41-2.56,0-6.31-1.06-7.85-7.17h-1.19v8.11h9c5.63,0,10.58-2.47,10.58-6.46S2129.36,1917.41,2125.77,1916Z" transform="translate(-2007 -1771.33)"/><path class="cls-1" d="M2155.92,1897.92c0.38-.66.13-1.28-1.23-1.13,0,0-.51,0-1.47.13,1.51-3.54,2.83-6.53,3.78-8.82,0.33-.77.37-1.34-0.16-1.45s-2.19.68-3.2,0.83a1.14,1.14,0,0,0-.73.58c-1.61,3.36-3,6.55-4.29,9.47-1.59.25-3.46,0.57-5.55,1,1.49-3.49,3-6.93,4.48-10.24,0.73-1.63-1.18-1.78-1.92-.13-1,2.14-2.76,6.16-4.76,10.84-1.47.33-3,.7-4.64,1.13-1.18.31-1.23,0.6-.72,1.24a6.29,6.29,0,0,0,1.13.58c0.69,0.66,1.11,1.45,2.34,1.57-1.1,2.67-2.2,5.43-3.19,8.09-0.63,1.67,1.15,2,1.84.24,1.1-2.84,2.26-5.72,3.46-8.59,1-.21,3.4-0.68,5.63-1.12-1.77,4.4-2.93,7.74-3.37,9.37a0.71,0.71,0,0,0,.13.61c0.6,0.79,1.16.82,1.93,1.8a0.67,0.67,0,0,0,1.14-.25c1.64-4.49,3.32-8.71,4.89-12.49a4,4,0,0,0,2.54-1.36C2155.24,1898.1,2155.61,1898.45,2155.92,1897.92Z" transform="translate(-2007 -1771.33)"/><path class="cls-1" d="M2271.57,1890c-4.59-20.35-47.89-21.64-75.8-6.13v1.71c27.87-13.09,67.42-13,71,5.74,1.21,6.21-2.61,12.67-9.46,16.39v4.86C2265.59,1909.81,2274,1900.91,2271.57,1890Z" transform="translate(-2007 -1771.33)"/><path class="cls-1" d="M2179.21,1912.85a5.77,5.77,0,0,0,2.77-4,4.71,4.71,0,0,0-.27-2.91c-0.15-.33-0.3-0.68-0.45-1-0.24-.49-0.48-1-0.69-1.39l0,0c-0.34-.68-0.71-1.36-1.06-2a24.24,24.24,0,0,1,5.67-9v-2.39a32.69,32.69,0,0,0-7.4,8.06c-1.24-2.32-2.51-4.64-3.82-6.95l-0.09-.16c-0.24-.41-0.48-0.84-0.72-1.28a7.79,7.79,0,0,0-1.08-1.5,5,5,0,0,0-3.8-1.69,5.24,5.24,0,0,0-3.83,1.63,9.35,9.35,0,0,0-1.08,1.5c-0.24.44-.48,0.87-0.72,1.28l-0.09.16c-2.3,4.08-4.55,8.22-6.61,12.3l0,0.05c-0.21.44-.45,0.9-0.69,1.39q-0.22.45-.45,1a5.59,5.59,0,0,0-.36,2.94,5.91,5.91,0,0,0,3.89,4.52,6.68,6.68,0,0,0,2.42.44,7.47,7.47,0,0,0,.78-0.05,8.45,8.45,0,0,0,3-.93,14.93,14.93,0,0,0,3.71-2.83,15.49,15.49,0,0,0,3.71,2.83,8.45,8.45,0,0,0,3,.93l0.19,0c0.05,0.23.09,0.45,0.15,0.68,3.23,12.4,20.45,19.41,46.75,17.08,10.41-.91,24-4,33.49-8.72v-6.74c-8.59,4.68-22.81,8.55-34.65,9.54C2202.48,1927.17,2183.43,1924.92,2179.21,1912.85Zm-0.34-8.54v0c0.24,0.44.45,0.93,0.69,1.36a9.35,9.35,0,0,1,.39.87,4.21,4.21,0,0,1,.21,2.1,3.92,3.92,0,0,1-1.44,2.45l0-.15a16.75,16.75,0,0,1,.09-6.85Zm-13.68-2a4,4,0,0,1-.09-1.66,2.5,2.5,0,0,1,.48-1.14,3.29,3.29,0,0,1,2.63-1.2,3.17,3.17,0,0,1,2.63,1.2,2.5,2.5,0,0,1,.48,1.14,4,4,0,0,1-.09,1.66,13.48,13.48,0,0,1-3,5.06A13.08,13.08,0,0,1,2165.2,1902.32Zm7.69,9.09a13.74,13.74,0,0,1-3.41-2.64,15,15,0,0,0,3.62-6,6.22,6.22,0,0,0,.15-2.31,4.2,4.2,0,0,0-.81-1.85,5.22,5.22,0,0,0-4.22-1.93,5.3,5.3,0,0,0-4.22,1.93,4.2,4.2,0,0,0-.81,1.85,5.15,5.15,0,0,0,.15,2.31,15.39,15.39,0,0,0,3.62,6,13.21,13.21,0,0,1-3.41,2.64,6.28,6.28,0,0,1-2.27.71,5.23,5.23,0,0,1-2.27-.27,3.95,3.95,0,0,1-2.45-5.31,9.35,9.35,0,0,1,.39-0.87c0.21-.44.45-0.9,0.69-1.36l0-.05c2.06-4.06,4.28-8.19,6.58-12.22l0.09-.16,0.72-1.25a5.94,5.94,0,0,1,.84-1.2,3.35,3.35,0,0,1,4.79,0,5.93,5.93,0,0,1,.84,1.2l0.72,1.25,0.09,0.16c1.5,2.67,3,5.38,4.37,8.08a19.66,19.66,0,0,0-1.95,11.92A6.36,6.36,0,0,1,2172.89,1911.41Z" transform="translate(-2007 -1771.33)"/><path class="cls-1" d="M2188.72,1908c0,2.41,1.27,4.51,5,4.84v-18.26h-5V1908Z" transform="translate(-2007 -1771.33)"/><rect class="cls-1" x="181.72" y="116.34" width="5.05" height="4.37"/><path class="cls-1" d="M2204.49,1887.68H2201a1.66,1.66,0,0,0-1.73,1.57v22a1.66,1.66,0,0,0,1.73,1.57h2.22a1.66,1.66,0,0,0,1.73-1.58l-0.14-15.42s9.16,15,9.55,15.61a3.11,3.11,0,0,0,2.72,1.39h3.18a1.66,1.66,0,0,0,1.73-1.57v-19.42h38.41a1.13,1.13,0,0,0,1.18-1.07v-1.59a1.13,1.13,0,0,0-1.19-1.07h-42.08a1.65,1.65,0,0,0-1.73,1.57l0.14,15s-9.07-14.87-9.54-15.63A3.15,3.15,0,0,0,2204.49,1887.68Z" transform="translate(-2007 -1771.33)"/><path class="cls-1" d="M2019.81,1857.38q32.94,11.91,65.74,24a9,9,0,0,0,6.93,0c2.83-1.14,5.85-2.07,8.65-3.23a2.67,2.67,0,0,0,1.69-1.74c0.1-10.46.06-20.93,0-31.39a4.29,4.29,0,0,0-.33-1H2099q-13.57,0-27.15,0c-3.8,0-4.48-.46-4.48-2.94q0-7.18,0-14.36t0-14.36c0-2.48.68-2.93,4.48-2.94q13.57,0,27.15,0h3.51a4.29,4.29,0,0,0,.33-1c0-10.46.05-20.93,0-31.39a2.67,2.67,0,0,0-1.69-1.74c-2.8-1.16-5.83-2.1-8.65-3.23a9,9,0,0,0-6.93,0q-32.82,12-65.74,24c-2.92,1.06-4,2.37-4,4.49s0,4.21,0,6.32c0,0.11,0,.21,0,0.32q0.07,9.77.07,19.55t-0.07,19.55c0,0.11,0,.21,0,0.32,0,2.11,0,4.21,0,6.32S2016.89,1856.32,2019.81,1857.38Z" transform="translate(-2007 -1771.33)"/><path class="cls-1" d="M2165.54,1809.39H2169q13.57,0,27.15,0c3.8,0,4.48.46,4.48,2.94q0,7.18,0,14.36t0,14.36c0,2.48-.68,2.93-4.48,2.94q-13.57,0-27.15,0h-3.51a4.3,4.3,0,0,0-.33,1c0,10.46-.05,20.93,0,31.39a2.67,2.67,0,0,0,1.69,1.74c2.8,1.16,5.83,2.1,8.65,3.23a9,9,0,0,0,6.93,0q32.82-12,65.74-24c2.92-1.06,4-2.37,4-4.49s0-4.21,0-6.32c0-.11,0-0.21,0-0.32q-0.07-9.77-.07-19.55t0.07-19.55c0-.11,0-0.21,0-0.32,0-2.11,0-4.21,0-6.32s-1.08-3.43-4-4.49q-32.94-11.91-65.74-24a9,9,0,0,0-6.93,0c-2.83,1.14-5.85,2.07-8.65,3.23a2.67,2.67,0,0,0-1.69,1.74c-0.1,10.46-.06,20.93,0,31.39A4.3,4.3,0,0,0,2165.54,1809.39Z" transform="translate(-2007 -1771.33)"/><path class="cls-1" d="M2168.23,1824.9c-1-15.44-18.61-27.48-37.65-25.82-19.62,1.71-30.83,15.38-30.68,26.21h24.43c0-1.6,0-3.14,0-4.68s0.31-1.67,2.12-1.68h15.11c1.74,0,2.08.27,2.08,1.73q0,6.11,0,12.22c0,1.34-.4,1.67-2,1.67q-7.63,0-15.25,0c-1.66,0-2-.32-2-1.66,0-1.54,0-3.08,0-4.67H2099.8c0.43,13.12,14.28,26.28,34.26,26.25S2169.31,1841.08,2168.23,1824.9Z" transform="translate(-2007 -1771.33)"/></svg>