<svg id="Layer_1" data-name="Layer 1" xmlns="http://www.w3.org/2000/svg" viewBox="0 0 96.15 72"><title>jiji</title><path d="M-2.61,21.6H2.74a18.71,18.71,0,0,0-.26,3c0,4,1.65,4.69,5.55,4.69h39.1V35H7.5C0.69,35-3.07,32.3-3.07,25.89A21.64,21.64,0,0,1-2.61,21.6Z" transform="translate(3.07 -21.6)" style="fill:red"/><path d="M58.36,28.14a4,4,0,1,1-4,4A4,4,0,0,1,58.36,28.14Z" transform="translate(3.07 -21.6)" style="fill:red"/><rect x="20.52" y="49.66" width="35.01" height="5.68" transform="translate(-22.91 20.67) rotate(-45)" style="fill:red"/><path d="M47.79,93.14V87.79a18.71,18.71,0,0,0,3,.26c4,0,4.69-1.65,4.69-5.55V43.4H61.2V83c0,6.8-2.71,10.57-9.12,10.57A21.63,21.63,0,0,1,47.79,93.14Z" transform="translate(3.07 -21.6)" style="fill:red"/><rect x="75.85" y="34.99" width="5.68" height="35.01" transform="translate(-11 49.42) rotate(-45)" style="fill:red"/></svg>