<svg id="Layer_1" data-name="Layer 1" xmlns="http://www.w3.org/2000/svg" viewBox="0 0 792 278.6"><defs><style>.cls-1{fill:red;}</style></defs><title>kylie</title><path class="cls-1" d="M768.92,158.53C787.79,175.52,797,196.1,797,222c0.19,21.52-5.85,47.19-20,84.56l12.65,71.54,30.2,15.86L801.76,309c18.69-39.83,26.43-67.38,26.24-93.43-0.19-27.37-9.25-53.61-24.73-71.54Z" transform="translate(-36 -144)"/><path class="cls-1" d="M382,253.66c-1.7,20-6.42,36.62-15.67,54H388.4c10.95-13,16.8-28.5,18.88-45.87l14.16-112.87h-30.2Z" transform="translate(-36 -144)"/><polygon class="cls-1" points="442.81 127.41 419.03 124.76 422.61 95.32 446.58 94.38 449.42 71.54 426.01 70.97 429.97 39.83 453.19 39.07 456.4 9.81 402.42 9.81 396.94 41.15 423.18 40.2 423.18 40.58 401.28 48.32 392.04 149.68 439.79 150.81 442.81 127.41"/><polygon class="cls-1" points="326.16 128.92 302.38 129.29 306.15 98.34 330.12 95.13 332.96 71.91 309.74 72.86 313.89 40.77 336.92 39.07 340.32 9.81 286.33 9.81 280.67 43.6 306.53 41.52 306.53 41.9 284.82 50.96 275.39 158.55 323.33 152.7 326.16 128.92"/><polygon class="cls-1" points="178.94 9.81 165.72 183.28 214.61 170.25 217.82 143.26 193.28 147.6 208.38 9.81 178.94 9.81"/><polygon class="cls-1" points="239.52 9.81 227.07 167.42 251.79 162.7 269.72 9.81 239.52 9.81"/><polygon class="cls-1" points="461.87 152.32 483.2 154.21 492.83 57.38 493.2 57.38 499.43 156.28 529.82 160.63 545.87 9.81 520.95 5.85 513.59 126.65 513.21 126.65 507.17 18.31 469.23 18.31 461.87 152.32"/><polygon class="cls-1" points="552.47 164.97 573.8 169.31 583.05 63.8 583.43 63.8 590.03 173.27 620.42 181.39 636.28 9.81 611.17 5.85 604 142.13 603.62 142.13 597.39 18.31 559.64 18.31 552.47 164.97"/><path class="cls-1" d="M149.25,345.21l24.92-9.06,28.31-182.33H172.09L155.86,294.43h-0.38c-0.94-9.44-1.89-20.39-1.32-31l5.1-95.7-28.31,1.32-2.27,68.52c-0.76,21.9-.76,44.92,4.15,66.63l22.08-6.61Z" transform="translate(-36 -144)"/><polygon class="cls-1" points="710.83 213.85 734.62 224.8 749.53 38.69 720.65 36.62 710.83 213.85"/><polygon class="cls-1" points="693.28 175.54 669.88 165.91 673.27 127.22 697.05 130.8 699.7 99.47 676.48 95.32 680.26 53.79 703.47 54.55 706.49 13.02 652.51 13.02 647.23 52.66 673.08 53.6 673.08 54.17 651.38 62.29 643.26 188.56 690.64 205.36 693.28 175.54"/><polygon class="cls-1" points="0 254.81 24.35 241.41 29.63 164.59 30.01 164.59 46.24 230.09 77.2 215.93 56.06 153.08 86.45 9.81 55.12 9.81 30.2 160.81 29.82 160.81 40.77 27.93 11.32 29.63 0 254.81"/><path class="cls-1" d="M261.56,417.31l-2.83-36.05-24,32.47a5.38,5.38,0,0,1-4,2.27H202.1a2.5,2.5,0,1,0,0,5h30.58a5.4,5.4,0,0,0,4.53-2.32L248,405.06c0.38,2.83,1.7,3.94,4.72,3.94h3l0.57,9c0.19,1.7,1.13,2.79,2.83,2.79S261.75,419,261.56,417.31ZM249.1,404l5.66-7.55,0.38,7.55h-6Z" transform="translate(-36 -144)"/><path class="cls-1" d="M147.74,413.16a4,4,0,0,1-3.59,2.08H38.64a2.64,2.64,0,0,0,0,5.29H147a4,4,0,0,0,3.59-2.08l14.35-23.59L177,403a3.4,3.4,0,0,0,3.78.38l17.37-8.12-10.38,21.14a2.55,2.55,0,0,0,1.13,3.59,2.62,2.62,0,0,0,3.59-1.32l17-34.54-27.94,13a4,4,0,0,1-4.34-.38l-13.78-9.44Z" transform="translate(-36 -144)"/><path class="cls-1" d="M394.06,417.31l-2.83-36.05-24,32.47a5.38,5.38,0,0,1-4,2.27H334.6a2.5,2.5,0,1,0,0,5h30.58a5.4,5.4,0,0,0,4.53-2.32l10.76-13.62c0.38,2.83,1.7,3.94,4.72,3.94h3l0.57,9c0.19,1.7,1.13,2.79,2.83,2.79S394.25,419,394.06,417.31ZM381.6,404l5.66-7.55,0.38,7.55h-6Z" transform="translate(-36 -144)"/><path class="cls-1" d="M320.26,407.5h5.29l-3.78,6.61a1.91,1.91,0,0,1-1.7,1.13H306.48l13.21-22.46a2.72,2.72,0,0,1,2.45-1.51h14.91a2.64,2.64,0,1,0,0-5.29h-16.8a4.63,4.63,0,0,0-4.34,2.45l-14.53,24.92c-0.76,1.51-1.7,1.89-3.4,1.89H269.11a2.64,2.64,0,1,0,0,5.29H322a3.71,3.71,0,0,0,3.21-1.7l7-12.08c1.32-2.27.19-4.53-2.27-4.53h-9.63A2.64,2.64,0,1,0,320.26,407.5Z" transform="translate(-36 -144)"/><path class="cls-1" d="M426.71,415.23H401a2.64,2.64,0,1,0,0,5.29h25.67A2.64,2.64,0,0,0,426.71,415.23Z" transform="translate(-36 -144)"/><path class="cls-1" d="M507.88,420.52a3.76,3.76,0,0,0,3.4-2.08l17.18-29.82a2.71,2.71,0,0,0-.94-3.78,3,3,0,0,0-3.78,1.51l-15.48,26.8a3.71,3.71,0,0,1-3.59,2.08H446.15l24-24.16c2.08-2.08.94-5.1-1.7-5.1H442.76a2.64,2.64,0,1,0,0,5.29H462.2l-29.26,29.26h74.93Z" transform="translate(-36 -144)"/><path class="cls-1" d="M593.95,422.6l18.69-33.41c0.94-1.7.94-3.4-.76-4.34-1.51-.76-3,0-4,1.89l-13,23.41-10.57-27.56-17.55,30.58a4,4,0,0,1-3.59,2.08H518.07a2.64,2.64,0,1,0,0,5.29h47.57a4.45,4.45,0,0,0,4-2.08l13.78-23.59Z" transform="translate(-36 -144)"/><path class="cls-1" d="M642.27,415.23H605.46a2.64,2.64,0,1,0,0,5.29h36.81A2.64,2.64,0,1,0,642.27,415.23Z" transform="translate(-36 -144)"/><path class="cls-1" d="M652.84,420.52h164.4a2.64,2.64,0,1,0,0-5.29H656.61l7.74-12.46c0.76,2.83,2.45,3.4,4.72,3.4H677a2.64,2.64,0,1,0,0-5.29H665.67l4.72-8.12a3.24,3.24,0,0,1,3-1.51h12.84a2.64,2.64,0,0,0,0-5.29h-15.1a3.94,3.94,0,0,0-4,2.27l-17,27.56C648.68,418.25,650,420.52,652.84,420.52Z" transform="translate(-36 -144)"/></svg>