<?xml version="1.0" encoding="utf-8"?>
<!-- Generator: Adobe Illustrator 19.2.1, SVG Export Plug-In . SVG Version: 6.00 Build 0)  -->
<svg version="1.1" id="Layer_1" xmlns="http://www.w3.org/2000/svg" xmlns:xlink="http://www.w3.org/1999/xlink" x="0px" y="0px"
	 viewBox="0 0 819 297" style="enable-background:new 0 0 819 297;" xml:space="preserve">
<style type="text/css">
	.st0{fill:#FF0000;}
</style>
<g>
	<path class="st0" d="M299.6,48.7c-13.7,0-16.9,7.5-19.1,13.4c-4.8,13.7-36.6,114.7-37,122.8c-0.4,8.4,5.2,12.8,15.5,12.8
		c14.7,0,18.9-10.6,25-30.2c3.7-11.8,20.5-69.5,24.3-82.6c5.3-17.1,5.7-19,5.8-22.1C314.6,54.4,309.9,48.7,299.6,48.7"/>
	<path class="st0" d="M740,50.9l-14.1,49.9H780l-10.4,37.4h-54.5l-15.7,56.1h62.3L751,232.9H634.7l62.3-220h110.6l-10.7,38
		C797,50.9,740,50.9,740,50.9z M558.9,236.4c-35.2,0-65.7-12.5-62.9-48.3c0.9-10.3,3.4-22.4,10.2-46.4l37.3-129h53L552.1,170
		c-0.7,1.9-2.3,7.5-2.5,12.2c-0.5,9,5.9,13.1,15.5,13.1c15.3,0,19.7-13.1,23.5-25.2l44.4-157.4h53L641.2,170
		C631.6,203.6,619,236.4,558.9,236.4 M419.1,232.9l7.3-21.1h-1.2c-10,12.8-20.9,24.9-47.1,24.9c-23.1,0-38-12.8-36.6-39
		c0.8-14.6,6.8-35.5,10.7-48.9c6.4-21.8,14-48,21.6-73.5c10.7-36.8,19.7-66.7,79.9-66.7c19.3,0,30.4,3.1,37.1,5.6
		c22.6,8.7,28,24.9,27.4,36.2c-0.3,5.9-1.9,11.8-3.4,17.1l-6.5,23.1h-51.1l6.5-22.4c0.4-1.9,0.8-4,0.9-5.9
		c0.6-11.5-8.7-13.1-13.3-13.1c-14.7,0-20.2,10.9-23.6,23.1l-28.7,101c-0.8,3.4-1.6,6.9-1.8,10.3c-0.1,2.8,0,5.9,1.7,8.7
		c2.9,4.7,9.3,6.2,13.7,6.2c15.3,0,19.4-13.4,21.6-20.3c2.2-6.2,4.1-13.4,7.5-24h-21.5l10-35.5h72L470,232.9L419.1,232.9
		L419.1,232.9z M254.2,237.6c-29,0-65.7-8.1-63.5-49.5c0.4-8.4,3.3-20.6,5.2-27.4l24.7-85.1C230.9,39.7,241.2,9.2,302,9.2
		c11.5,0,35.1,1.6,49,11.5c14.4,10.6,15.8,25.2,15.2,36.2c-0.8,14.3-6.5,34-10.6,48.3l-21.3,74.2
		C321.7,222.3,302.8,237.6,254.2,237.6 M138.5,232.9H59.1l21.5-220h51.1l-20.8,175.8h2.5l66.3-175.8h57.3L138.5,232.9z M819,4.2
		H626.5l-30.4,41.3l11.7-41.3h-70.7L519.9,26c-4.8-7.3-12.7-14.6-26.1-19.8C486.6,3.5,474.7,0,453.7,0c-44.8,0-59.3,13.8-81.2,36.5
		c-2.7-8.9-7.2-15.8-16.5-22.6C339.5,1.9,312.7,0.6,302,0.6c-26.1,0-43.8,5.5-56.4,14.3l5-10.6h-76.5l-37.9,56.7h-1.9l7.1-56.7H72.9
		L22.4,60.4L0,291.7h103.9l27.8-36.6c2.9,34.2,36.4,41.3,63.3,41.3c38.5,0,69.7-9.9,87.3-35.3c0.5,23.1,15,34.4,36.7,34.4
		c26.2,0,37.1-12.2,47.1-24.9c-0.1,0.6-6.1,21.2-6.1,21.2h65.5l15.8-20.9c9.5,17.6,32.7,24.3,58.4,24.3c38.7,0,66.4-13.5,83.9-32.1
		l-8,28.7h116.3l65.6-50.2l15.5-55.7h-47.8l51-39l15.1-54.5h-30.7l42.8-32.8L819,4.2z"/>
</g>
</svg>
